<svg width="301" height="301" viewBox="0 0 301 301" fill="none" xmlns="http://www.w3.org/2000/svg">
<path d="M276.101 158.301C276.289 155.986 277.203 154.144 278.844 152.777C280.5 151.396 282.421 150.794 284.606 150.972C286.792 151.149 288.591 152.053 290.003 153.683C291.401 155.297 292.007 157.262 291.819 159.578C291.706 160.967 291.262 162.22 290.487 163.337C289.726 164.456 288.747 165.294 287.551 165.853L286.878 164.443C287.844 164.041 288.639 163.391 289.266 162.495C289.892 161.599 290.251 160.587 290.343 159.458C290.498 157.547 290.008 155.949 288.874 154.662C287.727 153.359 286.263 152.636 284.483 152.492C282.703 152.347 281.142 152.825 279.799 153.925C278.473 155.012 277.732 156.511 277.577 158.421C277.485 159.55 277.676 160.607 278.15 161.593C278.624 162.578 279.304 163.347 280.192 163.9L279.323 165.185C278.23 164.469 277.391 163.491 276.807 162.249C276.223 161.007 275.988 159.691 276.101 158.301Z" fill="white"/>
<path d="M274.479 173.289L274.748 171.877L290.367 174.857L290.098 176.269L274.479 173.289Z" fill="white"/>
<path d="M272.302 187.875C271.574 186.494 271.435 185.044 271.883 183.526C272.34 181.981 273.247 180.833 274.604 180.083C275.975 179.338 277.434 179.194 278.98 179.65C280.525 180.107 281.664 181.019 282.396 182.386C283.141 183.758 283.286 185.216 282.829 186.762C282.376 188.294 281.464 189.432 280.093 190.178C278.732 190.941 277.278 191.095 275.733 190.638C274.201 190.185 273.057 189.264 272.302 187.875ZM275.275 181.349C274.247 181.908 273.562 182.766 273.22 183.922C272.879 185.077 272.988 186.17 273.547 187.198C274.134 188.235 274.998 188.922 276.14 189.259C277.296 189.601 278.388 189.492 279.416 188.933C280.459 188.378 281.15 187.523 281.492 186.367C281.834 185.211 281.718 184.117 281.145 183.084C280.586 182.056 279.728 181.371 278.572 181.029C277.43 180.692 276.331 180.798 275.275 181.349Z" fill="white"/>
<path d="M275.267 199.619C274.492 199.288 273.631 199.734 272.683 200.955C272.424 201.302 272.249 201.527 272.157 201.63C272.079 201.739 271.906 201.941 271.637 202.237C271.376 202.552 271.177 202.759 271.04 202.858C270.897 202.971 270.685 203.117 270.403 203.297C270.134 203.482 269.89 203.591 269.671 203.623C269.465 203.662 269.209 203.671 268.902 203.65C268.608 203.635 268.314 203.565 268.021 203.439C267.166 203.074 266.617 202.437 266.374 201.527C266.12 200.645 266.224 199.663 266.686 198.581C267.085 197.646 267.637 196.927 268.342 196.423C269.061 195.924 269.827 195.683 270.641 195.7L270.823 197.104C270.222 197.068 269.665 197.225 269.153 197.575C268.648 197.943 268.253 198.461 267.968 199.129C267.677 199.81 267.573 200.421 267.658 200.963C267.742 201.504 268.051 201.889 268.586 202.117C269.36 202.448 270.221 202.003 271.17 200.782C271.429 200.435 271.597 200.207 271.675 200.098C271.767 199.995 271.943 199.786 272.204 199.471C272.472 199.175 272.678 198.971 272.821 198.858C272.958 198.759 273.161 198.617 273.429 198.431C273.711 198.252 273.955 198.143 274.161 198.105C274.38 198.072 274.637 198.063 274.931 198.078C275.237 198.099 275.538 198.172 275.832 198.297C276.646 198.646 277.19 199.257 277.464 200.132C277.726 201.034 277.649 201.972 277.232 202.947C276.89 203.748 276.407 204.379 275.784 204.839C275.155 205.312 274.458 205.559 273.691 205.579L273.521 204.203C274.616 204.229 275.425 203.627 275.95 202.399C276.207 201.798 276.281 201.237 276.172 200.717C276.062 200.196 275.761 199.831 275.267 199.619Z" fill="white"/>
<path d="M270.687 216.516C269.886 217.932 268.747 218.78 267.269 219.061C265.79 219.375 264.374 219.149 263.022 218.384C262.959 218.348 262.77 218.224 262.456 218.013L267.167 209.692C266.147 209.282 265.16 209.257 264.205 209.617C263.25 209.977 262.483 210.669 261.904 211.693C261.088 213.134 261.05 214.455 261.787 215.657L260.521 216.392C260.074 215.588 259.863 214.709 259.886 213.754C259.915 212.819 260.186 211.897 260.701 210.987C261.546 209.496 262.7 208.548 264.164 208.142C265.629 207.736 267.081 207.941 268.522 208.757C269.95 209.565 270.87 210.696 271.283 212.148C271.708 213.607 271.51 215.063 270.687 216.516ZM269.474 215.829C270.032 214.844 270.21 213.851 270.008 212.853C269.798 211.866 269.256 211.042 268.38 210.379L264.377 217.449C265.467 217.882 266.462 217.937 267.363 217.613C268.291 217.271 268.995 216.676 269.474 215.829Z" fill="white"/>
<path d="M251.561 239.24L256.636 243.595L255.643 244.752L244.072 234.823L245.065 233.666L250.47 238.304L255.859 232.022L250.454 227.384L251.446 226.226L263.018 236.155L262.025 237.312L256.95 232.958L251.561 239.24Z" fill="white"/>
<path d="M232.833 247.602C232.961 246.046 233.622 244.748 234.816 243.709C236.032 242.65 237.413 242.169 238.961 242.266C240.517 242.374 241.825 243.036 242.883 244.251C243.942 245.467 244.412 246.848 244.295 248.394C244.187 249.951 243.526 251.259 242.31 252.318C241.105 253.367 239.725 253.837 238.168 253.73C236.609 253.642 235.301 252.991 234.243 251.775C233.194 250.57 232.724 249.179 232.833 247.602ZM238.846 243.694C237.679 243.613 236.64 243.969 235.731 244.76C234.822 245.552 234.328 246.531 234.247 247.699C234.185 248.889 234.545 249.933 235.327 250.831C236.118 251.74 237.098 252.235 238.265 252.316C239.443 252.408 240.486 252.058 241.395 251.266C242.304 250.475 242.794 249.49 242.865 248.311C242.946 247.143 242.591 246.104 241.799 245.195C241.017 244.297 240.033 243.797 238.846 243.694Z" fill="white"/>
<path d="M221.993 260.445L225.161 265.191L223.965 265.989L217.919 256.931L219.114 256.133L220.058 257.546C220.008 256.007 220.66 254.787 222.013 253.883C223.1 253.158 224.185 252.913 225.268 253.15C226.36 253.399 227.284 254.091 228.042 255.227L231.755 260.788L230.559 261.587L226.847 256.025C226.306 255.216 225.676 254.729 224.955 254.564C224.222 254.408 223.463 254.591 222.678 255.115C221.772 255.72 221.249 256.48 221.109 257.394C220.956 258.317 221.251 259.333 221.993 260.445Z" fill="white"/>
<path d="M214.879 268.091C214.491 267.343 213.543 267.14 212.035 267.48C211.615 267.583 211.336 267.646 211.2 267.667C211.071 267.702 210.808 267.748 210.413 267.806C210.012 267.883 209.726 267.916 209.557 267.906C209.375 267.902 209.119 267.88 208.787 267.839C208.462 267.811 208.204 267.74 208.014 267.626C207.831 267.525 207.627 267.369 207.403 267.158C207.186 266.96 207.004 266.719 206.857 266.435C206.429 265.61 206.411 264.769 206.801 263.913C207.165 263.069 207.87 262.377 208.914 261.836C209.816 261.368 210.7 261.163 211.564 261.222C212.436 261.294 213.18 261.595 213.799 262.125L213.046 263.324C212.605 262.915 212.076 262.683 211.458 262.627C210.834 262.59 210.2 262.739 209.555 263.073C208.898 263.414 208.43 263.821 208.151 264.292C207.872 264.764 207.866 265.258 208.133 265.773C208.521 266.521 209.469 266.725 210.977 266.385C211.398 266.281 211.673 266.212 211.802 266.178C211.938 266.156 212.207 266.107 212.608 266.03C213.004 265.972 213.292 265.945 213.474 265.949C213.643 265.959 213.89 265.978 214.215 266.006C214.547 266.047 214.805 266.118 214.988 266.219C215.178 266.333 215.382 266.489 215.599 266.687C215.823 266.898 216.008 267.146 216.155 267.429C216.563 268.216 216.594 269.034 216.249 269.883C215.879 270.746 215.223 271.421 214.282 271.909C213.508 272.31 212.735 272.49 211.961 272.45C211.175 272.416 210.48 272.163 209.875 271.691L210.618 270.521C211.447 271.236 212.454 271.286 213.64 270.671C214.22 270.371 214.634 269.985 214.88 269.513C215.127 269.042 215.126 268.568 214.879 268.091Z" fill="white"/>
<path d="M200.643 278.191C199.124 278.773 197.706 278.704 196.386 277.981C195.045 277.283 194.096 276.208 193.539 274.758C193.513 274.69 193.446 274.475 193.338 274.112L202.265 270.685C201.739 269.72 200.993 269.073 200.027 268.744C199.061 268.415 198.029 268.462 196.931 268.883C195.385 269.476 194.515 270.471 194.32 271.868L192.876 271.63C193.042 270.726 193.438 269.913 194.063 269.191C194.679 268.487 195.476 267.948 196.452 267.574C198.051 266.96 199.545 266.962 200.934 267.58C202.322 268.198 203.312 269.28 203.906 270.825C204.493 272.357 204.485 273.815 203.88 275.198C203.281 276.595 202.202 277.592 200.643 278.191ZM200.143 276.889C201.201 276.483 201.969 275.831 202.448 274.931C202.914 274.037 203.019 273.055 202.765 271.987L195.18 274.898C195.745 275.925 196.478 276.6 197.38 276.923C198.314 277.249 199.235 277.238 200.143 276.889Z" fill="white"/>
<path d="M167.867 281.544L180.758 279.39L180.987 280.765L168.097 282.919L167.867 281.544Z" fill="white"/>
<path d="M144.422 276.269C146.741 276.403 148.604 277.275 150.009 278.883C151.427 280.507 152.073 282.414 151.946 284.603C151.819 286.792 150.958 288.611 149.361 290.06C147.78 291.496 145.829 292.147 143.51 292.012C142.118 291.932 140.855 291.516 139.72 290.767C138.584 290.032 137.724 289.073 137.138 287.89L138.531 287.185C138.956 288.141 139.623 288.921 140.534 289.527C141.444 290.132 142.465 290.468 143.595 290.533C145.509 290.644 147.096 290.118 148.356 288.955C149.631 287.778 150.321 286.298 150.424 284.515C150.527 282.732 150.014 281.182 148.883 279.865C147.765 278.564 146.25 277.858 144.336 277.747C143.205 277.682 142.153 277.897 141.179 278.393C140.204 278.89 139.451 279.588 138.919 280.488L137.615 279.649C138.305 278.54 139.264 277.679 140.492 277.066C141.72 276.454 143.03 276.188 144.422 276.269Z" fill="white"/>
<path d="M129.14 274.933L130.557 275.175L127.878 290.849L126.46 290.606L129.14 274.933Z" fill="white"/>
<path d="M114.699 273.095C116.063 272.336 117.509 272.164 119.037 272.578C120.592 272.999 121.76 273.88 122.541 275.22C123.317 276.574 123.495 278.029 123.073 279.584C122.652 281.14 121.766 282.299 120.416 283.062C119.062 283.838 117.607 284.016 116.052 283.594C114.51 283.176 113.351 282.29 112.574 280.936C111.78 279.593 111.594 278.143 112.015 276.587C112.433 275.045 113.327 273.881 114.699 273.095ZM121.291 275.919C120.708 274.904 119.835 274.238 118.672 273.923C117.509 273.608 116.419 273.741 115.404 274.324C114.381 274.934 113.714 275.814 113.403 276.963C113.087 278.127 113.221 279.216 113.803 280.231C114.382 281.261 115.253 281.933 116.416 282.248C117.58 282.564 118.671 282.423 119.69 281.827C120.705 281.244 121.371 280.372 121.686 279.208C121.997 278.059 121.865 276.963 121.291 275.919Z" fill="white"/>
<path d="M97.9753 271.162L95.7722 276.427L94.4461 275.871L98.6506 265.825L99.9767 266.38L99.3208 267.947C100.575 267.056 101.953 266.924 103.453 267.552C104.659 268.057 105.462 268.826 105.864 269.86C106.26 270.907 106.194 272.061 105.667 273.32L103.086 279.488L101.76 278.933L104.341 272.765C104.717 271.867 104.774 271.072 104.513 270.381C104.238 269.683 103.665 269.152 102.794 268.788C101.79 268.367 100.868 268.351 100.028 268.739C99.1754 269.122 98.4911 269.93 97.9753 271.162Z" fill="white"/>
<path d="M87.6934 269.473C88.1029 268.737 87.7495 267.834 86.6332 266.764C86.3146 266.47 86.1088 266.272 86.0158 266.171C85.9157 266.082 85.7325 265.888 85.4662 265.591C85.1801 265.298 84.9947 265.079 84.9102 264.932C84.813 264.778 84.6897 264.552 84.5404 264.253C84.3841 263.966 84.301 263.712 84.2913 263.491C84.2745 263.282 84.2923 263.026 84.3447 262.723C84.39 262.432 84.4904 262.148 84.6457 261.868C85.0975 261.056 85.7882 260.577 86.7177 260.429C87.6218 260.268 88.5878 260.473 89.6156 261.045C90.5038 261.539 91.162 262.163 91.5902 262.917C92.0114 263.683 92.1717 264.47 92.071 265.278L90.6557 265.313C90.7534 264.719 90.6551 264.149 90.3607 263.603C90.0465 263.063 89.5722 262.616 88.9378 262.263C88.2907 261.903 87.6935 261.737 87.1463 261.764C86.599 261.792 86.1842 262.06 85.9018 262.568C85.4923 263.304 85.8458 264.207 86.962 265.276C87.2806 265.57 87.4899 265.761 87.59 265.85C87.683 265.952 87.8726 266.149 88.1587 266.441C88.425 266.739 88.6068 266.965 88.704 267.118C88.7886 267.265 88.909 267.482 89.0654 267.768C89.2147 268.067 89.2977 268.321 89.3145 268.53C89.3242 268.752 89.3064 269.007 89.2611 269.298C89.2087 269.601 89.1049 269.892 88.9495 270.172C88.5189 270.946 87.8543 271.423 86.9558 271.605C86.0319 271.772 85.1068 271.598 84.1806 271.082C83.4193 270.658 82.8421 270.113 82.449 269.445C82.0433 268.771 81.8703 268.051 81.93 267.287L83.3157 267.261C83.1768 268.347 83.691 269.214 84.8583 269.864C85.4293 270.182 85.9793 270.313 86.5082 270.259C87.0371 270.204 87.4322 269.942 87.6934 269.473Z" fill="white"/>
<path d="M71.447 263.222C70.1214 262.279 69.3944 261.059 69.266 259.56C69.1055 258.056 69.4753 256.671 70.3754 255.405C70.4174 255.345 70.5597 255.17 70.802 254.879L78.5956 260.42C79.1081 259.448 79.2341 258.468 78.9736 257.482C78.713 256.495 78.1034 255.66 77.1447 254.979C75.7955 254.02 74.4853 253.845 73.214 254.456L72.6133 253.12C73.4581 252.759 74.3541 252.639 75.3014 252.76C76.2283 252.884 77.1179 253.249 77.97 253.855C79.3666 254.848 80.1916 256.094 80.4449 257.592C80.6982 259.091 80.3454 260.515 79.3864 261.864C78.4358 263.201 77.2173 264.001 75.7309 264.263C74.236 264.536 72.808 264.189 71.447 263.222ZM72.2545 262.085C73.1777 262.742 74.1464 263.02 75.1606 262.922C76.163 262.815 77.0388 262.36 77.788 261.556L71.1662 256.849C70.6234 257.888 70.4671 258.873 70.6971 259.802C70.9424 260.761 71.4615 261.522 72.2545 262.085Z" fill="white"/>
<path d="M50.8923 241.957L46.0455 246.564L44.9952 245.458L56.0466 234.954L57.0969 236.059L51.9343 240.966L57.6359 246.966L62.7984 242.059L63.8487 243.164L52.7974 253.669L51.7471 252.564L56.5939 247.957L50.8923 241.957Z" fill="white"/>
<path d="M44.5798 222.63C46.1152 222.911 47.3413 223.696 48.2582 224.986C49.192 226.3 49.5347 227.722 49.2863 229.253C49.0262 230.792 48.2392 232.028 46.9255 232.962C45.6118 233.896 44.1915 234.229 42.6645 233.96C41.1257 233.7 39.8894 232.913 38.9557 231.599C38.0304 230.297 37.6978 228.877 37.958 227.338C38.1979 225.795 38.9747 224.557 40.2884 223.623C41.5903 222.698 43.0208 222.367 44.5798 222.63ZM47.8767 228.999C48.0718 227.845 47.8203 226.776 47.1221 225.794C46.4239 224.812 45.4977 224.223 44.3436 224.028C43.1658 223.849 42.0917 224.105 41.1212 224.795C40.1389 225.494 39.5502 226.42 39.355 227.574C39.1481 228.737 39.3937 229.809 40.0919 230.792C40.7901 231.774 41.7221 232.359 42.8881 232.545C44.0422 232.74 45.1104 232.489 46.0927 231.791C47.0632 231.101 47.6579 230.17 47.8767 228.999Z" fill="white"/>
<path d="M32.8501 210.472L27.8032 213.136L27.1323 211.864L36.7637 206.781L37.4346 208.052L35.9321 208.845C37.4674 208.954 38.6146 209.728 39.3736 211.166C39.9835 212.322 40.115 213.427 39.7678 214.48C39.4079 215.541 38.6243 216.389 37.4172 217.026L31.5035 220.148L30.8326 218.877L36.7463 215.755C37.6067 215.301 38.1558 214.724 38.3938 214.023C38.625 213.31 38.5203 212.536 38.0798 211.701C37.5715 210.738 36.8699 210.14 35.9749 209.906C35.0731 209.66 34.0315 209.848 32.8501 210.472Z" fill="white"/>
<path d="M25.9517 202.601C26.7357 202.293 27.037 201.371 26.8557 199.836C26.7965 199.407 26.7633 199.123 26.7561 198.986C26.7354 198.853 26.7169 198.588 26.7007 198.188C26.6656 197.781 26.6621 197.494 26.6902 197.327C26.7129 197.146 26.7618 196.893 26.8367 196.567C26.8981 196.247 26.9955 195.998 27.1288 195.821C27.2486 195.649 27.4251 195.463 27.6583 195.262C27.878 195.067 28.1365 194.911 28.4339 194.794C29.299 194.454 30.1372 194.523 30.9484 195C31.7489 195.45 32.3641 196.223 32.7937 197.318C33.165 198.264 33.2763 199.164 33.1278 200.018C32.9658 200.877 32.589 201.587 31.9975 202.146L30.8828 201.274C31.3357 200.877 31.6222 200.375 31.7421 199.766C31.8433 199.15 31.7612 198.503 31.496 197.827C31.2255 197.138 30.8702 196.63 30.4302 196.303C29.9901 195.977 29.4997 195.92 28.959 196.132C28.175 196.44 27.8737 197.361 28.055 198.897C28.1142 199.326 28.1542 199.607 28.1749 199.739C28.1821 199.877 28.2032 200.149 28.2383 200.557C28.2545 200.956 28.2512 201.246 28.2285 201.426C28.2004 201.593 28.1557 201.837 28.0942 202.157C28.0193 202.483 27.9219 202.732 27.8022 202.904C27.6689 203.081 27.4924 203.267 27.2727 203.463C27.0395 203.663 26.7742 203.822 26.4768 203.939C25.6522 204.263 24.8355 204.209 24.0267 203.777C23.2073 203.319 22.604 202.596 22.2168 201.61C21.8986 200.799 21.8 200.01 21.9209 199.245C22.0366 198.467 22.3605 197.801 22.8927 197.249L23.9791 198.11C23.1814 198.86 23.0265 199.857 23.5145 201.1C23.7532 201.709 24.094 202.16 24.537 202.454C24.98 202.748 25.4515 202.797 25.9517 202.601Z" fill="white"/>
<path d="M17.4247 187.625C16.9993 186.056 17.2131 184.651 18.0658 183.412C18.897 182.149 20.0624 181.314 21.5621 180.907C21.6322 180.888 21.8532 180.843 22.2252 180.773L24.7259 190.002C25.7391 189.577 26.4585 188.9 26.8842 187.973C27.3098 187.045 27.3688 186.013 27.0612 184.878C26.6282 183.28 25.7269 182.313 24.3571 181.978L24.7415 180.565C25.6236 180.822 26.3921 181.298 27.0468 181.993C27.6837 182.678 28.1389 183.525 28.4124 184.534C28.8605 186.188 28.7065 187.674 27.9504 188.993C27.1942 190.311 26.0173 191.187 24.4195 191.62C22.8358 192.049 21.3867 191.892 20.0723 191.15C18.744 190.412 17.8614 189.237 17.4247 187.625ZM18.7702 187.261C19.0664 188.354 19.6375 189.185 20.4835 189.753C21.3256 190.307 22.2913 190.511 23.3805 190.367L21.2557 182.525C20.1762 182.983 19.4301 183.644 19.0173 184.508C18.5981 185.404 18.5157 186.322 18.7702 187.261Z" fill="white"/>
<path d="M17.3711 154.457L18.1772 167.501L16.7859 167.587L15.9797 154.543L17.3711 154.457Z" fill="white"/>
<path d="M24.8875 132.101C24.5223 134.396 23.4693 136.162 21.7284 137.399C19.971 138.649 18.0095 139.101 15.8441 138.756C13.6787 138.412 11.9546 137.372 10.6719 135.639C9.40119 133.922 8.94844 131.917 9.31362 129.622C9.53273 128.245 10.0717 127.03 10.9306 125.976C11.7751 124.919 12.8152 124.158 14.0508 123.693L14.613 125.15C13.6198 125.477 12.7766 126.064 12.0833 126.909C11.39 127.754 10.9544 128.736 10.7764 129.855C10.4751 131.748 10.8403 133.379 11.8721 134.749C12.916 136.136 14.3199 136.97 16.0837 137.25C17.8476 137.531 19.4409 137.175 20.8637 136.181C22.2698 135.199 23.1235 133.762 23.4247 131.869C23.6028 130.75 23.4935 129.681 23.0969 128.662C22.7003 127.643 22.0808 126.824 21.2383 126.205L22.2034 124.991C23.2382 125.788 23.999 126.828 24.4858 128.112C24.9727 129.395 25.1066 130.725 24.8875 132.101Z" fill="white"/>
<path d="M27.6921 117.122L27.3109 118.508L11.9798 114.29L12.3611 112.904L27.6921 117.122Z" fill="white"/>
<path d="M30.9668 102.857C31.583 104.291 31.6075 105.747 31.0404 107.225C30.463 108.73 29.4681 109.802 28.056 110.442C26.6303 111.077 25.165 111.106 23.6603 110.528C22.1555 109.951 21.0924 108.952 20.471 107.531C19.8361 106.105 19.8074 104.64 20.3849 103.135C20.9572 101.644 21.9562 100.581 23.3819 99.9457C24.7992 99.2921 26.2603 99.2541 27.7651 99.8317C29.2563 100.404 30.3236 101.413 30.9668 102.857ZM27.4874 109.128C28.5566 108.651 29.3072 107.851 29.739 106.726C30.1708 105.6 30.1486 104.503 29.6724 103.434C29.1691 102.354 28.3617 101.601 27.25 101.174C26.1248 100.742 25.0276 100.764 23.9583 101.24C22.8755 101.711 22.1181 102.509 21.6863 103.634C21.2545 104.76 21.2835 105.86 21.7732 106.934C22.2494 108.004 23.0501 108.754 24.1753 109.186C25.287 109.613 26.391 109.593 27.4874 109.128Z" fill="white"/>
<path d="M29.0516 90.6247C29.7964 91.0178 30.6912 90.6445 31.736 89.5047C32.0224 89.1798 32.2154 88.9696 32.3149 88.8744C32.4016 88.7724 32.5908 88.5849 32.8826 88.312C33.1683 88.0195 33.3836 87.8293 33.5284 87.7416C33.68 87.641 33.9036 87.5127 34.1993 87.3568C34.4822 87.1942 34.7342 87.1055 34.9554 87.0909C35.1637 87.0695 35.42 87.0817 35.7243 87.1273C36.0157 87.1662 36.3027 87.2602 36.5852 87.4094C37.4071 87.8432 37.9021 88.5232 38.0701 89.4493C38.2517 90.3497 38.068 91.3201 37.5191 92.3603C37.0447 93.2593 36.4356 93.9312 35.6919 94.3761C34.9353 94.8141 34.152 94.9918 33.3419 94.909L33.2755 93.4947C33.8712 93.5792 34.4387 93.4683 34.9781 93.1619C35.5113 92.8358 35.9474 92.3517 36.2863 91.7096C36.6319 91.0546 36.7847 90.4538 36.7448 89.9073C36.7048 89.3608 36.428 88.9519 35.9143 88.6808C35.1695 88.2876 34.2747 88.6609 33.2299 89.8007C32.9435 90.1257 32.7569 90.3392 32.6702 90.4412C32.5707 90.5365 32.3781 90.7304 32.0924 91.0229C31.8006 91.2958 31.5789 91.4825 31.4273 91.5831C31.2825 91.6709 31.0686 91.7961 30.7858 91.9588C30.4901 92.1147 30.238 92.2033 30.0297 92.2247C29.8086 92.2393 29.5523 92.2272 29.2608 92.1883C28.9566 92.1426 28.6632 92.0452 28.3806 91.8961C27.5973 91.4826 27.105 90.8287 26.9038 89.9343C26.7161 89.0142 26.8696 88.0855 27.3644 87.1479C27.771 86.3774 28.3035 85.7882 28.962 85.3805C29.6273 84.9599 30.3426 84.771 31.1082 84.8139L31.1655 86.1987C30.0768 86.0838 29.2207 86.6172 28.5972 87.7987C28.2922 88.3766 28.1729 88.9294 28.2393 89.457C28.3057 89.9846 28.5764 90.3739 29.0516 90.6247Z" fill="white"/>
<path d="M34.905 74.2268C35.8178 72.8808 37.0219 72.1271 38.5173 71.9659C40.017 71.7725 41.4098 72.1119 42.6956 72.9842C42.7557 73.0249 42.9338 73.1633 43.23 73.3993L37.8631 81.3133C38.8458 81.8045 39.8277 81.909 40.8086 81.6269C41.7894 81.3447 42.61 80.7169 43.2701 79.7434C44.1993 78.3733 44.3446 77.0594 43.7062 75.8017L45.0282 75.1718C45.4081 76.0086 45.548 76.9019 45.4479 77.8517C45.3438 78.7813 44.9984 79.6787 44.4116 80.544C43.4498 81.9622 42.2228 82.8143 40.7304 83.1004C39.238 83.3865 37.8068 83.0649 36.4369 82.1356C35.0789 81.2145 34.2528 80.0136 33.9585 78.533C33.6522 77.0443 33.9677 75.6089 34.905 74.2268ZM36.0586 75.0094C35.4229 75.9468 35.1655 76.9215 35.2863 77.9334C35.4153 78.9334 35.8896 79.7991 36.7094 80.5307L41.2695 73.8065C40.2184 73.2866 39.2308 73.1518 38.3066 73.4022C37.354 73.6684 36.6047 74.2042 36.0586 75.0094Z" fill="white"/>
<path d="M55.7821 53.0498L51.0713 48.3039L52.1532 47.2297L62.8946 58.0509L61.8126 59.1252L56.7949 54.0701L50.9213 59.902L55.9391 64.9571L54.8571 66.0314L44.1157 55.2101L45.1977 54.1358L49.9086 58.8817L55.7821 53.0498Z" fill="white"/>
<path d="M74.6328 46.5274C74.3861 48.0687 73.6279 49.312 72.3582 50.2571C71.0653 51.2196 69.6511 51.5935 68.1157 51.3788C66.5715 51.1524 65.3183 50.3927 64.356 49.0996C63.3937 47.8066 63.0301 46.3937 63.2651 44.861C63.4915 43.3167 64.2512 42.0633 65.5441 41.1008C66.8254 40.147 68.2381 39.7832 69.7822 40.0096C71.3294 40.2156 72.5841 40.9652 73.5464 42.2582C74.5 43.5397 74.8621 44.9627 74.6328 46.5274ZM68.3387 49.9637C69.4967 50.1334 70.5592 49.8585 71.526 49.1388C72.4928 48.4191 73.0611 47.4801 73.2309 46.3219C73.3833 45.1403 73.1041 44.0719 72.3932 43.1167C71.6736 42.1498 70.7348 41.5815 69.5767 41.4117C68.41 41.2303 67.3432 41.4994 66.3764 42.2191C65.4096 42.9388 64.8456 43.8836 64.6845 45.0535C64.5147 46.2118 64.7896 47.2743 65.5092 48.2412C66.2201 49.1965 67.1632 49.7706 68.3387 49.9637Z" fill="white"/>
<path d="M86.6796 34.3642L83.905 29.3773L85.1612 28.6782L90.4562 38.1952L89.2 38.8943L88.374 37.4096C88.2989 38.9471 87.5507 40.1113 86.1296 40.9022C84.9876 41.5377 83.8863 41.6937 82.8255 41.37C81.7576 41.0337 80.8919 40.2691 80.2282 39.0763L76.9771 33.2329L78.2332 32.5338L81.4844 38.3772C81.9574 39.2274 82.5466 39.7637 83.2519 39.986C83.9699 40.2013 84.7413 40.0795 85.566 39.6205C86.5177 39.0908 87.1004 38.376 87.3142 37.476C87.5406 36.5688 87.3291 35.5316 86.6796 34.3642Z" fill="white"/>
<path d="M94.4694 27.2237C94.7946 28.0006 95.7227 28.2811 97.2537 28.0652C97.6814 27.9964 97.9639 27.9568 98.1013 27.9465C98.233 27.9228 98.4983 27.8984 98.897 27.8732C99.3035 27.8289 99.5906 27.8189 99.7581 27.8432C99.9391 27.8619 100.193 27.9051 100.521 27.9727C100.842 28.0269 101.093 28.1186 101.273 28.2479C101.448 28.3638 101.638 28.5361 101.844 28.7647C102.044 28.98 102.206 29.235 102.329 29.5296C102.688 30.387 102.638 31.2265 102.179 32.0483C101.747 32.8589 100.988 33.4913 99.9035 33.9455C98.9659 34.338 98.0686 34.4696 97.2117 34.3403C96.3491 34.1977 95.6315 33.8369 95.0587 33.2581L95.9063 32.124C96.3125 32.5679 96.8212 32.843 97.4323 32.9492C98.0513 33.0365 98.6956 32.9399 99.3653 32.6595C100.048 32.3735 100.548 32.0069 100.865 31.5595C101.181 31.1122 101.227 30.6206 101.003 30.0848C100.678 29.3079 99.75 29.0273 98.2189 29.2432C97.7912 29.3121 97.5115 29.3583 97.3798 29.382C97.2424 29.3923 96.9704 29.4196 96.5639 29.4638C96.1652 29.489 95.8754 29.4923 95.6944 29.4736C95.5268 29.4493 95.2821 29.4101 94.9603 29.3559C94.633 29.2883 94.3821 29.1965 94.2076 29.0806C94.0276 28.9513 93.8374 28.7791 93.6372 28.5638C93.4313 28.3352 93.2667 28.0735 93.1433 27.7788C92.8014 26.9617 92.8369 26.1439 93.25 25.3256C93.6899 24.496 94.3988 23.8765 95.3766 23.4672C96.1803 23.1307 96.9659 23.0144 97.7334 23.1181C98.5143 23.2162 99.1867 23.5251 99.7505 24.0447L98.9145 25.1503C98.147 24.3696 97.1471 24.2372 95.9148 24.7531C95.312 25.0055 94.8686 25.3564 94.5845 25.8059C94.3003 26.2554 94.262 26.728 94.4694 27.2237Z" fill="white"/>
<path d="M108.894 18.443C110.454 17.982 111.863 18.1636 113.121 18.988C114.402 19.7902 115.264 20.9363 115.704 22.4264C115.724 22.496 115.774 22.716 115.853 23.0863L106.684 25.7969C107.131 26.8001 107.824 27.504 108.761 27.9083C109.698 28.3127 110.731 28.3482 111.859 28.0148C113.446 27.5455 114.392 26.6223 114.697 25.2452L116.118 25.5973C115.881 26.4851 115.422 27.2642 114.742 27.9347C114.072 28.5871 113.236 29.0615 112.233 29.3578C110.59 29.8436 109.101 29.7235 107.766 28.9976C106.431 28.2717 105.529 27.1149 105.059 25.5274C104.594 23.9538 104.718 22.5015 105.43 21.1705C106.138 19.8255 107.293 18.9164 108.894 18.443ZM109.289 19.7799C108.203 20.101 107.385 20.6909 106.837 21.5496C106.302 22.4043 106.119 23.3744 106.288 24.46L114.08 22.1569C113.597 21.0881 112.92 20.3572 112.046 19.9642C111.141 19.5655 110.222 19.5041 109.289 19.7799Z" fill="white"/>
<path d="M142.262 17.5055L129.24 18.6132L129.122 17.2242L142.144 16.1165L142.262 17.5055Z" fill="white"/>
<path d="M165.548 24.5598C163.247 24.238 161.461 23.2184 160.19 21.5011C158.906 19.7674 158.416 17.8147 158.719 15.643C159.021 13.4713 160.026 11.7277 161.734 10.4124C163.426 9.10941 165.422 8.61882 167.723 8.94062C169.104 9.1337 170.329 9.64968 171.4 10.4886C172.473 11.3131 173.254 12.3387 173.743 13.5654L172.297 14.155C171.951 13.1681 171.348 12.3361 170.489 11.6588C169.631 10.9816 168.641 10.5645 167.519 10.4076C165.621 10.1421 163.997 10.5382 162.647 11.5957C161.281 12.6657 160.475 14.0852 160.229 15.8542C159.982 17.6232 160.37 19.2096 161.391 20.6134C162.4 22.0009 163.854 22.8273 165.752 23.0928C166.874 23.2497 167.94 23.1202 168.951 22.7044C169.962 22.2886 170.769 21.6537 171.371 20.7996L172.604 21.7417C171.827 22.7914 170.802 23.5718 169.529 24.0828C168.255 24.5939 166.928 24.7529 165.548 24.5598Z" fill="white"/>
<path d="M180.655 27.1056L179.262 26.7507L183.187 11.3421L184.58 11.697L180.655 27.1056Z" fill="white"/>
<path d="M194.242 29.8461C192.822 30.4943 191.367 30.5515 189.877 30.0177C188.359 29.4741 187.265 28.5036 186.593 27.1061C185.926 25.6949 185.864 24.2306 186.408 22.7131C186.951 21.1957 187.926 20.1104 189.332 19.4572C190.743 18.7904 192.208 18.7288 193.725 19.2724C195.229 19.8111 196.314 20.786 196.981 22.1972C197.666 23.5996 197.737 25.0595 197.194 26.577C196.655 28.0808 195.671 29.1705 194.242 29.8461ZM187.895 26.508C188.395 27.5664 189.212 28.2989 190.347 28.7053C191.481 29.1118 192.578 29.065 193.636 28.5649C194.704 28.0374 195.439 27.2132 195.841 26.0922C196.247 24.9575 196.2 23.861 195.7 22.8026C195.205 21.7305 194.39 20.9913 193.255 20.5848C192.12 20.1783 191.021 20.232 189.958 20.7458C188.9 21.2459 188.168 22.0633 187.761 23.1979C187.36 24.319 187.404 25.4223 187.895 26.508Z" fill="white"/>
<path d="M206.606 27.7135C206.23 28.467 206.623 29.3534 207.786 30.3727C208.117 30.6519 208.331 30.8402 208.429 30.9376C208.533 31.022 208.724 31.207 209.003 31.4927C209.302 31.7719 209.497 31.983 209.588 32.1258C209.692 32.2752 209.825 32.4959 209.988 32.7882C210.157 33.0674 210.251 33.3174 210.27 33.5382C210.296 33.746 210.29 34.0025 210.251 34.3078C210.219 34.6 210.131 34.889 209.988 35.1748C209.573 36.0062 208.904 36.5161 207.982 36.7047C207.086 36.9062 206.112 36.744 205.06 36.2182C204.151 35.7638 203.465 35.1697 203.004 34.436C202.549 33.6892 202.354 32.9099 202.419 32.0981L203.831 32.0004C203.76 32.5979 203.884 33.1629 204.202 33.6953C204.54 34.2213 205.033 34.6466 205.683 34.9712C206.345 35.3022 206.949 35.4417 207.495 35.3897C208.04 35.3376 208.443 35.0518 208.702 34.5322C209.079 33.7787 208.686 32.8923 207.523 31.873C207.192 31.5938 206.974 31.412 206.87 31.3276C206.773 31.2302 206.575 31.0419 206.276 30.7627C205.997 30.477 205.805 30.2595 205.701 30.1101C205.61 29.9673 205.48 29.7562 205.311 29.477C205.149 29.1848 205.055 28.9348 205.028 28.727C205.009 28.5062 205.015 28.2497 205.048 27.9574C205.087 27.6522 205.177 27.3567 205.32 27.0709C205.716 26.2785 206.359 25.7718 207.248 25.5508C208.164 25.3428 209.096 25.4757 210.044 25.9496C210.823 26.3391 211.424 26.8585 211.847 27.5078C212.282 28.1637 212.487 28.8748 212.461 29.6411L211.078 29.7291C211.168 28.638 210.616 27.7939 209.421 27.1966C208.837 26.9045 208.281 26.7975 207.755 26.8755C207.229 26.9536 206.846 27.2329 206.606 27.7135Z" fill="white"/>
<path d="M223.182 33.2305C224.548 34.1137 225.328 35.3012 225.522 36.7929C225.748 38.2881 225.44 39.6882 224.596 40.993C224.557 41.054 224.422 41.2351 224.193 41.5364L216.163 36.3437C215.694 37.3371 215.611 38.3211 215.915 39.2957C216.218 40.2703 216.864 41.0769 217.852 41.7157C219.242 42.6146 220.559 42.7312 221.802 42.0653L222.46 43.3732C221.632 43.7715 220.742 43.931 219.791 43.8516C218.859 43.768 217.955 43.4423 217.077 42.8745C215.638 41.944 214.759 40.7358 214.44 39.2498C214.121 37.7639 214.411 36.3259 215.31 34.9357C216.201 33.5577 217.383 32.7054 218.857 32.3786C220.338 32.0397 221.78 32.3237 223.182 33.2305ZM222.425 34.4012C221.474 33.7861 220.494 33.5501 219.485 33.6931C218.488 33.844 217.634 34.3373 216.92 35.173L223.742 39.585C224.239 38.5227 224.352 37.5323 224.081 36.6136C223.794 35.667 223.242 34.9295 222.425 34.4012Z" fill="white"/>
<path d="M244.87 53.6903L249.511 48.8764L250.609 49.9349L240.026 60.9111L238.928 59.8526L243.872 54.7252L237.914 48.9793L232.971 54.1067L231.873 53.0483L242.456 42.072L243.554 43.1305L238.912 47.9444L244.87 53.6903Z" fill="white"/>
<path d="M251.838 72.4466C250.291 72.2337 249.032 71.5029 248.06 70.2541C247.069 68.9824 246.665 67.5765 246.846 66.0365C247.038 64.4876 247.77 63.2179 249.042 62.2273C250.313 61.2368 251.718 60.8422 253.255 61.0437C254.804 61.2362 256.073 61.9683 257.064 63.24C258.045 64.5002 258.439 65.9048 258.247 67.4537C258.075 69.0052 257.353 70.2762 256.081 71.2667C254.821 72.2483 253.407 72.6416 251.838 72.4466ZM248.265 66.2285C248.121 67.3902 248.419 68.4465 249.159 69.3974C249.9 70.3483 250.851 70.8959 252.012 71.0403C253.197 71.1669 254.259 70.8643 255.198 70.1325C256.149 69.3918 256.696 68.4406 256.841 67.2789C256.997 66.1083 256.704 65.0476 255.964 64.0967C255.223 63.1457 254.267 62.6026 253.094 62.4671C251.932 62.3227 250.876 62.6209 249.925 63.3615C248.986 64.0933 248.432 65.0489 248.265 66.2285Z" fill="white"/>
<path d="M264.243 84.2267L269.167 81.3418L269.894 82.5823L260.497 88.0877L259.77 86.8472L261.236 85.9884C259.698 85.9473 258.517 85.2251 257.695 83.8217C257.035 82.694 256.855 81.5963 257.155 80.5284C257.467 79.4533 258.213 78.5707 259.39 77.8807L265.16 74.5004L265.887 75.7409L260.117 79.1212C259.278 79.613 258.754 80.214 258.548 80.9241C258.348 81.6468 258.487 82.4154 258.964 83.2298C259.515 84.1696 260.242 84.7364 261.147 84.9302C262.058 85.1365 263.091 84.902 264.243 84.2267Z" fill="white"/>
<path d="M271.53 91.8257C270.76 92.1682 270.5 93.1025 270.75 94.6284C270.829 95.0545 270.875 95.336 270.888 95.4732C270.915 95.6044 270.945 95.869 270.979 96.2671C271.032 96.6725 271.049 96.9593 271.028 97.1274C271.014 97.3088 270.976 97.5639 270.916 97.8927C270.869 98.2157 270.783 98.4686 270.657 98.6515C270.545 98.8285 270.378 99.0225 270.154 99.2335C269.943 99.4386 269.692 99.6061 269.4 99.736C268.551 100.114 267.71 100.083 266.879 99.6424C266.059 99.2286 265.409 98.4844 264.931 97.4098C264.518 96.4811 264.366 95.587 264.476 94.7273C264.6 93.8617 264.944 93.1361 265.51 92.5504L266.663 93.3724C266.228 93.7885 265.965 94.3032 265.872 94.9167C265.799 95.5375 265.909 96.1795 266.205 96.8428C266.506 97.5194 266.884 98.0109 267.338 98.3173C267.792 98.6238 268.285 98.6588 268.815 98.4226C269.585 98.0801 269.844 97.1458 269.594 95.6199C269.516 95.1939 269.463 94.9152 269.437 94.784C269.423 94.6469 269.39 94.3756 269.337 93.9702C269.303 93.5721 269.293 93.2824 269.308 93.101C269.328 92.9329 269.362 92.6874 269.409 92.3644C269.469 92.0356 269.555 91.7827 269.667 91.6057C269.793 91.4228 269.961 91.2288 270.171 91.0237C270.395 90.8127 270.653 90.6422 270.945 90.5123C271.754 90.1521 272.572 90.1693 273.4 90.5639C274.239 90.9851 274.874 91.6799 275.305 92.6484C275.659 93.4444 275.793 94.2272 275.707 94.9969C275.626 95.7799 275.332 96.4591 274.825 97.0344L273.701 96.2234C274.465 95.4385 274.575 94.4359 274.032 93.2153C273.766 92.6183 273.405 92.1829 272.949 91.9089C272.494 91.6349 272.02 91.6072 271.53 91.8257Z" fill="white"/>
<path d="M280.672 106.211C281.169 107.759 281.019 109.172 280.223 110.449C279.45 111.749 278.324 112.635 276.844 113.11C276.775 113.132 276.556 113.187 276.188 113.274L273.271 104.168C272.278 104.638 271.59 105.347 271.207 106.293C270.824 107.239 270.812 108.272 271.171 109.392C271.676 110.969 272.62 111.894 274.004 112.167L273.684 113.596C272.791 113.379 272.001 112.938 271.316 112.274C270.648 111.618 270.155 110.793 269.836 109.797C269.314 108.165 269.4 106.674 270.096 105.322C270.791 103.971 271.927 103.043 273.504 102.538C275.066 102.037 276.521 102.128 277.867 102.809C279.228 103.486 280.163 104.62 280.672 106.211ZM279.345 106.636C278.999 105.557 278.391 104.753 277.52 104.224C276.654 103.709 275.68 103.548 274.598 103.742L277.077 111.48C278.134 110.973 278.85 110.279 279.223 109.397C279.601 108.483 279.642 107.562 279.345 106.636Z" fill="white"/>
<path d="M282.28 139.354L280.873 126.361L282.259 126.211L283.666 139.204L282.28 139.354Z" fill="white"/>
</svg>
