<svg width="366" height="90" viewBox="0 0 366 90" fill="none" xmlns="http://www.w3.org/2000/svg">
<g filter="url(#filter0_d_375_3180)">
<path d="M47.95 51.2L47.35 52.05L47.4 50.7L52.25 31.75C48.2833 34.1167 44.1833 36.2667 39.95 38.2C38.8167 38.7333 37.5833 38.9333 36.25 38.8C35.5833 38.7 34.9667 38.4167 34.4 37.95C33.9 37.4167 33.5667 36.8167 33.4 36.15C33.1333 34.8167 33.15 33.55 33.45 32.35C33.6833 31.0833 34.1167 29.9 34.75 28.8C35.0167 29.3 35.3333 29.7833 35.7 30.25C35.2 31.2167 34.8667 32.25 34.7 33.35C34.4667 34.4833 34.5167 35.4833 34.85 36.35C35.2833 37.1833 36 37.6333 37 37.7C38 37.7 39.0167 37.45 40.05 36.95C42.1833 36.0167 44.3 35.05 46.4 34.05L49.5 32.45C49.8333 32.2833 50.1667 32.1167 50.5 31.95C51.2667 31.5833 51.9333 31.2167 52.5 30.85L52.8 29.7L53.25 30.05L53.3 29.7V30.1L54.1 30.7L47.95 51.2ZM73.7238 40.75L74.8738 40.55L74.4238 41.4C73.0905 41.7 71.6238 41.9833 70.0238 42.25C68.4238 42.4833 66.9238 42.6167 65.5238 42.65C64.2238 42.65 62.9572 42.55 61.7238 42.35L61.5738 42.6C61.1072 43.3667 60.5238 43.9833 59.8238 44.45C59.0572 44.95 58.2405 45.2667 57.3738 45.4C56.9405 45.4667 56.4905 45.45 56.0238 45.35C55.7572 45.3167 55.5072 45.2333 55.2738 45.1C55.0072 44.9333 54.7905 44.7167 54.6238 44.45C54.3572 43.8833 54.2572 43.35 54.3238 42.85C54.3905 42.35 54.5405 41.9167 54.7738 41.55C55.2405 40.7167 55.8738 40.05 56.6738 39.55C57.0072 39.3833 57.1905 39.4833 57.2238 39.85C57.2572 40.2167 57.1072 40.7333 56.7738 41.4C56.3072 41.8333 55.9905 42.3333 55.8238 42.9C55.7238 43.1667 55.7072 43.4 55.7738 43.6C55.8072 43.6667 55.8405 43.7333 55.8738 43.8C55.9072 43.8333 55.9738 43.8667 56.0738 43.9C56.2738 44 56.5238 44.05 56.8238 44.05C57.1238 44.05 57.4238 44.0167 57.7238 43.95C58.3572 43.7833 58.9238 43.5 59.4238 43.1C59.8572 42.8 60.2238 42.4333 60.5238 42C60.1572 41.9 59.8238 41.7667 59.5238 41.6L58.6238 41.2C58.4238 41.1667 58.2238 41.0833 58.0238 40.95C57.8238 40.7833 57.7238 40.5833 57.7238 40.35C57.7238 40.0833 57.8072 39.8333 57.9738 39.6C58.1405 39.3667 58.3238 39.2 58.5238 39.1C58.9905 38.9 59.4238 38.8 59.8238 38.8C60.0572 38.8 60.2738 38.8167 60.4738 38.85C60.6738 38.85 60.8905 38.8667 61.1238 38.9C61.3905 38.9667 61.6072 39.1167 61.7738 39.35C61.9738 39.55 62.1072 39.7833 62.1738 40.05C62.2738 40.55 62.2405 41.0167 62.0738 41.45C63.2738 41.65 64.4905 41.75 65.7238 41.75C68.3905 41.75 71.0572 41.4167 73.7238 40.75ZM60.0238 40.7C60.0905 40.7333 60.1572 40.7667 60.2238 40.8C60.4238 40.9 60.6572 41 60.9238 41.1C60.9238 41.0333 60.9238 40.9833 60.9238 40.95C60.9238 40.9167 60.9405 40.8833 60.9738 40.85C61.0405 40.5833 61.0405 40.3667 60.9738 40.2C60.9405 40.1667 60.9238 40.15 60.9238 40.15C60.9238 40.1167 60.9072 40.1 60.8738 40.1C60.8738 40.0667 60.8572 40.05 60.8238 40.05C60.7905 40.0167 60.7405 40 60.6738 40C60.3738 39.9333 60.0572 39.9167 59.7238 39.95C59.4238 39.95 59.1905 40 59.0238 40.1C58.9905 40.1333 58.9572 40.15 58.9238 40.15C58.9238 40.1833 58.9072 40.2 58.8738 40.2L59.0238 40.25C59.1238 40.2833 59.2572 40.35 59.4238 40.45C59.5905 40.5167 59.7405 40.5833 59.8738 40.65C59.9405 40.65 59.9905 40.6667 60.0238 40.7ZM101.273 40.9C101.939 40.8333 102.323 40.8333 102.423 40.9C102.523 40.9333 102.423 41.0333 102.123 41.2C101.856 41.3333 101.489 41.4833 101.023 41.65C98.7893 42.0833 96.5393 42.4667 94.2727 42.8L90.8727 43.4C90.4393 43.4 90.2227 43.2667 90.2227 43C90.256 42.7 90.356 42.3667 90.5227 42C90.6227 41.7667 90.6893 41.5667 90.7227 41.4C90.6893 41.3667 90.656 41.35 90.6227 41.35C90.5893 41.35 90.556 41.35 90.5227 41.35C90.4893 41.35 90.4727 41.35 90.4727 41.35L90.1727 41.45C86.4727 43.0167 82.506 44.2 78.2727 45L76.2727 45.3C76.106 45.3 75.9393 45.3 75.7727 45.3C75.5727 45.3333 75.3893 45.35 75.2227 45.35C75.1227 45.35 74.9727 45.35 74.7727 45.35C74.606 45.3167 74.4227 45.25 74.2227 45.15C74.0227 45.05 73.8727 44.9167 73.7727 44.75C73.6393 44.5167 73.5727 44.25 73.5727 43.95C73.506 43.3167 73.6393 42.6833 73.9727 42.05C74.3393 41.3833 74.4893 40.7 74.4227 40C74.6893 40.0333 74.9393 40.15 75.1727 40.35C75.4393 40.55 75.6727 40.7667 75.8727 41L75.5227 42.3C75.4893 42.4 75.456 42.5 75.4227 42.6C75.156 43.1667 75.056 43.5333 75.1227 43.7C75.1893 43.8333 75.5393 43.9 76.1727 43.9C78.0727 43.7333 80.006 43.4333 81.9727 43C82.3727 42.9333 82.856 42.8333 83.4227 42.7C84.0227 42.5333 84.8727 42.2667 85.9727 41.9C87.106 41.5333 88.6727 40.9833 90.6727 40.25C91.1393 40.15 91.4393 40.2167 91.5727 40.45C91.7393 40.6833 91.7893 40.9833 91.7227 41.35C91.6893 41.7167 91.606 42.05 91.4727 42.35L94.3227 41.95C95.0893 41.85 95.8393 41.75 96.5727 41.65C98.1727 41.45 99.7393 41.2 101.273 40.9ZM134.809 40.9C135.709 40.7667 135.959 40.8833 135.559 41.25C134.026 41.9833 132.109 42.4167 129.809 42.55C127.509 42.65 125.509 42.3333 123.809 41.6C123.609 41.5 123.443 41.3667 123.309 41.2C123.176 41.0333 123.043 40.9 122.909 40.8C122.776 40.7 122.609 40.6833 122.409 40.75L121.809 41.05L119.309 42.2L116.859 43.3C116.826 43.3 116.793 43.3167 116.759 43.35C116.393 43.5833 115.926 43.7333 115.359 43.8C115.059 43.8 114.759 43.7167 114.459 43.55C114.159 43.3833 113.943 43.0833 113.809 42.65C113.809 42.3167 113.859 42.05 113.959 41.85C114.026 41.6167 114.109 41.4333 114.209 41.3C114.243 41.3 114.259 41.2833 114.259 41.25C114.459 40.9167 114.693 40.6 114.959 40.3C114.959 40.3 114.976 40.2833 115.009 40.25C115.609 39.65 116.276 39.1833 117.009 38.85C118.576 38.1167 120.209 37.9833 121.909 38.45C121.476 38.8167 121.076 39.25 120.709 39.75C119.509 39.5167 118.359 39.7 117.259 40.3C116.726 40.5667 116.259 40.9167 115.859 41.35C115.659 41.55 115.476 41.7833 115.309 42.05C115.176 42.2167 115.109 42.35 115.109 42.45H115.159C115.193 42.4833 115.226 42.5167 115.259 42.55C115.293 42.55 115.326 42.5333 115.359 42.5C115.526 42.5333 115.759 42.4833 116.059 42.35C116.159 42.2833 116.276 42.2333 116.409 42.2L121.509 40L121.859 39.9L122.259 39.7C122.759 39.5667 123.193 39.65 123.559 39.95C123.793 40.2167 123.943 40.4 124.009 40.5C124.043 40.5333 124.076 40.5667 124.109 40.6L124.459 40.9C125.759 41.5667 127.426 41.8333 129.459 41.7C131.493 41.5333 133.276 41.2667 134.809 40.9ZM156.088 40.4C156.455 40.3333 156.672 40.3333 156.738 40.4C156.805 40.4333 156.788 40.5167 156.688 40.65C156.588 40.75 156.455 40.8667 156.288 41C156.188 41.0667 156.105 41.1333 156.038 41.2C154.638 41.4333 153.122 41.7667 151.488 42.2C149.888 42.6 148.405 43.0333 147.038 43.5C146.605 43.6333 146.172 43.7833 145.738 43.95C144.838 44.1833 143.972 44.4833 143.138 44.85C142.505 45.1167 141.838 45.35 141.138 45.55C140.805 45.6833 140.472 45.7833 140.138 45.85C139.938 45.9167 139.755 45.95 139.588 45.95C139.388 45.95 139.155 45.9333 138.888 45.9C138.722 45.8333 138.588 45.7333 138.488 45.6C138.388 45.4667 138.338 45.3167 138.338 45.15C138.338 44.85 138.405 44.55 138.538 44.25C138.638 44.0167 138.755 43.7833 138.888 43.55C139.022 43.35 139.138 43.1333 139.238 42.9C139.272 42.8333 139.305 42.7667 139.338 42.7C139.372 42.6667 139.388 42.6333 139.388 42.6C139.422 42.5667 139.455 42.5167 139.488 42.45C139.488 42.4167 139.488 42.4 139.488 42.4C139.522 42.3667 139.538 42.3167 139.538 42.25C139.538 42.25 139.522 42.25 139.488 42.25C139.488 42.2167 139.488 42.2 139.488 42.2C139.455 42.2 139.422 42.1833 139.388 42.15C139.322 42.1167 139.255 42.1 139.188 42.1C139.122 42.1 139.038 42.1 138.938 42.1H138.238C138.005 42.1 137.755 42.1 137.488 42.1C137.222 42.1333 136.955 42.15 136.688 42.15C136.588 42.15 136.505 42.1333 136.438 42.1C136.238 42.1 136.055 42.0667 135.888 42L135.438 41.85C135.372 41.8167 135.305 41.7833 135.238 41.75C135.172 41.6833 135.105 41.6167 135.038 41.55C134.838 41.3833 134.688 41.2 134.588 41C134.488 40.8333 134.405 40.6333 134.338 40.4L134.238 40C134.172 39.7333 134.155 39.4333 134.188 39.1C134.188 38.7333 134.255 38.45 134.388 38.25C134.922 37.15 135.738 36.4 136.838 36C137.105 35.8667 137.405 35.7833 137.738 35.75C137.905 35.7167 138.088 35.7167 138.288 35.75C138.522 35.7833 138.722 35.8667 138.888 36C139.088 36.1 139.222 36.25 139.288 36.45C139.388 36.65 139.438 36.85 139.438 37.05C139.405 37.2167 139.355 37.3833 139.288 37.55C139.222 37.6833 139.155 37.8167 139.088 37.95C139.055 38.0167 139.022 38.0667 138.988 38.1C138.355 38.9 137.672 39.5667 136.938 40.1C136.838 40.1667 136.755 40.2333 136.688 40.3L136.038 40.8C136.538 40.9667 137.138 41.0167 137.838 40.95C138.072 40.95 138.305 40.95 138.538 40.95H139.138L139.438 41C139.472 41 139.488 41 139.488 41C139.722 41.0667 139.938 41.1333 140.138 41.2C140.338 41.2667 140.488 41.3667 140.588 41.5C140.788 41.8667 140.805 42.25 140.638 42.65C140.605 42.6833 140.572 42.7333 140.538 42.8C140.438 42.9667 140.372 43.1333 140.338 43.3L140.138 43.6C139.872 44 139.655 44.3833 139.488 44.75L139.438 44.9H139.488C139.655 44.9 139.805 44.8833 139.938 44.85L140.938 44.6C141.605 44.4 142.255 44.1667 142.888 43.9L143.388 43.7L143.938 43.55L144.988 43.2L147.038 42.6C149.972 41.6 152.988 40.8667 156.088 40.4ZM135.438 39.15C135.405 39.1833 135.388 39.2167 135.388 39.25C135.388 39.2833 135.388 39.3333 135.388 39.4C135.655 39.2333 135.922 39.0333 136.188 38.8C136.288 38.7333 136.405 38.65 136.538 38.55C136.938 38.25 137.272 37.95 137.538 37.65L137.888 37.2L137.938 37.1H137.838C137.505 37.1667 137.155 37.3 136.788 37.5C136.088 37.9 135.638 38.45 135.438 39.15ZM172.124 40.8C173.158 40.5667 173.574 40.55 173.374 40.75C173.208 40.9167 172.741 41.1833 171.974 41.55C170.841 41.7167 169.224 42.1833 167.124 42.95C165.391 43.55 163.591 44.1 161.724 44.6C159.858 45.1 158.174 45.3333 156.674 45.3C155.174 45.2333 154.091 44.6667 153.424 43.6C152.991 42.6333 152.974 41.6333 153.374 40.6C154.041 39.0333 155.141 37.9667 156.674 37.4C156.941 37.3 157.258 37.25 157.624 37.25C158.024 37.2167 158.391 37.2833 158.724 37.45C159.058 37.5833 159.241 37.85 159.274 38.25C159.274 38.4833 159.208 38.75 159.074 39.05C158.774 39.55 158.308 40.0167 157.674 40.45C156.708 41.15 155.658 41.6667 154.524 42C154.424 43.0333 154.991 43.7333 156.224 44.1C157.524 44.3667 159.158 44.2833 161.124 43.85C163.124 43.3833 165.241 42.8 167.474 42.1C169.041 41.6333 170.591 41.2 172.124 40.8ZM157.624 38.6C156.691 38.6 155.858 39.1667 155.124 40.3C156.224 39.9 157.158 39.3833 157.924 38.75L157.624 38.6ZM208.124 40.9C208.424 40.9667 208.574 41.05 208.574 41.15C208.608 41.2167 208.558 41.3 208.424 41.4C208.291 41.4667 208.124 41.55 207.924 41.65C205.658 42.2833 203.408 42.2 201.174 41.4C201.074 41.3667 200.974 41.3333 200.874 41.3C200.641 41.2 200.408 41.1167 200.174 41.05C199.974 40.9833 199.774 40.9833 199.574 41.05C199.241 41.15 198.924 41.3 198.624 41.5C198.458 41.6 198.291 41.7 198.124 41.8C197.191 42.4333 196.174 43 195.074 43.5C195.008 43.5333 194.941 43.5667 194.874 43.6C194.408 43.8 193.924 43.95 193.424 44.05C193.124 44.1167 192.791 44.1333 192.424 44.1C192.258 44.0667 192.091 44.0167 191.924 43.95C191.758 43.85 191.608 43.7167 191.474 43.55C191.241 43.05 191.124 42.65 191.124 42.35C191.124 42.05 191.158 41.8333 191.224 41.7C191.258 41.6 191.258 41.55 191.224 41.55C191.224 41.5167 191.174 41.5167 191.074 41.55C190.974 41.5833 190.874 41.65 190.774 41.75L190.374 42.05L189.024 43.15C188.524 43.5167 188.008 43.85 187.474 44.15C187.241 44.2833 186.924 44.4 186.524 44.5C186.358 44.5667 186.141 44.5833 185.874 44.55C185.641 44.5167 185.408 44.4167 185.174 44.25C184.941 44.05 184.791 43.8333 184.724 43.6C184.624 43.3333 184.558 43.1 184.524 42.9C184.524 42.7 184.508 42.4833 184.474 42.25C184.441 41.8833 184.424 41.5333 184.424 41.2C184.424 40.8667 184.491 40.5833 184.624 40.35C184.824 40.05 185.124 39.8667 185.524 39.8C185.958 40.1 186.174 40.5 186.174 41C185.941 42.2 185.958 42.8667 186.224 43C186.524 43.1 187.208 42.7833 188.274 42.05L189.624 41C189.658 40.9667 189.724 40.9333 189.824 40.9C189.924 40.8 190.074 40.6833 190.274 40.55C190.474 40.4167 190.658 40.3 190.824 40.2C191.058 40.0333 191.274 39.9167 191.474 39.85C191.708 39.75 191.891 39.7167 192.024 39.75C192.058 39.75 192.091 39.7667 192.124 39.8C192.191 39.8 192.241 39.8167 192.274 39.85C192.308 39.85 192.358 39.8667 192.424 39.9L192.624 40.15L192.674 40.2V40.3L192.624 40.7V41.05L192.474 41.5L192.374 41.95C192.374 41.9833 192.374 42.0167 192.374 42.05C192.341 42.0833 192.324 42.1333 192.324 42.2V42.6C192.324 42.6667 192.324 42.7333 192.324 42.8C192.358 42.8667 192.391 42.9 192.424 42.9C192.424 42.9333 192.508 42.9667 192.674 43C192.874 43 193.108 42.9833 193.374 42.95C193.841 42.8167 194.341 42.65 194.874 42.45C195.874 41.9833 196.874 41.45 197.874 40.85L198.624 40.4C198.658 40.4 198.691 40.3833 198.724 40.35C199.058 40.1833 199.424 40.1 199.824 40.1C200.458 40.1667 200.958 40.3 201.324 40.5C201.491 40.5667 201.641 40.6333 201.774 40.7C203.774 41.4 205.891 41.4667 208.124 40.9ZM240.807 40.85L242.407 40.95L240.507 41.6C237.774 42.1333 235.024 42.7333 232.257 43.4L228.157 44.45C228.024 44.4833 227.89 44.5167 227.757 44.55C227.224 44.7167 226.674 44.8667 226.107 45C225.374 45.1667 224.607 45.1 223.807 44.8C223.44 44.6 223.14 44.3333 222.907 44C222.674 43.5667 222.574 43.15 222.607 42.75C222.674 42.1833 222.774 41.6833 222.907 41.25C222.974 41.05 223.024 40.8333 223.057 40.6C223.424 39.2 223.824 37.8333 224.257 36.5L224.457 35.8C223.457 37.2 222.307 38.4667 221.007 39.6C218.574 41.7333 215.757 43.2333 212.557 44.1L211.357 44.3C210.924 44.4 210.474 44.4 210.007 44.3C209.974 44.3 209.94 44.2833 209.907 44.25C209.507 44.15 209.14 43.95 208.807 43.65C208.407 43.3167 208.174 42.8833 208.107 42.35C208.34 40.3833 209.307 38.9667 211.007 38.1C211.374 37.9 211.774 37.75 212.207 37.65C212.24 37.65 212.274 37.65 212.307 37.65C212.507 37.5833 212.707 37.55 212.907 37.55C213.274 37.55 213.607 37.6 213.907 37.7C214.24 37.8333 214.457 38.05 214.557 38.35C214.657 38.65 214.607 38.9667 214.407 39.3C214.24 39.6 214.074 39.8333 213.907 40C213.774 40.1333 213.64 40.2667 213.507 40.4C213.44 40.4333 213.39 40.4667 213.357 40.5C212.19 41.4667 210.857 42.1333 209.357 42.5L209.457 42.65C209.557 42.8167 209.74 42.9667 210.007 43.1C210.307 43.2 210.607 43.2333 210.907 43.2C211.407 43.2 211.957 43.1167 212.557 42.95C212.724 42.9167 212.89 42.8833 213.057 42.85C218.924 41.05 223.224 37.3667 225.957 31.8C226.29 30.9667 226.657 30.15 227.057 29.35C227.157 29.0833 227.274 28.8167 227.407 28.55L228.357 30.1C227.157 32.5667 226.124 35.1 225.257 37.7C224.824 39 224.424 40.3167 224.057 41.65C223.957 41.9833 223.874 42.3 223.807 42.6C223.74 42.9 223.74 43.1167 223.807 43.25C223.84 43.4167 223.94 43.5667 224.107 43.7C224.307 43.8333 224.524 43.9167 224.757 43.95C225.49 44.0167 226.324 43.9167 227.257 43.65C227.69 43.5167 228.107 43.4167 228.507 43.35C229.674 43.05 230.84 42.7833 232.007 42.55C232.207 42.4833 232.407 42.4333 232.607 42.4C235.307 41.8 238.04 41.2833 240.807 40.85ZM210.907 39.7C210.474 40 210.107 40.3667 209.807 40.8C210.407 40.6 210.957 40.35 211.457 40.05C211.757 39.8833 212.057 39.6833 212.357 39.45L212.757 39.15L213.007 38.9L212.707 38.95C212.04 39.0833 211.44 39.3333 210.907 39.7ZM261.67 40.6C261.936 40.6667 262.086 40.75 262.12 40.85C262.153 40.9167 262.103 41 261.97 41.1C261.836 41.1667 261.67 41.25 261.47 41.35C256.836 42.5167 252.153 43.4833 247.42 44.25C247.186 44.2833 246.953 44.3167 246.72 44.35C245.753 44.4833 244.753 44.55 243.72 44.55C243.086 44.55 242.453 44.35 241.82 43.95C241.486 43.75 241.22 43.45 241.02 43.05C240.886 42.65 240.853 42.2667 240.92 41.9C241.186 40.4333 242.003 39.3667 243.37 38.7C244.036 38.4 244.72 38.2667 245.42 38.3C245.786 38.3333 246.136 38.4 246.47 38.5C246.903 38.6333 247.17 38.75 247.27 38.85C247.37 38.9167 247.37 39 247.27 39.1C247.203 39.2 247.07 39.3 246.87 39.4C246.57 39.5333 246.303 39.7167 246.07 39.95C245.136 39.65 244.253 39.7667 243.42 40.3C243.02 40.5667 242.703 40.9167 242.47 41.35C242.37 41.55 242.286 41.7667 242.22 42C242.186 42.2 242.186 42.3667 242.22 42.5C242.286 42.7667 242.536 42.9833 242.97 43.15C243.403 43.3167 243.886 43.3833 244.42 43.35C245.52 43.35 246.653 43.25 247.82 43.05C252.486 42.4167 257.103 41.6 261.67 40.6ZM279.583 40.75L280.733 40.55L280.283 41.4C278.95 41.7 277.483 41.9833 275.883 42.25C274.283 42.4833 272.783 42.6167 271.383 42.65C270.083 42.65 268.817 42.55 267.583 42.35L267.433 42.6C266.967 43.3667 266.383 43.9833 265.683 44.45C264.917 44.95 264.1 45.2667 263.233 45.4C262.8 45.4667 262.35 45.45 261.883 45.35C261.617 45.3167 261.367 45.2333 261.133 45.1C260.867 44.9333 260.65 44.7167 260.483 44.45C260.217 43.8833 260.117 43.35 260.183 42.85C260.25 42.35 260.4 41.9167 260.633 41.55C261.1 40.7167 261.733 40.05 262.533 39.55C262.867 39.3833 263.05 39.4833 263.083 39.85C263.117 40.2167 262.967 40.7333 262.633 41.4C262.167 41.8333 261.85 42.3333 261.683 42.9C261.583 43.1667 261.567 43.4 261.633 43.6C261.667 43.6667 261.7 43.7333 261.733 43.8C261.767 43.8333 261.833 43.8667 261.933 43.9C262.133 44 262.383 44.05 262.683 44.05C262.983 44.05 263.283 44.0167 263.583 43.95C264.217 43.7833 264.783 43.5 265.283 43.1C265.717 42.8 266.083 42.4333 266.383 42C266.017 41.9 265.683 41.7667 265.383 41.6L264.483 41.2C264.283 41.1667 264.083 41.0833 263.883 40.95C263.683 40.7833 263.583 40.5833 263.583 40.35C263.583 40.0833 263.667 39.8333 263.833 39.6C264 39.3667 264.183 39.2 264.383 39.1C264.85 38.9 265.283 38.8 265.683 38.8C265.917 38.8 266.133 38.8167 266.333 38.85C266.533 38.85 266.75 38.8667 266.983 38.9C267.25 38.9667 267.467 39.1167 267.633 39.35C267.833 39.55 267.967 39.7833 268.033 40.05C268.133 40.55 268.1 41.0167 267.933 41.45C269.133 41.65 270.35 41.75 271.583 41.75C274.25 41.75 276.917 41.4167 279.583 40.75ZM265.883 40.7C265.95 40.7333 266.017 40.7667 266.083 40.8C266.283 40.9 266.517 41 266.783 41.1C266.783 41.0333 266.783 40.9833 266.783 40.95C266.783 40.9167 266.8 40.8833 266.833 40.85C266.9 40.5833 266.9 40.3667 266.833 40.2C266.8 40.1667 266.783 40.15 266.783 40.15C266.783 40.1167 266.767 40.1 266.733 40.1C266.733 40.0667 266.717 40.05 266.683 40.05C266.65 40.0167 266.6 40 266.533 40C266.233 39.9333 265.917 39.9167 265.583 39.95C265.283 39.95 265.05 40 264.883 40.1C264.85 40.1333 264.817 40.15 264.783 40.15C264.783 40.1833 264.767 40.2 264.733 40.2L264.883 40.25C264.983 40.2833 265.117 40.35 265.283 40.45C265.45 40.5167 265.6 40.5833 265.733 40.65C265.8 40.65 265.85 40.6667 265.883 40.7ZM311.632 40.8C312.199 40.8333 312.782 40.85 313.382 40.85C312.682 41.1167 311.965 41.35 311.232 41.55C309.032 41.85 306.815 42.0333 304.582 42.1L302.882 42.2C302.349 42.2667 301.799 42.2833 301.232 42.25C300.932 42.2167 300.632 42.15 300.332 42.05C300.032 41.95 299.799 41.7667 299.632 41.5C299.499 41.2667 299.415 41.0667 299.382 40.9C299.315 40.7 299.249 40.55 299.182 40.45C299.115 40.3167 298.999 40.2333 298.832 40.2C298.532 40.1333 298.165 40.15 297.732 40.25C297.599 40.2833 297.465 40.3167 297.332 40.35C296.799 40.4833 296.265 40.65 295.732 40.85C294.732 41.1833 293.749 41.6333 292.782 42.2L291.382 43.1C291.115 43.2667 290.815 43.4 290.482 43.5C290.149 43.6 289.799 43.6 289.432 43.5C289.265 43.4667 289.099 43.3833 288.932 43.25C288.765 43.0833 288.649 42.9167 288.582 42.75C288.449 42.4833 288.382 42.2167 288.382 41.95C288.349 41.8833 288.332 41.8167 288.332 41.75C288.332 41.6167 288.332 41.4833 288.332 41.35C288.332 41.2167 288.315 41.1 288.282 41C288.249 40.9 288.215 40.8333 288.182 40.8C288.149 40.7667 288.115 40.7333 288.082 40.7C287.582 40.7 287.032 40.7833 286.432 40.95C285.665 41.15 284.865 41.45 284.032 41.85C283.232 42.25 282.515 42.7 281.882 43.2L279.982 44.65C279.515 44.6833 279.232 44.5167 279.132 44.15C279.032 43.75 279.049 43.2833 279.182 42.75C279.282 42.1833 279.399 41.6667 279.532 41.2C279.565 41.0333 279.599 40.8833 279.632 40.75L279.832 40.15L280.032 39.7C280.399 38.9 280.715 38.5833 280.982 38.75C281.249 38.9167 281.415 39.3833 281.482 40.15L280.732 42.25L281.182 41.95C281.315 41.8833 281.449 41.8 281.582 41.7C282.982 40.8333 284.499 40.15 286.132 39.65C286.465 39.55 286.832 39.4833 287.232 39.45C287.299 39.45 287.382 39.45 287.482 39.45C287.582 39.4167 287.682 39.4 287.782 39.4C287.982 39.4 288.265 39.45 288.632 39.55C288.899 39.6833 289.099 39.8667 289.232 40.1C289.399 40.3333 289.499 40.55 289.532 40.75C289.532 40.7833 289.532 40.8 289.532 40.8C289.565 41.1333 289.582 41.45 289.582 41.75C289.582 41.8833 289.582 42 289.582 42.1C289.615 42.1667 289.649 42.2167 289.682 42.25C289.682 42.2833 289.682 42.3167 289.682 42.35C289.715 42.35 289.732 42.3667 289.732 42.4C289.765 42.4 289.799 42.4 289.832 42.4C290.065 42.4667 290.399 42.35 290.832 42.05C291.132 41.85 291.465 41.65 291.832 41.45C291.999 41.35 292.165 41.25 292.332 41.15C293.399 40.6167 294.482 40.15 295.582 39.75L297.332 39.3L298.282 39.15C298.449 39.15 298.649 39.1667 298.882 39.2C299.115 39.2333 299.349 39.3333 299.582 39.5C299.815 39.6667 299.982 39.8667 300.082 40.1C300.182 40.3 300.249 40.4667 300.282 40.6C300.315 40.7 300.349 40.7833 300.382 40.85C300.415 40.9167 300.432 40.9667 300.432 41C300.465 41 300.482 41.0167 300.482 41.05C300.549 41.15 300.682 41.2333 300.882 41.3C301.082 41.3333 301.299 41.35 301.532 41.35C302.065 41.3833 302.615 41.3667 303.182 41.3L304.882 41.25C307.182 41.2167 309.432 41.0667 311.632 40.8ZM331.06 40.8C332.093 40.5667 332.51 40.55 332.31 40.75C332.143 40.9167 331.676 41.1833 330.91 41.55C329.776 41.7167 328.16 42.1833 326.06 42.95C324.326 43.55 322.526 44.1 320.66 44.6C318.793 45.1 317.11 45.3333 315.61 45.3C314.11 45.2333 313.026 44.6667 312.36 43.6C311.926 42.6333 311.91 41.6333 312.31 40.6C312.976 39.0333 314.076 37.9667 315.61 37.4C315.876 37.3 316.193 37.25 316.56 37.25C316.96 37.2167 317.326 37.2833 317.66 37.45C317.993 37.5833 318.176 37.85 318.21 38.25C318.21 38.4833 318.143 38.75 318.01 39.05C317.71 39.55 317.243 40.0167 316.61 40.45C315.643 41.15 314.593 41.6667 313.46 42C313.36 43.0333 313.926 43.7333 315.16 44.1C316.46 44.3667 318.093 44.2833 320.06 43.85C322.06 43.3833 324.176 42.8 326.41 42.1C327.976 41.6333 329.526 41.2 331.06 40.8ZM316.56 38.6C315.626 38.6 314.793 39.1667 314.06 40.3C315.16 39.9 316.093 39.3833 316.86 38.75L316.56 38.6Z" fill="white"/>
</g>
<defs>
<filter id="filter0_d_375_3180" x="0.166683" y="0.0952401" width="365.276" height="89.1666" filterUnits="userSpaceOnUse" color-interpolation-filters="sRGB">
<feFlood flood-opacity="0" result="BackgroundImageFix"/>
<feColorMatrix in="SourceAlpha" type="matrix" values="0 0 0 0 0 0 0 0 0 0 0 0 0 0 0 0 0 0 127 0" result="hardAlpha"/>
<feOffset dy="4.37778"/>
<feGaussianBlur stdDeviation="16.4167"/>
<feComposite in2="hardAlpha" operator="out"/>
<feColorMatrix type="matrix" values="0 0 0 0 1 0 0 0 0 1 0 0 0 0 1 0 0 0 1 0"/>
<feBlend mode="normal" in2="BackgroundImageFix" result="effect1_dropShadow_375_3180"/>
<feBlend mode="normal" in="SourceGraphic" in2="effect1_dropShadow_375_3180" result="shape"/>
</filter>
</defs>
</svg>
