<svg width="53" height="624" viewBox="0 0 53 624" fill="none" xmlns="http://www.w3.org/2000/svg">
<path opacity="0.1" d="M35.39 568.6L35.6143 567.625L34.39 567.344L34.39 568.6H35.39ZM48.41 577.56L49.269 577.048L49.2652 577.042L48.41 577.56ZM50.79 607.1L49.8426 606.78L50.79 607.1ZM45.82 615.85L46.5554 616.528L46.5626 616.52L45.82 615.85ZM37.84 621.31L38.2138 622.238L37.84 621.31ZM15.16 621.31L15.529 620.381L15.16 621.31ZM7.18 615.85L7.92261 615.18L7.91535 615.172L7.18 615.85ZM2.21 607.1L3.16129 606.791L3.15739 606.78L2.21 607.1ZM1.58 585.19L2.55102 585.429L2.55185 585.426L1.58 585.19ZM5.01 577.21L5.83404 577.777L5.84077 577.767L5.84727 577.757L5.01 577.21ZM10.68 571.61L11.2146 572.455H11.2146L10.68 571.61ZM18.73 568.74H19.73V567.577L18.5802 567.751L18.73 568.74ZM18.73 576.3L18.9784 577.269L19.73 577.076V576.3H18.73ZM13.76 578.68L14.3318 579.5L14.3461 579.49L14.36 579.48L13.76 578.68ZM9.84 582.74L10.657 583.317L10.6666 583.303L10.6757 583.289L9.84 582.74ZM7.32 588.34L8.28071 588.618L8.28433 588.605L8.28762 588.592L7.32 588.34ZM7.95 604.3L8.88422 603.943L8.8814 603.936L8.87848 603.929L7.95 604.3ZM12.08 610.74L11.3824 611.456L12.08 610.74ZM18.52 614.66L18.1881 615.603L18.1984 615.607L18.52 614.66ZM34.62 614.66L34.9471 615.605L34.9552 615.602L34.9632 615.599L34.62 614.66ZM40.92 610.74L41.6176 611.456L40.92 610.74ZM45.12 604.3L46.0485 604.671L46.0514 604.664L46.0542 604.657L45.12 604.3ZM43.65 582.53L44.5138 582.026L44.5116 582.022L43.65 582.53ZM35.39 576.02H34.39V576.788L35.1323 576.986L35.39 576.02ZM35.1657 569.575C40.8162 570.875 44.9119 573.717 47.5548 578.078L49.2652 577.042C46.3081 572.163 41.7238 569.032 35.6143 567.625L35.1657 569.575ZM47.551 578.072C50.1855 582.493 51.54 588.227 51.54 595.34H53.54C53.54 587.987 52.1412 581.867 49.269 577.048L47.551 578.072ZM51.54 595.34C51.54 599.639 50.9682 603.448 49.8426 606.78L51.7374 607.42C52.9452 603.845 53.54 599.814 53.54 595.34H51.54ZM49.8426 606.78C48.7136 610.122 47.1209 612.915 45.0774 615.18L46.5626 616.52C48.8124 614.025 50.533 610.985 51.7374 607.42L49.8426 606.78ZM45.0846 615.172C42.996 617.439 40.4612 619.176 37.4662 620.382L38.2138 622.238C41.4721 620.924 44.2573 619.021 46.5554 616.528L45.0846 615.172ZM37.4662 620.382C34.4761 621.587 31.0825 622.2 27.27 622.2V624.2C31.2975 624.2 34.9506 623.553 38.2138 622.238L37.4662 620.382ZM27.27 622.2H26.01V624.2H27.27V622.2ZM26.01 622.2C22.053 622.2 18.565 621.586 15.529 620.381L14.791 622.239C18.1017 623.554 21.847 624.2 26.01 624.2V622.2ZM15.529 620.381C12.489 619.173 9.95966 617.439 7.92257 615.18L6.43743 616.52C8.69367 619.021 11.4844 620.927 14.791 622.239L15.529 620.381ZM7.91535 615.172C5.83103 612.911 4.24217 610.124 3.16122 606.791L1.25878 607.409C2.41783 610.982 4.14229 614.029 6.44464 616.528L7.91535 615.172ZM3.15739 606.78C2.03182 603.448 1.46 599.639 1.46 595.34H-0.540004C-0.540004 599.814 0.0548391 603.845 1.2626 607.42L3.15739 606.78ZM1.46 595.34C1.46 591.672 1.8269 588.371 2.55101 585.429L0.608983 584.951C-0.160244 588.076 -0.540004 591.541 -0.540004 595.34H1.46ZM2.55185 585.426C3.27449 582.445 4.37348 579.901 5.83404 577.777L4.18596 576.643C2.56652 578.999 1.37883 581.775 0.608148 584.954L2.55185 585.426ZM5.84727 577.757C7.26302 575.589 9.05022 573.824 11.2146 572.455L10.1454 570.765C7.73645 572.289 5.74365 574.258 4.17273 576.663L5.84727 577.757ZM11.2146 572.455C13.368 571.093 15.9161 570.178 18.8798 569.729L18.5802 567.751C15.3839 568.236 12.5654 569.234 10.1454 570.765L11.2146 572.455ZM17.73 568.74V576.3H19.73V568.74H17.73ZM18.4816 575.331C16.5353 575.83 14.759 576.681 13.16 577.88L14.36 579.48C15.7476 578.439 17.2847 577.703 18.9784 577.269L18.4816 575.331ZM13.1882 577.86C11.5395 579.009 10.1446 580.456 9.00429 582.191L10.6757 583.289C11.6821 581.758 12.9005 580.498 14.3318 579.5L13.1882 577.86ZM9.02303 582.163C7.82462 583.861 6.93844 585.841 6.35238 588.088L8.28762 588.592C8.82155 586.546 9.61537 584.792 10.657 583.317L9.02303 582.163ZM6.35929 588.062C5.72249 590.267 5.41 592.695 5.41 595.34H7.41C7.41 592.851 7.70417 590.613 8.28071 588.618L6.35929 588.062ZM5.41 595.34C5.41 598.845 5.93803 601.963 7.02152 604.671L8.87848 603.929C7.90864 601.504 7.41 598.648 7.41 595.34H5.41ZM7.01578 604.657C8.04184 607.344 9.49404 609.618 11.3824 611.456L12.7776 610.024C11.1193 608.409 9.81815 606.389 8.88422 603.943L7.01578 604.657ZM11.3824 611.456C13.2678 613.292 15.5422 614.672 18.1881 615.603L18.8519 613.717C16.4578 612.874 14.4389 611.641 12.7776 610.024L11.3824 611.456ZM18.1984 615.607C20.789 616.487 23.6294 616.92 26.71 616.92V614.92C23.8173 614.92 21.1977 614.513 18.8416 613.713L18.1984 615.607ZM26.71 616.92C29.656 616.92 32.4045 616.485 34.9471 615.605L34.2929 613.715C31.9822 614.515 29.4573 614.92 26.71 614.92V616.92ZM34.9632 615.599C37.5165 614.666 39.7387 613.286 41.6176 611.456L40.2224 610.024C38.5546 611.647 36.5769 612.88 34.2768 613.721L34.9632 615.599ZM41.6176 611.456C43.5023 609.621 44.9759 607.353 46.0485 604.671L44.1915 603.929C43.2107 606.381 41.8843 608.405 40.2224 610.024L41.6176 611.456ZM46.0542 604.657C47.0867 601.952 47.59 598.84 47.59 595.34H45.59C45.59 598.653 45.1133 601.514 44.1858 603.943L46.0542 604.657ZM47.59 595.34C47.59 590.04 46.5878 585.582 44.5138 582.026L42.7862 583.034C44.6322 586.198 45.59 590.28 45.59 595.34H47.59ZM44.5116 582.022C42.3851 578.412 39.4258 576.061 35.6477 575.054L35.1323 576.986C38.3542 577.845 40.9016 579.834 42.7884 583.038L44.5116 582.022ZM36.39 576.02V568.6H34.39V576.02H36.39ZM44.84 522.095V521.095H43.84V522.095H44.84ZM51 522.095H52V521.095H51V522.095ZM51 563.675V564.675H52V563.675H51ZM2 563.675H0.999997L0.999997 564.675H2L2 563.675ZM2 556.815V555.815H0.999997V556.815H2ZM44.84 556.815V557.815H45.84V556.815H44.84ZM44.84 523.095H51V521.095H44.84V523.095ZM50 522.095V563.675H52V522.095H50ZM51 562.675H2L2 564.675H51V562.675ZM3 563.675L3 556.815H0.999997L0.999997 563.675H3ZM2 557.815H44.84V555.815H2L2 557.815ZM45.84 556.815V522.095H43.84V556.815H45.84ZM26.01 520.672L25.9784 521.671L25.9942 521.672H26.01V520.672ZM14.53 518.362L14.1202 519.274L14.1313 519.279L14.53 518.362ZM6.62 512.482L7.38941 511.843L7.38822 511.842L6.62 512.482ZM2 503.592L2.96106 503.315L2.95853 503.307L2 503.592ZM2.07 480.702L3.02378 481.002L3.02622 480.995L3.02853 480.987L2.07 480.702ZM6.76 471.812L7.52232 472.459L7.52822 472.452L6.76 471.812ZM14.74 465.932L15.1387 466.849L15.1468 466.845L15.1548 466.842L14.74 465.932ZM26.01 463.552V462.552H25.9939L25.9778 462.552L26.01 463.552ZM27.27 463.552L27.3022 462.552L27.2861 462.552H27.27V463.552ZM38.61 465.932L38.2002 466.844L38.2064 466.847L38.61 465.932ZM46.45 471.812L45.6747 472.444L45.6806 472.451L46.45 471.812ZM51 480.702L50.038 480.975L50.0402 480.983L50.0425 480.99L51 480.702ZM51 503.592L50.0414 503.307L50.039 503.315L51 503.592ZM46.45 512.482L47.2123 513.129L47.2188 513.121L47.2252 513.114L46.45 512.482ZM38.54 518.362L38.9437 519.277L38.9548 519.272L38.54 518.362ZM27.27 520.672V521.672H27.2861L27.3022 521.671L27.27 520.672ZM7.88 500.932L6.9264 501.233L6.92797 501.238L7.88 500.932ZM11.66 507.652L12.4042 506.984L12.4033 506.983L11.66 507.652ZM17.89 511.922L17.5127 512.848L17.5216 512.852L17.89 511.922ZM35.18 511.922L35.5484 512.852L35.5591 512.847L35.5696 512.843L35.18 511.922ZM41.34 507.652L42.0748 508.33L42.0838 508.32L42.0926 508.31L41.34 507.652ZM45.12 500.932L46.067 501.253L46.0704 501.243L46.0736 501.233L45.12 500.932ZM45.12 483.362L44.1664 483.663L44.168 483.668L45.12 483.362ZM41.41 476.642L42.1542 475.974L42.1533 475.973L41.41 476.642ZM35.25 472.372L34.8666 473.296L34.8755 473.299L35.25 472.372ZM18.1 472.372L18.4684 473.302L18.4759 473.299L18.4834 473.295L18.1 472.372ZM11.87 476.642L12.5955 477.33L12.6045 477.321L12.6133 477.311L11.87 476.642ZM7.95 483.362L8.89699 483.683L8.89868 483.678L7.95 483.362ZM26.0416 519.672C21.7027 519.535 18.0065 518.783 14.9287 517.445L14.1313 519.279C17.4935 520.741 21.4506 521.528 25.9784 521.671L26.0416 519.672ZM14.9398 517.45C11.8451 516.059 9.33604 514.188 7.38941 511.843L5.85059 513.121C8.01062 515.722 10.7749 517.771 14.1202 519.274L14.9398 517.45ZM7.38822 511.842C5.38399 509.437 3.90581 506.6 2.96102 503.315L1.03897 503.868C2.05419 507.397 3.65601 510.487 5.85178 513.122L7.38822 511.842ZM2.95853 503.307C1.96348 499.96 1.46 496.231 1.46 492.112H-0.540004C-0.540004 496.393 -0.0168173 500.317 1.04146 503.877L2.95853 503.307ZM1.46 492.112C1.46 487.996 1.98591 484.296 3.02378 481.002L1.11622 480.401C0.00741291 483.921 -0.540004 487.827 -0.540004 492.112H1.46ZM3.02853 480.987C4.02003 477.652 5.5216 474.815 7.52229 472.459L5.9977 471.165C3.7984 473.755 2.1733 476.845 1.11146 480.417L3.02853 480.987ZM7.52822 472.452C9.52139 470.06 12.0515 468.191 15.1387 466.849L14.3413 465.015C10.9885 466.473 8.19861 468.523 5.99178 471.172L7.52822 472.452ZM15.1548 466.842C18.1822 465.462 21.8031 464.688 26.0422 464.551L25.9778 462.552C21.5369 462.696 17.6444 463.509 14.3252 465.022L15.1548 466.842ZM26.01 464.552H27.27V462.552H26.01V464.552ZM27.2378 464.551C31.4765 464.688 35.1231 465.462 38.2002 466.844L39.0198 465.02C35.6569 463.509 31.7435 462.696 27.3022 462.552L27.2378 464.551ZM38.2064 466.847C41.2451 468.187 43.7278 470.054 45.6748 472.444L47.2252 471.18C45.0655 468.53 42.3215 466.476 39.0136 465.017L38.2064 466.847ZM45.6806 472.451C47.6351 474.805 49.0916 477.64 50.038 480.975L51.962 480.429C50.9484 476.857 49.3716 473.766 47.2194 471.173L45.6806 472.451ZM50.0425 480.99C51.0364 484.288 51.54 487.992 51.54 492.112H53.54C53.54 487.831 53.0169 483.929 51.9575 480.413L50.0425 480.99ZM51.54 492.112C51.54 496.231 51.0365 499.96 50.0415 503.307L51.9585 503.877C53.0168 500.317 53.54 496.393 53.54 492.112H51.54ZM50.039 503.315C49.0929 506.604 47.6354 509.444 45.6748 511.85L47.2252 513.114C49.3713 510.48 50.9471 507.393 51.961 503.868L50.039 503.315ZM45.6877 511.835C43.6898 514.188 41.175 516.062 38.1252 517.452L38.9548 519.272C42.2517 517.769 45.0102 515.723 47.2123 513.129L45.6877 511.835ZM38.1364 517.447C35.1057 518.784 31.4808 519.536 27.2378 519.672L27.3022 521.671C31.7392 521.528 35.6276 520.74 38.9436 519.277L38.1364 517.447ZM27.27 519.672H26.01V521.672H27.27V519.672ZM5.62 492.112C5.62 495.419 6.05133 498.462 6.92641 501.233L8.83358 500.631C8.02867 498.082 7.62 495.245 7.62 492.112H5.62ZM6.92797 501.238C7.8071 503.973 9.1338 506.34 10.9167 508.321L12.4033 506.983C10.8262 505.231 9.6329 503.117 8.83202 500.626L6.92797 501.238ZM10.9158 508.32C12.6612 510.265 14.8684 511.771 17.5127 512.848L18.2673 510.996C15.8716 510.02 13.9255 508.679 12.4042 506.984L10.9158 508.32ZM17.5216 512.852C20.1386 513.888 23.1857 514.392 26.64 514.392V512.392C23.3743 512.392 20.5881 511.915 18.2584 510.992L17.5216 512.852ZM26.64 514.392C29.9603 514.392 32.9359 513.887 35.5484 512.852L34.8116 510.992C32.4774 511.917 29.7597 512.392 26.64 512.392V514.392ZM35.5696 512.843C38.1188 511.764 40.2922 510.261 42.0748 508.33L40.6052 506.974C39.0278 508.682 37.0945 510.026 34.7904 511.001L35.5696 512.843ZM42.0926 508.31C43.8214 506.335 45.143 503.977 46.067 501.253L44.173 500.611C43.3237 503.114 42.1253 505.236 40.5874 506.993L42.0926 508.31ZM46.0736 501.233C46.9487 498.462 47.38 495.419 47.38 492.112H45.38C45.38 495.245 44.9713 498.082 44.1664 500.631L46.0736 501.233ZM47.38 492.112C47.38 488.806 46.9488 485.783 46.072 483.056L44.168 483.668C44.9712 486.167 45.38 488.978 45.38 492.112H47.38ZM46.0736 483.061C45.1967 480.284 43.8952 477.914 42.1542 475.974L40.6658 477.31C42.1915 479.01 43.3633 481.12 44.1664 483.663L46.0736 483.061ZM42.1533 475.973C40.3673 473.988 38.186 472.479 35.6245 471.445L34.8755 473.299C37.1673 474.225 39.0927 475.562 40.6667 477.311L42.1533 475.973ZM35.6334 471.448C33.015 470.361 30.0101 469.832 26.64 469.832V471.832C29.8032 471.832 32.5384 472.329 34.8666 473.295L35.6334 471.448ZM26.64 469.832C23.3145 469.832 20.3334 470.362 17.7166 471.448L18.4834 473.295C20.8132 472.328 23.5255 471.832 26.64 471.832V469.832ZM17.7316 471.442C15.1236 472.476 12.916 473.985 11.1267 475.973L12.6133 477.311C14.184 475.566 16.1297 474.228 18.4684 473.302L17.7316 471.442ZM11.1445 475.954C9.30585 477.892 7.92879 480.263 7.00132 483.046L8.89868 483.678C9.74454 481.141 10.9808 479.032 12.5955 477.33L11.1445 475.954ZM7.00302 483.041C6.07594 485.773 5.62 488.8 5.62 492.112H7.62C7.62 488.983 8.05072 486.177 8.89698 483.683L7.00302 483.041ZM31.26 412.174L31.2982 411.174L31.2791 411.174H31.26V412.174ZM47.36 418.544L48.1231 417.897L48.1186 417.892L47.36 418.544ZM47.29 453.754L48.0443 454.41L48.0524 454.401L47.29 453.754ZM31.26 460.054V461.054H31.2761L31.2922 461.053L31.26 460.054ZM2 460.054H0.999997V461.054H2V460.054ZM2 453.194V452.194H0.999997V453.194H2ZM35.39 452.634L35.5544 453.62L35.39 452.634ZM41.2 450.324L41.7812 451.137L41.7945 451.128L41.8074 451.118L41.2 450.324ZM44.91 445.214L45.8371 445.588L45.8398 445.582L44.91 445.214ZM44.98 427.154L45.9164 426.802L45.9124 426.792L44.98 427.154ZM41.27 421.974L40.6625 422.768L40.67 422.774L40.6776 422.779L41.27 421.974ZM35.6 419.594L35.7678 418.608L35.7644 418.607L35.6 419.594ZM2 419.034H0.999997L0.999997 420.034H2L2 419.034ZM2 412.174L2 411.174H0.999997L0.999997 412.174H2ZM31.2218 413.173C38.3852 413.447 43.4393 415.513 46.6014 419.195L48.1186 417.892C44.4674 413.641 38.7881 411.46 31.2982 411.174L31.2218 413.173ZM46.597 419.19C49.7444 422.906 51.4 428.491 51.4 436.114H53.4C53.4 428.242 51.6956 422.115 48.123 417.897L46.597 419.19ZM51.4 436.114C51.4 443.732 49.7228 449.342 46.5276 453.106L48.0524 454.401C51.6706 450.138 53.4 443.989 53.4 436.114H51.4ZM46.5358 453.097C43.3255 456.784 38.2912 458.826 31.2278 459.054L31.2922 461.053C38.6954 460.814 44.3478 458.656 48.0442 454.41L46.5358 453.097ZM31.26 459.054H2V461.054H31.26V459.054ZM3 460.054L3 453.194H0.999997L0.999997 460.054H3ZM2 454.194H28.04V452.194H2V454.194ZM28.04 454.194C30.746 454.194 33.2518 454.004 35.5544 453.62L35.2256 451.647C33.0482 452.01 30.654 452.194 28.04 452.194V454.194ZM35.5544 453.62C37.9248 453.225 40.0085 452.403 41.7812 451.137L40.6188 449.51C39.1248 450.577 37.3352 451.296 35.2256 451.647L35.5544 453.62ZM41.8074 451.118C43.5606 449.777 44.8958 447.917 45.8371 445.588L43.9829 444.839C43.1508 446.897 42.0128 448.443 40.5925 449.529L41.8074 451.118ZM45.8398 445.582C46.7916 443.177 47.24 440.026 47.24 436.184H45.24C45.24 439.901 44.8017 442.77 43.9802 444.845L45.8398 445.582ZM47.24 436.184C47.24 432.345 46.8156 429.201 45.9163 426.802L44.0437 427.505C44.8244 429.586 45.24 432.462 45.24 436.184H47.24ZM45.9124 426.792C44.9738 424.371 43.636 422.472 41.8624 421.168L40.6776 422.779C42.0774 423.808 43.2129 425.362 44.0476 427.515L45.9124 426.792ZM41.8774 421.179C40.1478 419.856 38.1025 419.005 35.7678 418.608L35.4322 420.579C37.4841 420.929 39.2189 421.664 40.6625 422.768L41.8774 421.179ZM35.7644 418.607C33.4609 418.223 30.9316 418.034 28.18 418.034V420.034C30.8417 420.034 33.2591 420.217 35.4356 420.58L35.7644 418.607ZM28.18 418.034H2L2 420.034H28.18V418.034ZM3 419.034L3 412.174H0.999997V419.034H3ZM2 413.174H31.26V411.174H2L2 413.174ZM43.58 358.784L43.1509 359.687L43.1609 359.692L43.58 358.784ZM48.34 363.054L49.178 362.508L49.1736 362.501L49.1691 362.495L48.34 363.054ZM51.42 371.034L50.4445 371.254L50.4451 371.257L51.42 371.034ZM50.86 395.324L51.7998 395.665L51.8014 395.661L50.86 395.324ZM46.59 402.674L47.2971 403.381L47.3064 403.372L47.3155 403.362L46.59 402.674ZM40.78 406.524L41.1085 407.468L41.121 407.464L41.1334 407.459L40.78 406.524ZM34.48 407.924H33.48V409.019L34.5705 408.92L34.48 407.924ZM34.48 400.504L34.4061 399.506L33.48 399.575V400.504H34.48ZM43.3 395.744L44.1093 396.331L44.1146 396.324L44.1198 396.316L43.3 395.744ZM44.42 369.634L45.3485 369.262L45.3458 369.256L44.42 369.634ZM37.98 364.594L37.9959 363.594L37.98 364.594ZM31.68 368.934L30.7609 368.54L31.68 368.934ZM29.23 382.654L28.2318 382.594L28.231 382.607L28.2306 382.62L29.23 382.654ZM28.39 393.364L29.3803 393.503L29.3805 393.501L28.39 393.364ZM26.29 400.784L25.3956 400.337L26.29 400.784ZM22.3 405.124L21.8144 404.25L22.3 405.124ZM9.98 405.124L9.52368 406.014L9.98 405.124ZM5.22 400.714L6.04908 400.155L6.04622 400.15L5.22 400.714ZM1.93 392.874L2.90023 392.631L2.8967 392.618L1.93 392.874ZM2.28 369.704L3.22108 370.042L3.22272 370.037L2.28 369.704ZM6.41 362.564L7.12679 363.261L7.13595 363.251L6.41 362.564ZM12.08 358.854L12.3962 359.802L12.4056 359.799L12.415 359.796L12.08 358.854ZM18.31 357.454H19.31V356.359L18.2195 356.458L18.31 357.454ZM18.31 364.874L18.3948 365.87L19.31 365.792L19.31 364.874H18.31ZM12.85 366.484L13.3606 367.344L13.3726 367.336L12.85 366.484ZM9.28 370.054L10.1327 370.576L10.1399 370.564L9.28 370.054ZM7.32 388.884L6.3309 389.031L6.33138 389.034L7.32 388.884ZM8.86 394.484L9.78058 394.093L9.77779 394.087L9.77491 394.08L8.86 394.484ZM11.45 398.124L10.8131 398.895L10.8168 398.898L11.45 398.124ZM18.87 398.404L19.4247 399.236L19.4478 399.22L19.47 399.204L18.87 398.404ZM21.18 395.184L22.1022 395.57L22.1076 395.558L22.1126 395.545L21.18 395.184ZM22.51 389.654L23.4995 389.798L23.5012 389.787L23.5026 389.775L22.51 389.654ZM23.21 381.604L24.2082 381.664L24.2085 381.658L23.21 381.604ZM24.4 370.614L25.3834 370.795L25.3847 370.788L25.386 370.781L24.4 370.614ZM30.98 358.854L31.4368 359.743L31.4462 359.738L31.4555 359.733L30.98 358.854ZM37.49 358.454C39.5442 358.454 41.4265 358.868 43.1509 359.687L44.0091 357.88C42.0002 356.926 39.8225 356.454 37.49 356.454V358.454ZM43.1609 359.692C44.7835 360.441 46.2385 361.726 47.5109 363.613L49.1691 362.495C47.7348 360.368 46.0165 358.807 43.9991 357.876L43.1609 359.692ZM47.502 363.599C48.7228 365.474 49.7139 368.012 50.4445 371.254L52.3955 370.814C51.6328 367.429 50.5705 364.647 49.178 362.508L47.502 363.599ZM50.4451 371.257C51.1694 374.425 51.54 378.428 51.54 383.284H53.54C53.54 378.34 53.164 374.176 52.3949 370.811L50.4451 371.257ZM51.54 383.284C51.54 388.118 50.9861 392.006 49.9186 394.987L51.8014 395.661C52.9739 392.388 53.54 388.249 53.54 383.284H51.54ZM49.9202 394.982C48.8334 397.971 47.4726 400.291 45.8645 401.985L47.3155 403.362C49.1608 401.417 50.6466 398.837 51.7998 395.665L49.9202 394.982ZM45.8829 401.967C44.1981 403.651 42.379 404.851 40.4266 405.588L41.1334 407.459C43.381 406.61 45.4352 405.243 47.2971 403.381L45.8829 401.967ZM40.4515 405.579C38.374 406.302 36.3539 406.749 34.3895 406.928L34.5705 408.92C36.7128 408.725 38.8927 408.239 41.1085 407.468L40.4515 405.579ZM35.48 407.924V400.504H33.48V407.924H35.48ZM34.5539 401.501C38.6072 401.201 41.8249 399.479 44.1093 396.331L42.4907 395.156C40.5751 397.796 37.9128 399.247 34.4061 399.506L34.5539 401.501ZM44.1198 396.316C46.3379 393.14 47.38 388.683 47.38 383.074H45.38C45.38 388.478 44.3687 392.467 42.4802 395.171L44.1198 396.316ZM47.38 383.074C47.38 377.322 46.7226 372.698 45.3485 369.262L43.4915 370.005C44.7307 373.103 45.38 377.439 45.38 383.074H47.38ZM45.3458 369.256C44.6233 367.487 43.658 366.077 42.4113 365.101C41.1525 364.116 39.6656 363.62 37.9959 363.594L37.9641 365.594C39.2344 365.614 40.2908 365.981 41.1787 366.676C42.0787 367.381 42.8634 368.467 43.4942 370.012L45.3458 369.256ZM37.9959 363.594C36.3508 363.568 34.8793 363.961 33.6327 364.82C32.3921 365.675 31.4464 366.94 30.7609 368.54L32.5991 369.328C33.1736 367.987 33.9079 367.059 34.7673 366.467C35.6207 365.879 36.6692 365.573 37.9641 365.594L37.9959 363.594ZM30.7609 368.54C29.4305 371.644 28.6068 376.359 28.2318 382.594L30.2282 382.714C30.5999 376.535 31.4095 372.104 32.5991 369.328L30.7609 368.54ZM28.2306 382.62C28.0914 386.703 27.8134 390.237 27.3994 393.227L29.3805 393.501C29.8066 390.424 30.0886 386.818 30.2294 382.688L28.2306 382.62ZM27.3997 393.224C26.9896 396.141 26.3128 398.502 25.3956 400.337L27.1844 401.231C28.2272 399.145 28.9504 396.559 29.3803 393.503L27.3997 393.224ZM25.3956 400.337C24.4926 402.142 23.2943 403.427 21.8144 404.25L22.7856 405.998C24.6657 404.953 26.1274 403.345 27.1844 401.231L25.3956 400.337ZM21.8144 404.25C20.3313 405.074 18.3223 405.524 15.72 405.524V407.524C18.531 407.524 20.9087 407.041 22.7856 405.998L21.8144 404.25ZM15.72 405.524C13.8752 405.524 12.1179 405.096 10.4363 404.234L9.52368 406.014C11.4821 407.018 13.5515 407.524 15.72 407.524V405.524ZM10.4363 404.234C8.79183 403.391 7.32537 402.047 6.04907 400.155L4.39092 401.273C5.8213 403.394 7.52817 404.99 9.52368 406.014L10.4363 404.234ZM6.04622 400.15C4.73009 398.22 3.67338 395.724 2.90014 392.631L0.959855 393.116C1.77329 396.37 2.9099 399.101 4.39377 401.277L6.04622 400.15ZM2.8967 392.618C2.08518 389.552 1.67 385.816 1.67 381.394H-0.330003C-0.330003 385.931 0.0948172 389.849 0.963292 393.13L2.8967 392.618ZM1.67 381.394C1.67 376.649 2.20137 372.879 3.22107 370.042L1.33892 369.366C0.211959 372.501 -0.330003 376.525 -0.330003 381.394H1.67ZM3.22272 370.037C4.26324 367.097 5.57526 364.856 7.12672 363.261L5.69327 361.866C3.88474 363.725 2.44342 366.244 1.33728 369.37L3.22272 370.037ZM7.13595 363.251C8.71483 361.585 10.4678 360.445 12.3962 359.802L11.7638 357.905C9.49215 358.662 7.46516 359.996 5.68405 361.876L7.13595 363.251ZM12.415 359.796C14.4424 359.075 16.4371 358.628 18.4005 358.45L18.2195 356.458C16.0763 356.653 13.9176 357.139 11.745 357.912L12.415 359.796ZM17.31 357.454V364.874H19.31V357.454H17.31ZM18.2252 363.877C15.9213 364.073 13.9403 364.643 12.3274 365.631L13.3726 367.336C14.653 366.552 16.3121 366.047 18.3948 365.87L18.2252 363.877ZM12.3395 365.624C10.7023 366.596 9.3922 367.906 8.42014 369.543L10.1399 370.564C10.9411 369.215 12.011 368.145 13.3605 367.344L12.3395 365.624ZM8.4274 369.531C7.46752 371.097 6.79971 372.918 6.40766 374.977L8.37234 375.351C8.72695 373.489 9.31914 371.904 10.1326 370.576L8.4274 369.531ZM6.40766 374.977C6.0208 377.008 5.83 379.218 5.83 381.604H7.83C7.83 379.323 8.01253 377.24 8.37234 375.351L6.40766 374.977ZM5.83 381.604C5.83 384.304 5.99571 386.78 6.33091 389.031L8.30909 388.736C7.99095 386.6 7.83 384.224 7.83 381.604H5.83ZM6.33138 389.034C6.66815 391.247 7.20181 393.203 7.94508 394.887L9.77491 394.08C9.11818 392.592 8.62518 390.814 8.30862 388.733L6.33138 389.034ZM7.93941 394.874C8.64289 396.532 9.59349 397.887 10.8131 398.895L12.0869 397.353C11.1598 396.587 10.3838 395.515 9.78058 394.093L7.93941 394.874ZM10.8168 398.898C12.0445 399.902 13.5366 400.384 15.23 400.384V398.384C13.9367 398.384 12.9088 398.025 12.0832 397.35L10.8168 398.898ZM15.23 400.384C16.8287 400.384 18.2463 400.021 19.4247 399.236L18.3153 397.572C17.5337 398.093 16.5246 398.384 15.23 398.384V400.384ZM19.47 399.204C20.5864 398.366 21.4496 397.127 22.1022 395.57L20.2578 394.797C19.697 396.134 19.0203 397.041 18.27 397.604L19.47 399.204ZM22.1126 395.545C22.7089 394.004 23.1665 392.082 23.4995 389.798L21.5205 389.509C21.2002 391.706 20.7711 393.47 20.2474 394.823L22.1126 395.545ZM23.5026 389.775C23.7857 387.463 24.0206 384.758 24.2082 381.664L22.2118 381.543C22.026 384.609 21.7943 387.271 21.5174 389.532L23.5026 389.775ZM24.2085 381.658C24.4404 377.392 24.8335 373.774 25.3834 370.795L23.4166 370.432C22.8465 373.52 22.4463 377.229 22.2115 381.549L24.2085 381.658ZM25.386 370.781C25.8872 367.819 26.6532 365.437 27.6571 363.604L25.9029 362.643C24.7601 364.73 23.9394 367.342 23.414 370.447L25.386 370.781ZM27.6571 363.604C28.6494 361.792 29.9138 360.525 31.4368 359.743L30.5232 357.964C28.5928 358.955 27.0573 360.535 25.9029 362.643L27.6571 363.604ZM31.4555 359.733C32.9957 358.901 34.9898 358.454 37.49 358.454V356.454C34.7636 356.454 32.4176 356.94 30.5045 357.974L31.4555 359.733ZM44.84 305.811V304.811H43.84V305.811H44.84ZM51 305.811H52V304.811H51V305.811ZM51 352.571V353.571H52V352.571H51ZM2 352.571H0.999997V353.571H2V352.571ZM2 308.121V307.121H0.999997V308.121H2ZM8.16 308.121H9.16V307.121H8.16V308.121ZM8.16 345.711H7.16V346.711H8.16V345.711ZM21.39 345.711V346.711H22.39V345.711H21.39ZM21.39 315.191V314.191H20.39V315.191H21.39ZM27.55 315.191H28.55V314.191H27.55V315.191ZM27.55 345.711H26.55V346.711H27.55V345.711ZM44.84 345.711V346.711H45.84V345.711H44.84ZM44.84 306.811H51V304.811H44.84V306.811ZM50 305.811L50 352.571H52L52 305.811H50ZM51 351.571H2V353.571H51V351.571ZM3 352.571L3 308.121H0.999997L0.999997 352.571H3ZM2 309.121H8.16V307.121H2V309.121ZM7.16 308.121L7.16 345.711H9.16L9.16 308.121H7.16ZM8.16 346.711H21.39V344.711H8.16V346.711ZM22.39 345.711V315.191H20.39V345.711H22.39ZM21.39 316.191H27.55V314.191H21.39V316.191ZM26.55 315.191V345.711H28.55V315.191H26.55ZM27.55 346.711H44.84V344.711H27.55V346.711ZM45.84 345.711L45.84 305.811H43.84L43.84 345.711H45.84ZM27.55 263.195H26.55V264.195H27.55V263.195ZM51 263.195H52V262.195H51V263.195ZM51 270.055V271.055H52V270.055H51ZM2 270.055H0.999997V271.055H2V270.055ZM2 263.195V262.195H0.999997V263.195H2ZM21.39 263.195V264.195H22.39V263.195H21.39ZM21.39 226.655H22.39V225.655H21.39V226.655ZM2 226.655H0.999997V227.655H2V226.655ZM2 219.795V218.795H0.999997V219.795H2ZM51 219.795H52V218.795H51V219.795ZM51 226.655V227.655H52V226.655H51ZM27.55 226.655V225.655H26.55V226.655H27.55ZM27.55 264.195H51V262.195H27.55V264.195ZM50 263.195V270.055H52V263.195H50ZM51 269.055H2V271.055H51V269.055ZM3 270.055V263.195H0.999997L0.999997 270.055H3ZM2 264.195H21.39V262.195H2V264.195ZM22.39 263.195L22.39 226.655H20.39L20.39 263.195H22.39ZM21.39 225.655H2V227.655H21.39V225.655ZM3 226.655V219.795H0.999997L0.999997 226.655H3ZM2 220.795H51L51 218.795H2V220.795ZM50 219.795L50 226.655H52L52 219.795H50ZM51 225.655H27.55V227.655H51V225.655ZM26.55 226.655L26.55 263.195H28.55L28.55 226.655H26.55ZM26.01 215.568L25.9784 216.567L25.9942 216.568H26.01V215.568ZM14.53 213.258L14.1202 214.17L14.1313 214.175L14.53 213.258ZM6.62 207.378L7.38941 206.739L7.38822 206.737L6.62 207.378ZM2 198.488L2.96106 198.211L2.95853 198.203L2 198.488ZM2.07 175.598L3.02378 175.898L3.02622 175.89L3.02853 175.883L2.07 175.598ZM6.76 166.708L7.52232 167.355L7.52822 167.348L6.76 166.708ZM14.74 160.828L15.1387 161.745L15.1468 161.741L15.1548 161.737L14.74 160.828ZM26.01 158.448V157.448H25.9939L25.9778 157.448L26.01 158.448ZM27.27 158.448L27.3022 157.448L27.2861 157.448H27.27V158.448ZM38.61 160.828L38.2002 161.74L38.2064 161.742L38.61 160.828ZM46.45 166.708L45.6747 167.339L45.6806 167.346L46.45 166.708ZM51 175.598L50.038 175.871L50.0402 175.878L50.0425 175.886L51 175.598ZM51 198.488L50.0414 198.203L50.039 198.211L51 198.488ZM46.45 207.378L47.2123 208.025L47.2188 208.017L47.2252 208.009L46.45 207.378ZM38.54 213.258L38.9437 214.173L38.9548 214.167L38.54 213.258ZM27.27 215.568V216.568H27.2861L27.3022 216.567L27.27 215.568ZM7.88 195.828L6.9264 196.129L6.92797 196.134L7.88 195.828ZM11.66 202.548L12.4042 201.88L12.4033 201.879L11.66 202.548ZM17.89 206.818L17.5127 207.744L17.5216 207.747L17.89 206.818ZM35.18 206.818L35.5484 207.747L35.5591 207.743L35.5696 207.739L35.18 206.818ZM41.34 202.548L42.0748 203.226L42.0838 203.216L42.0926 203.206L41.34 202.548ZM45.12 195.828L46.067 196.149L46.0704 196.139L46.0736 196.129L45.12 195.828ZM45.12 178.258L44.1664 178.559L44.168 178.564L45.12 178.258ZM41.41 171.538L42.1542 170.87L42.1533 170.869L41.41 171.538ZM35.25 167.268L34.8666 168.191L34.8755 168.195L35.25 167.268ZM18.1 167.268L18.4684 168.197L18.4759 168.194L18.4834 168.191L18.1 167.268ZM11.87 171.538L12.5955 172.226L12.6045 172.216L12.6133 172.207L11.87 171.538ZM7.95 178.258L8.89699 178.579L8.89868 178.574L7.95 178.258ZM26.0416 214.568C21.7027 214.431 18.0065 213.679 14.9287 212.341L14.1313 214.175C17.4935 215.636 21.4506 216.424 25.9784 216.567L26.0416 214.568ZM14.9398 212.345C11.8451 210.955 9.33604 209.084 7.38941 206.739L5.85059 208.016C8.01062 210.618 10.7749 212.667 14.1202 214.17L14.9398 212.345ZM7.38822 206.737C5.38399 204.332 3.90581 201.495 2.96102 198.211L1.03897 198.764C2.05419 202.293 3.65601 205.383 5.85178 208.018L7.38822 206.737ZM2.95853 198.203C1.96348 194.856 1.46 191.127 1.46 187.008H-0.540004C-0.540004 191.288 -0.0168173 195.213 1.04146 198.773L2.95853 198.203ZM1.46 187.008C1.46 182.892 1.98591 179.192 3.02378 175.898L1.11622 175.297C0.00741291 178.816 -0.540004 182.723 -0.540004 187.008H1.46ZM3.02853 175.883C4.02003 172.548 5.5216 169.711 7.52229 167.355L5.9977 166.06C3.7984 168.651 2.1733 171.741 1.11146 175.313L3.02853 175.883ZM7.52822 167.348C9.52139 164.956 12.0515 163.087 15.1387 161.745L14.3413 159.91C10.9885 161.368 8.19861 163.419 5.99178 166.067L7.52822 167.348ZM15.1548 161.737C18.1822 160.357 21.8031 159.584 26.0422 159.447L25.9778 157.448C21.5369 157.591 17.6444 158.404 14.3252 159.918L15.1548 161.737ZM26.01 159.448H27.27V157.448H26.01V159.448ZM27.2378 159.447C31.4765 159.584 35.1231 160.357 38.2002 161.74L39.0198 159.915C35.6569 158.405 31.7435 157.591 27.3022 157.448L27.2378 159.447ZM38.2064 161.742C41.2451 163.083 43.7278 164.95 45.6748 167.339L47.2252 166.076C45.0655 163.425 42.3215 161.372 39.0136 159.913L38.2064 161.742ZM45.6806 167.346C47.6351 169.701 49.0916 172.536 50.038 175.871L51.962 175.325C50.9484 171.753 49.3716 168.661 47.2194 166.069L45.6806 167.346ZM50.0425 175.886C51.0364 179.184 51.54 182.888 51.54 187.008H53.54C53.54 182.727 53.0169 178.824 51.9575 175.309L50.0425 175.886ZM51.54 187.008C51.54 191.127 51.0365 194.856 50.0415 198.203L51.9585 198.773C53.0168 195.213 53.54 191.288 53.54 187.008H51.54ZM50.039 198.211C49.0929 201.5 47.6354 204.34 45.6748 206.746L47.2252 208.009C49.3713 205.375 50.9471 202.289 51.961 198.764L50.039 198.211ZM45.6877 206.73C43.6898 209.083 41.175 210.957 38.1252 212.348L38.9548 214.167C42.2517 212.664 45.0102 210.618 47.2123 208.025L45.6877 206.73ZM38.1364 212.343C35.1057 213.68 31.4808 214.431 27.2378 214.568L27.3022 216.567C31.7392 216.424 35.6276 215.635 38.9436 214.172L38.1364 212.343ZM27.27 214.568H26.01V216.568H27.27V214.568ZM5.62 187.008C5.62 190.314 6.05133 193.358 6.92641 196.129L8.83358 195.526C8.02867 192.978 7.62 190.141 7.62 187.008H5.62ZM6.92797 196.134C7.8071 198.869 9.1338 201.236 10.9167 203.217L12.4033 201.879C10.8262 200.126 9.6329 198.013 8.83202 195.522L6.92797 196.134ZM10.9158 203.215C12.6612 205.16 14.8684 206.666 17.5127 207.744L18.2673 205.891C15.8716 204.915 13.9255 203.575 12.4042 201.88L10.9158 203.215ZM17.5216 207.747C20.1386 208.784 23.1857 209.288 26.64 209.288V207.288C23.3743 207.288 20.5881 206.811 18.2584 205.888L17.5216 207.747ZM26.64 209.288C29.9603 209.288 32.9359 208.782 35.5484 207.747L34.8116 205.888C32.4774 206.813 29.7597 207.288 26.64 207.288V209.288ZM35.5696 207.739C38.1188 206.66 40.2922 205.157 42.0748 203.226L40.6052 201.869C39.0278 203.578 37.0945 204.922 34.7904 205.897L35.5696 207.739ZM42.0926 203.206C43.8214 201.23 45.143 198.872 46.067 196.149L44.173 195.506C43.3237 198.01 42.1253 200.132 40.5874 201.889L42.0926 203.206ZM46.0736 196.129C46.9487 193.358 47.38 190.314 47.38 187.008H45.38C45.38 190.141 44.9713 192.978 44.1664 195.526L46.0736 196.129ZM47.38 187.008C47.38 183.701 46.9488 180.679 46.072 177.952L44.168 178.564C44.9712 181.063 45.38 183.874 45.38 187.008H47.38ZM46.0736 177.956C45.1967 175.18 43.8952 172.81 42.1542 170.87L40.6658 172.205C42.1915 173.906 43.3633 176.015 44.1664 178.559L46.0736 177.956ZM42.1533 170.869C40.3673 168.884 38.186 167.375 35.6245 166.34L34.8755 168.195C37.1673 169.12 39.0927 170.458 40.6667 172.207L42.1533 170.869ZM35.6334 166.344C33.015 165.257 30.0101 164.728 26.64 164.728V166.728C29.8032 166.728 32.5384 167.225 34.8666 168.191L35.6334 166.344ZM26.64 164.728C23.3145 164.728 20.3334 165.258 17.7166 166.344L18.4834 168.191C20.8132 167.224 23.5255 166.728 26.64 166.728V164.728ZM17.7316 166.338C15.1236 167.371 12.916 168.88 11.1267 170.869L12.6133 172.207C14.184 170.461 16.1297 169.124 18.4684 168.197L17.7316 166.338ZM11.1445 170.849C9.30585 172.787 7.92879 175.159 7.00132 177.941L8.89868 178.574C9.74454 176.036 10.9808 173.928 12.5955 172.226L11.1445 170.849ZM7.00302 177.936C6.07594 180.669 5.62 183.696 5.62 187.008H7.62C7.62 183.879 8.05072 181.073 8.89698 178.579L7.00302 177.936ZM31.26 107.069L31.2982 106.07L31.2791 106.069H31.26V107.069ZM47.36 113.439L48.1231 112.793L48.1186 112.788L47.36 113.439ZM47.29 148.649L48.0443 149.306L48.0524 149.296L47.29 148.649ZM31.26 154.949V155.949H31.2761L31.2922 155.949L31.26 154.949ZM2 154.949H0.999997V155.949H2V154.949ZM2 148.089V147.089H0.999997V148.089H2ZM35.39 147.529L35.5544 148.516L35.39 147.529ZM41.2 145.219L41.7812 146.033L41.7945 146.023L41.8074 146.014L41.2 145.219ZM44.91 140.109L45.8371 140.484L45.8398 140.477L44.91 140.109ZM44.98 122.049L45.9164 121.698L45.9124 121.688L44.98 122.049ZM41.27 116.869L40.6625 117.664L40.67 117.669L40.6776 117.675L41.27 116.869ZM35.6 114.489L35.7678 113.503L35.7644 113.503L35.6 114.489ZM2 113.929H0.999997L0.999997 114.929H2L2 113.929ZM2 107.069V106.069H0.999997V107.069H2ZM31.2218 108.068C38.3852 108.342 43.4393 110.409 46.6014 114.091L48.1186 112.788C44.4674 108.536 38.7881 106.356 31.2982 106.07L31.2218 108.068ZM46.597 114.086C49.7444 117.801 51.4 123.387 51.4 131.009H53.4C53.4 123.138 51.6956 117.01 48.123 112.793L46.597 114.086ZM51.4 131.009C51.4 138.628 49.7228 144.238 46.5276 148.002L48.0524 149.296C51.6706 145.034 53.4 138.884 53.4 131.009H51.4ZM46.5358 147.993C43.3255 151.68 38.2912 153.722 31.2278 153.95L31.2922 155.949C38.6954 155.71 44.3478 153.552 48.0442 149.306L46.5358 147.993ZM31.26 153.949H2V155.949H31.26V153.949ZM3 154.949L3 148.089H0.999997L0.999997 154.949H3ZM2 149.089H28.04V147.089H2V149.089ZM28.04 149.089C30.746 149.089 33.2518 148.899 35.5544 148.516L35.2256 146.543C33.0482 146.906 30.654 147.089 28.04 147.089V149.089ZM35.5544 148.516C37.9248 148.121 40.0085 147.299 41.7812 146.033L40.6188 144.405C39.1248 145.473 37.3352 146.191 35.2256 146.543L35.5544 148.516ZM41.8074 146.014C43.5606 144.673 44.8958 142.812 45.8371 140.484L43.9829 139.734C43.1508 141.793 42.0128 143.339 40.5925 144.425L41.8074 146.014ZM45.8398 140.477C46.7916 138.073 47.24 134.922 47.24 131.079H45.24C45.24 134.797 44.8017 137.666 43.9802 139.741L45.8398 140.477ZM47.24 131.079C47.24 127.241 46.8156 124.096 45.9163 121.698L44.0437 122.4C44.8244 124.482 45.24 127.358 45.24 131.079H47.24ZM45.9124 121.688C44.9738 119.267 43.636 117.368 41.8624 116.064L40.6776 117.675C42.0774 118.704 43.2129 120.258 44.0476 122.411L45.9124 121.688ZM41.8774 116.075C40.1478 114.752 38.1025 113.901 35.7678 113.503L35.4322 115.475C37.4841 115.824 39.2189 116.56 40.6625 117.664L41.8774 116.075ZM35.7644 113.503C33.4609 113.119 30.9316 112.929 28.18 112.929V114.929C30.8417 114.929 33.2591 115.113 35.4356 115.476L35.7644 113.503ZM28.18 112.929H2L2 114.929H28.18V112.929ZM3 113.929L3 107.069H0.999997L0.999997 113.929H3ZM2 108.069H31.26V106.069H2L2 108.069ZM43.58 53.6794L43.1509 54.5828L43.1609 54.5874L43.58 53.6794ZM48.34 57.9495L49.178 57.4037L49.1736 57.397L49.1691 57.3903L48.34 57.9495ZM51.42 65.9294L50.4445 66.1493L50.4451 66.1523L51.42 65.9294ZM50.86 90.2195L51.7998 90.5612L51.8014 90.5567L50.86 90.2195ZM46.59 97.5695L47.2971 98.2766L47.3064 98.2673L47.3155 98.2577L46.59 97.5695ZM40.78 101.419L41.1085 102.364L41.121 102.36L41.1334 102.355L40.78 101.419ZM34.48 102.819H33.48L33.48 103.914L34.5705 103.815L34.48 102.819ZM34.48 95.3995L34.4061 94.4022L33.48 94.4708V95.3995H34.48ZM43.3 90.6395L44.1093 91.2269L44.1146 91.2195L44.1198 91.212L43.3 90.6395ZM44.42 64.5295L45.3485 64.1581L45.3458 64.1513L44.42 64.5295ZM37.98 59.4894L37.9959 58.4896L37.98 59.4894ZM31.68 63.8295L30.7609 63.4355L31.68 63.8295ZM29.23 77.5494L28.2318 77.4894L28.231 77.5024L28.2306 77.5154L29.23 77.5494ZM28.39 88.2595L29.3803 88.3987L29.3805 88.3966L28.39 88.2595ZM26.29 95.6794L25.3956 95.2322L26.29 95.6794ZM22.3 100.019L21.8144 99.1453L22.3 100.019ZM9.98 100.019L9.52368 100.909L9.98 100.019ZM5.22 95.6094L6.04908 95.0503L6.04622 95.0461L5.22 95.6094ZM1.93 87.7695L2.90023 87.5269L2.8967 87.5135L1.93 87.7695ZM2.28 64.5994L3.22108 64.9377L3.22272 64.933L2.28 64.5994ZM6.41 57.4595L7.12679 58.1569L7.13595 58.1472L6.41 57.4595ZM12.08 53.7495L12.3962 54.6981L12.4056 54.695L12.415 54.6917L12.08 53.7495ZM18.31 52.3494H19.31V51.2544L18.2195 51.3536L18.31 52.3494ZM18.31 59.7695L18.3948 60.7659L19.31 60.688V59.7695H18.31ZM12.85 61.3795L13.3606 62.2394L13.3726 62.2321L12.85 61.3795ZM9.28 64.9495L10.1327 65.472L10.1399 65.46L9.28 64.9495ZM7.32 83.7795L6.3309 83.9268L6.33138 83.9299L7.32 83.7795ZM8.86 89.3795L9.78058 88.9889L9.77779 88.9824L9.77491 88.9758L8.86 89.3795ZM11.45 93.0195L10.8131 93.7904L10.8168 93.7934L11.45 93.0195ZM18.87 93.2994L19.4247 94.1315L19.4478 94.1161L19.47 94.0994L18.87 93.2994ZM21.18 90.0795L22.1022 90.4662L22.1076 90.4534L22.1126 90.4404L21.18 90.0795ZM22.51 84.5494L23.4995 84.6938L23.5012 84.6824L23.5026 84.671L22.51 84.5494ZM23.21 76.4995L24.2082 76.5599L24.2085 76.5537L23.21 76.4995ZM24.4 65.5095L25.3834 65.691L25.3847 65.6837L25.386 65.6763L24.4 65.5095ZM30.98 53.7495L31.4368 54.639L31.4462 54.6342L31.4555 54.6292L30.98 53.7495ZM37.49 53.3494C39.5442 53.3494 41.4265 53.7636 43.1509 54.5827L44.0091 52.7762C42.0002 51.822 39.8225 51.3494 37.49 51.3494V53.3494ZM43.1609 54.5874C44.7835 55.3363 46.2385 56.6219 47.5109 58.5086L49.1691 57.3903C47.7348 55.2636 46.0165 53.7026 43.9991 52.7715L43.1609 54.5874ZM47.502 58.4951C48.7228 60.37 49.7139 62.9073 50.4445 66.1493L52.3955 65.7096C51.6328 62.325 50.5705 59.5422 49.178 57.4037L47.502 58.4951ZM50.4451 66.1523C51.1694 69.3207 51.54 73.3234 51.54 78.1794H53.54C53.54 73.2355 53.164 69.0715 52.3949 65.7066L50.4451 66.1523ZM51.54 78.1794C51.54 83.014 50.9861 86.9022 49.9186 89.8822L51.8014 90.5567C52.9739 87.2834 53.54 83.145 53.54 78.1794H51.54ZM49.9202 89.8777C48.8334 92.8665 47.4726 95.1863 45.8645 96.8812L47.3155 98.2577C49.1608 96.3127 50.6466 93.7325 51.7998 90.5612L49.9202 89.8777ZM45.8829 96.8624C44.1981 98.5471 42.379 99.7464 40.4266 100.484L41.1334 102.355C43.381 101.506 45.4352 100.138 47.2971 98.2766L45.8829 96.8624ZM40.4515 100.475C38.374 101.198 36.3539 101.645 34.3895 101.824L34.5705 103.815C36.7128 103.621 38.8927 103.135 41.1085 102.364L40.4515 100.475ZM35.48 102.819V95.3995H33.48V102.819H35.48ZM34.5539 96.3967C38.6072 96.0965 41.8249 94.3743 44.1093 91.2269L42.4907 90.0521C40.5751 92.6913 37.9128 94.1425 34.4061 94.4022L34.5539 96.3967ZM44.1198 91.212C46.3379 88.0361 47.38 83.5784 47.38 77.9694H45.38C45.38 83.3738 44.3687 87.3627 42.4802 90.0669L44.1198 91.212ZM47.38 77.9694C47.38 72.2178 46.7226 67.5934 45.3485 64.1581L43.4915 64.9008C44.7307 67.9989 45.38 72.3344 45.38 77.9694H47.38ZM45.3458 64.1513C44.6233 62.3826 43.658 60.9726 42.4113 59.9969C41.1525 59.0118 39.6656 58.5161 37.9959 58.4896L37.9641 60.4893C39.2344 60.5095 40.2908 60.8771 41.1787 61.572C42.0787 62.2763 42.8634 63.363 43.4942 64.9076L45.3458 64.1513ZM37.9959 58.4896C36.3508 58.4634 34.8793 58.8572 33.6327 59.7159C32.3921 60.5706 31.4464 61.8359 30.7609 63.4355L32.5991 64.2234C33.1736 62.883 33.9079 61.955 34.7673 61.363C35.6207 60.775 36.6692 60.4688 37.9641 60.4893L37.9959 58.4896ZM30.7609 63.4355C29.4305 66.5397 28.6068 71.2551 28.2318 77.4894L30.2282 77.6095C30.5999 71.4305 31.4095 66.9992 32.5991 64.2234L30.7609 63.4355ZM28.2306 77.5154C28.0914 81.5984 27.8134 85.1324 27.3994 88.1223L29.3805 88.3966C29.8066 85.3198 30.0886 81.7139 30.2294 77.5835L28.2306 77.5154ZM27.3997 88.1202C26.9896 91.037 26.3128 93.3978 25.3956 95.2322L27.1844 96.1266C28.2272 94.0411 28.9504 91.4552 29.3803 88.3987L27.3997 88.1202ZM25.3956 95.2322C24.4926 97.0381 23.2943 98.3231 21.8144 99.1453L22.7856 100.894C24.6657 99.8491 26.1274 98.2408 27.1844 96.1266L25.3956 95.2322ZM21.8144 99.1453C20.3313 99.9692 18.3223 100.419 15.72 100.419V102.419C18.531 102.419 20.9087 101.936 22.7856 100.894L21.8144 99.1453ZM15.72 100.419C13.8752 100.419 12.1179 99.992 10.4363 99.1296L9.52368 100.909C11.4821 101.914 13.5515 102.419 15.72 102.419V100.419ZM10.4363 99.1296C8.79183 98.2863 7.32537 96.9427 6.04907 95.0503L4.39092 96.1686C5.8213 98.2895 7.52817 99.8859 9.52368 100.909L10.4363 99.1296ZM6.04622 95.0461C4.73009 93.1158 3.67338 90.6199 2.90014 87.5269L0.959855 88.012C1.77329 91.2657 2.9099 93.9965 4.39377 96.1728L6.04622 95.0461ZM2.8967 87.5135C2.08518 84.4478 1.67 80.7122 1.67 76.2894H-0.330003C-0.330003 80.8268 0.0948172 84.7444 0.963292 88.0253L2.8967 87.5135ZM1.67 76.2894C1.67 71.5449 2.20137 67.7751 3.22107 64.9376L1.33892 64.2612C0.211959 67.3972 -0.330003 71.4207 -0.330003 76.2894H1.67ZM3.22272 64.933C4.26324 61.9924 5.57526 59.7513 7.12672 58.1568L5.69327 56.7621C3.88474 58.6208 2.44342 61.1398 1.33728 64.2659L3.22272 64.933ZM7.13595 58.1472C8.71483 56.4806 10.4678 55.3409 12.3962 54.6981L11.7638 52.8008C9.49215 53.558 7.46516 54.8917 5.68405 56.7717L7.13595 58.1472ZM12.415 54.6917C14.4424 53.9708 16.4371 53.5239 18.4005 53.3453L18.2195 51.3536C16.0763 51.5484 13.9176 52.0348 11.745 52.8073L12.415 54.6917ZM17.31 52.3494V59.7695H19.31V52.3494H17.31ZM18.2252 58.7731C15.9213 58.9691 13.9403 59.5383 12.3274 60.5269L13.3726 62.2321C14.653 61.4473 16.3121 60.9431 18.3948 60.7659L18.2252 58.7731ZM12.3395 60.5196C10.7023 61.4916 9.3922 62.8018 8.42014 64.4389L10.1399 65.46C10.9411 64.1105 12.011 63.0406 13.3605 62.2393L12.3395 60.5196ZM8.4274 64.4269C7.46752 65.993 6.79971 67.8141 6.40766 69.8723L8.37234 70.2466C8.72695 68.3848 9.31914 66.7993 10.1326 65.472L8.4274 64.4269ZM6.40766 69.8723C6.0208 71.9033 5.83 74.1136 5.83 76.4995H7.83C7.83 74.2186 8.01253 72.1356 8.37234 70.2466L6.40766 69.8723ZM5.83 76.4995C5.83 79.1993 5.99571 81.6762 6.33091 83.9268L8.30909 83.6321C7.99095 81.496 7.83 79.1195 7.83 76.4995H5.83ZM6.33138 83.9299C6.66815 86.1429 7.20181 88.0983 7.94508 89.7831L9.77491 88.9758C9.11818 87.4872 8.62518 85.7093 8.30862 83.629L6.33138 83.9299ZM7.93941 89.77C8.64289 91.4282 9.59349 92.7829 10.8131 93.7904L12.0869 92.2485C11.1598 91.4827 10.3838 90.4107 9.78058 88.9889L7.93941 89.77ZM10.8168 93.7934C12.0445 94.798 13.5366 95.2795 15.23 95.2795V93.2795C13.9367 93.2795 12.9088 92.921 12.0832 92.2455L10.8168 93.7934ZM15.23 95.2795C16.8287 95.2795 18.2463 94.9171 19.4247 94.1315L18.3153 92.4674C17.5337 92.9885 16.5246 93.2795 15.23 93.2795V95.2795ZM19.47 94.0994C20.5864 93.2621 21.4496 92.0223 22.1022 90.4662L20.2578 89.6927C19.697 91.03 19.0203 91.9368 18.27 92.4995L19.47 94.0994ZM22.1126 90.4404C22.7089 88.9 23.1665 86.9774 23.4995 84.6938L21.5205 84.4052C21.2002 86.6016 20.7711 88.3655 20.2474 89.7184L22.1126 90.4404ZM23.5026 84.671C23.7857 82.3586 24.0206 79.654 24.2082 76.5599L22.2118 76.439C22.026 79.5049 21.7943 82.167 21.5174 84.4279L23.5026 84.671ZM24.2085 76.5537C24.4404 72.2878 24.8335 68.6696 25.3834 65.691L23.4166 65.3279C22.8465 68.416 22.4463 72.1244 22.2115 76.4452L24.2085 76.5537ZM25.386 65.6763C25.8872 62.7144 26.6532 60.3329 27.6571 58.4998L25.9029 57.5391C24.7601 59.6259 23.9394 62.2378 23.414 65.3426L25.386 65.6763ZM27.6571 58.4998C28.6494 56.6878 29.9138 55.4211 31.4368 54.639L30.5232 52.8599C28.5928 53.8511 27.0573 55.4311 25.9029 57.5391L27.6571 58.4998ZM31.4555 54.6292C32.9957 53.7966 34.9898 53.3494 37.49 53.3494V51.3494C34.7636 51.3494 32.4176 51.8356 30.5045 52.8698L31.4555 54.6292ZM44.84 0.706421V-0.293579H43.84V0.706421H44.84ZM51 0.706421H52V-0.293579H51V0.706421ZM51 47.4664V48.4664H52V47.4664H51ZM2 47.4664H0.999997V48.4664H2V47.4664ZM2 3.01642V2.01642H0.999997V3.01642H2ZM8.16 3.01642H9.16L9.16 2.01642H8.16L8.16 3.01642ZM8.16 40.6064H7.16V41.6064H8.16V40.6064ZM21.39 40.6064V41.6064H22.39V40.6064H21.39ZM21.39 10.0864V9.08636H20.39V10.0864H21.39ZM27.55 10.0864H28.55V9.08636H27.55V10.0864ZM27.55 40.6064H26.55V41.6064H27.55V40.6064ZM44.84 40.6064V41.6064H45.84V40.6064H44.84ZM44.84 1.70642H51V-0.293579H44.84V1.70642ZM50 0.706421V47.4664H52V0.706421H50ZM51 46.4664H2V48.4664H51V46.4664ZM3 47.4664L3 3.01642H0.999997L0.999997 47.4664H3ZM2 4.01642H8.16L8.16 2.01642H2V4.01642ZM7.16 3.01642L7.16 40.6064H9.16L9.16 3.01642H7.16ZM8.16 41.6064H21.39V39.6064H8.16V41.6064ZM22.39 40.6064L22.39 10.0864H20.39L20.39 40.6064H22.39ZM21.39 11.0864H27.55V9.08636H21.39V11.0864ZM26.55 10.0864L26.55 40.6064H28.55L28.55 10.0864H26.55ZM27.55 41.6064H44.84V39.6064H27.55V41.6064ZM45.84 40.6064V0.706421H43.84V40.6064H45.84Z" fill="white"/>
</svg>
