<svg width="301" height="88" viewBox="0 0 301 88" fill="none" xmlns="http://www.w3.org/2000/svg">
<g filter="url(#filter0_d_88:2867)">
<path d="M53.96 47.319L53.44 47.999L53.48 46.919L57.6 32.639C55.68 34.3457 53.5867 35.7857 51.32 36.959C50.0933 37.5724 48.8267 38.119 47.52 38.599C46.24 39.079 44.9067 39.399 43.52 39.559C42.8267 39.639 42.12 39.639 41.4 39.559C40.6533 39.4524 39.9733 39.239 39.36 38.919C38.08 38.199 37.0133 37.2657 36.16 36.119C35.3333 34.9724 34.68 33.719 34.2 32.359C34.04 31.9057 33.9067 31.4657 33.8 31.039C33.4 32.1057 33.0267 33.1857 32.68 34.279L30.84 40.119L30.44 40.599L30.4 39.839L31.92 33.719L32.8 30.719L33.28 29.199L33.48 28.479L33.52 28.359V28.119C33.52 28.119 33.52 28.1324 33.52 28.159C33.52 28.159 33.5333 28.159 33.56 28.159C33.56 28.159 33.56 28.1724 33.56 28.199L33.6 28.079V27.999L33.64 27.959C33.6133 27.959 33.6133 27.9724 33.64 27.999C33.6667 27.999 33.7067 27.999 33.76 27.999C33.7867 28.0257 33.8267 28.0524 33.88 28.079C33.9333 28.079 33.9867 28.0924 34.04 28.119H34.08C34.1067 28.0924 34.12 28.079 34.12 28.079C34.1467 28.079 34.1733 28.079 34.2 28.079C34.2267 28.1057 34.2533 28.119 34.28 28.119C34.28 28.119 34.28 28.1324 34.28 28.159C34.3067 28.159 34.32 28.159 34.32 28.159L34.48 28.279L34.76 28.479L34.56 28.959L34.76 29.079C34.9467 31.6924 35.8533 34.0257 37.48 36.079C38.3067 37.119 39.28 37.8657 40.4 38.319C41.5467 38.719 42.76 38.8124 44.04 38.599C45.32 38.4124 46.5867 38.0924 47.84 37.639C49.0933 37.1857 50.2933 36.6657 51.44 36.079C53.7867 34.879 55.9333 33.4124 57.88 31.679L58.52 29.479L59.56 30.319L53.96 47.319ZM64.7081 40.319C64.9748 40.239 65.3081 40.1324 65.7081 39.999C66.4815 39.759 67.3348 39.519 68.2681 39.279C69.2281 39.0124 70.0415 38.839 70.7081 38.759C71.3748 38.6524 71.6681 38.7457 71.5881 39.039C70.0681 39.3857 68.5215 39.8657 66.9481 40.479C66.1481 40.7457 65.3881 40.999 64.6681 41.239C64.1081 41.4257 63.5348 41.5457 62.9481 41.599C62.6548 41.6257 62.3348 41.6257 61.9881 41.599C61.6681 41.5457 61.3481 41.4124 61.0281 41.199C60.7081 40.9324 60.5081 40.599 60.4281 40.199C60.3748 39.8257 60.3881 39.479 60.4681 39.159C60.5748 38.519 60.8281 37.9324 61.2281 37.399C61.4415 37.7724 61.6948 38.119 61.9881 38.439C61.7215 38.839 61.5615 39.2524 61.5081 39.679C61.5081 39.919 61.5215 40.0924 61.5481 40.199C61.5748 40.2257 61.5881 40.2524 61.5881 40.279C61.6681 40.3324 61.7615 40.399 61.8681 40.479C62.2148 40.6124 62.6415 40.6524 63.1481 40.599C63.6815 40.5457 64.2015 40.4524 64.7081 40.319ZM65.4681 30.599L65.7081 30.839L65.5081 31.159C65.0281 31.2924 64.5348 31.479 64.0281 31.719C63.5215 31.959 63.0681 32.2657 62.6681 32.639C62.4548 32.799 62.2281 32.8924 61.9881 32.919C61.7481 32.9457 61.4548 32.9324 61.1081 32.879C61.1081 32.6924 61.1348 32.559 61.1881 32.479C61.2148 32.4524 61.2281 32.4257 61.2281 32.399C61.2815 32.319 61.3481 32.239 61.4281 32.159C61.8281 31.839 62.3081 31.5724 62.8681 31.359C63.0015 31.279 63.1348 31.2124 63.2681 31.159C63.9881 30.8924 64.7215 30.7057 65.4681 30.599ZM84.3072 38.519L83.9872 39.119C82.6539 39.2524 81.1472 39.439 79.4672 39.679C77.8139 39.919 76.3472 40.2124 75.0672 40.559C74.8005 40.639 74.5339 40.719 74.2672 40.799C74.0805 40.8524 73.8939 40.9057 73.7072 40.959C73.7072 41.1457 73.6939 41.359 73.6672 41.599C73.5072 42.159 73.1605 42.5857 72.6272 42.879C72.1205 43.1457 71.5872 43.359 71.0272 43.519C70.0672 43.8124 69.0805 43.919 68.0672 43.839L67.4272 43.799L67.5072 43.159C67.5872 42.7324 67.8139 42.4124 68.1872 42.199C68.5339 41.959 68.9205 41.7724 69.3472 41.639C69.3739 41.639 69.4139 41.6257 69.4672 41.599L71.3072 40.959L72.4672 40.559C72.4672 40.5324 72.4539 40.519 72.4272 40.519C72.4272 40.4924 72.4139 40.4657 72.3872 40.439C71.9339 39.9057 71.4139 39.4657 70.8272 39.119C70.4805 38.9057 70.1339 38.6524 69.7872 38.359C69.6539 38.279 69.5472 38.1457 69.4672 37.959C69.3605 37.7457 69.3072 37.5457 69.3072 37.359C69.4139 36.9324 69.6805 36.5724 70.1072 36.279C70.5339 35.9857 71.0005 35.8924 71.5072 35.999C71.9072 36.1324 72.1472 36.4124 72.2272 36.839C72.3339 37.239 72.2939 37.6257 72.1072 37.999C72.0539 38.1057 72.0005 38.199 71.9472 38.279C71.8939 38.359 71.8539 38.4257 71.8272 38.479C72.3072 38.879 72.7739 39.3324 73.2272 39.839L73.4272 40.239L75.0672 39.799C76.4272 39.479 77.9605 39.2124 79.6672 38.999C81.4005 38.7857 82.9472 38.6257 84.3072 38.519ZM72.7072 41.399V41.279L71.4672 41.719L69.7072 42.399L68.8272 42.759L68.5472 42.959C68.9739 42.959 69.5072 42.9057 70.1472 42.799C70.7605 42.6657 71.3205 42.4924 71.8272 42.279C72.3339 42.039 72.6272 41.7457 72.7072 41.399ZM70.5072 37.519C70.5872 37.6257 70.7072 37.719 70.8672 37.799L70.9072 37.759C70.9872 37.6257 71.0405 37.5057 71.0672 37.399C71.0672 37.3724 71.0672 37.3457 71.0672 37.319C71.0672 37.2924 71.0805 37.2657 71.1072 37.239V37.079C71.1072 37.079 71.0805 37.079 71.0272 37.079C71.0005 37.079 70.9605 37.0924 70.9072 37.119C70.8005 37.1457 70.6805 37.2257 70.5472 37.359L70.4272 37.479L70.5072 37.519ZM97.4713 38.519L97.1513 39.119C95.8179 39.2524 94.3113 39.439 92.6313 39.679C90.9779 39.919 89.5113 40.2124 88.2313 40.559C87.9646 40.639 87.6979 40.719 87.4313 40.799C87.2446 40.8524 87.0579 40.9057 86.8713 40.959C86.8713 41.1457 86.8579 41.359 86.8313 41.599C86.6713 42.159 86.3246 42.5857 85.7913 42.879C85.2846 43.1457 84.7513 43.359 84.1913 43.519C83.2313 43.8124 82.2446 43.919 81.2313 43.839L80.5913 43.799L80.6713 43.159C80.7513 42.7324 80.9779 42.4124 81.3513 42.199C81.6979 41.959 82.0846 41.7724 82.5113 41.639C82.5379 41.639 82.5779 41.6257 82.6313 41.599L84.4713 40.959L85.6313 40.559C85.6313 40.5324 85.6179 40.519 85.5913 40.519C85.5913 40.4924 85.5779 40.4657 85.5513 40.439C85.0979 39.9057 84.5779 39.4657 83.9913 39.119C83.6446 38.9057 83.2979 38.6524 82.9513 38.359C82.8179 38.279 82.7113 38.1457 82.6313 37.959C82.5246 37.7457 82.4713 37.5457 82.4713 37.359C82.5779 36.9324 82.8446 36.5724 83.2713 36.279C83.6979 35.9857 84.1646 35.8924 84.6713 35.999C85.0713 36.1324 85.3113 36.4124 85.3913 36.839C85.4979 37.239 85.4579 37.6257 85.2713 37.999C85.2179 38.1057 85.1646 38.199 85.1113 38.279C85.0579 38.359 85.0179 38.4257 84.9913 38.479C85.4713 38.879 85.9379 39.3324 86.3913 39.839L86.5913 40.239L88.2313 39.799C89.5913 39.479 91.1246 39.2124 92.8313 38.999C94.5646 38.7857 96.1113 38.6257 97.4713 38.519ZM85.8713 41.399V41.279L84.6313 41.719L82.8713 42.399L81.9913 42.759L81.7113 42.959C82.1379 42.959 82.6713 42.9057 83.3113 42.799C83.9246 42.6657 84.4846 42.4924 84.9913 42.279C85.4979 42.039 85.7913 41.7457 85.8713 41.399ZM83.6713 37.519C83.7513 37.6257 83.8713 37.719 84.0313 37.799L84.0713 37.759C84.1513 37.6257 84.2046 37.5057 84.2313 37.399C84.2313 37.3724 84.2313 37.3457 84.2313 37.319C84.2313 37.2924 84.2446 37.2657 84.2713 37.239V37.079C84.2713 37.079 84.2446 37.079 84.1913 37.079C84.1646 37.079 84.1246 37.0924 84.0713 37.119C83.9646 37.1457 83.8446 37.2257 83.7113 37.359L83.5913 37.479L83.6713 37.519ZM101.075 40.319C101.342 40.239 101.675 40.1324 102.075 39.999C102.849 39.759 103.702 39.519 104.635 39.279C105.595 39.0124 106.409 38.839 107.075 38.759C107.742 38.6524 108.035 38.7457 107.955 39.039C106.435 39.3857 104.889 39.8657 103.315 40.479C102.515 40.7457 101.755 40.999 101.035 41.239C100.475 41.4257 99.902 41.5457 99.3153 41.599C99.022 41.6257 98.702 41.6257 98.3553 41.599C98.0353 41.5457 97.7153 41.4124 97.3953 41.199C97.0753 40.9324 96.8753 40.599 96.7953 40.199C96.742 39.8257 96.7553 39.479 96.8353 39.159C96.942 38.519 97.1953 37.9324 97.5953 37.399C97.8087 37.7724 98.062 38.119 98.3553 38.439C98.0887 38.839 97.9287 39.2524 97.8753 39.679C97.8753 39.919 97.8887 40.0924 97.9153 40.199C97.942 40.2257 97.9553 40.2524 97.9553 40.279C98.0353 40.3324 98.1287 40.399 98.2353 40.479C98.582 40.6124 99.0087 40.6524 99.5153 40.599C100.049 40.5457 100.569 40.4524 101.075 40.319ZM101.835 30.599L102.075 30.839L101.875 31.159C101.395 31.2924 100.902 31.479 100.395 31.719C99.8887 31.959 99.4353 32.2657 99.0353 32.639C98.822 32.799 98.5953 32.8924 98.3553 32.919C98.1153 32.9457 97.822 32.9324 97.4753 32.879C97.4753 32.6924 97.502 32.559 97.5553 32.479C97.582 32.4524 97.5953 32.4257 97.5953 32.399C97.6487 32.319 97.7153 32.239 97.7953 32.159C98.1953 31.839 98.6753 31.5724 99.2353 31.359C99.3687 31.279 99.502 31.2124 99.6353 31.159C100.355 30.8924 101.089 30.7057 101.835 30.599ZM121.826 38.799L122.746 38.639L122.386 39.319C121.319 39.559 120.146 39.7857 118.866 39.999C117.586 40.1857 116.386 40.2924 115.266 40.319C114.226 40.319 113.213 40.239 112.226 40.079L112.106 40.279C111.733 40.8924 111.266 41.3857 110.706 41.759C110.093 42.159 109.439 42.4124 108.746 42.519C108.399 42.5724 108.039 42.559 107.666 42.479C107.453 42.4524 107.253 42.3857 107.066 42.279C106.853 42.1457 106.679 41.9724 106.546 41.759C106.333 41.3057 106.253 40.879 106.306 40.479C106.359 40.079 106.479 39.7324 106.666 39.439C107.039 38.7724 107.546 38.239 108.186 37.839C108.453 37.7057 108.599 37.7857 108.626 38.079C108.653 38.3724 108.533 38.7857 108.266 39.319C107.893 39.6657 107.639 40.0657 107.506 40.519C107.426 40.7324 107.413 40.919 107.466 41.079C107.493 41.1324 107.519 41.1857 107.546 41.239C107.573 41.2657 107.626 41.2924 107.706 41.319C107.866 41.399 108.066 41.439 108.306 41.439C108.546 41.439 108.786 41.4124 109.026 41.359C109.533 41.2257 109.986 40.999 110.386 40.679C110.733 40.439 111.026 40.1457 111.266 39.799C110.973 39.719 110.706 39.6124 110.466 39.479L109.746 39.159C109.586 39.1324 109.426 39.0657 109.266 38.959C109.106 38.8257 109.026 38.6657 109.026 38.479C109.026 38.2657 109.093 38.0657 109.226 37.879C109.359 37.6924 109.506 37.559 109.666 37.479C110.039 37.319 110.386 37.239 110.706 37.239C110.893 37.239 111.066 37.2524 111.226 37.279C111.386 37.279 111.559 37.2924 111.746 37.319C111.959 37.3724 112.133 37.4924 112.266 37.679C112.426 37.839 112.533 38.0257 112.586 38.239C112.666 38.639 112.639 39.0124 112.506 39.359C113.466 39.519 114.439 39.599 115.426 39.599C117.559 39.599 119.693 39.3324 121.826 38.799ZM110.866 38.759C110.919 38.7857 110.973 38.8124 111.026 38.839C111.186 38.919 111.373 38.999 111.586 39.079C111.586 39.0257 111.586 38.9857 111.586 38.959C111.586 38.9324 111.599 38.9057 111.626 38.879C111.679 38.6657 111.679 38.4924 111.626 38.359C111.599 38.3324 111.586 38.319 111.586 38.319C111.586 38.2924 111.573 38.279 111.546 38.279C111.546 38.2524 111.533 38.239 111.506 38.239C111.479 38.2124 111.439 38.199 111.386 38.199C111.146 38.1457 110.893 38.1324 110.626 38.159C110.386 38.159 110.199 38.199 110.066 38.279C110.039 38.3057 110.013 38.319 109.986 38.319C109.986 38.3457 109.973 38.359 109.946 38.359L110.066 38.399C110.146 38.4257 110.253 38.479 110.386 38.559C110.519 38.6124 110.639 38.6657 110.746 38.719C110.799 38.719 110.839 38.7324 110.866 38.759ZM140.785 38.839C141.212 38.759 141.452 38.7457 141.505 38.799C141.585 38.8524 141.545 38.9324 141.385 39.039C141.225 39.1457 140.998 39.2657 140.705 39.399C140.118 39.5857 139.318 39.7724 138.305 39.959C137.292 40.119 136.265 40.279 135.225 40.439C134.078 40.599 133.172 40.7457 132.505 40.879C132.345 40.9057 132.212 40.9324 132.105 40.959C132.025 40.9857 131.932 41.0124 131.825 41.039C131.745 41.039 131.625 41.039 131.465 41.039C131.465 41.039 131.452 41.039 131.425 41.039C131.318 41.0124 131.198 40.9857 131.065 40.959C130.958 40.9057 130.878 40.8124 130.825 40.679C130.798 40.5457 130.798 40.4124 130.825 40.279C130.852 40.119 130.892 39.9857 130.945 39.879C130.945 39.8524 130.945 39.839 130.945 39.839C131.025 39.6257 131.065 39.439 131.065 39.279C131.092 39.0924 131.052 38.959 130.945 38.879C130.812 38.7724 130.638 38.7057 130.425 38.679C130.265 38.6524 130.078 38.6657 129.865 38.719C129.012 38.9057 128.185 39.1857 127.385 39.559C126.558 39.879 125.745 40.239 124.945 40.639L123.745 41.199C123.345 41.3857 122.972 41.4257 122.625 41.319C122.438 41.239 122.305 41.119 122.225 40.959C122.118 40.7724 122.078 40.5724 122.105 40.359C122.105 40.0124 122.145 39.7724 122.225 39.639C122.252 39.5857 122.265 39.5324 122.265 39.479C122.265 39.4524 122.278 39.4257 122.305 39.399C122.332 39.2657 122.385 39.0924 122.465 38.879C122.545 38.639 122.638 38.4257 122.745 38.239C122.852 38.0257 122.945 37.879 123.025 37.799C123.212 37.8257 123.385 37.9324 123.545 38.119C123.625 38.199 123.665 38.279 123.665 38.359C123.692 38.439 123.705 38.519 123.705 38.599C123.705 38.7057 123.692 38.799 123.665 38.879C123.665 38.9324 123.652 38.999 123.625 39.079C123.625 39.079 123.625 39.0924 123.625 39.119L123.385 39.799L123.305 40.079C123.305 40.1057 123.292 40.1324 123.265 40.159C123.265 40.1857 123.265 40.199 123.265 40.199L124.985 39.439C125.252 39.3324 125.532 39.2257 125.825 39.119C126.358 38.879 126.918 38.6657 127.505 38.479C127.905 38.319 128.332 38.1724 128.785 38.039C128.838 38.039 128.892 38.0257 128.945 37.999C129.292 37.8657 129.732 37.799 130.265 37.799C130.425 37.799 130.558 37.8257 130.665 37.879C130.692 37.879 130.718 37.879 130.745 37.879C130.878 37.879 131.012 37.919 131.145 37.999L131.385 38.119L131.625 38.359C131.785 38.519 131.878 38.7057 131.905 38.919C131.932 39.1324 131.932 39.3057 131.905 39.439C131.878 39.5724 131.852 39.6924 131.825 39.799C131.798 39.8257 131.785 39.8524 131.785 39.879L131.625 40.279H131.825C131.985 40.2524 132.132 40.2257 132.265 40.199C132.398 40.1457 132.545 40.1057 132.705 40.079C133.292 39.999 134.078 39.8924 135.065 39.759C136.132 39.6257 137.198 39.479 138.265 39.319C139.358 39.159 140.198 38.999 140.785 38.839ZM167.534 38.679C167.747 38.7324 167.867 38.799 167.894 38.879C167.921 38.9324 167.881 38.999 167.774 39.079C167.667 39.1324 167.534 39.199 167.374 39.279C163.667 40.2124 159.921 40.9857 156.134 41.599C155.947 41.6257 155.761 41.6524 155.574 41.679C154.801 41.7857 154.001 41.839 153.174 41.839C152.667 41.839 152.161 41.679 151.654 41.359C151.387 41.199 151.174 40.959 151.014 40.639C150.907 40.319 150.881 40.0124 150.934 39.719C151.147 38.5457 151.801 37.6924 152.894 37.159C153.427 36.919 153.974 36.8124 154.534 36.839C154.827 36.8657 155.107 36.919 155.374 36.999C155.721 37.1057 155.934 37.199 156.014 37.279C156.094 37.3324 156.094 37.399 156.014 37.479C155.961 37.559 155.854 37.639 155.694 37.719C155.454 37.8257 155.241 37.9724 155.054 38.159C154.307 37.919 153.601 38.0124 152.934 38.439C152.614 38.6524 152.361 38.9324 152.174 39.279C152.094 39.439 152.027 39.6124 151.974 39.799C151.947 39.959 151.947 40.0924 151.974 40.199C152.027 40.4124 152.227 40.5857 152.574 40.719C152.921 40.8524 153.307 40.9057 153.734 40.879C154.614 40.879 155.521 40.799 156.454 40.639C160.187 40.1324 163.881 39.479 167.534 38.679ZM181.865 38.799L182.785 38.639L182.425 39.319C181.358 39.559 180.185 39.7857 178.905 39.999C177.625 40.1857 176.425 40.2924 175.305 40.319C174.265 40.319 173.252 40.239 172.265 40.079L172.145 40.279C171.772 40.8924 171.305 41.3857 170.745 41.759C170.132 42.159 169.478 42.4124 168.785 42.519C168.438 42.5724 168.078 42.559 167.705 42.479C167.492 42.4524 167.292 42.3857 167.105 42.279C166.892 42.1457 166.718 41.9724 166.585 41.759C166.372 41.3057 166.292 40.879 166.345 40.479C166.398 40.079 166.518 39.7324 166.705 39.439C167.078 38.7724 167.585 38.239 168.225 37.839C168.492 37.7057 168.638 37.7857 168.665 38.079C168.692 38.3724 168.572 38.7857 168.305 39.319C167.932 39.6657 167.678 40.0657 167.545 40.519C167.465 40.7324 167.452 40.919 167.505 41.079C167.532 41.1324 167.558 41.1857 167.585 41.239C167.612 41.2657 167.665 41.2924 167.745 41.319C167.905 41.399 168.105 41.439 168.345 41.439C168.585 41.439 168.825 41.4124 169.065 41.359C169.572 41.2257 170.025 40.999 170.425 40.679C170.772 40.439 171.065 40.1457 171.305 39.799C171.012 39.719 170.745 39.6124 170.505 39.479L169.785 39.159C169.625 39.1324 169.465 39.0657 169.305 38.959C169.145 38.8257 169.065 38.6657 169.065 38.479C169.065 38.2657 169.132 38.0657 169.265 37.879C169.398 37.6924 169.545 37.559 169.705 37.479C170.078 37.319 170.425 37.239 170.745 37.239C170.932 37.239 171.105 37.2524 171.265 37.279C171.425 37.279 171.598 37.2924 171.785 37.319C171.998 37.3724 172.172 37.4924 172.305 37.679C172.465 37.839 172.572 38.0257 172.625 38.239C172.705 38.639 172.678 39.0124 172.545 39.359C173.505 39.519 174.478 39.599 175.465 39.599C177.598 39.599 179.732 39.3324 181.865 38.799ZM170.905 38.759C170.958 38.7857 171.012 38.8124 171.065 38.839C171.225 38.919 171.412 38.999 171.625 39.079C171.625 39.0257 171.625 38.9857 171.625 38.959C171.625 38.9324 171.638 38.9057 171.665 38.879C171.718 38.6657 171.718 38.4924 171.665 38.359C171.638 38.3324 171.625 38.319 171.625 38.319C171.625 38.2924 171.612 38.279 171.585 38.279C171.585 38.2524 171.572 38.239 171.545 38.239C171.518 38.2124 171.478 38.199 171.425 38.199C171.185 38.1457 170.932 38.1324 170.665 38.159C170.425 38.159 170.238 38.199 170.105 38.279C170.078 38.3057 170.052 38.319 170.025 38.319C170.025 38.3457 170.012 38.359 169.985 38.359L170.105 38.399C170.185 38.4257 170.292 38.479 170.425 38.559C170.558 38.6124 170.678 38.6657 170.785 38.719C170.838 38.719 170.878 38.7324 170.905 38.759ZM207.504 38.839C207.957 38.8657 208.424 38.879 208.904 38.879C208.344 39.0924 207.771 39.279 207.184 39.439C205.424 39.679 203.651 39.8257 201.864 39.879L200.504 39.959C200.077 40.0124 199.637 40.0257 199.184 39.999C198.944 39.9724 198.704 39.919 198.464 39.839C198.224 39.759 198.037 39.6124 197.904 39.399C197.797 39.2124 197.731 39.0524 197.704 38.919C197.651 38.759 197.597 38.639 197.544 38.559C197.491 38.4524 197.397 38.3857 197.264 38.359C197.024 38.3057 196.731 38.319 196.384 38.399C196.277 38.4257 196.171 38.4524 196.064 38.479C195.637 38.5857 195.211 38.719 194.784 38.879C193.984 39.1457 193.197 39.5057 192.424 39.959L191.304 40.679C191.091 40.8124 190.851 40.919 190.584 40.999C190.317 41.079 190.037 41.079 189.744 40.999C189.611 40.9724 189.477 40.9057 189.344 40.799C189.211 40.6657 189.117 40.5324 189.064 40.399C188.957 40.1857 188.904 39.9724 188.904 39.759C188.877 39.7057 188.864 39.6524 188.864 39.599C188.864 39.4924 188.864 39.3857 188.864 39.279C188.864 39.1724 188.851 39.079 188.824 38.999C188.797 38.919 188.771 38.8657 188.744 38.839C188.717 38.8124 188.691 38.7857 188.664 38.759C188.264 38.759 187.824 38.8257 187.344 38.959C186.731 39.119 186.091 39.359 185.424 39.679C184.784 39.999 184.211 40.359 183.704 40.759L182.184 41.919C181.811 41.9457 181.584 41.8124 181.504 41.519C181.424 41.199 181.437 40.8257 181.544 40.399C181.624 39.9457 181.717 39.5324 181.824 39.159C181.851 39.0257 181.877 38.9057 181.904 38.799L182.064 38.319L182.224 37.959C182.517 37.319 182.771 37.0657 182.984 37.199C183.197 37.3324 183.331 37.7057 183.384 38.319L182.784 39.999L183.144 39.759C183.251 39.7057 183.357 39.639 183.464 39.559C184.584 38.8657 185.797 38.319 187.104 37.919C187.371 37.839 187.664 37.7857 187.984 37.759C188.037 37.759 188.104 37.759 188.184 37.759C188.264 37.7324 188.344 37.719 188.424 37.719C188.584 37.719 188.811 37.759 189.104 37.839C189.317 37.9457 189.477 38.0924 189.584 38.279C189.717 38.4657 189.797 38.639 189.824 38.799C189.824 38.8257 189.824 38.839 189.824 38.839C189.851 39.1057 189.864 39.359 189.864 39.599C189.864 39.7057 189.864 39.799 189.864 39.879C189.891 39.9324 189.917 39.9724 189.944 39.999C189.944 40.0257 189.944 40.0524 189.944 40.079C189.971 40.079 189.984 40.0924 189.984 40.119C190.011 40.119 190.037 40.119 190.064 40.119C190.251 40.1724 190.517 40.079 190.864 39.839C191.104 39.679 191.371 39.519 191.664 39.359C191.797 39.279 191.931 39.199 192.064 39.119C192.917 38.6924 193.784 38.319 194.664 37.999L196.064 37.639L196.824 37.519C196.957 37.519 197.117 37.5324 197.304 37.559C197.491 37.5857 197.677 37.6657 197.864 37.799C198.051 37.9324 198.184 38.0924 198.264 38.279C198.344 38.439 198.397 38.5724 198.424 38.679C198.451 38.759 198.477 38.8257 198.504 38.879C198.531 38.9324 198.544 38.9724 198.544 38.999C198.571 38.999 198.584 39.0124 198.584 39.039C198.637 39.119 198.744 39.1857 198.904 39.239C199.064 39.2657 199.237 39.279 199.424 39.279C199.851 39.3057 200.291 39.2924 200.744 39.239L202.104 39.199C203.944 39.1724 205.744 39.0524 207.504 38.839ZM226.286 38.639L226.046 39.239C223.646 39.4257 221.26 39.6924 218.886 40.039C217.74 40.2257 216.606 40.4657 215.486 40.759C215.22 40.8124 214.94 40.879 214.646 40.959L214.246 41.079L214.046 41.159L213.766 41.239L211.126 42.159L212.166 40.799L212.766 39.999C212.793 39.919 212.82 39.8524 212.846 39.799C212.846 39.7724 212.86 39.7457 212.886 39.719L212.966 39.479C213.02 39.1857 212.98 38.9324 212.846 38.719C212.766 38.6124 212.686 38.5457 212.606 38.519C212.526 38.4924 212.406 38.479 212.246 38.479C211.073 38.4524 210.02 38.8124 209.086 39.559L208.486 41.359L207.326 45.079L205.006 52.439L204.526 53.039V52.079L206.566 44.479L207.606 40.679C207.926 39.399 208.42 38.1324 209.086 36.879C209.3 37.199 209.526 37.519 209.766 37.839C209.82 37.8124 209.86 37.799 209.886 37.799C210.02 37.719 210.166 37.6657 210.326 37.639C210.726 37.5057 211.113 37.4257 211.486 37.399C211.513 37.399 211.526 37.399 211.526 37.399C211.713 37.3724 211.9 37.359 212.086 37.359C212.273 37.359 212.486 37.3857 212.726 37.439C212.993 37.4924 213.246 37.6257 213.486 37.839C213.673 38.0524 213.806 38.279 213.886 38.519C214.046 38.999 214.046 39.4657 213.886 39.919L213.766 40.279L214.486 40.079L215.366 39.879C216.54 39.639 217.726 39.439 218.926 39.279C221.38 38.9857 223.833 38.7724 226.286 38.639ZM240.221 38.559L241.381 38.359L241.181 38.879C240.034 39.1457 238.741 39.4657 237.301 39.839C235.861 40.2124 234.567 40.559 233.421 40.879L230.181 41.839C229.674 42.0257 229.141 42.199 228.581 42.359C227.994 42.519 227.394 42.4924 226.781 42.279C226.461 42.119 226.194 41.9057 225.981 41.639C225.767 41.3457 225.674 41.0257 225.701 40.679C225.754 40.199 225.834 39.7724 225.941 39.399C225.967 39.239 225.994 39.0924 226.021 38.959C226.261 37.8124 226.527 36.7057 226.821 35.639C227.461 33.4257 228.207 31.2657 229.061 29.159L229.901 30.359C229.047 32.359 228.301 34.4257 227.661 36.559C227.341 37.5724 227.061 38.639 226.821 39.759C226.794 39.839 226.781 39.9057 226.781 39.959C226.727 40.199 226.674 40.4257 226.621 40.639C226.594 40.8257 226.607 40.959 226.661 41.039C226.714 41.1724 226.807 41.2924 226.941 41.399C227.101 41.479 227.287 41.5324 227.501 41.559C228.061 41.5857 228.727 41.4657 229.501 41.199C229.821 41.119 230.141 41.039 230.461 40.959C231.554 40.639 232.634 40.3457 233.701 40.079C235.887 39.4924 238.061 38.9857 240.221 38.559ZM262.817 28.559C262.923 28.5857 263.043 28.6124 263.177 28.639C263.817 28.7724 264.497 28.9857 265.217 29.279C264.737 29.1724 264.297 29.1057 263.897 29.079C263.817 29.079 263.723 29.079 263.617 29.079L262.097 28.999C259.537 28.7057 256.977 28.5057 254.417 28.399C253.35 31.0924 252.403 33.8257 251.577 36.599C251.097 38.2257 250.63 39.8657 250.177 41.519C250.15 41.599 250.123 41.679 250.097 41.759C249.803 42.5324 249.657 43.2257 249.657 43.839C249.657 43.999 249.683 44.159 249.737 44.319C249.763 44.4524 249.817 44.559 249.897 44.639C249.95 44.719 250.043 44.7857 250.177 44.839C250.31 44.8924 250.43 44.919 250.537 44.919C250.617 44.9724 250.697 44.999 250.777 44.999C250.857 44.999 250.937 44.9724 251.017 44.919C251.017 45.0257 250.95 45.1457 250.817 45.279C250.683 45.3857 250.51 45.439 250.297 45.439C249.87 45.3857 249.537 45.1724 249.297 44.799C249.11 44.399 249.017 43.9857 249.017 43.559C249.097 42.919 249.23 42.2924 249.417 41.679C249.47 41.4657 249.523 41.239 249.577 40.999C249.977 39.319 250.403 37.639 250.857 35.959C251.523 33.399 252.297 30.8524 253.177 28.319C251.737 28.2657 250.323 28.2657 248.937 28.319C247.843 28.3457 246.763 28.4657 245.697 28.679C245.43 28.7324 245.177 28.8124 244.937 28.919C244.723 29.0257 244.643 29.1857 244.697 29.399C244.723 29.5057 244.777 29.599 244.857 29.679C244.937 29.759 245.03 29.839 245.137 29.919L245.777 30.439C246.71 31.079 247.55 31.8124 248.297 32.639C249.123 33.4124 249.67 34.399 249.937 35.599C250.017 36.2124 249.923 36.799 249.657 37.359C249.39 37.8924 249.043 38.359 248.617 38.759C247.71 39.5057 246.723 40.079 245.657 40.479C244.617 40.879 243.55 41.2124 242.457 41.479C241.923 41.5857 241.377 41.679 240.817 41.759L239.937 41.879C239.617 41.879 239.297 41.8257 238.977 41.719C238.657 41.639 238.363 41.479 238.097 41.239C237.83 40.9457 237.67 40.6124 237.617 40.239C237.59 39.4924 237.75 38.8657 238.097 38.359C238.817 37.2657 239.817 36.5724 241.097 36.279C241.177 36.279 241.243 36.279 241.297 36.279C241.377 36.2524 241.47 36.239 241.577 36.239C241.71 36.239 241.83 36.2524 241.937 36.279C242.07 36.279 242.19 36.3057 242.297 36.359C242.51 36.439 242.67 36.5857 242.777 36.799C242.91 36.9857 242.95 37.199 242.897 37.439C242.843 37.6524 242.723 37.8657 242.537 38.079C242.51 38.1324 242.47 38.1724 242.417 38.199C242.39 38.2257 242.363 38.2524 242.337 38.279C242.31 38.3324 242.27 38.3724 242.217 38.399C242.19 38.4257 242.177 38.439 242.177 38.439C241.937 38.6524 241.697 38.839 241.457 38.999C240.603 39.5857 239.683 40.0124 238.697 40.279C238.723 40.359 238.763 40.4257 238.817 40.479C238.897 40.5324 238.99 40.5857 239.097 40.639C239.283 40.7457 239.47 40.799 239.657 40.799C239.763 40.8257 239.897 40.8257 240.057 40.799C240.137 40.799 240.23 40.799 240.337 40.799C242.443 40.5324 244.443 39.9724 246.337 39.119C247.297 38.6657 248.057 38.079 248.617 37.359C248.883 36.9857 249.03 36.5857 249.057 36.159C249.083 35.7057 248.99 35.279 248.777 34.879C248.377 33.999 247.777 33.199 246.977 32.479C246.737 32.239 246.483 32.0124 246.217 31.799C246.083 31.6924 245.95 31.5724 245.817 31.439L245.177 30.959C245.097 30.9057 245.017 30.8524 244.937 30.799C244.803 30.6924 244.657 30.5724 244.497 30.439C244.47 30.4124 244.443 30.3857 244.417 30.359C244.31 30.279 244.217 30.1724 244.137 30.039C243.977 29.799 243.883 29.559 243.857 29.319C243.857 29.0257 243.95 28.7857 244.137 28.599C244.35 28.3857 244.55 28.2524 244.737 28.199C245.323 27.959 245.897 27.8124 246.457 27.759C247.603 27.6524 248.71 27.599 249.777 27.599C250.95 27.599 252.123 27.6257 253.297 27.679C253.35 27.679 253.39 27.679 253.417 27.679C253.603 27.119 253.817 26.559 254.057 25.999L254.977 27.039L254.657 27.759C257.377 27.919 260.097 28.1857 262.817 28.559ZM239.177 38.759L238.977 39.039C239.243 38.9324 239.537 38.799 239.857 38.639C240.177 38.4524 240.443 38.279 240.657 38.119C240.87 37.9857 241.07 37.839 241.257 37.679C241.31 37.6257 241.363 37.5724 241.417 37.519C241.47 37.4657 241.523 37.4257 241.577 37.399H241.457C241.057 37.4524 240.643 37.599 240.217 37.839C239.817 38.079 239.47 38.3857 239.177 38.759ZM269.218 38.839C270.045 38.6524 270.378 38.639 270.218 38.799C270.085 38.9324 269.711 39.1457 269.098 39.439C268.191 39.5724 266.898 39.9457 265.218 40.559C263.831 41.039 262.391 41.479 260.898 41.879C259.405 42.279 258.058 42.4657 256.858 42.439C255.658 42.3857 254.791 41.9324 254.258 41.079C253.911 40.3057 253.898 39.5057 254.218 38.679C254.751 37.4257 255.631 36.5724 256.858 36.119C257.071 36.039 257.325 35.999 257.618 35.999C257.938 35.9724 258.231 36.0257 258.498 36.159C258.765 36.2657 258.911 36.479 258.938 36.799C258.938 36.9857 258.885 37.199 258.778 37.439C258.538 37.839 258.165 38.2124 257.658 38.559C256.885 39.119 256.045 39.5324 255.138 39.799C255.058 40.6257 255.511 41.1857 256.498 41.479C257.538 41.6924 258.845 41.6257 260.418 41.279C262.018 40.9057 263.711 40.439 265.498 39.879C266.751 39.5057 267.991 39.159 269.218 38.839ZM257.618 37.079C256.871 37.079 256.205 37.5324 255.618 38.439C256.498 38.119 257.245 37.7057 257.858 37.199L257.618 37.079Z" fill="white"/>
</g>
<defs>
<filter id="filter0_d_88:2867" x="0.400024" y="-0.000976562" width="300.058" height="87.04" filterUnits="userSpaceOnUse" color-interpolation-filters="sRGB">
<feFlood flood-opacity="0" result="BackgroundImageFix"/>
<feColorMatrix in="SourceAlpha" type="matrix" values="0 0 0 0 0 0 0 0 0 0 0 0 0 0 0 0 0 0 127 0" result="hardAlpha"/>
<feOffset dy="4"/>
<feGaussianBlur stdDeviation="15"/>
<feComposite in2="hardAlpha" operator="out"/>
<feColorMatrix type="matrix" values="0 0 0 0 1 0 0 0 0 1 0 0 0 0 1 0 0 0 1 0"/>
<feBlend mode="normal" in2="BackgroundImageFix" result="effect1_dropShadow_88:2867"/>
<feBlend mode="normal" in="SourceGraphic" in2="effect1_dropShadow_88:2867" result="shape"/>
</filter>
</defs>
</svg>
