<svg width="52" height="15" viewBox="0 0 52 15" fill="none" xmlns="http://www.w3.org/2000/svg">
<g opacity="0.5" clip-path="url(#clip0_375_1143)">
<path fill-rule="evenodd" clip-rule="evenodd" d="M35.1172 15H38.8126L40.4003 10.2817L42.0511 8.83543L43.3514 13.1025C43.7536 14.4213 44.1676 15 45.0705 15H47.8997L44.981 6.62686L52.0003 0H47.4672L43.2062 4.71843C42.7099 5.26771 42.2078 5.80836 41.7043 6.45411H41.6614L43.789 0H40.0933L35.1172 15Z" fill="white"/>
<path fill-rule="evenodd" clip-rule="evenodd" d="M34.9572 0.000594343C36.1161 0.000791621 37.2402 0.000982954 38.1816 0.00106942L37.4188 2.47763C37.179 3.25574 36.5706 3.628 35.2294 3.628C32.9008 3.628 29.4552 3.62757 27.1263 3.62714L27.8891 1.15059C28.1288 0.37205 28.7372 0 30.0783 0C31.4656 0 33.2493 0.00030363 34.9572 0.000594343ZM28.1976 5.68607C30.5261 5.68607 33.9719 5.6865 36.3008 5.68714L35.538 8.16361C35.2983 8.94193 34.6898 9.31396 33.3486 9.31396C31.02 9.31396 27.5743 9.31354 25.2455 9.31289L26.0083 6.83668C26.2479 6.05821 26.8564 5.68607 28.1976 5.68607ZM34.3275 11.3729C31.9988 11.3724 28.5532 11.372 26.2246 11.372C24.8831 11.372 24.2749 11.7443 24.0352 12.5221L23.2725 14.999C25.6013 14.9993 29.0469 15 31.3756 15C32.7167 15 33.3252 14.6276 33.5649 13.8493L34.3275 11.3729Z" fill="white"/>
<path fill-rule="evenodd" clip-rule="evenodd" d="M18.3614 3.61286L20.3446 3.61371C22.0344 3.61414 21.6487 5.77446 20.7935 7.87996C20.04 9.73571 18.7045 11.3734 17.1113 11.3731L13.8051 11.3727C12.4864 11.3727 11.8784 11.745 11.622 12.5228L10.8057 14.9996L13.23 15L15.5999 14.9798C17.7015 14.962 19.4221 14.8065 21.4341 12.9555C23.5604 11 26.0396 5.92011 25.6149 2.98193C25.2821 0.679475 24.0736 0.00106937 21.147 0.000855493L15.814 0L12.7088 9.30329L14.6818 9.30586C15.856 9.30721 16.4453 9.32232 17.0699 7.60171L18.3614 3.61286Z" fill="white"/>
<path fill-rule="evenodd" clip-rule="evenodd" d="M9.24384 3.62579L7.75222 3.62621C4.76411 3.62771 2.20359 11.3744 5.73668 11.3731L8.00679 11.3727C9.31604 11.3727 10.288 11.8621 9.85761 13.1819L9.26458 14.9996L6.85694 15L4.89857 14.9798C2.39321 14.9541 0.776502 13.6898 0.19438 11.7701C-0.435561 9.69264 0.453805 5.35968 3.03508 2.58402C4.53281 0.973764 6.60748 0.00106937 9.26748 0.000855493L14.1818 0L13.4136 2.27026C12.9173 3.73711 11.9032 3.62771 11.3245 3.6275L9.24384 3.62579Z" fill="white"/>
</g>
<defs>
<clipPath id="clip0_375_1143">
<rect width="52" height="15" fill="white"/>
</clipPath>
</defs>
</svg>
