<svg width="301" height="88" viewBox="0 0 301 88" fill="none" xmlns="http://www.w3.org/2000/svg">
<g filter="url(#filter0_d_375_3250)">
<path d="M53.96 47.32L53.44 48L53.48 46.92L57.6 32.64C55.68 34.3467 53.5867 35.7867 51.32 36.96C50.0933 37.5733 48.8267 38.12 47.52 38.6C46.24 39.08 44.9067 39.4 43.52 39.56C42.8267 39.64 42.12 39.64 41.4 39.56C40.6533 39.4533 39.9733 39.24 39.36 38.92C38.08 38.2 37.0133 37.2667 36.16 36.12C35.3333 34.9733 34.68 33.72 34.2 32.36C34.04 31.9067 33.9067 31.4667 33.8 31.04C33.4 32.1067 33.0267 33.1867 32.68 34.28L30.84 40.12L30.44 40.6L30.4 39.84L31.92 33.72L32.8 30.72L33.28 29.2L33.48 28.48L33.52 28.36V28.12C33.52 28.12 33.52 28.1333 33.52 28.16C33.52 28.16 33.5333 28.16 33.56 28.16C33.56 28.16 33.56 28.1733 33.56 28.2L33.6 28.08V28L33.64 27.96C33.6133 27.96 33.6133 27.9733 33.64 28C33.6667 28 33.7067 28 33.76 28C33.7867 28.0267 33.8267 28.0533 33.88 28.08C33.9333 28.08 33.9867 28.0933 34.04 28.12H34.08C34.1067 28.0933 34.12 28.08 34.12 28.08C34.1467 28.08 34.1733 28.08 34.2 28.08C34.2267 28.1067 34.2533 28.12 34.28 28.12C34.28 28.12 34.28 28.1333 34.28 28.16C34.3067 28.16 34.32 28.16 34.32 28.16L34.48 28.28L34.76 28.48L34.56 28.96L34.76 29.08C34.9467 31.6933 35.8533 34.0267 37.48 36.08C38.3067 37.12 39.28 37.8667 40.4 38.32C41.5467 38.72 42.76 38.8133 44.04 38.6C45.32 38.4133 46.5867 38.0933 47.84 37.64C49.0933 37.1867 50.2933 36.6667 51.44 36.08C53.7867 34.88 55.9333 33.4133 57.88 31.68L58.52 29.48L59.56 30.32L53.96 47.32ZM64.7081 40.32C64.9748 40.24 65.3081 40.1333 65.7081 40C66.4815 39.76 67.3348 39.52 68.2681 39.28C69.2281 39.0133 70.0415 38.84 70.7081 38.76C71.3748 38.6533 71.6681 38.7467 71.5881 39.04C70.0681 39.3867 68.5215 39.8667 66.9481 40.48C66.1481 40.7467 65.3881 41 64.6681 41.24C64.1081 41.4267 63.5348 41.5467 62.9481 41.6C62.6548 41.6267 62.3348 41.6267 61.9881 41.6C61.6681 41.5467 61.3481 41.4133 61.0281 41.2C60.7081 40.9333 60.5081 40.6 60.4281 40.2C60.3748 39.8267 60.3881 39.48 60.4681 39.16C60.5748 38.52 60.8281 37.9333 61.2281 37.4C61.4415 37.7733 61.6948 38.12 61.9881 38.44C61.7215 38.84 61.5615 39.2533 61.5081 39.68C61.5081 39.92 61.5215 40.0933 61.5481 40.2C61.5748 40.2267 61.5881 40.2533 61.5881 40.28C61.6681 40.3333 61.7615 40.4 61.8681 40.48C62.2148 40.6133 62.6415 40.6533 63.1481 40.6C63.6815 40.5467 64.2015 40.4533 64.7081 40.32ZM65.4681 30.6L65.7081 30.84L65.5081 31.16C65.0281 31.2933 64.5348 31.48 64.0281 31.72C63.5215 31.96 63.0681 32.2667 62.6681 32.64C62.4548 32.8 62.2281 32.8933 61.9881 32.92C61.7481 32.9467 61.4548 32.9333 61.1081 32.88C61.1081 32.6933 61.1348 32.56 61.1881 32.48C61.2148 32.4533 61.2281 32.4267 61.2281 32.4C61.2815 32.32 61.3481 32.24 61.4281 32.16C61.8281 31.84 62.3081 31.5733 62.8681 31.36C63.0015 31.28 63.1348 31.2133 63.2681 31.16C63.9881 30.8933 64.7215 30.7067 65.4681 30.6ZM84.3072 38.52L83.9872 39.12C82.6539 39.2533 81.1472 39.44 79.4672 39.68C77.8139 39.92 76.3472 40.2133 75.0672 40.56C74.8005 40.64 74.5339 40.72 74.2672 40.8C74.0805 40.8533 73.8939 40.9067 73.7072 40.96C73.7072 41.1467 73.6939 41.36 73.6672 41.6C73.5072 42.16 73.1605 42.5867 72.6272 42.88C72.1205 43.1467 71.5872 43.36 71.0272 43.52C70.0672 43.8133 69.0805 43.92 68.0672 43.84L67.4272 43.8L67.5072 43.16C67.5872 42.7333 67.8139 42.4133 68.1872 42.2C68.5339 41.96 68.9205 41.7733 69.3472 41.64C69.3739 41.64 69.4139 41.6267 69.4672 41.6L71.3072 40.96L72.4672 40.56C72.4672 40.5333 72.4539 40.52 72.4272 40.52C72.4272 40.4933 72.4139 40.4667 72.3872 40.44C71.9339 39.9067 71.4139 39.4667 70.8272 39.12C70.4805 38.9067 70.1339 38.6533 69.7872 38.36C69.6539 38.28 69.5472 38.1467 69.4672 37.96C69.3605 37.7467 69.3072 37.5467 69.3072 37.36C69.4139 36.9333 69.6805 36.5733 70.1072 36.28C70.5339 35.9867 71.0005 35.8933 71.5072 36C71.9072 36.1333 72.1472 36.4133 72.2272 36.84C72.3339 37.24 72.2939 37.6267 72.1072 38C72.0539 38.1067 72.0005 38.2 71.9472 38.28C71.8939 38.36 71.8539 38.4267 71.8272 38.48C72.3072 38.88 72.7739 39.3333 73.2272 39.84L73.4272 40.24L75.0672 39.8C76.4272 39.48 77.9605 39.2133 79.6672 39C81.4005 38.7867 82.9472 38.6267 84.3072 38.52ZM72.7072 41.4V41.28L71.4672 41.72L69.7072 42.4L68.8272 42.76L68.5472 42.96C68.9739 42.96 69.5072 42.9067 70.1472 42.8C70.7605 42.6667 71.3205 42.4933 71.8272 42.28C72.3339 42.04 72.6272 41.7467 72.7072 41.4ZM70.5072 37.52C70.5872 37.6267 70.7072 37.72 70.8672 37.8L70.9072 37.76C70.9872 37.6267 71.0405 37.5067 71.0672 37.4C71.0672 37.3733 71.0672 37.3467 71.0672 37.32C71.0672 37.2933 71.0805 37.2667 71.1072 37.24V37.08C71.1072 37.08 71.0805 37.08 71.0272 37.08C71.0005 37.08 70.9605 37.0933 70.9072 37.12C70.8005 37.1467 70.6805 37.2267 70.5472 37.36L70.4272 37.48L70.5072 37.52ZM97.4713 38.52L97.1513 39.12C95.8179 39.2533 94.3113 39.44 92.6313 39.68C90.9779 39.92 89.5113 40.2133 88.2313 40.56C87.9646 40.64 87.6979 40.72 87.4313 40.8C87.2446 40.8533 87.0579 40.9067 86.8713 40.96C86.8713 41.1467 86.8579 41.36 86.8313 41.6C86.6713 42.16 86.3246 42.5867 85.7913 42.88C85.2846 43.1467 84.7513 43.36 84.1913 43.52C83.2313 43.8133 82.2446 43.92 81.2313 43.84L80.5913 43.8L80.6713 43.16C80.7513 42.7333 80.9779 42.4133 81.3513 42.2C81.6979 41.96 82.0846 41.7733 82.5113 41.64C82.5379 41.64 82.5779 41.6267 82.6313 41.6L84.4713 40.96L85.6313 40.56C85.6313 40.5333 85.6179 40.52 85.5913 40.52C85.5913 40.4933 85.5779 40.4667 85.5513 40.44C85.0979 39.9067 84.5779 39.4667 83.9913 39.12C83.6446 38.9067 83.2979 38.6533 82.9513 38.36C82.8179 38.28 82.7113 38.1467 82.6313 37.96C82.5246 37.7467 82.4713 37.5467 82.4713 37.36C82.5779 36.9333 82.8446 36.5733 83.2713 36.28C83.6979 35.9867 84.1646 35.8933 84.6713 36C85.0713 36.1333 85.3113 36.4133 85.3913 36.84C85.4979 37.24 85.4579 37.6267 85.2713 38C85.2179 38.1067 85.1646 38.2 85.1113 38.28C85.0579 38.36 85.0179 38.4267 84.9913 38.48C85.4713 38.88 85.9379 39.3333 86.3913 39.84L86.5913 40.24L88.2313 39.8C89.5913 39.48 91.1246 39.2133 92.8313 39C94.5646 38.7867 96.1113 38.6267 97.4713 38.52ZM85.8713 41.4V41.28L84.6313 41.72L82.8713 42.4L81.9913 42.76L81.7113 42.96C82.1379 42.96 82.6713 42.9067 83.3113 42.8C83.9246 42.6667 84.4846 42.4933 84.9913 42.28C85.4979 42.04 85.7913 41.7467 85.8713 41.4ZM83.6713 37.52C83.7513 37.6267 83.8713 37.72 84.0313 37.8L84.0713 37.76C84.1513 37.6267 84.2046 37.5067 84.2313 37.4C84.2313 37.3733 84.2313 37.3467 84.2313 37.32C84.2313 37.2933 84.2446 37.2667 84.2713 37.24V37.08C84.2713 37.08 84.2446 37.08 84.1913 37.08C84.1646 37.08 84.1246 37.0933 84.0713 37.12C83.9646 37.1467 83.8446 37.2267 83.7113 37.36L83.5913 37.48L83.6713 37.52ZM101.075 40.32C101.342 40.24 101.675 40.1333 102.075 40C102.849 39.76 103.702 39.52 104.635 39.28C105.595 39.0133 106.409 38.84 107.075 38.76C107.742 38.6533 108.035 38.7467 107.955 39.04C106.435 39.3867 104.889 39.8667 103.315 40.48C102.515 40.7467 101.755 41 101.035 41.24C100.475 41.4267 99.902 41.5467 99.3153 41.6C99.022 41.6267 98.702 41.6267 98.3553 41.6C98.0353 41.5467 97.7153 41.4133 97.3953 41.2C97.0753 40.9333 96.8753 40.6 96.7953 40.2C96.742 39.8267 96.7553 39.48 96.8353 39.16C96.942 38.52 97.1953 37.9333 97.5953 37.4C97.8087 37.7733 98.062 38.12 98.3553 38.44C98.0887 38.84 97.9287 39.2533 97.8753 39.68C97.8753 39.92 97.8887 40.0933 97.9153 40.2C97.942 40.2267 97.9553 40.2533 97.9553 40.28C98.0353 40.3333 98.1287 40.4 98.2353 40.48C98.582 40.6133 99.0087 40.6533 99.5153 40.6C100.049 40.5467 100.569 40.4533 101.075 40.32ZM101.835 30.6L102.075 30.84L101.875 31.16C101.395 31.2933 100.902 31.48 100.395 31.72C99.8887 31.96 99.4353 32.2667 99.0353 32.64C98.822 32.8 98.5953 32.8933 98.3553 32.92C98.1153 32.9467 97.822 32.9333 97.4753 32.88C97.4753 32.6933 97.502 32.56 97.5553 32.48C97.582 32.4533 97.5953 32.4267 97.5953 32.4C97.6487 32.32 97.7153 32.24 97.7953 32.16C98.1953 31.84 98.6753 31.5733 99.2353 31.36C99.3687 31.28 99.502 31.2133 99.6353 31.16C100.355 30.8933 101.089 30.7067 101.835 30.6ZM121.826 38.8L122.746 38.64L122.386 39.32C121.319 39.56 120.146 39.7867 118.866 40C117.586 40.1867 116.386 40.2933 115.266 40.32C114.226 40.32 113.213 40.24 112.226 40.08L112.106 40.28C111.733 40.8933 111.266 41.3867 110.706 41.76C110.093 42.16 109.439 42.4133 108.746 42.52C108.399 42.5733 108.039 42.56 107.666 42.48C107.453 42.4533 107.253 42.3867 107.066 42.28C106.853 42.1467 106.679 41.9733 106.546 41.76C106.333 41.3067 106.253 40.88 106.306 40.48C106.359 40.08 106.479 39.7333 106.666 39.44C107.039 38.7733 107.546 38.24 108.186 37.84C108.453 37.7067 108.599 37.7867 108.626 38.08C108.653 38.3733 108.533 38.7867 108.266 39.32C107.893 39.6667 107.639 40.0667 107.506 40.52C107.426 40.7333 107.413 40.92 107.466 41.08C107.493 41.1333 107.519 41.1867 107.546 41.24C107.573 41.2667 107.626 41.2933 107.706 41.32C107.866 41.4 108.066 41.44 108.306 41.44C108.546 41.44 108.786 41.4133 109.026 41.36C109.533 41.2267 109.986 41 110.386 40.68C110.733 40.44 111.026 40.1467 111.266 39.8C110.973 39.72 110.706 39.6133 110.466 39.48L109.746 39.16C109.586 39.1333 109.426 39.0667 109.266 38.96C109.106 38.8267 109.026 38.6667 109.026 38.48C109.026 38.2667 109.093 38.0667 109.226 37.88C109.359 37.6933 109.506 37.56 109.666 37.48C110.039 37.32 110.386 37.24 110.706 37.24C110.893 37.24 111.066 37.2533 111.226 37.28C111.386 37.28 111.559 37.2933 111.746 37.32C111.959 37.3733 112.133 37.4933 112.266 37.68C112.426 37.84 112.533 38.0267 112.586 38.24C112.666 38.64 112.639 39.0133 112.506 39.36C113.466 39.52 114.439 39.6 115.426 39.6C117.559 39.6 119.693 39.3333 121.826 38.8ZM110.866 38.76C110.919 38.7867 110.973 38.8133 111.026 38.84C111.186 38.92 111.373 39 111.586 39.08C111.586 39.0267 111.586 38.9867 111.586 38.96C111.586 38.9333 111.599 38.9067 111.626 38.88C111.679 38.6667 111.679 38.4933 111.626 38.36C111.599 38.3333 111.586 38.32 111.586 38.32C111.586 38.2933 111.573 38.28 111.546 38.28C111.546 38.2533 111.533 38.24 111.506 38.24C111.479 38.2133 111.439 38.2 111.386 38.2C111.146 38.1467 110.893 38.1333 110.626 38.16C110.386 38.16 110.199 38.2 110.066 38.28C110.039 38.3067 110.013 38.32 109.986 38.32C109.986 38.3467 109.973 38.36 109.946 38.36L110.066 38.4C110.146 38.4267 110.253 38.48 110.386 38.56C110.519 38.6133 110.639 38.6667 110.746 38.72C110.799 38.72 110.839 38.7333 110.866 38.76ZM140.785 38.84C141.212 38.76 141.452 38.7467 141.505 38.8C141.585 38.8533 141.545 38.9333 141.385 39.04C141.225 39.1467 140.998 39.2667 140.705 39.4C140.118 39.5867 139.318 39.7733 138.305 39.96C137.292 40.12 136.265 40.28 135.225 40.44C134.078 40.6 133.172 40.7467 132.505 40.88C132.345 40.9067 132.212 40.9333 132.105 40.96C132.025 40.9867 131.932 41.0133 131.825 41.04C131.745 41.04 131.625 41.04 131.465 41.04C131.465 41.04 131.452 41.04 131.425 41.04C131.318 41.0133 131.198 40.9867 131.065 40.96C130.958 40.9067 130.878 40.8133 130.825 40.68C130.798 40.5467 130.798 40.4133 130.825 40.28C130.852 40.12 130.892 39.9867 130.945 39.88C130.945 39.8533 130.945 39.84 130.945 39.84C131.025 39.6267 131.065 39.44 131.065 39.28C131.092 39.0933 131.052 38.96 130.945 38.88C130.812 38.7733 130.638 38.7067 130.425 38.68C130.265 38.6533 130.078 38.6667 129.865 38.72C129.012 38.9067 128.185 39.1867 127.385 39.56C126.558 39.88 125.745 40.24 124.945 40.64L123.745 41.2C123.345 41.3867 122.972 41.4267 122.625 41.32C122.438 41.24 122.305 41.12 122.225 40.96C122.118 40.7733 122.078 40.5733 122.105 40.36C122.105 40.0133 122.145 39.7733 122.225 39.64C122.252 39.5867 122.265 39.5333 122.265 39.48C122.265 39.4533 122.278 39.4267 122.305 39.4C122.332 39.2667 122.385 39.0933 122.465 38.88C122.545 38.64 122.638 38.4267 122.745 38.24C122.852 38.0267 122.945 37.88 123.025 37.8C123.212 37.8267 123.385 37.9333 123.545 38.12C123.625 38.2 123.665 38.28 123.665 38.36C123.692 38.44 123.705 38.52 123.705 38.6C123.705 38.7067 123.692 38.8 123.665 38.88C123.665 38.9333 123.652 39 123.625 39.08C123.625 39.08 123.625 39.0933 123.625 39.12L123.385 39.8L123.305 40.08C123.305 40.1067 123.292 40.1333 123.265 40.16C123.265 40.1867 123.265 40.2 123.265 40.2L124.985 39.44C125.252 39.3333 125.532 39.2267 125.825 39.12C126.358 38.88 126.918 38.6667 127.505 38.48C127.905 38.32 128.332 38.1733 128.785 38.04C128.838 38.04 128.892 38.0267 128.945 38C129.292 37.8667 129.732 37.8 130.265 37.8C130.425 37.8 130.558 37.8267 130.665 37.88C130.692 37.88 130.718 37.88 130.745 37.88C130.878 37.88 131.012 37.92 131.145 38L131.385 38.12L131.625 38.36C131.785 38.52 131.878 38.7067 131.905 38.92C131.932 39.1333 131.932 39.3067 131.905 39.44C131.878 39.5733 131.852 39.6933 131.825 39.8C131.798 39.8267 131.785 39.8533 131.785 39.88L131.625 40.28H131.825C131.985 40.2533 132.132 40.2267 132.265 40.2C132.398 40.1467 132.545 40.1067 132.705 40.08C133.292 40 134.078 39.8933 135.065 39.76C136.132 39.6267 137.198 39.48 138.265 39.32C139.358 39.16 140.198 39 140.785 38.84ZM167.534 38.68C167.747 38.7333 167.867 38.8 167.894 38.88C167.921 38.9333 167.881 39 167.774 39.08C167.667 39.1333 167.534 39.2 167.374 39.28C163.667 40.2133 159.921 40.9867 156.134 41.6C155.947 41.6267 155.761 41.6533 155.574 41.68C154.801 41.7867 154.001 41.84 153.174 41.84C152.667 41.84 152.161 41.68 151.654 41.36C151.387 41.2 151.174 40.96 151.014 40.64C150.907 40.32 150.881 40.0133 150.934 39.72C151.147 38.5467 151.801 37.6933 152.894 37.16C153.427 36.92 153.974 36.8133 154.534 36.84C154.827 36.8667 155.107 36.92 155.374 37C155.721 37.1067 155.934 37.2 156.014 37.28C156.094 37.3333 156.094 37.4 156.014 37.48C155.961 37.56 155.854 37.64 155.694 37.72C155.454 37.8267 155.241 37.9733 155.054 38.16C154.307 37.92 153.601 38.0133 152.934 38.44C152.614 38.6533 152.361 38.9333 152.174 39.28C152.094 39.44 152.027 39.6133 151.974 39.8C151.947 39.96 151.947 40.0933 151.974 40.2C152.027 40.4133 152.227 40.5867 152.574 40.72C152.921 40.8533 153.307 40.9067 153.734 40.88C154.614 40.88 155.521 40.8 156.454 40.64C160.187 40.1333 163.881 39.48 167.534 38.68ZM181.865 38.8L182.785 38.64L182.425 39.32C181.358 39.56 180.185 39.7867 178.905 40C177.625 40.1867 176.425 40.2933 175.305 40.32C174.265 40.32 173.252 40.24 172.265 40.08L172.145 40.28C171.772 40.8933 171.305 41.3867 170.745 41.76C170.132 42.16 169.478 42.4133 168.785 42.52C168.438 42.5733 168.078 42.56 167.705 42.48C167.492 42.4533 167.292 42.3867 167.105 42.28C166.892 42.1467 166.718 41.9733 166.585 41.76C166.372 41.3067 166.292 40.88 166.345 40.48C166.398 40.08 166.518 39.7333 166.705 39.44C167.078 38.7733 167.585 38.24 168.225 37.84C168.492 37.7067 168.638 37.7867 168.665 38.08C168.692 38.3733 168.572 38.7867 168.305 39.32C167.932 39.6667 167.678 40.0667 167.545 40.52C167.465 40.7333 167.452 40.92 167.505 41.08C167.532 41.1333 167.558 41.1867 167.585 41.24C167.612 41.2667 167.665 41.2933 167.745 41.32C167.905 41.4 168.105 41.44 168.345 41.44C168.585 41.44 168.825 41.4133 169.065 41.36C169.572 41.2267 170.025 41 170.425 40.68C170.772 40.44 171.065 40.1467 171.305 39.8C171.012 39.72 170.745 39.6133 170.505 39.48L169.785 39.16C169.625 39.1333 169.465 39.0667 169.305 38.96C169.145 38.8267 169.065 38.6667 169.065 38.48C169.065 38.2667 169.132 38.0667 169.265 37.88C169.398 37.6933 169.545 37.56 169.705 37.48C170.078 37.32 170.425 37.24 170.745 37.24C170.932 37.24 171.105 37.2533 171.265 37.28C171.425 37.28 171.598 37.2933 171.785 37.32C171.998 37.3733 172.172 37.4933 172.305 37.68C172.465 37.84 172.572 38.0267 172.625 38.24C172.705 38.64 172.678 39.0133 172.545 39.36C173.505 39.52 174.478 39.6 175.465 39.6C177.598 39.6 179.732 39.3333 181.865 38.8ZM170.905 38.76C170.958 38.7867 171.012 38.8133 171.065 38.84C171.225 38.92 171.412 39 171.625 39.08C171.625 39.0267 171.625 38.9867 171.625 38.96C171.625 38.9333 171.638 38.9067 171.665 38.88C171.718 38.6667 171.718 38.4933 171.665 38.36C171.638 38.3333 171.625 38.32 171.625 38.32C171.625 38.2933 171.612 38.28 171.585 38.28C171.585 38.2533 171.572 38.24 171.545 38.24C171.518 38.2133 171.478 38.2 171.425 38.2C171.185 38.1467 170.932 38.1333 170.665 38.16C170.425 38.16 170.238 38.2 170.105 38.28C170.078 38.3067 170.052 38.32 170.025 38.32C170.025 38.3467 170.012 38.36 169.985 38.36L170.105 38.4C170.185 38.4267 170.292 38.48 170.425 38.56C170.558 38.6133 170.678 38.6667 170.785 38.72C170.838 38.72 170.878 38.7333 170.905 38.76ZM207.504 38.84C207.957 38.8667 208.424 38.88 208.904 38.88C208.344 39.0933 207.771 39.28 207.184 39.44C205.424 39.68 203.651 39.8267 201.864 39.88L200.504 39.96C200.077 40.0133 199.637 40.0267 199.184 40C198.944 39.9733 198.704 39.92 198.464 39.84C198.224 39.76 198.037 39.6133 197.904 39.4C197.797 39.2133 197.731 39.0533 197.704 38.92C197.651 38.76 197.597 38.64 197.544 38.56C197.491 38.4533 197.397 38.3867 197.264 38.36C197.024 38.3067 196.731 38.32 196.384 38.4C196.277 38.4267 196.171 38.4533 196.064 38.48C195.637 38.5867 195.211 38.72 194.784 38.88C193.984 39.1467 193.197 39.5067 192.424 39.96L191.304 40.68C191.091 40.8133 190.851 40.92 190.584 41C190.317 41.08 190.037 41.08 189.744 41C189.611 40.9733 189.477 40.9067 189.344 40.8C189.211 40.6667 189.117 40.5333 189.064 40.4C188.957 40.1867 188.904 39.9733 188.904 39.76C188.877 39.7067 188.864 39.6533 188.864 39.6C188.864 39.4933 188.864 39.3867 188.864 39.28C188.864 39.1733 188.851 39.08 188.824 39C188.797 38.92 188.771 38.8667 188.744 38.84C188.717 38.8133 188.691 38.7867 188.664 38.76C188.264 38.76 187.824 38.8267 187.344 38.96C186.731 39.12 186.091 39.36 185.424 39.68C184.784 40 184.211 40.36 183.704 40.76L182.184 41.92C181.811 41.9467 181.584 41.8133 181.504 41.52C181.424 41.2 181.437 40.8267 181.544 40.4C181.624 39.9467 181.717 39.5333 181.824 39.16C181.851 39.0267 181.877 38.9067 181.904 38.8L182.064 38.32L182.224 37.96C182.517 37.32 182.771 37.0667 182.984 37.2C183.197 37.3333 183.331 37.7067 183.384 38.32L182.784 40L183.144 39.76C183.251 39.7067 183.357 39.64 183.464 39.56C184.584 38.8667 185.797 38.32 187.104 37.92C187.371 37.84 187.664 37.7867 187.984 37.76C188.037 37.76 188.104 37.76 188.184 37.76C188.264 37.7333 188.344 37.72 188.424 37.72C188.584 37.72 188.811 37.76 189.104 37.84C189.317 37.9467 189.477 38.0933 189.584 38.28C189.717 38.4667 189.797 38.64 189.824 38.8C189.824 38.8267 189.824 38.84 189.824 38.84C189.851 39.1067 189.864 39.36 189.864 39.6C189.864 39.7067 189.864 39.8 189.864 39.88C189.891 39.9333 189.917 39.9733 189.944 40C189.944 40.0267 189.944 40.0533 189.944 40.08C189.971 40.08 189.984 40.0933 189.984 40.12C190.011 40.12 190.037 40.12 190.064 40.12C190.251 40.1733 190.517 40.08 190.864 39.84C191.104 39.68 191.371 39.52 191.664 39.36C191.797 39.28 191.931 39.2 192.064 39.12C192.917 38.6933 193.784 38.32 194.664 38L196.064 37.64L196.824 37.52C196.957 37.52 197.117 37.5333 197.304 37.56C197.491 37.5867 197.677 37.6667 197.864 37.8C198.051 37.9333 198.184 38.0933 198.264 38.28C198.344 38.44 198.397 38.5733 198.424 38.68C198.451 38.76 198.477 38.8267 198.504 38.88C198.531 38.9333 198.544 38.9733 198.544 39C198.571 39 198.584 39.0133 198.584 39.04C198.637 39.12 198.744 39.1867 198.904 39.24C199.064 39.2667 199.237 39.28 199.424 39.28C199.851 39.3067 200.291 39.2933 200.744 39.24L202.104 39.2C203.944 39.1733 205.744 39.0533 207.504 38.84ZM226.286 38.64L226.046 39.24C223.646 39.4267 221.26 39.6933 218.886 40.04C217.74 40.2267 216.606 40.4667 215.486 40.76C215.22 40.8133 214.94 40.88 214.646 40.96L214.246 41.08L214.046 41.16L213.766 41.24L211.126 42.16L212.166 40.8L212.766 40C212.793 39.92 212.82 39.8533 212.846 39.8C212.846 39.7733 212.86 39.7467 212.886 39.72L212.966 39.48C213.02 39.1867 212.98 38.9333 212.846 38.72C212.766 38.6133 212.686 38.5467 212.606 38.52C212.526 38.4933 212.406 38.48 212.246 38.48C211.073 38.4533 210.02 38.8133 209.086 39.56L208.486 41.36L207.326 45.08L205.006 52.44L204.526 53.04V52.08L206.566 44.48L207.606 40.68C207.926 39.4 208.42 38.1333 209.086 36.88C209.3 37.2 209.526 37.52 209.766 37.84C209.82 37.8133 209.86 37.8 209.886 37.8C210.02 37.72 210.166 37.6667 210.326 37.64C210.726 37.5067 211.113 37.4267 211.486 37.4C211.513 37.4 211.526 37.4 211.526 37.4C211.713 37.3733 211.9 37.36 212.086 37.36C212.273 37.36 212.486 37.3867 212.726 37.44C212.993 37.4933 213.246 37.6267 213.486 37.84C213.673 38.0533 213.806 38.28 213.886 38.52C214.046 39 214.046 39.4667 213.886 39.92L213.766 40.28L214.486 40.08L215.366 39.88C216.54 39.64 217.726 39.44 218.926 39.28C221.38 38.9867 223.833 38.7733 226.286 38.64ZM240.221 38.56L241.381 38.36L241.181 38.88C240.034 39.1467 238.741 39.4667 237.301 39.84C235.861 40.2133 234.567 40.56 233.421 40.88L230.181 41.84C229.674 42.0267 229.141 42.2 228.581 42.36C227.994 42.52 227.394 42.4933 226.781 42.28C226.461 42.12 226.194 41.9067 225.981 41.64C225.767 41.3467 225.674 41.0267 225.701 40.68C225.754 40.2 225.834 39.7733 225.941 39.4C225.967 39.24 225.994 39.0933 226.021 38.96C226.261 37.8133 226.527 36.7067 226.821 35.64C227.461 33.4267 228.207 31.2667 229.061 29.16L229.901 30.36C229.047 32.36 228.301 34.4267 227.661 36.56C227.341 37.5733 227.061 38.64 226.821 39.76C226.794 39.84 226.781 39.9067 226.781 39.96C226.727 40.2 226.674 40.4267 226.621 40.64C226.594 40.8267 226.607 40.96 226.661 41.04C226.714 41.1733 226.807 41.2933 226.941 41.4C227.101 41.48 227.287 41.5333 227.501 41.56C228.061 41.5867 228.727 41.4667 229.501 41.2C229.821 41.12 230.141 41.04 230.461 40.96C231.554 40.64 232.634 40.3467 233.701 40.08C235.887 39.4933 238.061 38.9867 240.221 38.56ZM262.817 28.56C262.923 28.5867 263.043 28.6133 263.177 28.64C263.817 28.7733 264.497 28.9867 265.217 29.28C264.737 29.1733 264.297 29.1067 263.897 29.08C263.817 29.08 263.723 29.08 263.617 29.08L262.097 29C259.537 28.7067 256.977 28.5067 254.417 28.4C253.35 31.0933 252.403 33.8267 251.577 36.6C251.097 38.2267 250.63 39.8667 250.177 41.52C250.15 41.6 250.123 41.68 250.097 41.76C249.803 42.5333 249.657 43.2267 249.657 43.84C249.657 44 249.683 44.16 249.737 44.32C249.763 44.4533 249.817 44.56 249.897 44.64C249.95 44.72 250.043 44.7867 250.177 44.84C250.31 44.8933 250.43 44.92 250.537 44.92C250.617 44.9733 250.697 45 250.777 45C250.857 45 250.937 44.9733 251.017 44.92C251.017 45.0267 250.95 45.1467 250.817 45.28C250.683 45.3867 250.51 45.44 250.297 45.44C249.87 45.3867 249.537 45.1733 249.297 44.8C249.11 44.4 249.017 43.9867 249.017 43.56C249.097 42.92 249.23 42.2933 249.417 41.68C249.47 41.4667 249.523 41.24 249.577 41C249.977 39.32 250.403 37.64 250.857 35.96C251.523 33.4 252.297 30.8533 253.177 28.32C251.737 28.2667 250.323 28.2667 248.937 28.32C247.843 28.3467 246.763 28.4667 245.697 28.68C245.43 28.7333 245.177 28.8133 244.937 28.92C244.723 29.0267 244.643 29.1867 244.697 29.4C244.723 29.5067 244.777 29.6 244.857 29.68C244.937 29.76 245.03 29.84 245.137 29.92L245.777 30.44C246.71 31.08 247.55 31.8133 248.297 32.64C249.123 33.4133 249.67 34.4 249.937 35.6C250.017 36.2133 249.923 36.8 249.657 37.36C249.39 37.8933 249.043 38.36 248.617 38.76C247.71 39.5067 246.723 40.08 245.657 40.48C244.617 40.88 243.55 41.2133 242.457 41.48C241.923 41.5867 241.377 41.68 240.817 41.76L239.937 41.88C239.617 41.88 239.297 41.8267 238.977 41.72C238.657 41.64 238.363 41.48 238.097 41.24C237.83 40.9467 237.67 40.6133 237.617 40.24C237.59 39.4933 237.75 38.8667 238.097 38.36C238.817 37.2667 239.817 36.5733 241.097 36.28C241.177 36.28 241.243 36.28 241.297 36.28C241.377 36.2533 241.47 36.24 241.577 36.24C241.71 36.24 241.83 36.2533 241.937 36.28C242.07 36.28 242.19 36.3067 242.297 36.36C242.51 36.44 242.67 36.5867 242.777 36.8C242.91 36.9867 242.95 37.2 242.897 37.44C242.843 37.6533 242.723 37.8667 242.537 38.08C242.51 38.1333 242.47 38.1733 242.417 38.2C242.39 38.2267 242.363 38.2533 242.337 38.28C242.31 38.3333 242.27 38.3733 242.217 38.4C242.19 38.4267 242.177 38.44 242.177 38.44C241.937 38.6533 241.697 38.84 241.457 39C240.603 39.5867 239.683 40.0133 238.697 40.28C238.723 40.36 238.763 40.4267 238.817 40.48C238.897 40.5333 238.99 40.5867 239.097 40.64C239.283 40.7467 239.47 40.8 239.657 40.8C239.763 40.8267 239.897 40.8267 240.057 40.8C240.137 40.8 240.23 40.8 240.337 40.8C242.443 40.5333 244.443 39.9733 246.337 39.12C247.297 38.6667 248.057 38.08 248.617 37.36C248.883 36.9867 249.03 36.5867 249.057 36.16C249.083 35.7067 248.99 35.28 248.777 34.88C248.377 34 247.777 33.2 246.977 32.48C246.737 32.24 246.483 32.0133 246.217 31.8C246.083 31.6933 245.95 31.5733 245.817 31.44L245.177 30.96C245.097 30.9067 245.017 30.8533 244.937 30.8C244.803 30.6933 244.657 30.5733 244.497 30.44C244.47 30.4133 244.443 30.3867 244.417 30.36C244.31 30.28 244.217 30.1733 244.137 30.04C243.977 29.8 243.883 29.56 243.857 29.32C243.857 29.0267 243.95 28.7867 244.137 28.6C244.35 28.3867 244.55 28.2533 244.737 28.2C245.323 27.96 245.897 27.8133 246.457 27.76C247.603 27.6533 248.71 27.6 249.777 27.6C250.95 27.6 252.123 27.6267 253.297 27.68C253.35 27.68 253.39 27.68 253.417 27.68C253.603 27.12 253.817 26.56 254.057 26L254.977 27.04L254.657 27.76C257.377 27.92 260.097 28.1867 262.817 28.56ZM239.177 38.76L238.977 39.04C239.243 38.9333 239.537 38.8 239.857 38.64C240.177 38.4533 240.443 38.28 240.657 38.12C240.87 37.9867 241.07 37.84 241.257 37.68C241.31 37.6267 241.363 37.5733 241.417 37.52C241.47 37.4667 241.523 37.4267 241.577 37.4H241.457C241.057 37.4533 240.643 37.6 240.217 37.84C239.817 38.08 239.47 38.3867 239.177 38.76ZM269.218 38.84C270.045 38.6533 270.378 38.64 270.218 38.8C270.085 38.9333 269.711 39.1467 269.098 39.44C268.191 39.5733 266.898 39.9467 265.218 40.56C263.831 41.04 262.391 41.48 260.898 41.88C259.405 42.28 258.058 42.4667 256.858 42.44C255.658 42.3867 254.791 41.9333 254.258 41.08C253.911 40.3067 253.898 39.5067 254.218 38.68C254.751 37.4267 255.631 36.5733 256.858 36.12C257.071 36.04 257.325 36 257.618 36C257.938 35.9733 258.231 36.0267 258.498 36.16C258.765 36.2667 258.911 36.48 258.938 36.8C258.938 36.9867 258.885 37.2 258.778 37.44C258.538 37.84 258.165 38.2133 257.658 38.56C256.885 39.12 256.045 39.5333 255.138 39.8C255.058 40.6267 255.511 41.1867 256.498 41.48C257.538 41.6933 258.845 41.6267 260.418 41.28C262.018 40.9067 263.711 40.44 265.498 39.88C266.751 39.5067 267.991 39.16 269.218 38.84ZM257.618 37.08C256.871 37.08 256.205 37.5333 255.618 38.44C256.498 38.12 257.245 37.7067 257.858 37.2L257.618 37.08Z" fill="white"/>
</g>
<defs>
<filter id="filter0_d_375_3250" x="0.400391" y="0" width="300.058" height="87.0391" filterUnits="userSpaceOnUse" color-interpolation-filters="sRGB">
<feFlood flood-opacity="0" result="BackgroundImageFix"/>
<feColorMatrix in="SourceAlpha" type="matrix" values="0 0 0 0 0 0 0 0 0 0 0 0 0 0 0 0 0 0 127 0" result="hardAlpha"/>
<feOffset dy="4"/>
<feGaussianBlur stdDeviation="15"/>
<feComposite in2="hardAlpha" operator="out"/>
<feColorMatrix type="matrix" values="0 0 0 0 1 0 0 0 0 1 0 0 0 0 1 0 0 0 1 0"/>
<feBlend mode="normal" in2="BackgroundImageFix" result="effect1_dropShadow_375_3250"/>
<feBlend mode="normal" in="SourceGraphic" in2="effect1_dropShadow_375_3250" result="shape"/>
</filter>
</defs>
</svg>
