<svg width="122" height="47" viewBox="0 0 122 47" fill="none" xmlns="http://www.w3.org/2000/svg">
<path d="M34.2691 34.4818L36.9026 33.7827L33.8167 35.2678C29.2309 37.0716 24.5949 38.6951 19.9085 40.1384C17.5523 40.8627 15.1591 41.472 12.7289 41.9665C11.5268 42.211 10.2984 42.3929 9.04366 42.5121C7.77827 42.5791 6.53811 42.3688 5.32318 41.8812C5.01402 41.6992 4.75956 41.4516 4.55979 41.1385C4.38083 40.7939 4.29865 40.4569 4.31325 40.1274C4.31099 39.4475 4.39776 38.8039 4.57356 38.1967C5.00355 36.9663 5.58037 35.8556 6.30403 34.8648C7.70394 32.7839 9.24028 30.8386 10.913 29.0288C12.5805 27.1928 14.4001 25.5028 16.3718 23.9587C18.2908 22.2892 20.5516 21.1626 23.1541 20.5786C22.6798 21.0561 22.2422 21.5806 21.8414 22.1519C19.6685 22.975 17.6853 24.1949 15.8916 25.8116C14.0505 27.3291 12.3328 28.9848 10.7384 30.7787C9.11792 32.5779 7.68079 34.4759 6.42703 36.4726C5.78709 37.4736 5.38787 38.5209 5.22937 39.6144C5.17891 40.1689 5.24825 40.5766 5.43739 40.8375C5.54769 40.9783 5.72065 41.0928 5.95628 41.1809C6.19191 41.2691 6.44061 41.3545 6.70238 41.4373C7.75962 41.6849 8.84763 41.7492 9.96641 41.6305C11.0799 41.4856 12.2088 41.2831 13.3533 41.023C13.4578 41.0018 13.5493 40.9832 13.6277 40.9672C15.9795 40.4887 18.3074 39.8927 20.6114 39.179C25.2299 37.8039 29.7825 36.2382 34.2691 34.4818ZM60.9459 14.2369C61.0872 14.2625 61.2259 14.2751 61.3618 14.2747C61.6076 14.2791 61.8588 14.3097 62.1152 14.3663C62.1728 14.3818 62.2304 14.3973 62.288 14.4128C62.6228 14.4536 62.9813 14.5439 63.3636 14.6838C62.9083 14.586 62.495 14.5612 62.1239 14.6095C62.0194 14.6308 61.9122 14.639 61.8023 14.6341C61.4781 14.6456 61.1592 14.6833 60.8457 14.7471C60.6835 14.7529 60.5241 14.7717 60.3673 14.8036C58.3127 15.0039 56.2766 15.2957 54.2592 15.6789C53.746 18.6407 53.3481 21.6335 53.0652 24.6572C52.9192 26.3469 52.7888 28.047 52.6742 29.7576C52.664 29.8413 52.6538 29.925 52.6437 30.0087C52.5104 30.825 52.5049 31.5336 52.6272 32.1347C52.6591 32.2914 52.704 32.4456 52.7621 32.597L52.9827 32.8787C53.077 32.9412 53.1948 32.9852 53.3361 33.0109C53.4774 33.0366 53.6003 33.0388 53.7048 33.0175C53.7939 33.0538 53.8776 33.064 53.956 33.0481C54.0344 33.0321 54.1074 32.99 54.1752 32.9218C54.1965 33.0264 54.1551 33.1572 54.051 33.3145C53.9416 33.4456 53.7824 33.5324 53.5733 33.5749C53.1446 33.6077 52.7754 33.4651 52.4658 33.1472C52.2031 32.7924 52.0293 32.406 51.9442 31.9879C51.895 31.3448 51.9007 30.7041 51.9614 30.0659C51.9711 29.8462 51.9782 29.6134 51.9826 29.3676C52.0396 27.6416 52.1228 25.9103 52.2321 24.1736C52.3537 21.4276 52.6217 18.6653 53.0361 15.8869L51.7818 16.1421C50.3446 16.4345 48.939 16.8157 47.5652 17.2858C47.2308 17.381 46.9017 17.5024 46.5779 17.6499C46.2542 17.7974 45.988 17.9604 45.7794 18.1389C45.7378 18.2018 45.7249 18.2724 45.7409 18.3508C45.7515 18.4031 45.7883 18.4501 45.8512 18.4917C45.9508 18.5803 46.0713 18.6374 46.2126 18.6631L47.249 18.942C47.94 19.128 48.6181 19.3846 49.2834 19.7119C49.9694 20.0077 50.5776 20.4555 51.1078 21.0551C51.6225 21.7124 51.7348 22.4651 51.4447 23.3133C51.1596 24.0516 50.7459 24.6937 50.2038 25.2394C49.1613 26.2679 47.998 27.1712 46.7141 27.9495C46.0825 28.3229 45.4326 28.6729 44.7642 28.9993C44.4405 29.1468 44.101 29.2839 43.7458 29.4106C43.7197 29.4159 43.6935 29.4213 43.6674 29.4266C43.5474 29.5054 43.3828 29.5661 43.1738 29.6086C43.0746 29.656 42.9439 29.6826 42.7818 29.6884C42.6405 29.6627 42.507 29.6082 42.3812 29.525L42.2317 29.3921L42.1925 29.4001C42.1872 29.374 42.1715 29.3636 42.1453 29.3689C42.1453 29.3689 42.1323 29.3715 42.1061 29.3768C42.1008 29.3507 42.0851 29.3403 42.059 29.3456C42.059 29.3456 42.0486 29.3613 42.0278 29.3928C42.0016 29.3981 41.9782 29.4165 41.9573 29.4479L39.492 31.1741L37.8092 32.3329C37.5643 32.6004 37.2067 32.782 36.7363 32.8777C36.4697 32.9047 36.2028 32.8638 35.9357 32.7548C35.8206 32.7238 35.7105 32.651 35.6055 32.5363C35.4691 32.4008 35.3745 32.2703 35.3218 32.145C35.2691 32.0197 35.2425 31.889 35.2421 31.753C35.2416 31.617 35.2596 31.5045 35.2959 31.4155C35.3317 31.1905 35.3913 31.0151 35.4746 30.8893C35.5729 30.57 35.7157 30.2688 35.903 29.9858C36.2777 29.4197 36.7389 28.9449 37.2868 28.5613C38.398 27.7365 39.6756 27.395 41.1195 27.5366C40.5348 27.8733 40.0734 28.2801 39.735 28.7571C38.9249 28.9219 38.1731 29.3062 37.4796 29.9099C37.1824 30.1881 36.922 30.5132 36.6983 30.8853L36.4492 31.4666C36.4076 31.5295 36.379 31.5897 36.3635 31.6473C36.3742 31.6996 36.3795 31.7257 36.3795 31.7257L36.4187 31.7177C36.4187 31.7177 36.4213 31.7308 36.4266 31.7569C36.4528 31.7516 36.4816 31.7594 36.513 31.7802C36.5391 31.7749 36.5522 31.7722 36.5522 31.7722C36.709 31.7403 36.9309 31.6271 37.2179 31.4327L38.8614 30.2819L40.513 29.1703L41.374 28.587C41.3948 28.5555 41.4183 28.5371 41.4444 28.5318C41.4913 28.495 41.5409 28.4714 41.5932 28.4607C41.6402 28.424 41.6871 28.3872 41.734 28.3504C41.8908 28.3185 42.0503 28.2997 42.2124 28.2939C42.3851 28.3404 42.5474 28.4026 42.6994 28.4806L42.8881 28.6055L42.896 28.6447L42.9744 28.6287C43.0267 28.6181 43.092 28.6048 43.1704 28.5888C43.2696 28.5414 43.3558 28.4967 43.4288 28.4546C43.7318 28.3386 44.0582 28.2041 44.4081 28.0513C45.0556 27.7563 45.6821 27.4247 46.2875 27.0566C47.556 26.3359 48.6749 25.4824 49.6444 24.496C50.1657 23.9817 50.5065 23.4498 50.6668 22.9001C50.8479 22.319 50.7338 21.8252 50.3245 21.4186C49.9046 20.9598 49.3673 20.5929 48.7127 20.3178C48.4089 20.162 48.0842 20.0375 47.7387 19.9445C47.4141 19.8201 47.079 19.7114 46.7335 19.6184L46.1681 19.4477C46.1106 19.4322 46.053 19.4167 45.9954 19.4012C45.8802 19.3702 45.7494 19.3288 45.6028 19.277C45.4823 19.2198 45.3722 19.147 45.2726 19.0584C45.0471 18.8866 44.9155 18.6412 44.8779 18.3223C44.8978 18.0189 45.0355 17.7596 45.2911 17.5443C45.3641 17.5023 45.4372 17.4602 45.5103 17.4181C45.5834 17.376 45.6538 17.3209 45.7216 17.2527L46.0896 17.0553L46.6536 16.8181L47.7272 16.4772C49.1954 16.0697 50.6482 15.7197 52.0854 15.4273L53.1437 15.2119L53.3821 13.7756L54.491 14.6113C54.4339 14.7318 54.4055 14.86 54.406 14.9959C56.5333 14.6176 58.7132 14.3645 60.9459 14.2369ZM72.1056 14.4564C72.1211 14.3988 72.1523 14.3516 72.1993 14.3149C72.2201 14.2834 72.2409 14.252 72.2617 14.2205L72.54 12.9801L73.5712 14.0357C73.0239 16.1609 72.6048 18.3143 72.3139 20.4961L72.0032 23.7841C71.993 23.8678 71.9828 23.9515 71.9727 24.0352C71.9682 24.281 71.9716 24.498 71.9827 24.6863C71.9937 24.8745 72.0203 25.0052 72.0624 25.0782C72.1412 25.1983 72.2566 25.2972 72.4086 25.3752C72.5866 25.4478 72.7698 25.4786 72.958 25.4675C73.5174 25.4081 74.1547 25.1968 74.87 24.8336C75.1884 24.6599 75.4991 24.5151 75.8021 24.399C76.7942 23.9251 77.815 23.4588 78.8647 23.0004C80.8856 22.0994 82.946 21.2584 85.0458 20.4774L86.316 20.3006L84.9302 21.1132C82.8464 21.9726 80.7863 22.8815 78.7498 23.8401L75.7031 25.3172C75.6301 25.3593 75.557 25.4013 75.4839 25.4434C75.0663 25.6645 74.6198 25.8778 74.1446 26.0833C73.5963 26.3309 72.9977 26.3983 72.3488 26.2854C72.0295 26.1871 71.7387 26.0285 71.4765 25.8097C71.2244 25.5072 71.0927 25.1939 71.0811 24.8697C71.043 24.4148 71.0417 24.0069 71.0771 23.6459C71.0974 23.4785 71.1021 23.3007 71.091 23.1124C71.1551 21.9564 71.2507 20.8213 71.3778 19.7069C71.4685 18.6816 71.6011 17.6613 71.7756 16.6461C71.0435 18.2646 70.1201 19.7451 69.0054 21.0876C68.2397 22.0053 67.4031 22.8423 66.4956 23.5984C66.0315 23.9921 65.5463 24.3494 65.0401 24.6701C64.8 24.8278 64.5285 24.9646 64.2256 25.0807C64.1055 25.1595 63.941 25.2202 63.732 25.2628C63.549 25.3 63.3632 25.2561 63.1745 25.1313L62.9859 25.0064C62.9544 24.9855 62.9256 24.9778 62.8995 24.9831C62.8942 24.957 62.8785 24.9466 62.8523 24.9519C62.7947 24.9364 62.7555 24.9444 62.7347 24.9758C62.7086 24.9811 62.6825 24.9864 62.6563 24.9918C62.6355 25.0232 62.612 25.0416 62.5859 25.0469L61.7641 25.6223L58.4929 28.0022C58.446 28.039 58.3991 28.0758 58.3521 28.1125C58.0912 28.3017 57.7779 28.4335 57.4121 28.5079C57.1769 28.5557 56.9415 28.5356 56.7058 28.4475C56.4073 28.3177 56.2027 28.1144 56.0919 27.8376C56.0179 27.6078 56.0042 27.4065 56.0507 27.2337C56.0711 27.0663 56.1071 26.9093 56.159 26.7627C56.1798 26.7312 56.1979 26.6867 56.2134 26.6291C56.3016 26.3935 56.4081 26.1814 56.533 25.9927C56.5693 25.9036 56.6082 25.8277 56.6499 25.7648C57.0245 25.1987 57.4701 24.7135 57.9865 24.3091C59.0977 23.4843 60.3726 23.1297 61.8112 23.2452C61.4515 23.6177 61.1522 24.0188 60.913 24.4484C59.9718 24.5038 59.1283 24.8387 58.3825 25.4531C58.0123 25.7733 57.718 26.1326 57.4996 26.5307C57.3747 26.7194 57.2656 26.9185 57.1721 27.128C57.1203 27.2746 57.0997 27.3741 57.1104 27.4263C57.0949 27.4839 57.0845 27.4996 57.0791 27.4735L57.1183 27.4655C57.1498 27.4863 57.1655 27.4967 57.1655 27.4967C57.1916 27.4914 57.2178 27.4861 57.2439 27.4808C57.406 27.475 57.6279 27.3619 57.9096 27.1413L59.5611 26.0297L61.2439 24.8709L62.0657 24.2955C62.1857 24.2167 62.3214 24.1483 62.4729 24.0902C62.6505 24.0269 62.8126 24.0211 62.9592 24.0729C63.1213 24.0672 63.281 24.1163 63.4382 24.2204C63.4697 24.2412 63.5038 24.2751 63.5406 24.322C63.572 24.3428 63.5904 24.3663 63.5957 24.3925C63.6218 24.3871 63.6349 24.3845 63.6349 24.3845C63.661 24.3792 63.6872 24.3738 63.7133 24.3685C63.7394 24.3632 63.7656 24.3579 63.7917 24.3526C63.8386 24.3158 63.8752 24.2948 63.9013 24.2895C64.1781 24.1787 64.4261 24.0602 64.6454 23.934C65.1516 23.6133 65.629 23.2848 66.0777 22.9486C66.9905 22.2187 67.8167 21.3975 68.5563 20.485C70.0931 18.6757 71.2762 16.6661 72.1056 14.4564ZM99.2749 17.5008L100.145 17.1606L99.9273 17.8987C98.9299 18.3466 97.8253 18.8026 96.6136 19.2669C95.3965 19.705 94.2418 20.0487 93.1496 20.2982C92.1305 20.5055 91.1216 20.6291 90.1228 20.6691L90.0451 20.889C89.8015 21.5644 89.4426 22.1409 88.9683 22.6184C88.447 23.1326 87.8573 23.5111 87.1991 23.7539C86.87 23.8752 86.5146 23.934 86.1328 23.93C85.9185 23.9464 85.7092 23.9209 85.505 23.8536C85.2694 23.7655 85.065 23.6302 84.8918 23.4477C84.5923 23.046 84.4289 22.6439 84.4014 22.2413C84.3739 21.8387 84.4224 21.475 84.5468 21.1504C84.7797 20.4227 85.1699 19.799 85.7173 19.2795C85.9521 19.0956 86.1117 19.1448 86.1963 19.4269C86.2809 19.7091 86.2458 20.138 86.0908 20.7138C85.7941 21.1279 85.6256 21.5704 85.5853 22.0412C85.5494 22.2662 85.5736 22.4518 85.6577 22.598C85.6945 22.6449 85.7313 22.6919 85.768 22.7388C85.7995 22.7596 85.857 22.7751 85.9408 22.7853C86.1135 22.8318 86.3175 22.8311 86.5526 22.7833C86.7878 22.7354 87.0177 22.6614 87.2422 22.5613C87.7121 22.3297 88.1112 22.0172 88.4394 21.6238C88.7312 21.3195 88.9602 20.9736 89.1262 20.5861C88.8229 20.5662 88.5403 20.5148 88.2785 20.432L87.5092 20.262C87.3471 20.2677 87.177 20.2343 86.9989 20.1617C86.8156 20.0629 86.7053 19.9221 86.6681 19.7391C86.6255 19.5301 86.651 19.3208 86.7444 19.1113C86.8379 18.9018 86.955 18.7419 87.0958 18.6316C87.4298 18.4004 87.7535 18.2529 88.0671 18.1891C88.25 18.1519 88.4225 18.1304 88.5846 18.1246C88.7414 18.0927 88.9139 18.0712 89.1022 18.0602C89.3219 18.0699 89.5156 18.1529 89.6835 18.3093C89.8722 18.4341 90.0139 18.5958 90.1087 18.7942C90.2669 19.1702 90.3152 19.5414 90.2536 19.9077C91.2263 19.8731 92.196 19.7574 93.1629 19.5607C95.2534 19.1354 97.2907 18.4488 99.2749 17.5008ZM88.5269 19.6467C88.5845 19.6622 88.6421 19.6777 88.6997 19.6932C88.8724 19.7397 89.0713 19.7809 89.2963 19.8167C89.2856 19.7645 89.2777 19.7253 89.2724 19.6991C89.267 19.673 89.2748 19.6442 89.2956 19.6128C89.3053 19.3931 89.2708 19.2232 89.1919 19.1032C89.1605 19.0824 89.1448 19.072 89.1448 19.072C89.1394 19.0458 89.1237 19.0354 89.0976 19.0408C89.0923 19.0146 89.0765 19.0042 89.0504 19.0095C89.019 18.9887 88.9771 18.9836 88.9249 18.9943C88.679 18.9898 88.4281 19.0273 88.1721 19.1066C87.937 19.1544 87.762 19.2308 87.6473 19.3358C87.6265 19.3673 87.603 19.3857 87.5769 19.391C87.5822 19.4171 87.5718 19.4328 87.5457 19.4381L87.6712 19.4534C87.7549 19.4636 87.8701 19.4946 88.0167 19.5464C88.158 19.5721 88.2862 19.6004 88.4014 19.6314C88.4536 19.6208 88.4955 19.6259 88.5269 19.6467ZM117.657 13.7609C118.744 13.4853 119.215 13.4576 119.069 13.6777C118.944 13.8664 118.331 14.1273 117.228 14.4605C113.759 15.6016 110.433 17.0404 107.248 18.7768L107.088 20.1972C106.894 21.3798 106.51 22.5054 105.939 23.5742C105.309 24.6275 104.462 25.4801 103.398 26.1322C102.568 26.6004 101.685 26.8753 100.749 26.9568C100.064 26.9329 99.6105 26.7122 99.3894 26.2945C99.1684 25.8769 99.0599 25.4771 99.0638 25.0954C99.1453 24.4257 99.4256 23.7972 99.9048 23.2098C100.577 22.3656 101.307 21.6729 102.094 21.1316C103.414 20.1283 104.8 19.2477 106.251 18.4898C106.292 18.291 106.302 18.0713 106.28 17.8308C106.269 17.6425 106.264 17.4804 106.263 17.3445C106.268 17.2346 106.268 17.1666 106.262 17.1405C106.257 17.1144 106.241 17.104 106.215 17.1093C106.21 17.0831 106.192 17.0597 106.16 17.0389L106.042 17.0628C105.577 17.1846 105.073 17.3824 104.53 17.6561C104.134 17.8457 103.752 18.0457 103.387 18.2561C103.262 18.3089 103.139 18.3746 103.019 18.4535L101.445 19.3451L101.038 19.5505L100.85 19.6295C100.798 19.6402 100.759 19.6481 100.732 19.6535C100.685 19.6902 100.623 19.7166 100.544 19.7325C100.294 19.838 100.059 19.8858 99.8388 19.8761C99.593 19.8717 99.3835 19.7782 99.2103 19.5957C99.1682 19.5227 99.1549 19.4573 99.1704 19.3998C99.1651 19.3736 99.1572 19.3344 99.1465 19.2822L99.0747 18.9294C99.0641 18.8771 99.0665 18.8222 99.082 18.7646C99.0922 18.6809 99.1051 18.6103 99.1206 18.5527L99.2136 18.2072L99.4002 17.7202L99.7204 17.2877C100.184 16.758 100.701 16.3536 101.27 16.0745C102.439 15.5372 103.623 15.2012 104.82 15.0664C104.393 15.5072 104.002 15.9948 103.648 16.5294C102.629 16.7368 101.715 17.1268 100.906 17.6995C100.724 17.8727 100.581 18.038 100.477 18.1952L100.336 18.5094L100.282 18.643L100.36 18.627C100.856 18.39 101.36 18.1243 101.872 17.8297C102.336 17.5719 102.804 17.3272 103.273 17.0955C103.785 16.8009 104.307 16.5586 104.84 16.3686C105.111 16.2317 105.404 16.1314 105.718 16.0676C105.927 16.0251 106.157 16.0191 106.408 16.0496C106.68 16.0487 106.892 16.1552 107.044 16.3691C107.197 16.583 107.276 16.839 107.282 17.1371L107.299 17.6234C107.274 17.7647 107.269 17.8746 107.285 17.953C110.579 16.2214 114.037 14.8241 117.657 13.7609ZM106.176 19.5256C106.171 19.4994 106.166 19.4733 106.16 19.4472C106.181 19.4157 106.186 19.3739 106.175 19.3216C104.86 20.0791 103.616 20.9173 102.442 21.8365C101.712 22.3932 101.065 23.0282 100.503 23.7413C100.248 24.0925 100.053 24.4723 99.9182 24.8807C99.8 25.5035 99.9424 25.8691 100.345 25.9776C100.743 26.0599 101.224 26.0165 101.788 25.8473C102.327 25.6833 102.75 25.4884 103.057 25.2625C104.018 24.6318 104.76 23.8004 105.285 22.7684C105.757 21.747 106.054 20.6661 106.176 19.5256Z" fill="white"/>
</svg>
