<svg width="146" height="64" viewBox="0 0 146 64" fill="none" xmlns="http://www.w3.org/2000/svg">
<path d="M10.854 57.9495L6.38834 59.2496L11.7837 56.9757L22.1724 53.0532C22.3083 48.151 22.2262 43.2727 21.9262 38.4182C22.3816 38.5723 22.8413 38.7424 23.3054 38.9287C23.2904 39.0017 23.2916 39.0704 23.3088 39.1348C23.2812 39.4183 23.2859 39.6931 23.3227 39.9593L29.2957 35.9777L32.1986 34.0611C32.3187 33.9944 32.4346 33.9116 32.5461 33.8127C32.898 33.5804 33.1972 33.3449 33.4439 33.1063L33.5853 32.8613C33.5767 32.8291 33.5723 32.813 33.5723 32.813C33.6045 32.8044 33.6206 32.8001 33.6206 32.8001C33.6206 32.8001 33.6002 32.7883 33.5594 32.7647C33.5594 32.7647 33.539 32.7529 33.4982 32.7294C33.4895 32.6972 33.4487 32.6736 33.3757 32.6586C32.9784 32.5926 32.4856 32.6211 31.8974 32.7442C31.365 32.8178 30.809 32.9323 30.2295 33.0876C29.167 33.3723 28.1056 33.7257 27.0454 34.1478C25.9852 34.5699 24.9874 35.0961 24.052 35.7263C23.5155 36.0426 23.08 36.3491 22.7454 36.6458C22.6897 36.6953 22.6339 36.7447 22.5781 36.7942C22.4752 36.9253 22.4045 37.0478 22.366 37.1616L22.3789 37.2099L22.3306 37.2228L22.2823 37.2358C22.2501 37.2444 22.234 37.2487 22.234 37.2487C22.234 37.2487 22.2297 37.2326 22.2211 37.2004C22.2211 37.2004 22.205 37.2047 22.1728 37.2134C22.1406 37.222 22.1084 37.2306 22.0762 37.2392C22.0676 37.207 22.059 37.1749 22.0503 37.1427C21.9664 36.9581 21.9704 36.7155 22.0623 36.4147C22.1457 36.0818 22.2934 35.7317 22.5056 35.3642C22.6085 35.2331 22.691 35.0902 22.753 34.9356C24.5681 33.7245 26.5134 32.8064 28.589 32.1813C29.6429 31.8644 30.698 31.6162 31.7542 31.4367C32.2458 31.3395 32.8437 31.3173 33.5481 31.3701C33.7349 31.4236 33.91 31.4974 34.0733 31.5917C34.3096 31.701 34.5063 31.8553 34.6633 32.0548C34.7967 32.2951 34.8657 32.5527 34.8703 32.8276C34.8663 33.0702 34.8054 33.2936 34.6876 33.4977C34.2845 34.0543 33.8749 34.4574 33.4587 34.707C33.3943 34.7242 33.3342 34.7576 33.2784 34.807L32.0072 35.6653L29.3553 37.3594L26.1886 39.4502L30.9519 39.2609C33.3995 39.1227 35.8236 39.0254 38.2241 38.9688C40.689 38.895 43.1271 38.9146 45.5386 39.0277C46.7926 39.0713 48.0187 39.1396 49.2169 39.2326C49.363 39.2625 49.5047 39.2763 49.6421 39.274C50.136 39.3142 50.6268 39.407 51.1144 39.5524C51.1874 39.5674 51.2604 39.5823 51.3334 39.5973C51.5611 39.6743 51.8135 39.7792 52.0907 39.912L52.8738 40.3233L53.538 40.8701C53.4351 41.0012 53.3322 41.1323 53.2293 41.2634C53.0792 41.4761 52.9131 41.6932 52.7308 41.9146C52.5957 42.0543 52.4724 42.1736 52.3608 42.2725C52.2729 42.3306 52.1849 42.3887 52.097 42.4468C52.0648 42.4554 52.0208 42.4844 51.965 42.5339C51.4844 42.8007 51.0273 43.0267 50.5938 43.2119L47.9185 44.2393L42.6387 46.1716L32.0438 50.0976L22.9073 53.4775C22.7913 55.234 22.6506 56.9627 22.4851 58.6634L22.0514 59.5561L21.8857 58.3582C21.9891 56.8121 22.0645 55.2907 22.1121 53.794L10.854 57.9495ZM23.3236 40.7355C23.3585 44.7293 23.2398 48.7296 22.9676 52.7366L32.3551 49.1342L47.7209 43.3087C48.0021 43.1989 48.2993 43.0847 48.6127 42.9662C49.1836 42.7788 49.7459 42.5591 50.2996 42.3072C50.7009 42.1306 51.0775 41.9262 51.4293 41.6939C51.8134 41.4529 52.0644 41.2304 52.1822 41.0263C52.0919 40.9469 51.9899 40.888 51.876 40.8495C51.8352 40.8259 51.774 40.7906 51.6923 40.7434L50.8997 40.4899C50.4529 40.3681 49.9826 40.2871 49.4887 40.2469C49.3749 40.2083 49.2492 40.1902 49.1118 40.1926C47.9458 40.0909 46.7561 40.03 45.543 40.01C43.108 39.9378 40.6784 39.9504 38.2544 40.0477L31.0305 40.3269L23.3236 40.7355ZM22.366 37.1616L22.3306 37.2228L22.3789 37.2099L22.366 37.1616ZM75.4008 34.339C76.2356 33.9773 76.5073 34.0253 76.2158 34.483C74.9245 35.5882 73.1853 36.5028 70.9982 37.2269C68.8025 37.9188 66.7886 38.1305 64.9568 37.8622C64.7377 37.8173 64.5422 37.7317 64.3703 37.6052C64.1983 37.4787 64.035 37.3844 63.8804 37.3224C63.7257 37.2603 63.5604 37.2873 63.3845 37.4035L62.8826 37.8485L60.7654 39.6064L58.6836 41.303C58.6514 41.3117 58.6235 41.3364 58.5999 41.3772C58.3061 41.6975 57.8942 41.9632 57.3641 42.1742C57.0743 42.2519 56.763 42.249 56.4301 42.1657C56.0971 42.0823 55.8102 41.8486 55.5693 41.4646C55.483 41.1426 55.4623 40.8721 55.5071 40.653C55.5111 40.4104 55.5441 40.2117 55.6062 40.0571C55.6384 40.0484 55.6502 40.028 55.6416 39.9958C55.7485 39.6221 55.8919 39.2558 56.0719 38.897C56.0719 38.897 56.0836 38.8766 56.1072 38.8358C56.5315 38.1009 57.0546 37.4776 57.6767 36.9658C59.0002 35.852 60.5434 35.3005 62.3062 35.3113C61.9826 35.7776 61.7083 36.2997 61.4836 36.8775C60.2641 36.9627 59.2007 37.4375 58.2935 38.3017C57.8473 38.6973 57.4872 39.1562 57.2129 39.6783C57.0715 39.9232 56.9548 40.1961 56.8629 40.4968C56.7772 40.6923 56.7473 40.8383 56.7732 40.9349L56.8215 40.922C56.8623 40.9456 56.9032 40.9691 56.944 40.9927C56.9762 40.9841 57.0041 40.9593 57.0276 40.9185C57.1972 40.9076 57.4097 40.7989 57.665 40.5925C57.7443 40.5022 57.844 40.4237 57.9642 40.357L62.321 36.912L62.6332 36.7248L62.9678 36.4281C63.4163 36.1699 63.8564 36.1382 64.2882 36.3331C64.5826 36.5303 64.775 36.6685 64.8653 36.7479C64.9061 36.7715 64.9469 36.795 64.9877 36.8186L65.4034 37.0178C66.8317 37.3253 68.5106 37.1515 70.4401 36.4964C72.361 35.8092 74.0146 35.09 75.4008 34.339ZM92.1321 29.3382L91.9398 30.1662C90.3731 30.7586 88.6143 31.4714 86.6635 32.3047C84.7449 33.1294 83.0689 33.958 81.6356 34.7907C81.3395 34.9736 81.0434 35.1564 80.7473 35.3393C80.5392 35.4641 80.3311 35.5889 80.1229 35.7137C80.1833 35.939 80.2362 36.2009 80.2817 36.4993C80.2697 37.2273 79.9892 37.8546 79.4401 38.3813C78.9146 38.8672 78.3397 39.2973 77.7153 39.6717C76.6511 40.3364 75.4943 40.7844 74.2449 41.0157L73.4592 41.1744L73.3488 40.3758C73.3073 39.8348 73.4775 39.3751 73.8592 38.9967C74.2001 38.5948 74.6066 38.2443 75.0786 37.9453C75.1108 37.9366 75.1548 37.9076 75.2106 37.8581L77.2252 36.4901L78.4963 35.6319C78.4877 35.5997 78.4673 35.5879 78.4351 35.5965C78.4265 35.5643 78.4018 35.5364 78.3609 35.5129C77.641 35.0156 76.8708 34.6526 76.0503 34.4238C75.5627 34.2784 75.0622 34.0846 74.5487 33.8426C74.3619 33.7892 74.1899 33.6627 74.033 33.4632C73.8352 33.2401 73.7061 33.0159 73.6457 32.7905C73.6364 32.2408 73.8419 31.7199 74.2622 31.2277C74.6824 30.7355 75.2157 30.4718 75.862 30.4367C76.3881 30.4683 76.7684 30.7287 77.0031 31.218C77.2613 31.6664 77.3381 32.1462 77.2335 32.6574C77.2036 32.8034 77.1694 32.9334 77.1309 33.0472C77.0923 33.1611 77.0656 33.2545 77.0507 33.3275C77.7596 33.6552 78.4698 34.0516 79.181 34.5167L79.5519 34.9349L81.3897 33.8731C82.9283 33.0467 84.6934 32.2287 86.685 31.4189C88.7088 30.6006 90.5245 29.907 92.1321 29.3382ZM79.0579 36.5684L79.0191 36.4236L77.6642 37.356L75.7592 38.7464L74.8131 39.4658L74.5398 39.7979C75.0549 39.6598 75.6816 39.4229 76.4199 39.087C77.1173 38.7276 77.7373 38.3372 78.2801 37.9157C78.8142 37.462 79.0734 37.0129 79.0579 36.5684ZM75.1463 32.5955C75.2774 32.6984 75.4525 32.7722 75.6716 32.8171L75.7069 32.7558C75.7604 32.569 75.7859 32.4068 75.7836 32.2694C75.775 32.2372 75.7664 32.205 75.7578 32.1728C75.7491 32.1406 75.7566 32.1041 75.7802 32.0633L75.7284 31.8701C75.7284 31.8701 75.6962 31.8787 75.6318 31.896C75.5996 31.9046 75.5556 31.9336 75.4999 31.9831C75.3797 32.0498 75.2607 32.1852 75.1428 32.3893L75.0368 32.573L75.1463 32.5955ZM109.363 25.2388C110.058 24.742 110.432 24.5901 110.484 24.7833C110.535 24.9765 110.275 25.3569 109.702 25.9244C107.99 27.0043 106.195 27.9684 104.317 28.8167C102.431 29.6327 100.52 30.4209 98.584 31.1812C97.6353 31.5044 96.6415 31.7879 95.6025 32.0318C95.0874 32.1698 94.5593 32.2596 94.0182 32.301C93.7112 32.3143 93.4116 32.291 93.1195 32.2312C92.9735 32.2013 92.807 32.1597 92.6202 32.1062L92.5719 32.1192C92.4944 33.7619 92.389 35.4293 92.2558 37.1214C92.1943 37.7936 92.149 38.4614 92.1197 39.1249L91.6989 40.0659L91.4237 38.8455C91.4271 38.0854 91.4509 37.3371 91.4951 36.6006C91.7216 30.3627 91.7947 24.1315 91.7142 17.9069L93.2288 18.5363C93.1428 22.0793 92.9956 25.5869 92.7872 29.0592C92.9609 28.8056 93.1753 28.5756 93.4306 28.3691C94.1768 27.548 95.051 26.8824 96.0531 26.3723C96.0451 26.8576 96.0736 27.3504 96.1386 27.8506C96.1237 27.9236 96.1248 27.9923 96.1421 28.0567C95.3331 28.515 94.6274 29.101 94.0249 29.8146C93.8898 29.9543 93.7472 30.1305 93.5972 30.3433C93.4385 30.5238 93.312 30.6958 93.2178 30.8591C93.2178 30.8591 93.2221 30.8752 93.2307 30.9074L93.3532 30.9781C93.6131 31.0465 93.9931 31.0482 94.4933 30.9831L95.8844 30.7657C96.8268 30.5477 97.7562 30.2814 98.6727 29.9668C98.6727 29.9668 98.6888 29.9625 98.721 29.9539C99.3155 29.7256 99.8939 29.5016 100.456 29.2819C103.601 28.2668 106.57 26.9191 109.363 25.2388ZM136.255 4.62628C136.393 4.62397 136.546 4.61734 136.716 4.6064C137.532 4.56034 138.422 4.59792 139.386 4.71915C138.772 4.74566 138.219 4.80751 137.727 4.90473C137.631 4.93061 137.518 4.9608 137.389 4.99531L135.528 5.39048C132.342 5.86452 129.187 6.45126 126.061 7.1507C125.645 10.7477 125.386 14.3543 125.285 17.9702C125.232 20.0896 125.199 22.2207 125.186 24.3636C125.18 24.4688 125.174 24.5741 125.168 24.6793C125.064 25.7079 125.111 26.5925 125.309 27.333C125.361 27.5262 125.445 27.7108 125.561 27.8867C125.636 28.0391 125.735 28.1506 125.858 28.2213C125.948 28.3007 126.082 28.351 126.261 28.3722C126.439 28.3935 126.592 28.3868 126.721 28.3523C126.835 28.3909 126.94 28.3972 127.037 28.3713C127.133 28.3454 127.221 28.2873 127.301 28.197C127.335 28.3258 127.294 28.4923 127.176 28.6964C127.049 28.8683 126.857 28.9888 126.6 29.0578C126.067 29.1315 125.596 28.9817 125.185 28.6086C124.83 28.186 124.584 27.7172 124.446 27.202C124.335 26.4034 124.294 25.6036 124.321 24.8027C124.316 24.5279 124.307 24.2369 124.294 23.9299C124.233 21.772 124.205 19.6055 124.209 17.4304C124.185 14.1238 124.295 10.7987 124.538 7.45527C122.782 7.85675 121.076 8.314 119.419 8.82701C118.107 9.21293 116.842 9.70722 115.623 10.3099C115.319 10.4606 115.039 10.6391 114.783 10.8456C114.56 11.0434 114.515 11.2624 114.649 11.5028C114.715 11.6229 114.81 11.7184 114.933 11.7891C115.055 11.8598 115.194 11.9262 115.348 11.9883L116.289 12.4091C117.623 12.8798 118.875 13.4935 120.044 14.2501C121.292 14.9164 122.271 15.9308 122.981 17.2934C123.276 18.0081 123.354 18.7466 123.213 19.509C123.063 20.2393 122.796 20.9149 122.41 21.5359C121.557 22.7307 120.551 23.7422 119.393 24.5702C118.266 25.3897 117.086 26.1372 115.852 26.8129C115.243 27.1143 114.613 27.4038 113.963 27.6816L112.939 28.1112C112.553 28.2147 112.149 28.2538 111.728 28.2286C111.316 28.2355 110.91 28.1372 110.51 27.9337C110.094 27.6658 109.792 27.3151 109.607 26.8816C109.334 25.9887 109.324 25.1803 109.579 24.4564C110.094 22.9033 111.077 21.7427 112.528 20.9744C112.625 20.9485 112.705 20.927 112.769 20.9097C112.857 20.8516 112.966 20.8053 113.095 20.7708C113.256 20.7277 113.405 20.705 113.542 20.7026C113.703 20.6595 113.857 20.6529 114.003 20.6828C114.286 20.7103 114.527 20.8357 114.725 21.0587C114.946 21.241 115.063 21.4856 115.077 21.7927C115.081 22.0675 115.005 22.3639 114.849 22.6819C114.834 22.7549 114.799 22.8161 114.743 22.8656C114.719 22.9064 114.696 22.9472 114.672 22.988C114.657 23.0611 114.622 23.1223 114.566 23.1718C114.543 23.2126 114.531 23.233 114.531 23.233C114.31 23.5682 114.081 23.8713 113.843 24.1421C113.002 25.1265 112.029 25.9393 110.924 26.5805C110.982 26.6685 111.052 26.736 111.134 26.7832C111.248 26.8217 111.378 26.8559 111.524 26.8857C111.784 26.9541 112.026 26.9582 112.252 26.8978C112.389 26.8954 112.55 26.8523 112.735 26.7684C112.831 26.7425 112.944 26.7123 113.073 26.6778C115.53 25.6742 117.764 24.351 119.774 22.7082C120.786 21.8502 121.514 20.896 121.957 19.8455C122.158 19.3085 122.206 18.7781 122.1 18.2543C121.986 17.6983 121.735 17.2133 121.348 16.7994C120.58 15.8663 119.597 15.0944 118.398 14.4839C118.031 14.2718 117.651 14.0801 117.26 13.9088C117.065 13.8231 116.865 13.7214 116.661 13.6035L115.733 13.231C115.619 13.1925 115.505 13.154 115.391 13.1155C115.196 13.0298 114.98 12.9324 114.744 12.8232C114.703 12.7996 114.662 12.776 114.621 12.7525C114.467 12.6904 114.319 12.5918 114.18 12.4567C113.909 12.2187 113.719 11.9591 113.609 11.6779C113.514 11.3237 113.549 11.0038 113.714 10.718C113.902 10.3914 114.101 10.1657 114.309 10.0409C114.94 9.56134 115.584 9.19877 116.243 8.9532C117.593 8.45344 118.912 8.03101 120.2 7.68592C121.617 7.30632 123.042 6.95891 124.476 6.64371C124.54 6.62645 124.589 6.61351 124.621 6.60489C124.665 5.86835 124.742 5.12318 124.85 4.36939L126.297 5.32745L126.144 6.30031C129.48 5.61351 132.85 5.0555 136.255 4.62628ZM111.012 24.5899L110.861 24.9927C111.149 24.7777 111.46 24.5218 111.794 24.2251C112.12 23.8961 112.386 23.6006 112.592 23.3384C112.806 23.1084 113 22.8666 113.174 22.613C113.221 22.5314 113.268 22.4497 113.315 22.3681C113.363 22.2864 113.414 22.2209 113.47 22.1714L113.325 22.2102C112.859 22.404 112.408 22.7148 111.97 23.1427C111.565 23.5618 111.245 24.0443 111.012 24.5899Z" fill="white"/>
</svg>
