<svg width="11" height="11" viewBox="0 0 11 11" fill="none" xmlns="http://www.w3.org/2000/svg">
<g clip-path="url(#clip0_1:485)">
<path d="M6.10721 5.50075L10.8737 0.734278C11.0415 0.566463 11.0415 0.294386 10.8737 0.126593C10.7058 -0.0411996 10.4338 -0.0412211 10.266 0.126593L5.49951 4.89307L0.733057 0.126593C0.565243 -0.0412211 0.293165 -0.0412211 0.125372 0.126593C-0.0424203 0.294407 -0.0424418 0.566485 0.125372 0.734278L4.89182 5.50073L0.125372 10.2672C-0.0424418 10.435 -0.0424418 10.7071 0.125372 10.8749C0.209269 10.9588 0.319247 11.0007 0.429225 11.0007C0.539204 11.0007 0.64916 10.9588 0.733078 10.8749L5.49951 6.10843L10.266 10.8749C10.3499 10.9588 10.4598 11.0007 10.5698 11.0007C10.6798 11.0007 10.7897 10.9588 10.8737 10.8749C11.0415 10.7071 11.0415 10.435 10.8737 10.2672L6.10721 5.50075Z" fill="white"/>
</g>
<defs>
<clipPath id="clip0_1:485">
<rect width="11" height="11" fill="white"/>
</clipPath>
</defs>
</svg>
