<svg width="266" height="102" viewBox="0 0 266 102" fill="none" xmlns="http://www.w3.org/2000/svg">
<path d="M13.8112 83.842C14.0503 84.0462 14.3163 84.2245 14.609 84.3769C14.1756 84.4436 13.7541 84.4367 13.3442 84.3562C12.4444 83.9409 11.7219 83.3124 11.1769 82.4707C10.6101 81.6707 10.1337 80.8249 9.74767 79.933C8.96554 78.1175 8.39506 76.2527 8.03623 74.3387C7.25671 70.4253 7.34713 66.4998 8.30748 62.5621C8.44295 62.6592 8.56252 62.7613 8.6662 62.8684C8.98897 63.1161 9.31173 63.3639 9.6345 63.6116C8.68933 67.2649 8.53462 70.9311 9.17037 74.6102C9.49913 76.4289 10.0236 78.2033 10.7439 79.9334C11.4207 81.7472 12.4431 83.0501 13.8112 83.842ZM33.278 67.3761C33.5524 67.3595 33.7205 67.3939 33.7823 67.4792C33.8342 67.5328 33.8116 67.6273 33.7145 67.7628C33.6074 67.8664 33.4735 67.996 33.3128 68.1516C29.2447 70.6575 25.0688 72.9877 20.7851 75.1423C20.5726 75.2442 20.3601 75.3462 20.1476 75.4481C19.2657 75.866 18.3321 76.2302 17.3466 76.541C16.7425 76.7314 16.0784 76.7311 15.3541 76.5401C14.976 76.4496 14.6315 76.2437 14.3205 75.9223C14.073 75.5809 13.926 75.2253 13.8793 74.8556C13.6926 73.3766 14.1507 72.1138 15.2536 71.067C15.7992 70.5804 16.4108 70.2478 17.0885 70.069C17.4482 69.9906 17.802 69.9489 18.15 69.944C18.6034 69.9409 18.8928 69.972 19.0182 70.0373C19.1337 70.0708 19.1587 70.1503 19.0934 70.2757C19.0599 70.3911 18.9628 70.5266 18.8021 70.6821C18.5561 70.8995 18.3569 71.1545 18.2045 71.4472C17.2242 71.4418 16.4168 71.8187 15.7824 72.5779C15.4811 72.9525 15.2844 73.3815 15.1922 73.865C15.1569 74.0858 15.1426 74.3175 15.1492 74.5601C15.1775 74.7608 15.2277 74.9198 15.2995 75.0369C15.4433 75.2712 15.7469 75.4027 16.2103 75.4313C16.6737 75.46 17.1547 75.3782 17.6533 75.186C18.7024 74.8552 19.7532 74.4191 20.8057 73.8775C25.066 71.8702 29.2234 69.7031 33.278 67.3761ZM37.7853 78.7995C37.6983 78.9667 37.5903 79.1231 37.4614 79.2686C37.3643 79.404 37.2563 79.5604 37.1375 79.7377C37.1309 79.4951 37.1402 79.2475 37.1654 78.9949C37.2007 78.7741 37.215 78.5424 37.2084 78.2998C38.0952 74.3504 38.0007 70.4482 36.925 66.5932C35.8159 62.8537 34.3143 59.2553 32.4204 55.7981C32.7902 55.7515 33.1699 55.7366 33.5597 55.7535C33.7605 55.7251 33.9504 55.7177 34.1294 55.7311C35.8643 59.2384 37.1902 62.9446 38.1069 66.8497C39.0118 70.8284 38.9047 74.8116 37.7853 78.7995ZM87.4432 55.2784L90.6257 54.0653L86.9835 56.3146C81.5184 59.1562 75.9672 61.7803 70.3299 64.1868C67.4954 65.3951 64.5999 66.4653 61.6434 67.3975C60.181 67.8586 58.6777 68.2452 57.1334 68.5573C55.5691 68.8059 53.9999 68.7065 52.4258 68.2591C52.0177 68.0732 51.669 67.7987 51.3798 67.4356C51.1123 67.0306 50.9661 66.6223 50.9412 66.2108C50.8495 65.3659 50.8733 64.5545 51.0125 63.7767C51.3863 62.1909 51.9583 60.7348 52.7284 59.4085C54.1968 56.6388 55.8525 54.0196 57.6956 51.5512C59.5286 49.0509 61.5698 46.7122 63.8192 44.5351C65.9867 42.2089 68.65 40.5129 71.809 39.447C71.2817 40.1025 70.8063 40.8117 70.3827 41.5743C67.789 42.8814 65.4829 44.6571 63.4643 46.9013C61.3738 49.0283 59.4548 51.3111 57.7071 53.7495C55.9277 56.1979 54.3891 58.7451 53.0914 61.3911C52.4266 62.7191 52.0672 64.0732 52.013 65.4534C52.0228 66.1494 52.1622 66.6471 52.4314 66.9467C52.587 67.1074 52.8169 67.2271 53.1214 67.3059C53.4258 67.3846 53.7462 67.4584 54.0824 67.5271C55.429 67.6967 56.79 67.6346 58.1653 67.3407C59.5306 67.0151 60.9076 66.6159 62.2964 66.1431C62.4235 66.103 62.5348 66.0679 62.6302 66.0378C65.4913 65.1357 68.3074 64.0905 71.0783 62.9023C76.6402 60.5894 82.0952 58.0481 87.4432 55.2784ZM107.732 43.7437L109.039 43.0693L108.996 43.7644C107.73 44.5133 106.308 45.3809 104.732 46.3672C103.155 47.3536 101.744 48.253 100.497 49.0655L96.9954 51.4278C96.4615 51.8408 95.8908 52.2479 95.2834 52.6491C94.6441 53.0604 93.9188 53.2541 93.1074 53.2304C92.6658 53.1599 92.2677 53.0058 91.9132 52.7681C91.5486 52.4986 91.317 52.1522 91.2185 51.7289C91.1017 51.1366 91.0367 50.5979 91.0235 50.1127C90.9952 49.9119 90.9718 49.7271 90.9535 49.5581C90.8086 48.1009 90.7105 46.6813 90.6593 45.2995C90.5903 42.4203 90.6685 39.5646 90.894 36.7324L92.3464 37.8472C92.0809 40.5523 91.9676 43.2967 92.0065 46.0805C92.0059 47.4088 92.073 48.7857 92.2079 50.2111C92.2062 50.3165 92.2154 50.401 92.2354 50.4646C92.262 50.7707 92.2836 51.061 92.3003 51.3354C92.3386 51.5679 92.4046 51.7219 92.4983 51.7972C92.612 51.9361 92.7684 52.0441 92.9674 52.1211C93.1882 52.1564 93.4308 52.1498 93.6952 52.1014C94.3728 51.9227 95.1224 51.529 95.9441 50.9204C96.2955 50.7048 96.647 50.4891 96.9984 50.2735C98.1815 49.481 99.3588 48.7254 100.53 48.0065C102.916 46.4852 105.317 45.0643 107.732 43.7437ZM125.708 38.3902L126.745 37.8536L126.572 38.7996C125.39 39.4867 124.077 40.1979 122.631 40.9334C121.175 41.637 119.785 42.2153 118.459 42.668C117.22 43.0589 115.981 43.3445 114.745 43.5246L114.677 43.8081C114.463 44.6796 114.092 45.4432 113.564 46.0987C112.984 46.8061 112.3 47.3537 111.513 47.7415C111.12 47.9354 110.686 48.0548 110.211 48.0998C109.947 48.1482 109.683 48.1439 109.42 48.0869C109.116 48.0081 108.844 47.8666 108.605 47.6624C108.18 47.2022 107.925 46.7236 107.838 46.2267C107.751 45.7298 107.764 45.2714 107.876 44.8515C108.071 43.9164 108.474 43.0902 109.087 42.3728C109.355 42.1136 109.559 42.1538 109.702 42.4935C109.844 42.8332 109.856 43.371 109.738 44.1071C109.424 44.6607 109.272 45.2328 109.283 45.8233C109.268 46.1077 109.323 46.3352 109.446 46.5059C109.498 46.5595 109.55 46.6131 109.602 46.6666C109.644 46.6884 109.717 46.7001 109.823 46.7018C110.043 46.7371 110.297 46.7096 110.583 46.6194C110.869 46.5292 111.145 46.4072 111.411 46.2534C111.965 45.904 112.42 45.4634 112.777 44.9315C113.1 44.5151 113.339 44.0551 113.495 43.5516C113.116 43.5665 112.758 43.5396 112.421 43.4709L111.443 43.36C111.242 43.3884 111.026 43.369 110.795 43.302C110.554 43.2032 110.399 43.0425 110.329 42.82C110.249 42.5657 110.253 42.3022 110.342 42.0295C110.43 41.7569 110.555 41.5428 110.716 41.3873C111.101 41.0562 111.484 40.8305 111.865 40.7102C112.088 40.6401 112.3 40.5908 112.5 40.5625C112.691 40.5023 112.903 40.4531 113.135 40.4147C113.41 40.3981 113.661 40.476 113.891 40.6484C114.141 40.779 114.339 40.9615 114.483 41.1957C114.728 41.6425 114.837 42.0976 114.808 42.561C116.013 42.3909 117.203 42.1204 118.379 41.7495C120.923 40.9477 123.366 39.8279 125.708 38.3902ZM112.628 42.4622C112.701 42.4739 112.775 42.4857 112.848 42.4974C113.069 42.5326 113.322 42.5578 113.606 42.573C113.586 42.5094 113.571 42.4617 113.561 42.43C113.551 42.3982 113.557 42.3614 113.579 42.3196C113.562 42.0452 113.497 41.8385 113.383 41.6996C113.341 41.6779 113.32 41.667 113.32 41.667C113.31 41.6352 113.29 41.6243 113.258 41.6343C113.248 41.6025 113.227 41.5917 113.195 41.6017C113.153 41.5799 113.101 41.5791 113.037 41.5991C112.731 41.6257 112.424 41.7051 112.116 41.8371C111.83 41.9273 111.622 42.0452 111.493 42.1906C111.472 42.2325 111.445 42.2584 111.413 42.2684C111.423 42.3002 111.412 42.3211 111.38 42.3311L111.538 42.3337C111.644 42.3354 111.791 42.3589 111.98 42.4042C112.159 42.4176 112.322 42.4361 112.469 42.4596C112.533 42.4395 112.586 42.4404 112.628 42.4622ZM142.578 32.7042L142.422 33.5397C140.883 34.1999 139.157 34.9887 137.244 35.9063C135.364 36.8139 133.725 37.7149 132.33 38.6093C132.042 38.8049 131.754 39.0005 131.466 39.1961C131.264 39.3299 131.061 39.4636 130.859 39.5974C130.929 39.8199 130.993 40.0792 131.052 40.3754C131.071 41.1031 130.818 41.7421 130.293 42.2922C129.789 42.8006 129.233 43.2554 128.626 43.6566C127.592 44.3672 126.456 44.8652 125.218 45.1507L124.44 45.3436L124.294 44.5506C124.229 44.0118 124.379 43.5451 124.744 43.1505C125.067 42.7341 125.458 42.3662 125.917 42.0469C125.948 42.0368 125.991 42.0059 126.045 41.9541L127.998 40.4995L129.23 39.5866C129.22 39.5548 129.199 39.5439 129.167 39.5539C129.157 39.5222 129.131 39.4954 129.09 39.4736C128.349 39.0082 127.563 38.6791 126.734 38.4863C126.24 38.3623 125.732 38.1906 125.208 37.9712C125.019 37.926 124.842 37.8071 124.676 37.6147C124.469 37.4004 124.33 37.182 124.26 36.9595C124.227 36.4108 124.409 35.8814 124.808 35.3713C125.206 34.8612 125.727 34.5745 126.372 34.5113C126.899 34.5199 127.29 34.7634 127.546 35.242C127.823 35.6788 127.921 36.1548 127.839 36.67C127.815 36.8172 127.787 36.9485 127.753 37.064C127.72 37.1794 127.697 37.2739 127.685 37.3475C128.408 37.6439 129.135 38.009 129.865 38.4426L130.254 38.8443L132.044 37.7033C133.545 36.8106 135.273 35.9163 137.227 35.0205C139.213 34.1146 140.997 33.3425 142.578 32.7042ZM129.832 40.4978L129.787 40.3547L128.474 41.3454L126.631 42.8176L125.718 43.5775L125.459 43.9212C125.968 43.7608 126.583 43.4968 127.306 43.129C127.987 42.7396 128.59 42.3224 129.114 41.8777C129.627 41.4011 129.867 40.9411 129.832 40.4978ZM125.751 36.6992C125.886 36.7963 126.064 36.8625 126.285 36.8977L126.318 36.835C126.363 36.6459 126.382 36.4828 126.373 36.3456C126.363 36.3139 126.353 36.2821 126.343 36.2503C126.333 36.2185 126.339 36.1817 126.361 36.1399L126.301 35.9491C126.301 35.9491 126.269 35.9591 126.205 35.9792C126.174 35.9892 126.131 36.0201 126.077 36.072C125.96 36.1439 125.847 36.2843 125.738 36.4934L125.64 36.6816L125.751 36.6992ZM159.823 27.6865C160.738 27.1532 161.13 27.012 161 27.2629C160.891 27.472 160.526 27.8666 159.905 28.4469C158.874 28.9466 157.473 29.8778 155.701 31.2405C154.228 32.3339 152.677 33.3997 151.047 34.4379C149.417 35.4761 147.881 36.2048 146.441 36.6241C144.99 37.0116 143.787 36.7969 142.83 35.9801C142.126 35.1884 141.81 34.2397 141.88 33.1339C142.045 31.4393 142.773 30.0912 144.065 29.0897C144.29 28.9142 144.577 28.7713 144.926 28.661C145.298 28.5089 145.667 28.4622 146.035 28.521C146.393 28.5479 146.649 28.7471 146.801 29.1185C146.871 29.3411 146.887 29.6155 146.85 29.9417C146.715 30.5087 146.41 31.0941 145.936 31.6979C145.225 32.6561 144.379 33.4646 143.398 34.1233C143.613 35.1389 144.364 35.6361 145.651 35.6149C146.971 35.4784 148.504 34.9077 150.249 33.9031C152.016 32.8566 153.859 31.6638 155.779 30.3246C157.133 29.4084 158.481 28.529 159.823 27.6865ZM145.332 29.9485C144.442 30.2292 143.818 31.0202 143.459 32.3216C144.388 31.6093 145.123 30.8359 145.663 30.0014L145.332 29.9485Z" fill="white"/>
<path d="M174.968 60.6912L174.759 61.858L174.213 60.4575C174.067 59.6644 173.954 58.8614 173.872 58.0483C172.266 54.3955 169.946 52.1912 166.912 51.4353C163.899 50.6377 160.581 50.7575 156.959 51.7948C153.327 52.8003 149.825 54.1663 146.455 55.893C146.482 60.0787 146.677 64.2462 147.042 68.3952L146.806 69.3086L146.349 68.1942C145.864 64.3278 145.511 60.4372 145.291 56.5223C143.664 57.3497 142.159 58.1738 140.775 58.9946C140.328 59.2404 139.881 59.4861 139.435 59.7318L142.465 57.2037C142.816 56.988 143.157 56.7932 143.486 56.6194C144.114 56.2818 144.689 55.9432 145.211 55.6039C145.095 53.0191 145.047 50.4302 145.069 47.8371L146.577 48.4626C146.489 50.6224 146.437 52.788 146.423 54.9595C147.944 54.1304 149.612 53.3248 151.428 52.5426C153.285 51.7823 155.347 51.0621 157.615 50.3823C159.882 49.7024 162.159 49.3864 164.446 49.4342C166.723 49.4503 168.773 50.1321 170.595 51.4796C171.801 52.5325 172.778 53.6923 173.527 54.959C172.929 48.9612 172.722 42.9276 172.906 36.8582L172.891 36.8106C172.912 36.7687 172.918 36.7319 172.908 36.7001C172.888 36.6366 172.889 36.5839 172.911 36.5421L172.99 32.6374L174.321 36.3595L174.745 37.5366L174.318 37.5138C173.938 45.2879 174.155 53.0137 174.968 60.6912ZM195.92 41.66L196.956 41.1234L196.783 42.0694C195.601 42.7565 194.288 43.4677 192.842 44.2032C191.386 44.9068 189.996 45.4851 188.671 45.9378C187.431 46.3288 186.193 46.6143 184.956 46.7944L184.888 47.0779C184.674 47.9495 184.303 48.713 183.776 49.3686C183.195 50.076 182.511 50.6235 181.725 51.0113C181.332 51.2052 180.897 51.3246 180.422 51.3696C180.158 51.418 179.894 51.4137 179.632 51.3567C179.327 51.2779 179.056 51.1364 178.816 50.9322C178.392 50.472 178.136 49.9934 178.049 49.4965C177.962 48.9996 177.975 48.5412 178.087 48.1213C178.282 47.1862 178.685 46.36 179.298 45.6426C179.566 45.3834 179.771 45.4236 179.913 45.7633C180.055 46.103 180.067 46.6408 179.95 47.3769C179.635 47.9305 179.483 48.5026 179.495 49.0931C179.48 49.3775 179.534 49.6051 179.658 49.7758C179.709 49.8293 179.761 49.8829 179.813 49.9364C179.855 49.9582 179.928 49.9699 180.034 49.9717C180.255 50.0069 180.508 49.9794 180.794 49.8892C181.08 49.799 181.356 49.677 181.623 49.5232C182.176 49.1738 182.632 48.7332 182.988 48.2013C183.311 47.7849 183.551 47.3249 183.707 46.8215C183.327 46.8363 182.969 46.8094 182.633 46.7407L181.654 46.6298C181.453 46.6582 181.237 46.6388 181.007 46.5718C180.766 46.473 180.61 46.3123 180.54 46.0898C180.46 45.8355 180.464 45.572 180.553 45.2993C180.642 45.0267 180.766 44.8126 180.927 44.6571C181.312 44.326 181.695 44.1003 182.077 43.9801C182.299 43.9099 182.511 43.8606 182.712 43.8323C182.902 43.7721 183.114 43.7229 183.347 43.6845C183.621 43.6679 183.873 43.7458 184.102 43.9182C184.353 44.0488 184.55 44.2313 184.694 44.4655C184.94 44.9123 185.048 45.3674 185.019 45.8308C186.224 45.6607 187.414 45.3902 188.591 45.0194C191.134 44.2175 193.577 43.0977 195.92 41.66ZM182.839 45.732C182.912 45.7437 182.986 45.7555 183.06 45.7672C183.28 45.8024 183.533 45.8276 183.817 45.8428C183.797 45.7792 183.782 45.7316 183.772 45.6998C183.762 45.668 183.768 45.6312 183.79 45.5894C183.773 45.315 183.708 45.1083 183.594 44.9694C183.553 44.9477 183.532 44.9368 183.532 44.9368C183.522 44.905 183.501 44.8941 183.469 44.9041C183.459 44.8724 183.438 44.8615 183.406 44.8715C183.365 44.8497 183.312 44.8489 183.248 44.8689C182.942 44.8955 182.635 44.9749 182.327 45.1069C182.041 45.1971 181.834 45.315 181.705 45.4604C181.683 45.5023 181.656 45.5282 181.624 45.5382C181.634 45.57 181.623 45.5909 181.592 45.6009L181.75 45.6035C181.855 45.6052 182.002 45.6287 182.191 45.674C182.37 45.6874 182.534 45.7059 182.681 45.7294C182.744 45.7093 182.797 45.7102 182.839 45.732ZM222.239 33.519C222.854 33.2549 223.22 33.1396 223.335 33.1731C223.441 33.1749 223.376 33.3003 223.14 33.5495C222.925 33.7568 222.621 34.0101 222.226 34.3094C220.226 35.3943 218.196 36.4364 216.134 37.436L213.072 39.0306C212.658 39.1609 212.412 39.0989 212.332 38.8446C212.273 38.5484 212.268 38.2004 212.317 37.8006C212.342 37.548 212.346 37.3372 212.327 37.1683C212.285 37.1465 212.249 37.1406 212.217 37.1506C212.185 37.1607 212.153 37.1707 212.122 37.1807C212.09 37.1907 212.074 37.1957 212.074 37.1957L211.818 37.3813C208.76 39.9881 205.333 42.3095 201.536 44.3454L199.719 45.233C199.56 45.2831 199.401 45.3332 199.242 45.3833C199.061 45.4752 198.891 45.5463 198.732 45.5964C198.637 45.6265 198.494 45.6716 198.303 45.7317C198.134 45.75 197.939 45.7416 197.719 45.7063C197.498 45.6711 197.315 45.5891 197.169 45.4602C196.972 45.2777 196.828 45.0435 196.738 44.7573C196.484 44.1734 196.421 43.5293 196.548 42.825C196.697 42.0789 196.635 41.3821 196.361 40.7346C196.625 40.6862 196.899 40.7223 197.181 40.8428C197.496 40.9534 197.783 41.0899 198.044 41.2523L198.101 42.5973C198.1 42.7027 198.098 42.8081 198.096 42.9135C198.012 43.5341 198.027 43.9139 198.141 44.0528C198.245 44.1599 198.598 44.1183 199.202 43.9278C200.964 43.1975 202.718 42.33 204.463 41.3254C204.825 41.1415 205.256 40.9008 205.756 40.6032C206.278 40.2639 207.009 39.7539 207.947 39.0735C208.918 38.383 210.247 37.3873 211.934 36.0865C212.349 35.8508 212.655 35.8242 212.852 36.0066C213.081 36.179 213.219 36.4501 213.266 36.8199C213.344 37.1796 213.365 37.5225 213.328 37.8488L215.926 36.6103C216.627 36.2843 217.312 35.9634 217.982 35.6476C219.448 34.9757 220.867 34.2661 222.239 33.519ZM238.914 27.7369L238.758 28.5724C237.219 29.2326 235.493 30.0214 233.58 30.939C231.7 31.8466 230.061 32.7476 228.666 33.642C228.378 33.8376 228.09 34.0332 227.802 34.2288C227.6 34.3626 227.397 34.4963 227.195 34.6301C227.265 34.8526 227.329 35.1119 227.388 35.4081C227.407 36.1358 227.154 36.7748 226.629 37.3249C226.125 37.8333 225.57 38.2881 224.962 38.6893C223.928 39.3999 222.792 39.8979 221.554 40.1834L220.776 40.3763L220.63 39.5832C220.565 39.0445 220.715 38.5778 221.08 38.1832C221.403 37.7668 221.794 37.3989 222.253 37.0796C222.284 37.0695 222.327 37.0386 222.381 36.9868L224.334 35.5322L225.566 34.6193C225.556 34.5875 225.535 34.5766 225.503 34.5866C225.493 34.5548 225.467 34.5281 225.426 34.5063C224.685 34.0409 223.899 33.7118 223.07 33.519C222.576 33.395 222.068 33.2233 221.544 33.0039C221.355 32.9587 221.178 32.8398 221.012 32.6474C220.805 32.4331 220.666 32.2147 220.596 31.9922C220.563 31.4435 220.745 30.9141 221.144 30.404C221.542 29.8939 222.064 29.6072 222.708 29.5439C223.235 29.5525 223.626 29.7961 223.882 30.2747C224.159 30.7115 224.257 31.1875 224.175 31.7027C224.151 31.8499 224.123 31.9812 224.089 32.0967C224.056 32.2121 224.033 32.3066 224.021 32.3802C224.744 32.6766 225.471 33.0417 226.202 33.4753L226.59 33.877L228.38 32.736C229.881 31.8433 231.609 30.949 233.563 30.0532C235.549 29.1473 237.333 28.3752 238.914 27.7369ZM226.168 35.5305L226.123 35.3874L224.81 36.3781L222.967 37.8503L222.054 38.6102L221.795 38.9539C222.304 38.7935 222.919 38.5295 223.642 38.1617C224.323 37.7723 224.926 37.3551 225.45 36.9103C225.963 36.4338 226.203 35.9738 226.168 35.5305ZM222.087 31.7319C222.222 31.829 222.4 31.8951 222.621 31.9304L222.654 31.8677C222.699 31.6786 222.718 31.5155 222.709 31.3783C222.699 31.3466 222.689 31.3148 222.679 31.283C222.669 31.2512 222.675 31.2144 222.697 31.1726L222.637 30.9818C222.637 30.9818 222.605 30.9918 222.541 31.0119C222.51 31.0219 222.467 31.0528 222.413 31.1047C222.296 31.1766 222.183 31.317 222.074 31.5261L221.976 31.7143L222.087 31.7319ZM256.159 22.7192C257.074 22.1859 257.466 22.0447 257.336 22.2956C257.227 22.5047 256.862 22.8993 256.241 23.4795C255.21 23.9793 253.809 24.9105 252.037 26.2732C250.564 27.3666 249.013 28.4324 247.383 29.4706C245.753 30.5088 244.218 31.2375 242.777 31.6568C241.326 32.0443 240.123 31.8296 239.166 31.0128C238.462 30.2211 238.146 29.2724 238.216 28.1666C238.381 26.472 239.109 25.1239 240.401 24.1224C240.626 23.9469 240.913 23.804 241.262 23.6937C241.634 23.5416 242.003 23.4949 242.372 23.5537C242.73 23.5806 242.985 23.7798 243.137 24.1512C243.207 24.3738 243.223 24.6482 243.186 24.9744C243.051 25.5414 242.746 26.1268 242.272 26.7306C241.561 27.6888 240.715 28.4973 239.734 29.156C239.949 30.1716 240.7 30.6688 241.987 30.6476C243.307 30.5111 244.84 29.9404 246.585 28.9358C248.352 27.8893 250.195 26.6964 252.115 25.3573C253.469 24.4411 254.817 23.5617 256.159 22.7192ZM241.668 24.9812C240.778 25.2619 240.154 26.0529 239.795 27.3543C240.724 26.642 241.459 25.8686 241.999 25.0341L241.668 24.9812Z" fill="white"/>
</svg>
