<svg width="219" height="219" viewBox="0 0 219 219" fill="none" xmlns="http://www.w3.org/2000/svg">
<path d="M191.576 122.766C191.858 121.191 192.606 119.989 193.821 119.16C195.047 118.322 196.404 118.037 197.89 118.303C199.377 118.569 200.55 119.307 201.41 120.517C202.263 121.716 202.548 123.103 202.266 124.678C202.097 125.623 201.71 126.453 201.105 127.167C200.509 127.884 199.783 128.394 198.926 128.698L198.558 127.687C199.247 127.475 199.835 127.082 200.323 126.509C200.812 125.936 201.125 125.266 201.262 124.498C201.495 123.199 201.265 122.071 200.572 121.114C199.872 120.145 198.916 119.553 197.705 119.336C196.495 119.12 195.393 119.344 194.4 120.01C193.419 120.667 192.812 121.646 192.58 122.945C192.443 123.713 192.504 124.45 192.763 125.157C193.023 125.864 193.439 126.436 194.011 126.874L193.33 127.697C192.628 127.134 192.118 126.408 191.8 125.518C191.481 124.628 191.407 123.711 191.576 122.766Z" fill="white"/>
<path d="M189.579 132.408L189.857 131.458L200.367 134.531L200.089 135.481L189.579 132.408Z" fill="white"/>
<path d="M187.183 142.052C186.776 141.058 186.776 140.055 187.183 139.044C187.598 138.014 188.296 137.288 189.276 136.863C190.265 136.443 191.274 136.44 192.303 136.855C193.333 137.271 194.053 137.971 194.464 138.956C194.885 139.945 194.888 140.955 194.473 141.984C194.061 143.004 193.361 143.725 192.372 144.145C191.388 144.579 190.382 144.588 189.353 144.173C188.332 143.761 187.609 143.054 187.183 142.052ZM189.652 137.775C188.91 138.091 188.384 138.633 188.074 139.403C187.763 140.173 187.766 140.929 188.081 141.67C188.415 142.42 188.962 142.948 189.723 143.255C190.493 143.565 191.248 143.563 191.99 143.247C192.741 142.936 193.272 142.395 193.582 141.625C193.893 140.855 193.886 140.098 193.561 139.352C193.245 138.61 192.703 138.084 191.933 137.774C191.173 137.467 190.412 137.467 189.652 137.775Z" fill="white"/>
<path d="M188.62 149.872C188.111 149.594 187.491 149.842 186.761 150.617C186.56 150.838 186.425 150.981 186.356 151.045C186.295 151.115 186.163 151.242 185.96 151.427C185.76 151.626 185.61 151.754 185.509 151.813C185.404 151.881 185.249 151.967 185.044 152.072C184.847 152.181 184.673 152.24 184.52 152.247C184.377 152.26 184.2 152.249 183.991 152.215C183.791 152.185 183.594 152.118 183.401 152.012C182.839 151.705 182.505 151.232 182.399 150.593C182.283 149.971 182.419 149.305 182.807 148.594C183.142 147.98 183.568 147.523 184.085 147.224C184.61 146.93 185.151 146.815 185.708 146.88L185.74 147.854C185.331 147.79 184.939 147.861 184.564 148.067C184.194 148.286 183.889 148.615 183.649 149.054C183.405 149.502 183.294 149.914 183.316 150.291C183.338 150.667 183.525 150.952 183.876 151.143C184.385 151.421 185.004 151.173 185.735 150.398C185.935 150.178 186.066 150.032 186.127 149.963C186.196 149.898 186.331 149.767 186.53 149.568C186.734 149.383 186.888 149.257 186.994 149.189C187.094 149.13 187.243 149.046 187.439 148.936C187.644 148.832 187.819 148.773 187.962 148.761C188.115 148.753 188.291 148.764 188.492 148.793C188.701 148.828 188.902 148.898 189.095 149.003C189.63 149.296 189.963 149.751 190.092 150.369C190.213 151.004 190.098 151.642 189.748 152.283C189.46 152.809 189.088 153.21 188.63 153.484C188.168 153.767 187.674 153.89 187.147 153.853L187.121 152.899C187.87 152.989 188.464 152.63 188.905 151.822C189.121 151.428 189.209 151.048 189.168 150.684C189.128 150.32 188.945 150.049 188.62 149.872Z" fill="white"/>
<path d="M184.531 160.852C183.889 161.769 183.052 162.276 182.02 162.371C180.986 162.489 180.03 162.24 179.154 161.626C179.113 161.598 178.992 161.5 178.79 161.335L182.569 155.942C181.897 155.593 181.222 155.511 180.544 155.695C179.865 155.879 179.294 156.303 178.829 156.966C178.175 157.9 178.061 158.803 178.487 159.676L177.571 160.096C177.318 159.515 177.231 158.899 177.31 158.246C177.391 157.607 177.638 156.993 178.051 156.403C178.728 155.436 179.582 154.863 180.613 154.681C181.643 154.5 182.626 154.736 183.559 155.39C184.485 156.039 185.041 156.874 185.228 157.897C185.423 158.925 185.191 159.91 184.531 160.852ZM183.745 160.301C184.193 159.662 184.38 158.994 184.308 158.296C184.229 157.606 183.912 157.005 183.355 156.493L180.145 161.075C180.863 161.444 181.541 161.547 182.18 161.384C182.839 161.211 183.361 160.85 183.745 160.301Z" fill="white"/>
<path d="M170.301 174.662L173.492 177.982L172.735 178.71L165.459 171.14L166.216 170.412L169.615 173.948L173.724 169.998L170.324 166.462L171.081 165.734L178.358 173.303L177.601 174.031L174.41 170.711L170.301 174.662Z" fill="white"/>
<path d="M157.294 178.802C157.484 177.745 158.023 176.899 158.91 176.265C159.813 175.62 160.792 175.381 161.846 175.55C162.906 175.726 163.759 176.266 164.404 177.169C165.049 178.073 165.28 179.05 165.098 180.102C164.921 181.163 164.382 182.015 163.478 182.661C162.583 183.3 161.606 183.532 160.546 183.355C159.483 183.193 158.629 182.66 157.984 181.756C157.345 180.861 157.115 179.877 157.294 178.802ZM161.673 176.521C160.878 176.389 160.143 176.564 159.468 177.046C158.792 177.529 158.388 178.168 158.256 178.963C158.135 179.774 158.313 180.514 158.79 181.181C159.272 181.856 159.911 182.26 160.706 182.393C161.507 182.533 162.245 182.362 162.92 181.88C163.596 181.397 163.997 180.754 164.123 179.951C164.256 179.156 164.081 178.42 163.598 177.745C163.122 177.078 162.48 176.67 161.673 176.521Z" fill="white"/>
<path d="M149.4 186.624L151.259 190.087L150.387 190.555L146.84 183.947L147.712 183.479L148.265 184.51C148.333 183.452 148.86 182.658 149.847 182.128C150.64 181.703 151.4 181.607 152.127 181.84C152.859 182.083 153.447 182.619 153.892 183.447L156.069 187.504L155.197 187.973L153.019 183.915C152.703 183.325 152.302 182.949 151.819 182.789C151.327 182.633 150.794 182.709 150.222 183.017C149.561 183.371 149.152 183.858 148.996 184.475C148.83 185.097 148.965 185.814 149.4 186.624Z" fill="white"/>
<path d="M144.393 191.199C144.176 190.661 143.54 190.459 142.484 190.592C142.189 190.636 141.994 190.66 141.899 190.666C141.808 190.681 141.625 190.695 141.35 190.708C141.07 190.735 140.872 190.739 140.757 190.721C140.633 190.706 140.458 190.674 140.233 190.624C140.012 190.584 139.84 190.518 139.718 190.427C139.599 190.346 139.469 190.225 139.33 190.066C139.194 189.916 139.085 189.738 139.003 189.534C138.764 188.94 138.807 188.363 139.131 187.801C139.437 187.248 139.965 186.82 140.717 186.517C141.366 186.256 141.985 186.174 142.574 186.272C143.167 186.378 143.657 186.634 144.046 187.038L143.451 187.811C143.176 187.501 142.828 187.307 142.409 187.227C141.983 187.161 141.539 187.222 141.075 187.408C140.601 187.598 140.254 187.846 140.031 188.151C139.809 188.456 139.773 188.794 139.922 189.165C140.138 189.703 140.774 189.905 141.831 189.772C142.126 189.728 142.319 189.699 142.41 189.684C142.505 189.679 142.692 189.662 142.972 189.636C143.247 189.622 143.447 189.623 143.571 189.638C143.686 189.656 143.855 189.685 144.076 189.726C144.3 189.776 144.472 189.841 144.591 189.923C144.714 190.014 144.843 190.134 144.979 190.284C145.118 190.444 145.229 190.626 145.311 190.83C145.539 191.396 145.506 191.958 145.214 192.518C144.903 193.085 144.409 193.504 143.731 193.777C143.175 194.001 142.633 194.073 142.105 193.994C141.568 193.919 141.108 193.7 140.725 193.336L141.312 192.583C141.833 193.128 142.52 193.229 143.373 192.886C143.791 192.718 144.1 192.481 144.3 192.174C144.5 191.867 144.531 191.542 144.393 191.199Z" fill="white"/>
<path d="M134.286 197.057C133.207 197.356 132.239 197.214 131.382 196.632C130.509 196.065 129.929 195.266 129.643 194.235C129.63 194.186 129.598 194.034 129.548 193.779L135.894 192.019C135.597 191.323 135.128 190.83 134.488 190.541C133.847 190.251 133.136 190.215 132.356 190.431C131.257 190.736 130.595 191.361 130.369 192.305L129.395 192.047C129.569 191.438 129.893 190.907 130.37 190.453C130.839 190.012 131.42 189.695 132.114 189.502C133.251 189.187 134.275 189.287 135.186 189.802C136.096 190.318 136.704 191.125 137.009 192.223C137.311 193.312 137.209 194.311 136.703 195.219C136.2 196.137 135.394 196.749 134.286 197.057ZM134.029 196.132C134.781 195.923 135.351 195.526 135.739 194.941C136.117 194.359 136.254 193.693 136.15 192.944L130.758 194.439C131.078 195.181 131.536 195.692 132.133 195.973C132.752 196.258 133.384 196.311 134.029 196.132Z" fill="white"/>
<path d="M112.213 197.047L121.191 196.421L121.257 197.379L112.279 198.004L112.213 197.047Z" fill="white"/>
<path d="M97.2635 191.863C98.8445 192.108 100.064 192.829 100.92 194.024C101.786 195.231 102.103 196.581 101.871 198.073C101.64 199.565 100.929 200.755 99.7389 201.643C98.5601 202.523 97.1802 202.84 95.5991 202.595C94.6504 202.448 93.8119 202.08 93.0835 201.491C92.3536 200.913 91.8268 200.198 91.5032 199.349L92.505 198.958C92.733 199.641 93.139 200.22 93.7231 200.695C94.3072 201.17 94.9846 201.467 95.7554 201.587C97.0598 201.789 98.1823 201.533 99.1229 200.819C100.075 200.096 100.645 199.127 100.834 197.912C101.022 196.696 100.772 195.6 100.084 194.623C99.4038 193.658 98.4115 193.074 97.1071 192.871C96.3363 192.752 95.6007 192.83 94.9001 193.106C94.1996 193.382 93.6372 193.81 93.213 194.392L92.3745 193.731C92.9204 193.016 93.6346 192.489 94.517 192.151C95.3993 191.812 96.3148 191.716 97.2635 191.863Z" fill="white"/>
<path d="M87.4089 190.033L88.3643 190.293L85.4931 200.86L84.5377 200.6L87.4089 190.033Z" fill="white"/>
<path d="M77.837 187.873C78.8221 187.443 79.8245 187.42 80.8444 187.805C81.883 188.197 82.6255 188.878 83.072 189.848C83.515 190.827 83.5406 191.836 83.149 192.874C82.7573 193.913 82.0736 194.649 81.0979 195.083C80.1187 195.526 79.1097 195.551 78.0712 195.16C77.0419 194.771 76.3058 194.088 75.8629 193.108C75.4071 192.135 75.375 191.129 75.7666 190.09C76.1547 189.061 76.8448 188.322 77.837 187.873ZM82.1689 190.244C81.8367 189.51 81.2823 188.996 80.5057 188.703C79.7291 188.41 78.9736 188.43 78.2391 188.762C77.4976 189.113 76.9822 189.672 76.6929 190.439C76.4001 191.216 76.4197 191.972 76.7519 192.706C77.0806 193.45 77.6333 193.968 78.4099 194.261C79.1865 194.554 79.9438 194.53 80.6817 194.188C81.4162 193.856 81.9298 193.302 82.2227 192.525C82.512 191.758 82.4941 190.998 82.1689 190.244Z" fill="white"/>
<path d="M66.9402 185.618L65.0824 189.082L64.2101 188.613L67.7553 182.004L68.6277 182.472L68.0746 183.503C68.9935 182.975 69.9464 182.976 70.9333 183.505C71.7264 183.931 72.2264 184.511 72.4335 185.246C72.6358 185.99 72.5148 186.777 72.0704 187.605L69.8937 191.663L69.0213 191.195L71.1981 187.137C71.5148 186.546 71.6064 186.005 71.4729 185.514C71.3306 185.018 70.973 184.616 70.4002 184.309C69.7394 183.954 69.1084 183.882 68.5073 184.093C67.8974 184.299 67.375 184.808 66.9402 185.618Z" fill="white"/>
<path d="M60.3724 183.987C60.7017 183.509 60.519 182.867 59.8245 182.06C59.6255 181.838 59.4975 181.688 59.4404 181.613C59.3777 181.545 59.2649 181.4 59.1019 181.179C58.9251 180.96 58.8125 180.797 58.7643 180.691C58.7078 180.579 58.6383 180.415 58.5557 180.201C58.4674 179.994 58.4272 179.814 58.4352 179.662C58.4374 179.518 58.4665 179.343 58.5225 179.139C58.5727 178.943 58.6603 178.754 58.7852 178.573C59.1485 178.046 59.6536 177.763 60.3005 177.723C60.9309 177.672 61.5795 177.877 62.2463 178.337C62.8225 178.734 63.2325 179.205 63.4764 179.75C63.7145 180.303 63.7724 180.853 63.6501 181.4L62.6776 181.331C62.7838 180.93 62.754 180.533 62.5882 180.139C62.4085 179.748 62.1129 179.411 61.7013 179.127C61.2815 178.837 60.8831 178.684 60.5062 178.667C60.1292 178.65 59.8272 178.806 59.6001 179.135C59.2708 179.613 59.4535 180.255 60.1481 181.062C60.347 181.284 60.4779 181.429 60.5406 181.497C60.5977 181.573 60.7146 181.72 60.8915 181.939C61.0544 182.161 61.1641 182.328 61.2206 182.44C61.2688 182.546 61.3371 182.702 61.4254 182.909C61.508 183.124 61.5481 183.303 61.5459 183.448C61.5379 183.6 61.5088 183.774 61.4586 183.971C61.4027 184.175 61.3122 184.368 61.1874 184.549C60.841 185.051 60.354 185.335 59.7261 185.4C59.0817 185.453 58.4591 185.273 57.8582 184.858C57.3643 184.518 57.0047 184.105 56.7793 183.622C56.5457 183.133 56.4746 182.628 56.566 182.108L57.5176 182.181C57.3507 182.917 57.6459 183.546 58.4032 184.068C58.7736 184.323 59.1419 184.45 59.5081 184.447C59.8743 184.445 60.1624 184.291 60.3724 183.987Z" fill="white"/>
<path d="M49.9272 178.824C49.0807 178.091 48.663 177.206 48.6739 176.17C48.6631 175.129 49.008 174.204 49.7086 173.395C49.7413 173.357 49.8504 173.246 50.0357 173.063L55.0124 177.375C55.4279 176.743 55.5789 176.08 55.4654 175.386C55.3519 174.692 54.9891 174.08 54.377 173.55C53.5154 172.803 52.6287 172.597 51.717 172.932L51.3934 171.977C51.9964 171.785 52.6185 171.762 53.2598 171.907C53.887 172.054 54.4727 172.363 55.0169 172.834C55.9086 173.607 56.3919 174.515 56.4666 175.559C56.5414 176.603 56.2055 177.556 55.4591 178.417C54.7193 179.271 53.8312 179.739 52.795 179.82C51.7522 179.909 50.7963 179.577 49.9272 178.824ZM50.5557 178.098C51.1452 178.609 51.7908 178.864 52.4926 178.864C53.1867 178.857 53.8172 178.602 54.3838 178.101L50.1554 174.437C49.7147 175.114 49.5425 175.778 49.6388 176.431C49.7437 177.104 50.0494 177.66 50.5557 178.098Z" fill="white"/>
<path d="M37.7006 163.319L34.0742 166.157L33.4272 165.33L41.696 158.859L42.343 159.686L38.4803 162.709L41.9926 167.198L45.8553 164.175L46.5023 165.002L38.2335 171.473L37.5865 170.646L41.2129 167.808L37.7006 163.319Z" fill="white"/>
<path d="M34.9613 150.064C35.9953 150.358 36.784 150.977 37.3273 151.922C37.8807 152.884 38.0217 153.882 37.7505 154.914C37.4705 155.952 36.8495 156.748 35.8873 157.301C34.9252 157.855 33.9296 157.989 32.9006 157.704C31.863 157.424 31.0675 156.803 30.5141 155.841C29.9658 154.887 29.8316 153.892 30.1115 152.854C30.3777 151.812 30.992 151.015 31.9541 150.461C32.9076 149.913 33.91 149.781 34.9613 150.064ZM36.8009 154.647C37.0109 153.869 36.909 153.12 36.4952 152.4C36.0814 151.681 35.4854 151.216 34.7072 151.006C33.9116 150.806 33.1585 150.911 32.4477 151.32C31.7282 151.734 31.2635 152.33 31.0536 153.108C30.8349 153.891 30.9325 154.643 31.3463 155.362C31.76 156.082 32.3604 156.544 33.1473 156.749C33.9255 156.959 34.6743 156.857 35.3938 156.443C36.1046 156.034 36.5736 155.436 36.8009 154.647Z" fill="white"/>
<path d="M27.9546 141.369L24.3193 142.862L23.9433 141.946L30.881 139.097L31.257 140.012L30.1747 140.457C31.2199 140.633 31.9552 141.239 32.3806 142.275C32.7224 143.108 32.7395 143.874 32.4321 144.573C32.1153 145.276 31.5222 145.806 30.6527 146.163L26.3929 147.913L26.0169 146.997L30.2767 145.247C30.8965 144.993 31.311 144.633 31.5203 144.169C31.7259 143.695 31.7052 143.158 31.4584 142.557C31.1735 141.863 30.7321 141.406 30.134 141.187C29.5321 140.959 28.8057 141.019 27.9546 141.369Z" fill="white"/>
<path d="M23.8997 135.911C24.4574 135.752 24.7248 135.14 24.7019 134.075C24.6896 133.777 24.6856 133.581 24.6897 133.486C24.6843 133.394 24.6891 133.21 24.7043 132.936C24.7072 132.654 24.7237 132.457 24.754 132.344C24.7815 132.222 24.8317 132.052 24.9046 131.833C24.9679 131.618 25.051 131.454 25.1541 131.341C25.2475 131.231 25.3808 131.115 25.5539 130.993C25.7174 130.874 25.905 130.784 26.1165 130.723C26.7319 130.548 27.3019 130.65 27.8265 131.031C28.3456 131.392 28.7162 131.962 28.9384 132.741C29.1305 133.414 29.1474 134.039 28.9893 134.614C28.8215 135.192 28.5164 135.654 28.074 135.999L27.3675 135.327C27.7041 135.085 27.9336 134.759 28.056 134.35C28.1661 133.934 28.1525 133.486 28.0153 133.005C27.8754 132.514 27.6654 132.143 27.3853 131.89C27.1051 131.637 26.7728 131.565 26.3881 131.675C25.8304 131.834 25.563 132.446 25.586 133.511C25.5982 133.809 25.6071 134.004 25.6125 134.096C25.6084 134.191 25.6049 134.379 25.602 134.661C25.5868 134.935 25.5654 135.134 25.5379 135.256C25.5077 135.369 25.4609 135.533 25.3976 135.748C25.3248 135.967 25.2416 136.131 25.1482 136.241C25.0451 136.353 24.9118 136.469 24.7483 136.589C24.5752 136.711 24.3829 136.802 24.1713 136.863C23.5847 137.03 23.0285 136.939 22.5025 136.59C21.9711 136.222 21.6052 135.687 21.405 134.985C21.2403 134.408 21.2247 133.861 21.3582 133.345C21.4889 132.819 21.7548 132.384 22.156 132.041L22.8439 132.702C22.2476 133.164 22.0757 133.837 22.3281 134.721C22.4516 135.154 22.6554 135.486 22.9396 135.717C23.2239 135.948 23.5439 136.012 23.8997 135.911Z" fill="white"/>
<path d="M19.1344 125.405C18.9465 124.301 19.1857 123.353 19.852 122.56C20.5052 121.748 21.3592 121.253 22.414 121.073C22.4633 121.065 22.6177 121.049 22.8774 121.025L23.9824 127.516C24.705 127.292 25.2428 126.876 25.5958 126.268C25.9488 125.66 26.0573 124.957 25.9214 124.158C25.7301 123.034 25.176 122.312 24.2592 121.992L24.616 121.048C25.2037 121.283 25.699 121.66 26.102 122.18C26.4934 122.691 26.7495 123.302 26.8703 124.012C27.0683 125.175 26.8647 126.184 26.2593 127.037C25.654 127.891 24.7895 128.414 23.6656 128.605C22.5517 128.795 21.5687 128.592 20.7167 127.997C19.8548 127.403 19.3274 126.539 19.1344 125.405ZM20.0808 125.244C20.2117 126.013 20.5484 126.62 21.0908 127.066C21.6315 127.501 22.2799 127.705 23.0361 127.678L22.0972 122.162C21.327 122.405 20.7719 122.809 20.4319 123.374C20.0854 123.96 19.9684 124.584 20.0808 125.244Z" fill="white"/>
<path d="M21.3724 103.299L21.064 112.293L20.1045 112.26L20.4129 103.266L21.3724 103.299Z" fill="white"/>
<path d="M27.9432 89.2326C27.5414 90.7813 26.703 91.9223 25.4281 92.6556C24.1409 93.3961 22.7665 93.5767 21.3049 93.1975C19.8433 92.8182 18.73 91.9922 17.9652 90.7193C17.2075 89.4586 17.0295 88.0538 17.4313 86.5051C17.6723 85.5759 18.122 84.7782 18.7804 84.1122C19.429 83.4437 20.1922 82.9909 21.0699 82.7537L21.359 83.7895C20.6567 83.9482 20.04 84.2944 19.5089 84.8282C18.9779 85.3619 18.6144 86.0063 18.4186 86.7613C18.0871 88.039 18.2298 89.1814 18.8467 90.1886C19.4707 91.208 20.378 91.8722 21.5685 92.1811C22.7591 92.49 23.8748 92.3508 24.9157 91.7633C25.9444 91.1831 26.6244 90.2541 26.9559 88.9764C27.1517 88.2214 27.1474 87.4816 26.9428 86.757C26.7382 86.0324 26.3676 85.43 25.8309 84.9498L26.5727 84.1815C27.2294 84.7961 27.6822 85.5593 27.9312 86.4711C28.1803 87.3828 28.1843 88.3033 27.9432 89.2326Z" fill="white"/>
<path d="M30.7073 79.6682L30.3545 80.5932L20.1237 76.6901L20.4766 75.7651L30.7073 79.6682Z" fill="white"/>
<path d="M33.819 70.3086C34.1467 71.3323 34.0674 72.332 33.5811 73.3075C33.0859 74.3009 32.3332 74.9704 31.323 75.316C30.3038 75.657 29.2975 75.5799 28.3041 75.0847C27.3107 74.5894 26.648 73.8343 26.3158 72.8195C25.9747 71.8002 26.0517 70.7939 26.5469 69.8004C27.0376 68.816 27.7926 68.1532 28.8118 67.8121C29.8265 67.4576 30.8305 67.528 31.8239 68.0233C32.8084 68.5141 33.4734 69.2759 33.819 70.3086ZM31.02 74.3771C31.7844 74.1213 32.3517 73.622 32.722 72.8792C33.0923 72.1363 33.1495 71.3827 32.8936 70.6182C32.6199 69.8448 32.1161 69.2752 31.3823 68.9093C30.6395 68.539 29.8859 68.4817 29.1215 68.7375C28.3481 68.9889 27.7763 69.4859 27.4061 70.2288C27.0358 70.9716 26.983 71.7275 27.2478 72.4964C27.5037 73.2609 28.003 73.8283 28.7458 74.1986C29.4796 74.5645 30.2377 74.624 31.02 74.3771Z" fill="white"/>
<path d="M33.0969 62.2149C33.5815 62.5336 34.2195 62.3367 35.0109 61.6244C35.2287 61.4205 35.3749 61.2892 35.4494 61.2305C35.5155 61.1663 35.6576 61.0503 35.8756 60.8825C36.0908 60.7008 36.2509 60.5847 36.356 60.5341C36.4665 60.4751 36.6283 60.402 36.8413 60.3147C37.0459 60.2218 37.2245 60.1777 37.3771 60.1823C37.5213 60.1813 37.6962 60.2066 37.9018 60.258C38.099 60.3039 38.2895 60.3873 38.4733 60.5081C39.0081 60.8598 39.3025 61.3585 39.3565 62.0045C39.4216 62.6337 39.2316 63.2867 38.7867 63.9636C38.4021 64.5485 37.9403 64.9689 37.4011 65.2247C36.8536 65.4751 36.3049 65.5451 35.7551 65.4349L35.8029 64.461C36.2057 64.5583 36.602 64.5197 36.9919 64.3453C37.379 64.157 37.7099 63.8539 37.9845 63.4361C38.2647 63.01 38.4091 62.6082 38.4178 62.231C38.4265 61.8537 38.2637 61.5552 37.9295 61.3354C37.4449 61.0167 36.8068 61.2136 36.0154 61.9259C35.7977 62.1298 35.6557 62.2638 35.5895 62.328C35.515 62.3867 35.3702 62.5069 35.155 62.6886C34.937 62.8564 34.7727 62.9698 34.6622 63.0287C34.5571 63.0793 34.4022 63.151 34.1976 63.2439C33.9846 63.3312 33.806 63.3754 33.6618 63.3763C33.5092 63.3717 33.3344 63.3465 33.1371 63.3006C32.9316 63.2492 32.7369 63.163 32.5531 63.0422C32.0434 62.707 31.7491 62.2263 31.6702 61.5999C31.6023 60.9568 31.7688 60.3303 32.1698 59.7203C32.4994 59.2189 32.9034 58.8502 33.3817 58.6142C33.8654 58.3698 34.3683 58.2876 34.8902 58.3675L34.8381 59.3206C34.0994 59.1699 33.4773 59.479 32.972 60.2478C32.7248 60.6238 32.6065 60.9948 32.6172 61.3609C32.6278 61.727 32.7878 62.0116 33.0969 62.2149Z" fill="white"/>
<path d="M38.0053 51.6471C38.7199 50.7847 39.595 50.3475 40.6307 50.3357C41.6715 50.3021 42.6038 50.6267 43.4277 51.3095C43.4662 51.3414 43.5791 51.448 43.7666 51.6293L39.5653 56.7C40.2065 57.1016 40.8727 57.238 41.5637 57.1093C42.2547 56.9807 42.8585 56.6045 43.3753 55.9808C44.1027 55.1029 44.289 54.2119 43.9344 53.3076L44.8822 52.9631C45.0874 53.5618 45.1243 54.1833 44.993 54.8277C44.8603 55.4581 44.5643 56.0505 44.1049 56.6049C43.3521 57.5135 42.4547 58.0167 41.4128 58.1143C40.3709 58.2119 39.4111 57.897 38.5334 57.1695C37.6633 56.4485 37.1763 55.5708 37.0723 54.5365C36.9606 53.4958 37.2716 52.5326 38.0053 51.6471ZM38.7444 52.2597C38.2468 52.8603 38.006 53.5114 38.022 54.2131C38.0444 54.907 38.3125 55.5318 38.8261 56.0874L42.3958 51.7791C41.7096 51.3533 41.0415 51.1957 40.3915 51.3063C39.7209 51.426 39.1719 51.7438 38.7444 52.2597Z" fill="white"/>
<path d="M53.2954 38.979L50.3795 35.4148L51.192 34.7498L57.8408 42.8766L57.0282 43.5415L53.9223 39.7452L49.5112 43.3551L52.6171 47.1515L51.8045 47.8165L45.1557 39.6897L45.9683 39.0248L48.8843 42.5889L53.2954 38.979Z" fill="white"/>
<path d="M66.2504 36.0678C65.9796 37.1081 65.3778 37.9103 64.4451 38.4744C63.4953 39.0488 62.5012 39.2117 61.4628 38.9632C60.4193 38.7061 59.6104 38.1026 59.0361 37.1527C58.4618 36.2029 58.3058 35.2104 58.5681 34.1752C58.8252 33.1316 59.4287 32.3225 60.3785 31.7481C61.3198 31.1789 62.3121 31.0228 63.3557 31.2799C64.4026 31.5232 65.2132 32.1198 65.7875 33.0697C66.3566 34.011 66.5109 35.0104 66.2504 36.0678ZM61.7091 38.0079C62.4918 38.2007 63.2382 38.0824 63.9484 37.6528C64.6586 37.2233 65.1102 36.6172 65.303 35.8344C65.4855 35.0345 65.3646 34.2838 64.9403 33.582C64.5109 32.8718 63.9049 32.4202 63.1222 32.2274C62.3344 32.026 61.5854 32.1401 60.8752 32.5696C60.165 32.9992 59.716 33.6096 59.5284 34.4009C59.3355 35.1836 59.4538 35.9302 59.8832 36.6404C60.3075 37.3421 60.9161 37.798 61.7091 38.0079Z" fill="white"/>
<path d="M74.8992 28.7684L73.3264 25.1668L74.2336 24.7705L77.2351 31.6437L76.3279 32.04L75.8596 30.9678C75.7066 32.0168 75.117 32.7654 74.0906 33.2138C73.2659 33.5741 72.5006 33.6083 71.7948 33.3164C71.085 33.0153 70.5421 32.4341 70.1659 31.5727L68.323 27.3525L69.2302 26.9562L71.0731 31.1764C71.3412 31.7904 71.7097 32.1969 72.1785 32.3958C72.6565 32.5908 73.1933 32.5582 73.7889 32.298C74.4762 31.9977 74.9228 31.5462 75.1288 30.9434C75.3439 30.3365 75.2674 29.6115 74.8992 28.7684Z" fill="white"/>
<path d="M80.3194 24.5518C80.491 25.1058 81.1087 25.3594 82.1724 25.3124C82.4701 25.2935 82.6664 25.285 82.7612 25.287C82.8531 25.2795 83.0366 25.2802 83.3115 25.2892C83.5931 25.2857 83.7905 25.2978 83.9038 25.3256C84.0266 25.3503 84.198 25.3967 84.418 25.4646C84.635 25.523 84.8009 25.6025 84.9158 25.703C85.0277 25.7939 85.1467 25.9246 85.2727 26.0949C85.3958 26.2557 85.4899 26.4411 85.555 26.6513C85.7443 27.2626 85.6546 27.8348 85.2858 28.3678C84.9361 28.895 84.3744 29.2784 83.6007 29.5181C82.9321 29.7253 82.3083 29.7563 81.7294 29.6111C81.1476 29.4564 80.6795 29.1617 80.325 28.7272L80.9809 28.0057C81.23 28.3368 81.5606 28.559 81.9725 28.6721C82.391 28.7727 82.8391 28.7491 83.3167 28.6011C83.8038 28.4502 84.1706 28.2318 84.4171 27.946C84.6636 27.6603 84.7277 27.3264 84.6093 26.9443C84.4377 26.3902 83.8201 26.1367 82.7563 26.1836C82.4586 26.2026 82.2638 26.2158 82.1719 26.2234C82.0771 26.2214 81.8889 26.2221 81.6073 26.2256C81.3323 26.2166 81.1334 26.1997 81.0106 26.1749C80.8973 26.1472 80.7322 26.1041 80.5152 26.0458C80.2952 25.9778 80.1293 25.8984 80.0174 25.8074C79.9025 25.7069 79.7835 25.5763 79.6604 25.4155C79.5344 25.2452 79.4388 25.0549 79.3737 24.8448C79.1933 24.2621 79.2716 23.7039 79.6088 23.1702C79.9651 22.6306 80.4919 22.2527 81.1892 22.0367C81.7623 21.8591 82.3085 21.8312 82.8278 21.9529C83.3566 22.0717 83.7971 22.3278 84.1493 22.7212L83.5032 23.4239C83.0287 22.8381 82.352 22.6814 81.4732 22.9537C81.0434 23.0869 80.7162 23.2981 80.4918 23.5875C80.2674 23.8769 80.2099 24.1983 80.3194 24.5518Z" fill="white"/>
<path d="M90.4725 19.5839C91.5721 19.3708 92.5259 19.5883 93.3339 20.2364C94.1596 20.8709 94.6742 21.7134 94.8777 22.7639C94.8872 22.813 94.9068 22.967 94.9367 23.2261L88.4719 24.4789C88.7127 25.1962 89.141 25.7243 89.7567 26.0634C90.3724 26.4024 91.0779 26.4949 91.8731 26.3408C92.9923 26.1239 93.7017 25.5535 94.0015 24.6296L94.9526 24.9648C94.7313 25.5577 94.3655 26.0615 93.855 26.4762C93.3525 26.8792 92.7478 27.1492 92.0409 27.2861C90.8825 27.5106 89.8696 27.33 89.0024 26.7443C88.1352 26.1586 87.5932 25.3062 87.3764 24.187C87.1615 23.0776 87.342 22.0902 87.918 21.2248C88.492 20.3496 89.3435 19.8026 90.4725 19.5839ZM90.6551 20.5263C89.8893 20.6747 89.29 21.0251 88.8572 21.5776C88.4342 22.1281 88.2449 22.7811 88.2894 23.5364L93.7822 22.472C93.522 21.7075 93.1057 21.1617 92.533 20.8347C91.9388 20.5017 91.3129 20.3989 90.6551 20.5263Z" fill="white"/>
<path d="M112.773 21.2444L103.774 21.1442L103.785 20.1843L112.784 20.2845L112.773 21.2444Z" fill="white"/>
<path d="M127.494 27.5795C125.938 27.2065 124.781 26.3893 124.023 25.1278C123.257 23.8542 123.049 22.4831 123.4 21.0142C123.75 19.5454 124.553 18.4167 125.811 17.628C127.056 16.8468 128.456 16.6426 130.012 17.0156C130.946 17.2394 131.752 17.6743 132.431 18.3203C133.112 18.9566 133.579 19.7114 133.834 20.5848L132.804 20.8933C132.632 20.1938 132.273 19.5835 131.729 19.0623C131.185 18.5411 130.534 18.1896 129.776 18.0078C128.492 17.7001 127.353 17.8641 126.358 18.4997C125.352 19.1428 124.706 20.0625 124.421 21.259C124.135 22.4555 124.297 23.5687 124.904 24.5988C125.505 25.6167 126.446 26.2796 127.73 26.5873C128.489 26.7691 129.228 26.751 129.948 26.5329C130.668 26.3148 131.263 25.9329 131.733 25.3873L132.515 26.1148C131.914 26.783 131.16 27.2501 130.253 27.5162C129.347 27.7822 128.427 27.8033 127.494 27.5795Z" fill="white"/>
<path d="M137.153 30.1789L136.221 29.8437L139.929 19.5404L140.86 19.8757L137.153 30.1789Z" fill="white"/>
<path d="M146.099 32.8926C145.083 33.2432 144.082 33.1864 143.096 32.7222C142.091 32.2494 141.405 31.5119 141.037 30.5096C140.673 29.4982 140.727 28.4904 141.2 27.4861C141.673 26.4817 142.412 25.8021 143.419 25.4472C144.431 25.0833 145.438 25.1377 146.443 25.6105C147.438 26.079 148.118 26.8189 148.481 27.8303C148.859 28.8368 148.811 29.8423 148.338 30.8466C147.87 31.8419 147.123 32.5239 146.099 32.8926ZM141.968 30.1855C142.241 30.944 142.753 31.5001 143.504 31.8536C144.255 32.2071 145.01 32.2474 145.768 31.9744C146.535 31.6834 147.093 31.1669 147.443 30.4249C147.796 29.6739 147.836 28.9192 147.563 28.1607C147.295 27.3931 146.785 26.8326 146.034 26.4791C145.283 26.1256 144.526 26.0898 143.763 26.3718C143.005 26.6448 142.449 27.1567 142.096 27.9077C141.746 28.6497 141.704 29.4089 141.968 30.1855Z" fill="white"/>
<path d="M154.289 32.0363C153.981 32.5279 154.192 33.1614 154.921 33.9369C155.13 34.1502 155.265 34.2934 155.325 34.3666C155.391 34.4313 155.51 34.5708 155.682 34.7851C155.869 34.9962 155.988 35.1537 156.041 35.2576C156.103 35.3668 156.179 35.527 156.272 35.738C156.369 35.9405 156.417 36.1181 156.416 36.2708C156.42 36.415 156.399 36.5904 156.352 36.797C156.31 36.9952 156.231 37.1876 156.114 37.3741C155.775 37.9165 155.283 38.2219 154.638 38.2903C154.011 38.3693 153.354 38.1939 152.667 37.764C152.074 37.3925 151.643 36.94 151.376 36.4066C151.113 35.8647 151.031 35.3176 151.129 34.7654L152.103 34.7917C152.015 35.1965 152.063 35.592 152.246 35.978C152.443 36.3608 152.753 36.6849 153.177 36.9503C153.609 37.2209 154.014 37.3564 154.391 37.3567C154.768 37.357 155.063 37.1877 155.275 36.8486C155.583 36.357 155.372 35.7235 154.642 34.948C154.434 34.7347 154.297 34.5958 154.231 34.531C154.171 34.4578 154.047 34.3157 153.861 34.1046C153.688 33.8903 153.571 33.7286 153.51 33.6193C153.457 33.5154 153.382 33.3622 153.284 33.1596C153.192 32.9486 153.144 32.771 153.14 32.6268C153.141 32.4742 153.163 32.2988 153.204 32.1006C153.251 31.8939 153.333 31.6973 153.449 31.5108C153.773 30.9938 154.247 30.6889 154.872 30.5961C155.513 30.514 156.143 30.6666 156.762 31.054C157.27 31.3725 157.648 31.7682 157.894 32.2411C158.149 32.7194 158.243 33.2204 158.175 33.744L157.221 33.713C157.355 32.9711 157.032 32.356 156.252 31.8677C155.871 31.6289 155.497 31.5189 155.132 31.5377C154.766 31.5564 154.485 31.7226 154.289 32.0363Z" fill="white"/>
<path d="M164.998 36.7327C165.876 37.4283 166.332 38.2937 166.367 39.3291C166.423 40.369 166.119 41.3083 165.455 42.1471C165.424 42.1863 165.32 42.3015 165.142 42.4929L159.981 38.4034C159.594 39.0534 159.472 39.7225 159.616 40.4106C159.76 41.0987 160.149 41.6943 160.784 42.1973C161.678 42.9053 162.572 43.072 163.469 42.6976L163.834 43.6377C163.24 43.8561 162.619 43.9066 161.972 43.7894C161.339 43.6706 160.741 43.3876 160.176 42.9405C159.251 42.2077 158.729 41.3215 158.608 40.2818C158.488 39.2422 158.781 38.2756 159.489 37.382C160.191 36.4962 161.057 35.99 162.089 35.8633C163.127 35.7287 164.097 36.0185 164.998 36.7327ZM164.402 37.4852C163.79 37.0008 163.134 36.7743 162.433 36.8058C161.74 36.8434 161.121 37.1251 160.577 37.6509L164.963 41.1256C165.373 40.4302 165.516 39.7587 165.391 39.1111C165.257 38.4433 164.927 37.9013 164.402 37.4852Z" fill="white"/>
<path d="M178.034 51.7796L181.533 48.7861L182.216 49.5841L174.237 56.4096L173.554 55.6116L177.282 52.4231L173.577 48.0912L169.85 51.2796L169.167 50.4816L177.146 43.6562L177.829 44.4542L174.329 47.4476L178.034 51.7796Z" fill="white"/>
<path d="M181.246 64.7062C180.2 64.4583 179.385 63.8742 178.801 62.954C178.206 62.0169 178.021 61.0265 178.247 59.9828C178.481 58.9337 179.067 58.1117 180.004 57.5166C180.941 56.9215 181.929 56.7438 182.97 56.9833C184.019 57.2175 184.841 57.8031 185.436 58.7402C186.025 59.6689 186.203 60.6577 185.969 61.7068C185.748 62.7589 185.17 63.5825 184.233 64.1776C183.304 64.7673 182.308 64.9435 181.246 64.7062ZM179.207 60.2081C179.031 60.9948 179.166 61.7386 179.611 62.4393C180.056 63.14 180.672 63.5782 181.458 63.7538C182.262 63.9187 183.01 63.7814 183.702 63.3418C184.403 62.8968 184.841 62.281 185.016 61.4942C185.2 60.702 185.07 59.9556 184.625 59.2549C184.18 58.5542 183.56 58.1187 182.765 57.9484C181.979 57.7728 181.235 57.9074 180.534 58.3524C179.842 58.792 179.4 59.4105 179.207 60.2081Z" fill="white"/>
<path d="M188.719 73.1915L192.285 71.5391L192.701 72.4373L185.896 75.5909L185.48 74.6926L186.542 74.2007C185.49 74.071 184.728 73.498 184.258 72.4818C183.879 71.6652 183.828 70.9008 184.104 70.1886C184.39 69.4723 184.959 68.9164 185.812 68.5212L189.99 66.5849L190.406 67.4832L186.228 69.4195C185.62 69.7012 185.222 70.0786 185.033 70.5518C184.849 71.034 184.893 71.57 185.166 72.1598C185.482 72.8403 185.943 73.2768 186.55 73.4694C187.162 73.671 187.885 73.5784 188.719 73.1915Z" fill="white"/>
<path d="M193.04 78.4962C192.49 78.6803 192.25 79.3035 192.321 80.366C192.347 80.6632 192.36 80.8593 192.36 80.9542C192.369 81.0459 192.373 81.2293 192.37 81.5044C192.379 81.7858 192.372 81.9835 192.347 82.0974C192.325 82.2207 192.282 82.3931 192.219 82.6146C192.165 82.8328 192.09 83.0005 191.992 83.1176C191.903 83.2316 191.775 83.3535 191.608 83.4833C191.45 83.61 191.267 83.7082 191.058 83.778C190.451 83.9811 189.877 83.9042 189.336 83.5475C188.801 83.2097 188.405 82.6567 188.149 81.8885C187.927 81.2247 187.882 80.6017 188.014 80.0197C188.156 79.4345 188.44 78.9598 188.866 78.5957L189.602 79.2353C189.277 79.4918 189.062 79.8272 188.958 80.2416C188.867 80.6623 188.9 81.1097 189.059 81.5839C189.221 82.0676 189.447 82.4294 189.738 82.6695C190.029 82.9095 190.365 82.966 190.744 82.8391C191.294 82.6551 191.534 82.0319 191.463 80.9694C191.438 80.6721 191.42 80.4777 191.41 80.386C191.41 80.2911 191.405 80.1029 191.396 79.8215C191.398 79.5464 191.411 79.3471 191.433 79.2238C191.458 79.1099 191.497 78.9438 191.551 78.7256C191.614 78.5041 191.69 78.3364 191.778 78.2225C191.876 78.1054 192.004 77.9835 192.162 77.8568C192.329 77.727 192.518 77.6272 192.726 77.5574C193.305 77.3638 193.864 77.4296 194.405 77.7548C194.953 78.0989 195.342 78.6171 195.574 79.3094C195.764 79.8784 195.804 80.4239 195.694 80.9458C195.587 81.4772 195.341 81.9233 194.956 82.2843L194.239 81.6542C194.814 81.1665 194.955 80.4864 194.663 79.614C194.521 79.1872 194.302 78.8649 194.008 78.647C193.714 78.4291 193.391 78.3789 193.04 78.4962Z" fill="white"/>
<path d="M198.252 88.6448C198.49 89.7392 198.294 90.6977 197.664 91.5203C197.049 92.3602 196.218 92.8939 195.173 93.1212C195.124 93.1319 194.97 93.155 194.712 93.1907L193.313 86.7559C192.602 87.013 192.083 87.4532 191.758 88.0765C191.433 88.6997 191.357 89.4071 191.529 90.1987C191.771 91.3127 192.357 92.009 193.288 92.2877L192.974 93.2462C192.376 93.0385 191.864 92.6841 191.438 92.1832C191.024 91.69 190.74 91.0915 190.588 90.388C190.337 89.2349 190.495 88.2182 191.061 87.3378C191.627 86.4575 192.466 85.8962 193.58 85.654C194.685 85.4139 195.676 85.572 196.554 86.1281C197.442 86.6821 198.008 87.521 198.252 88.6448ZM197.314 88.8487C197.148 88.0865 196.785 87.4953 196.223 87.0751C195.663 86.6647 195.006 86.4903 194.251 86.552L195.44 92.0193C196.198 91.7419 196.734 91.3132 197.048 90.7332C197.368 90.1316 197.456 89.5034 197.314 88.8487Z" fill="white"/>
<path d="M197.053 110.844L196.946 101.845L197.906 101.833L198.013 110.833L197.053 110.844Z" fill="white"/>
</svg>
