<svg width="208" height="208" viewBox="0 0 208 208" fill="none" xmlns="http://www.w3.org/2000/svg">
<path d="M188.194 129.991C187.693 129.04 187.597 128.042 187.906 126.996C188.221 125.932 188.845 125.141 189.78 124.625C190.724 124.112 191.729 124.012 192.793 124.327C193.858 124.642 194.642 125.27 195.146 126.211C195.659 127.155 195.758 128.16 195.444 129.224C195.132 130.279 194.504 131.063 193.56 131.577C192.622 132.102 191.621 132.208 190.557 131.893C189.502 131.582 188.714 130.947 188.194 129.991ZM190.242 125.497C189.534 125.882 189.062 126.472 188.827 127.268C188.592 128.064 188.666 128.816 189.051 129.525C189.456 130.239 190.051 130.712 190.837 130.944C191.633 131.179 192.385 131.104 193.094 130.719C193.811 130.337 194.288 129.748 194.523 128.952C194.758 128.156 194.679 127.403 194.284 126.692C193.899 125.983 193.308 125.512 192.512 125.276C191.726 125.044 190.969 125.117 190.242 125.497Z" fill="white"/>
<path d="M190.234 138.085C189.701 137.857 189.108 138.164 188.455 139.005C188.276 139.244 188.156 139.399 188.093 139.47C188.039 139.545 187.92 139.684 187.735 139.888C187.555 140.105 187.418 140.247 187.323 140.316C187.225 140.393 187.079 140.494 186.885 140.618C186.7 140.745 186.532 140.82 186.381 140.843C186.239 140.869 186.062 140.875 185.851 140.861C185.649 140.851 185.446 140.802 185.244 140.716C184.655 140.464 184.278 140.025 184.11 139.399C183.935 138.792 184.006 138.115 184.325 137.37C184.6 136.727 184.98 136.231 185.466 135.884C185.96 135.541 186.488 135.375 187.049 135.386L187.174 136.353C186.76 136.329 186.377 136.437 186.024 136.677C185.676 136.931 185.404 137.288 185.207 137.748C185.007 138.217 184.936 138.638 184.994 139.01C185.052 139.383 185.265 139.648 185.633 139.805C186.166 140.033 186.76 139.727 187.413 138.886C187.591 138.647 187.707 138.49 187.761 138.415C187.824 138.344 187.945 138.2 188.125 137.983C188.31 137.779 188.451 137.639 188.55 137.561C188.644 137.493 188.784 137.395 188.969 137.267C189.163 137.144 189.331 137.069 189.473 137.042C189.624 137.02 189.8 137.014 190.003 137.024C190.214 137.038 190.421 137.088 190.623 137.175C191.184 137.415 191.559 137.836 191.747 138.438C191.928 139.059 191.875 139.705 191.588 140.377C191.352 140.928 191.019 141.363 190.59 141.679C190.157 142.006 189.677 142.175 189.149 142.189L189.032 141.242C189.786 141.259 190.343 140.845 190.705 139.999C190.882 139.585 190.933 139.199 190.857 138.841C190.782 138.483 190.574 138.231 190.234 138.085Z" fill="white"/>
<path d="M187.08 149.723C186.528 150.698 185.743 151.282 184.726 151.476C183.707 151.692 182.732 151.536 181.801 151.009C181.758 150.985 181.628 150.899 181.411 150.754L184.655 145.024C183.954 144.741 183.274 144.724 182.616 144.972C181.958 145.22 181.43 145.697 181.031 146.402C180.469 147.394 180.443 148.304 180.951 149.132L180.078 149.637C179.771 149.084 179.625 148.479 179.641 147.821C179.661 147.178 179.848 146.542 180.203 145.916C180.784 144.889 181.579 144.236 182.588 143.956C183.596 143.677 184.597 143.818 185.589 144.38C186.572 144.937 187.206 145.715 187.49 146.715C187.783 147.72 187.646 148.722 187.08 149.723ZM186.244 149.25C186.629 148.571 186.751 147.888 186.612 147.2C186.468 146.521 186.094 145.953 185.491 145.497L182.734 150.365C183.485 150.664 184.17 150.701 184.791 150.478C185.43 150.242 185.914 149.833 186.244 149.25Z" fill="white"/>
<path d="M173.907 165.375L177.402 168.374L176.718 169.17L168.749 162.334L169.433 161.537L173.155 164.73L176.867 160.404L173.144 157.211L173.828 156.414L181.797 163.25L181.113 164.047L177.618 161.049L173.907 165.375Z" fill="white"/>
<path d="M161.005 171.138C161.094 170.067 161.549 169.174 162.371 168.458C163.208 167.729 164.159 167.398 165.225 167.465C166.297 167.539 167.198 167.994 167.927 168.832C168.656 169.669 168.98 170.62 168.899 171.684C168.825 172.757 168.369 173.657 167.532 174.386C166.702 175.108 165.751 175.432 164.679 175.358C163.606 175.298 162.705 174.85 161.976 174.012C161.254 173.183 160.93 172.225 161.005 171.138ZM165.146 168.448C164.342 168.392 163.627 168.637 163.001 169.182C162.375 169.727 162.034 170.402 161.979 171.206C161.936 172.025 162.184 172.744 162.723 173.362C163.268 173.988 163.942 174.329 164.746 174.385C165.557 174.448 166.276 174.207 166.902 173.662C167.528 173.117 167.865 172.439 167.914 171.627C167.97 170.823 167.725 170.108 167.18 169.482C166.642 168.863 165.964 168.519 165.146 168.448Z" fill="white"/>
<path d="M153.535 179.988L155.717 183.256L154.894 183.806L150.73 177.568L151.553 177.019L152.203 177.992C152.169 176.932 152.617 176.092 153.549 175.47C154.297 174.97 155.045 174.802 155.791 174.965C156.543 175.136 157.179 175.613 157.701 176.395L160.258 180.225L159.435 180.774L156.878 176.945C156.506 176.387 156.072 176.052 155.575 175.939C155.07 175.831 154.548 175.957 154.007 176.318C153.383 176.735 153.023 177.258 152.926 177.887C152.821 178.523 153.024 179.223 153.535 179.988Z" fill="white"/>
<path d="M148.631 185.256C148.364 184.741 147.711 184.601 146.672 184.835C146.383 184.907 146.191 184.95 146.097 184.964C146.008 184.988 145.827 185.02 145.555 185.06C145.279 185.113 145.082 185.136 144.966 185.129C144.841 185.126 144.664 185.111 144.435 185.083C144.211 185.063 144.034 185.015 143.903 184.936C143.777 184.866 143.637 184.759 143.482 184.613C143.333 184.477 143.207 184.311 143.106 184.116C142.812 183.548 142.799 182.969 143.067 182.379C143.318 181.798 143.803 181.321 144.522 180.949C145.144 180.626 145.752 180.486 146.348 180.526C146.948 180.576 147.461 180.783 147.887 181.148L147.369 181.974C147.065 181.692 146.7 181.532 146.275 181.493C145.845 181.468 145.408 181.571 144.964 181.801C144.511 182.036 144.189 182.315 143.997 182.64C143.805 182.965 143.801 183.305 143.985 183.66C144.252 184.175 144.905 184.315 145.943 184.081C146.233 184.01 146.423 183.962 146.512 183.939C146.605 183.924 146.79 183.89 147.067 183.837C147.339 183.797 147.538 183.778 147.663 183.781C147.78 183.788 147.95 183.801 148.174 183.82C148.402 183.848 148.58 183.897 148.706 183.967C148.837 184.046 148.977 184.153 149.127 184.29C149.281 184.435 149.408 184.605 149.51 184.801C149.79 185.342 149.812 185.905 149.575 186.49C149.319 187.084 148.868 187.549 148.22 187.885C147.687 188.162 147.154 188.286 146.622 188.258C146.08 188.234 145.601 188.06 145.185 187.735L145.696 186.929C146.267 187.422 146.961 187.457 147.778 187.033C148.177 186.826 148.462 186.56 148.632 186.236C148.801 185.911 148.801 185.585 148.631 185.256Z" fill="white"/>
<path d="M138.825 192.213C137.779 192.614 136.802 192.566 135.894 192.068C134.97 191.587 134.317 190.847 133.933 189.848C133.915 189.802 133.869 189.654 133.795 189.404L139.942 187.044C139.58 186.38 139.066 185.934 138.401 185.708C137.736 185.481 137.025 185.513 136.269 185.803C135.204 186.211 134.605 186.897 134.471 187.859L133.476 187.694C133.59 187.072 133.863 186.512 134.293 186.015C134.718 185.531 135.266 185.159 135.939 184.901C137.04 184.479 138.069 184.48 139.025 184.906C139.981 185.331 140.663 186.076 141.072 187.141C141.477 188.196 141.471 189.199 141.055 190.152C140.642 191.114 139.899 191.801 138.825 192.213ZM138.481 191.316C139.209 191.037 139.738 190.587 140.068 189.968C140.389 189.352 140.462 188.676 140.286 187.94L135.063 189.945C135.452 190.653 135.957 191.117 136.578 191.34C137.221 191.564 137.856 191.556 138.481 191.316Z" fill="white"/>
<path d="M116.25 194.526L125.127 193.043L125.285 193.99L116.408 195.473L116.25 194.526Z" fill="white"/>
<path d="M100.095 190.895C101.692 190.987 102.975 191.588 103.942 192.695C104.919 193.814 105.364 195.127 105.277 196.634C105.189 198.142 104.596 199.394 103.496 200.392C102.407 201.381 101.064 201.829 99.4667 201.737C98.5083 201.681 97.6384 201.395 96.857 200.879C96.0749 200.373 95.4821 199.713 95.0786 198.898L96.0383 198.413C96.3307 199.071 96.7904 199.608 97.4173 200.025C98.0442 200.442 98.747 200.673 99.5257 200.718C100.844 200.795 101.936 200.432 102.804 199.631C103.682 198.821 104.157 197.801 104.228 196.573C104.3 195.345 103.946 194.278 103.167 193.372C102.397 192.476 101.354 191.989 100.036 191.913C99.2572 191.868 98.5324 192.016 97.8615 192.358C97.1907 192.7 96.672 193.181 96.3055 193.8L95.4074 193.223C95.8824 192.459 96.5428 191.866 97.3886 191.444C98.2344 191.022 99.1365 190.839 100.095 190.895Z" fill="white"/>
<path d="M89.5563 189.975L90.5321 190.142L88.6866 200.936L87.7108 200.769L89.5563 189.975Z" fill="white"/>
<path d="M79.6141 188.712C80.5535 188.189 81.5492 188.071 82.6012 188.356C83.6726 188.646 84.477 189.252 85.0143 190.175C85.5491 191.107 85.6713 192.109 85.381 193.181C85.0906 194.252 84.4806 195.05 83.5509 195.575C82.6186 196.11 81.6167 196.232 80.5454 195.942C79.4837 195.654 78.6854 195.044 78.1507 194.112C77.6037 193.187 77.4753 192.188 77.7656 191.117C78.0534 190.055 78.6695 189.253 79.6141 188.712ZM84.1534 190.657C83.7523 189.957 83.1513 189.499 82.3501 189.282C81.549 189.065 80.7989 189.157 80.0996 189.558C79.3951 189.979 78.9357 190.584 78.7212 191.376C78.5041 192.177 78.5961 192.927 78.9971 193.626C79.3956 194.335 79.9954 194.798 80.7965 195.015C81.5976 195.232 82.3491 195.136 83.0509 194.725C83.7502 194.324 84.2083 193.723 84.4254 192.922C84.6399 192.13 84.5492 191.375 84.1534 190.657Z" fill="white"/>
<path d="M68.0902 187.38L66.5728 191.005L65.6596 190.623L68.5554 183.704L69.4686 184.087L69.0169 185.166C69.8809 184.552 70.8296 184.461 71.8627 184.894C72.6929 185.241 73.2463 185.771 73.5228 186.483C73.7955 187.204 73.7504 187.998 73.3874 188.865L71.6094 193.113L70.6962 192.731L72.4742 188.483C72.7329 187.865 72.7722 187.318 72.5922 186.841C72.403 186.361 72.0086 185.995 71.409 185.744C70.7172 185.455 70.0822 185.444 69.5041 185.711C68.9167 185.975 68.4454 186.531 68.0902 187.38Z" fill="white"/>
<path d="M61.0026 186.216C61.2847 185.709 61.0413 185.087 60.2725 184.35C60.0532 184.148 59.9114 184.012 59.8474 183.942C59.7785 183.881 59.6523 183.748 59.4689 183.543C59.2718 183.341 59.1442 183.19 59.086 183.089C59.0191 182.983 58.9342 182.827 58.8314 182.621C58.7237 182.424 58.6665 182.249 58.6598 182.097C58.6482 181.953 58.6605 181.777 58.6966 181.568C58.7278 181.368 58.7969 181.172 58.9039 180.979C59.2151 180.42 59.6907 180.09 60.3309 179.988C60.9536 179.877 61.6188 180.018 62.3266 180.412C62.9383 180.752 63.3916 181.182 63.6865 181.701C63.9765 182.229 64.0869 182.771 64.0175 183.327L63.0428 183.351C63.1101 182.942 63.0424 182.55 62.8397 182.174C62.6233 181.802 62.2967 181.494 61.8598 181.251C61.4142 181.003 61.0029 180.889 60.626 180.908C60.2491 180.927 59.9635 181.111 59.769 181.461C59.4869 181.968 59.7303 182.589 60.4991 183.326C60.7184 183.528 60.8626 183.66 60.9315 183.721C60.9956 183.791 61.1261 183.927 61.3231 184.128C61.5066 184.333 61.6318 184.489 61.6987 184.595C61.7569 184.696 61.8398 184.845 61.9475 185.042C62.0503 185.248 62.1075 185.423 62.1191 185.567C62.1258 185.719 62.1135 185.895 62.0823 186.095C62.0462 186.304 61.9747 186.505 61.8677 186.697C61.5711 187.23 61.1134 187.559 60.4946 187.684C59.8583 187.799 59.2213 187.679 58.5834 187.324C58.0591 187.032 57.6616 186.657 57.3909 186.197C57.1115 185.733 56.9924 185.237 57.0335 184.711L57.9878 184.693C57.8921 185.44 58.2462 186.038 59.0502 186.485C59.4434 186.704 59.8221 186.795 60.1864 186.757C60.5506 186.719 60.8227 186.539 61.0026 186.216Z" fill="white"/>
<path d="M49.8115 181.91C48.8986 181.261 48.398 180.421 48.3095 179.388C48.199 178.353 48.4537 177.399 49.0736 176.527C49.1026 176.486 49.2005 176.366 49.3675 176.165L54.7348 179.98C55.0878 179.311 55.1746 178.637 54.9951 177.957C54.8157 177.277 54.3959 176.703 53.7357 176.234C52.8065 175.573 51.9041 175.453 51.0286 175.874L50.6149 174.954C51.1967 174.705 51.8138 174.622 52.4662 174.706C53.1046 174.791 53.7172 175.043 54.3041 175.46C55.2659 176.144 55.834 177.001 56.0084 178.033C56.1828 179.065 55.9398 180.046 55.2794 180.975C54.6247 181.896 53.7855 182.446 52.7618 182.627C51.7323 182.815 50.7488 182.576 49.8115 181.91ZM50.3677 181.127C51.0034 181.579 51.6706 181.771 52.3691 181.703C53.0594 181.63 53.6626 181.316 54.1786 180.763L49.6182 177.521C49.2444 178.237 49.1367 178.915 49.2951 179.555C49.4641 180.215 49.8216 180.739 50.3677 181.127Z" fill="white"/>
<path d="M35.6502 167.266L32.3123 170.439L31.5889 169.678L39.2 162.444L39.9233 163.205L36.3679 166.584L40.2946 170.716L43.85 167.337L44.5733 168.098L36.9623 175.331L36.239 174.57L39.5769 171.398L35.6502 167.266Z" fill="white"/>
<path d="M31.2964 153.954C32.3538 154.147 33.1982 154.688 33.8297 155.576C34.4728 156.481 34.7088 157.46 34.5378 158.514C34.3587 159.574 33.8167 160.426 32.912 161.069C32.0073 161.712 31.0291 161.941 29.9775 161.756C28.9177 161.577 28.0663 161.035 27.4232 160.13C26.7859 159.233 26.5569 158.255 26.736 157.196C26.9012 156.133 27.4362 155.281 28.3409 154.638C29.2375 154 30.2227 153.773 31.2964 153.954ZM33.567 158.34C33.7014 157.545 33.5281 156.809 33.0473 156.133C32.5664 155.456 31.9286 155.051 31.1337 154.916C30.3226 154.793 29.5829 154.97 28.9145 155.445C28.238 155.926 27.8325 156.563 27.6982 157.358C27.5557 158.159 27.7248 158.897 28.2057 159.574C28.6865 160.25 29.3285 160.653 30.1314 160.782C30.9263 160.916 31.6619 160.743 32.3385 160.262C33.0068 159.787 33.4163 159.146 33.567 158.34Z" fill="white"/>
<path d="M23.214 145.579L19.7384 147.413L19.2763 146.537L25.9092 143.037L26.3713 143.912L25.3365 144.458C26.3939 144.534 27.1839 145.066 27.7067 146.057C28.1268 146.853 28.2173 147.614 27.9783 148.339C27.7304 149.069 27.1908 149.654 26.3595 150.092L22.2869 152.242L21.8248 151.366L25.8974 149.217C26.4899 148.904 26.8681 148.507 27.032 148.024C27.1912 147.533 27.1191 147 26.8157 146.425C26.4656 145.762 25.9824 145.35 25.366 145.189C24.745 145.019 24.0276 145.149 23.214 145.579Z" fill="white"/>
<path d="M18.4591 140.152C18.999 139.94 19.2065 139.305 19.0816 138.248C19.0408 137.952 19.0179 137.757 19.013 137.662C18.9987 137.571 18.986 137.388 18.9748 137.113C18.9506 136.833 18.9482 136.635 18.9675 136.52C18.9832 136.396 19.0168 136.221 19.0684 135.997C19.1107 135.776 19.1778 135.605 19.2696 135.483C19.352 135.365 19.4736 135.236 19.6342 135.098C19.7855 134.964 19.9635 134.856 20.1683 134.776C20.7641 134.542 21.3413 134.589 21.9 134.918C22.4513 135.228 22.875 135.76 23.1709 136.514C23.4266 137.166 23.5033 137.786 23.401 138.374C23.2895 138.965 23.03 139.454 22.6226 139.839L21.855 139.238C22.1669 138.965 22.3642 138.619 22.4467 138.2C22.5164 137.775 22.4599 137.33 22.2772 136.865C22.0909 136.39 21.8462 136.04 21.5431 135.815C21.2401 135.591 20.9023 135.551 20.53 135.697C19.9901 135.909 19.7826 136.544 19.9075 137.601C19.9483 137.897 19.9758 138.09 19.9901 138.181C19.995 138.276 20.0096 138.464 20.0337 138.744C20.0449 139.019 20.0427 139.219 20.027 139.343C20.0077 139.458 19.9769 139.626 19.9346 139.847C19.883 140.071 19.8159 140.242 19.7335 140.361C19.6417 140.483 19.5201 140.611 19.3688 140.745C19.2082 140.884 19.0255 140.993 18.8207 141.073C18.2529 141.296 17.6905 141.259 17.1335 140.962C16.5691 140.646 16.1536 140.149 15.887 139.469C15.6678 138.911 15.5998 138.368 15.6831 137.841C15.7628 137.305 15.9858 136.847 16.3523 136.467L17.1005 137.059C16.5512 137.576 16.4445 138.262 16.7806 139.118C16.945 139.537 17.1797 139.848 17.4848 140.051C17.7899 140.253 18.1147 140.287 18.4591 140.152Z" fill="white"/>
<path d="M12.5851 129.838C12.2922 128.757 12.4393 127.79 13.0266 126.937C13.599 126.067 14.4015 125.492 15.4343 125.212C15.4825 125.199 15.6348 125.168 15.8909 125.119L17.6133 131.475C18.311 131.182 18.8065 130.716 19.0995 130.077C19.3926 129.439 19.4332 128.728 19.2214 127.946C18.9232 126.846 18.3024 126.18 17.3591 125.949L17.6238 124.976C18.2313 125.153 18.7605 125.481 19.2114 125.96C19.6501 126.432 19.9636 127.015 20.1519 127.71C20.4605 128.849 20.3545 129.872 19.8338 130.78C19.3131 131.688 18.5026 132.291 17.4023 132.589C16.3117 132.884 15.3137 132.777 14.4086 132.266C13.4937 131.757 12.8859 130.948 12.5851 129.838ZM13.5117 129.587C13.7157 130.34 14.109 130.912 14.6917 131.303C15.2717 131.685 15.9367 131.826 16.6867 131.726L15.2233 126.326C14.4799 126.641 13.9661 127.096 13.6819 127.691C13.3932 128.308 13.3365 128.94 13.5117 129.587Z" fill="white"/>
<path d="M12.5445 106.994L13.0997 115.977L12.1416 116.037L11.5863 107.054L12.5445 106.994Z" fill="white"/>
<path d="M17.7184 91.593C17.4669 93.1731 16.7417 94.3892 15.5429 95.2414C14.3326 96.1018 12.9818 96.4133 11.4906 96.176C9.99935 95.9386 8.81206 95.2231 7.92873 94.0294C7.0537 92.8471 6.74194 91.4659 6.99346 89.8858C7.14437 88.9377 7.51557 88.1007 8.10706 87.3746C8.68867 86.647 9.40493 86.1231 10.2559 85.8029L10.6429 86.8062C9.95902 87.0315 9.37834 87.4352 8.90088 88.0174C8.42343 88.5996 8.12339 89.2759 8.00078 90.0462C7.79328 91.3497 8.04479 92.4732 8.75532 93.4167C9.47415 94.3715 10.4409 94.9457 11.6556 95.139C12.8703 95.3324 13.9676 95.0868 14.9474 94.4023C15.9157 93.7261 16.5036 92.7362 16.7111 91.4326C16.8337 90.6623 16.7585 89.9264 16.4854 89.2247C16.2123 88.5231 15.7857 87.959 15.2055 87.5325L15.8702 86.6966C16.5828 87.2454 17.1067 87.9617 17.4419 88.8454C17.7772 89.729 17.8694 90.6449 17.7184 91.593Z" fill="white"/>
<path d="M19.6518 81.2643L19.3892 82.2189L8.83135 79.3147L9.09391 78.3602L19.6518 81.2643Z" fill="white"/>
<path d="M21.9053 71.4435C22.3296 72.4312 22.3464 73.4338 21.9559 74.4514C21.5581 75.4877 20.873 76.2262 19.9005 76.667C18.9186 77.1042 17.9095 77.124 16.8733 76.7262C15.837 76.3285 15.1049 75.6405 14.677 74.6622C14.2398 73.6804 14.2201 72.6713 14.6178 71.635C15.0119 70.608 15.6999 69.876 16.6818 69.4387C17.6579 68.9886 18.6641 68.9624 19.7004 69.3601C20.7274 69.7543 21.4623 70.4488 21.9053 71.4435ZM19.5089 75.7616C20.2453 75.4337 20.7622 74.8823 21.0596 74.1074C21.357 73.3325 21.3418 72.5769 21.0139 71.8405C20.6673 71.0969 20.1112 70.5782 19.3457 70.2844C18.5708 69.987 17.8151 70.0023 17.0787 70.3302C16.333 70.6545 15.8114 71.2041 15.514 71.979C15.2166 72.7539 15.2366 73.5113 15.5738 74.2513C15.9017 74.9877 16.4531 75.5046 17.228 75.802C17.9935 76.0958 18.7539 76.0823 19.5089 75.7616Z" fill="white"/>
<path d="M20.5888 63.0132C21.1017 63.284 21.7179 63.0269 22.4375 62.242C22.6348 62.0182 22.7677 61.8735 22.8362 61.8079C22.8959 61.7376 23.0262 61.6085 23.2272 61.4206C23.4239 61.2192 23.5722 61.0882 23.6719 61.0278C23.7763 60.9585 23.9304 60.8702 24.134 60.7628C24.3288 60.6508 24.5024 60.5898 24.6547 60.5797C24.7982 60.565 24.9747 60.5733 25.1842 60.6048C25.3849 60.6315 25.5826 60.6963 25.7771 60.799C26.3431 61.0977 26.684 61.5659 26.7997 62.2037C26.9248 62.8237 26.7982 63.4919 26.4202 64.2083C26.0934 64.8273 25.674 65.29 25.1618 65.5964C24.6407 65.8981 24.1012 66.0204 23.5433 65.9634L23.4977 64.9895C23.9079 65.0477 24.2988 64.9713 24.6702 64.7603C25.0375 64.5357 25.3378 64.2024 25.5712 63.7602C25.8092 63.3091 25.9145 62.8954 25.887 62.5191C25.8594 62.1427 25.6688 61.8612 25.3151 61.6745C24.8021 61.4038 24.1859 61.6609 23.4663 62.4458C23.2691 62.6696 23.1406 62.8166 23.0809 62.8868C23.0123 62.9524 22.8797 63.086 22.6829 63.2874C22.482 63.4753 22.3293 63.6039 22.2249 63.6732C22.1251 63.7336 21.9779 63.8199 21.783 63.9319C21.5794 64.0393 21.4058 64.1003 21.2624 64.115C21.1101 64.1251 20.9335 64.1168 20.7328 64.09C20.5233 64.0585 20.3212 63.9915 20.1267 63.8888C19.5872 63.6041 19.2482 63.1538 19.1096 62.5379C18.9804 61.9043 19.0862 61.2647 19.4269 60.6191C19.7069 60.0885 20.0737 59.6828 20.5272 59.402C20.9854 59.1124 21.478 58.9823 22.0052 59.0118L22.0447 59.9654C21.2949 59.8863 20.7053 60.2536 20.2759 61.0672C20.0659 61.4652 19.9837 61.8459 20.0294 62.2092C20.0751 62.5725 20.2615 62.8405 20.5888 63.0132Z" fill="white"/>
<path d="M24.621 51.7207C25.2497 50.7938 26.079 50.2748 27.1089 50.1638C28.1417 50.0306 29.1009 50.2643 29.9864 50.8649C30.0278 50.893 30.1505 50.9882 30.3544 51.1507L26.6581 56.6005C27.3349 56.9387 28.0111 57.0107 28.6867 56.8163C29.3622 56.622 29.9273 56.1897 30.382 55.5194C31.0219 54.5759 31.122 53.6711 30.6824 52.805L31.5928 52.3713C31.8545 52.9475 31.9508 53.5626 31.8818 54.2166C31.8101 54.8568 31.5722 55.4748 31.168 56.0706C30.5057 57.0472 29.6606 57.634 28.6328 57.8311C27.605 58.0281 26.6194 57.8067 25.6759 57.1668C24.7407 56.5325 24.1718 55.7056 23.9691 54.686C23.7582 53.6609 23.9755 52.6725 24.621 51.7207ZM25.4155 52.2596C24.9777 52.9051 24.8004 53.5763 24.8836 54.2731C24.9724 54.9617 25.2991 55.5578 25.8636 56.0616L29.0042 51.4312C28.2804 51.0732 27.6002 50.9804 26.9637 51.1528C26.3077 51.3362 25.7916 51.7051 25.4155 52.2596Z" fill="white"/>
<path d="M39.0003 37.1322L35.756 33.8642L36.5011 33.1244L43.8987 40.576L43.1536 41.3157L39.6978 37.8348L35.6527 41.8506L39.1084 45.3316L38.3633 46.0713L30.9657 38.6198L31.7108 37.88L34.9552 41.148L39.0003 37.1322Z" fill="white"/>
<path d="M51.9861 32.6354C51.8162 33.6968 51.2941 34.5529 50.4197 35.2037C49.5293 35.8664 48.5553 36.1239 47.4979 35.976C46.4344 35.8201 45.5713 35.297 44.9086 34.4065C44.2459 33.5161 43.9954 32.5432 44.1573 31.4878C44.3132 30.4243 44.8363 29.5612 45.7267 28.8985C46.6091 28.2417 47.5821 27.9913 48.6455 28.1472C49.711 28.2891 50.5751 28.8052 51.2379 29.6957C51.8946 30.5781 52.1441 31.558 51.9861 32.6354ZM47.6514 35.0016C48.449 35.1185 49.1807 34.9292 49.8465 34.4336C50.5124 33.938 50.9037 33.2915 51.0206 32.4939C51.1256 31.6803 50.9333 30.9445 50.4437 30.2868C49.9481 29.6209 49.3016 29.2296 48.504 29.1127C47.7004 28.9877 46.9657 29.173 46.2999 29.6686C45.6341 30.1642 45.2457 30.8148 45.1348 31.6204C45.0179 32.4179 45.2072 33.1496 45.7028 33.8154C46.1924 34.4732 46.8419 34.8686 47.6514 35.0016Z" fill="white"/>
<path d="M60.2877 24.2554L58.3768 20.8213L59.2419 20.3399L62.8887 26.8935L62.0236 27.3749L61.4547 26.3526C61.403 27.4113 60.8878 28.213 59.9091 28.7576C59.1227 29.1952 58.3642 29.3025 57.6336 29.0796C56.8982 28.848 56.3019 28.3215 55.8449 27.5001L53.6057 23.4761L54.4708 22.9948L56.7099 27.0187C57.0357 27.6042 57.4415 27.9735 57.9272 28.1266C58.4217 28.2749 58.953 28.191 59.5209 27.8749C60.1763 27.5102 60.5776 27.018 60.7248 26.3982C60.8808 25.7736 60.7351 25.0593 60.2877 24.2554Z" fill="white"/>
<path d="M65.6578 19.3336C65.8817 19.8686 66.5209 20.0618 67.5753 19.9132C67.8698 19.8658 68.0644 19.8386 68.159 19.8315C68.2497 19.8152 68.4324 19.7984 68.707 19.781C68.9869 19.7505 69.1846 19.7437 69.3 19.7604C69.4247 19.7733 69.5997 19.803 69.8252 19.8496C70.0468 19.8869 70.2196 19.9501 70.3436 20.0391C70.4637 20.1189 70.5947 20.2375 70.7364 20.395C70.8744 20.5432 70.9858 20.7188 71.0708 20.9218C71.3179 21.5121 71.2834 22.0903 70.9674 22.6562C70.6699 23.2143 70.1475 23.6498 69.4003 23.9626C68.7546 24.2328 68.1366 24.3235 67.5465 24.2344C66.9525 24.1361 66.4582 23.8877 66.0638 23.4891L66.6475 22.7082C66.9272 23.0139 67.2775 23.2033 67.6984 23.2765C68.1247 23.3365 68.5684 23.2701 69.0296 23.077C69.5001 22.8801 69.8443 22.6276 70.0623 22.3196C70.2802 22.0115 70.312 21.673 70.1575 21.304C69.9336 20.769 69.2944 20.5758 68.2401 20.7244C67.9455 20.7718 67.7529 20.8037 67.6621 20.82C67.5675 20.8271 67.3802 20.8458 67.1003 20.8763C66.8257 20.8936 66.6261 20.8959 66.5015 20.883C66.386 20.8663 66.2175 20.8392 65.9959 20.8019C65.7705 20.7554 65.5977 20.6922 65.4776 20.6124C65.3536 20.5233 65.2226 20.4047 65.0847 20.2565C64.9429 20.099 64.8295 19.9188 64.7446 19.7159C64.509 19.1532 64.5335 18.59 64.818 18.0265C65.1209 17.4552 65.6091 17.0287 66.2825 16.7468C66.8359 16.5152 67.377 16.4351 67.9055 16.5065C68.4433 16.5741 68.9064 16.7868 69.2946 17.1446L68.719 17.906C68.1904 17.3684 67.5018 17.2772 66.6531 17.6324C66.238 17.8061 65.9326 18.0478 65.737 18.3573C65.5413 18.6669 65.5149 18.9923 65.6578 19.3336Z" fill="white"/>
<path d="M75.5923 13.2865C76.6664 12.9691 77.6366 13.0942 78.5031 13.6619C79.3858 14.2144 79.9789 15.0037 80.2821 16.0298C80.2963 16.0777 80.3306 16.2292 80.3852 16.4842L74.0702 18.3506C74.3787 19.0415 74.8556 19.5262 75.501 19.8047C76.1464 20.0832 76.8575 20.1077 77.6343 19.8781C78.7275 19.555 79.3791 18.9192 79.5889 17.9709L80.5677 18.2134C80.4043 18.8248 80.0884 19.3613 79.6201 19.823C79.1585 20.2722 78.5825 20.5989 77.892 20.803C76.7604 21.1374 75.7349 21.0547 74.8155 20.5548C73.8961 20.0548 73.2748 19.2583 72.9517 18.165C72.6314 17.0813 72.7165 16.0812 73.2068 15.1647C73.6943 14.2385 74.4894 13.6125 75.5923 13.2865ZM75.8644 14.2072C75.1164 14.4282 74.5534 14.8345 74.1755 15.4258C73.8072 16.0143 73.6814 16.6824 73.7981 17.43L79.1637 15.8442C78.8314 15.1082 78.3646 14.6048 77.7632 14.3342C77.1399 14.0596 76.5069 14.0173 75.8644 14.2072Z" fill="white"/>
<path d="M98.576 12.6377L89.6083 13.4004L89.527 12.4439L98.4946 11.6811L98.576 12.6377Z" fill="white"/>
<path d="M114.619 17.4911C113.034 17.27 111.804 16.5682 110.929 15.3859C110.046 14.1923 109.708 12.8478 109.917 11.3523C110.126 9.85679 110.818 8.65601 111.995 7.74995C113.16 6.85241 114.535 6.51422 116.12 6.7354C117.071 6.8681 117.915 7.22318 118.652 7.80064C119.391 8.36819 119.928 9.07428 120.265 9.9189L119.269 10.3252C119.03 9.64568 118.616 9.07285 118.024 8.60664C117.433 8.14044 116.751 7.85343 115.979 7.7456C114.672 7.56314 113.553 7.83615 112.623 8.56464C111.682 9.30165 111.127 10.2792 110.957 11.4974C110.787 12.7156 111.054 13.808 111.757 14.7744C112.451 15.7296 113.452 16.2985 114.76 16.4809C115.532 16.5888 116.267 16.4994 116.963 16.2129C117.659 15.9264 118.215 15.489 118.63 14.9008L119.479 15.5493C118.944 16.2723 118.238 16.8099 117.36 17.162C116.483 17.5141 115.569 17.6238 114.619 17.4911Z" fill="white"/>
<path d="M125.04 19.2457L124.081 19.0013L126.784 8.39021L127.744 8.63462L125.04 19.2457Z" fill="white"/>
<path d="M134.394 21.1315C133.416 21.5779 132.414 21.6174 131.388 21.2498C130.343 20.8755 129.589 20.2072 129.126 19.2449C128.667 18.2731 128.625 17.2647 128.999 16.2197C129.373 15.1747 130.044 14.4273 131.013 13.9775C131.985 13.5183 132.993 13.4759 134.038 13.8502C135.074 14.2211 135.821 14.8924 136.28 15.8642C136.752 16.8299 136.801 17.8353 136.427 18.8803C136.056 19.9158 135.378 20.6662 134.394 21.1315ZM130.023 18.833C130.367 19.5618 130.93 20.0662 131.711 20.346C132.493 20.6259 133.248 20.5937 133.977 20.2492C134.712 19.886 135.218 19.3184 135.495 18.5464C135.775 17.765 135.742 17.0099 135.398 16.2811C135.057 15.5429 134.496 15.0338 133.714 14.7539C132.933 14.4741 132.176 14.511 131.444 14.8649C130.715 15.2093 130.211 15.7722 129.931 16.5536C129.654 17.3255 129.685 18.0853 130.023 18.833Z" fill="white"/>
<path d="M142.917 19.6637C142.658 20.1825 142.929 20.7929 143.73 21.4948C143.958 21.6871 144.105 21.8167 144.172 21.8838C144.244 21.9419 144.376 22.0694 144.568 22.2661C144.774 22.4583 144.908 22.6036 144.971 22.702C145.043 22.8049 145.134 22.9569 145.246 23.1581C145.362 23.3504 145.427 23.5225 145.441 23.6746C145.459 23.8177 145.454 23.9943 145.427 24.2045C145.405 24.4058 145.345 24.6048 145.246 24.8016C144.96 25.3741 144.5 25.7253 143.865 25.8551C143.248 25.9939 142.577 25.8823 141.852 25.5202C141.226 25.2073 140.754 24.7983 140.437 24.293C140.123 23.7788 139.989 23.2421 140.034 22.6831L141.006 22.6158C140.957 23.0272 141.042 23.4163 141.262 23.783C141.494 24.1451 141.834 24.438 142.281 24.6615C142.738 24.8894 143.154 24.9855 143.529 24.9496C143.905 24.9138 144.182 24.7169 144.361 24.3591C144.62 23.8403 144.349 23.2299 143.549 22.528C143.321 22.3357 143.171 22.2105 143.099 22.1524C143.032 22.0853 142.896 21.9557 142.69 21.7634C142.498 21.5667 142.366 21.4169 142.294 21.3141C142.231 21.2157 142.142 21.0704 142.026 20.8781C141.914 20.6769 141.849 20.5047 141.831 20.3616C141.817 20.2096 141.822 20.0329 141.844 19.8317C141.871 19.6215 141.934 19.418 142.032 19.2212C142.305 18.6755 142.747 18.3266 143.36 18.1744C143.99 18.0311 144.632 18.1226 145.285 18.4489C145.822 18.7171 146.236 19.0748 146.526 19.5219C146.826 19.9736 146.967 20.4632 146.949 20.9909L145.997 21.0515C146.059 20.3002 145.679 19.7189 144.856 19.3077C144.454 19.1065 144.071 19.0329 143.709 19.0866C143.347 19.1404 143.083 19.3327 142.917 19.6637Z" fill="white"/>
<path d="M154.336 23.4651C155.276 24.0732 155.813 24.8909 155.947 25.9181C156.103 26.9478 155.89 27.9119 155.309 28.8104C155.282 28.8524 155.19 28.9771 155.032 29.1846L149.502 25.609C149.179 26.2931 149.122 26.9707 149.331 27.6418C149.54 28.3128 149.984 28.8683 150.665 29.3081C151.622 29.9271 152.529 30.0074 153.385 29.5488L153.839 30.4495C153.268 30.7237 152.655 30.8336 152 30.7789C151.358 30.7214 150.735 30.4971 150.131 30.1061C149.14 29.4654 148.535 28.6334 148.315 27.6102C148.095 26.587 148.295 25.5967 148.914 24.6394C149.528 23.6905 150.342 23.1036 151.357 22.8785C152.377 22.6451 153.37 22.8406 154.336 23.4651ZM153.814 24.2712C153.159 23.8477 152.485 23.6852 151.79 23.7837C151.103 23.8876 150.514 24.2273 150.023 24.8028L154.722 27.8409C155.064 27.1093 155.141 26.4273 154.955 25.7947C154.757 25.1429 154.377 24.635 153.814 24.2712Z" fill="white"/>
<path d="M169.278 37.5541L172.474 34.2393L173.23 34.9681L165.942 42.5264L165.186 41.7975L168.591 38.2667L164.488 34.3101L161.083 37.8409L160.327 37.1121L167.615 29.5538L168.371 30.2826L165.175 33.5975L169.278 37.5541Z" fill="white"/>
<path d="M174.083 50.4724C173.018 50.3258 172.15 49.8225 171.481 48.9626C170.799 48.0869 170.52 47.1188 170.645 46.0584C170.777 44.9918 171.281 44.1174 172.157 43.4354C173.033 42.7533 174 42.4816 175.059 42.6203C176.125 42.7529 176.999 43.257 177.682 44.1328C178.358 45.0006 178.629 45.9678 178.497 47.0344C178.378 48.1027 177.881 48.9779 177.005 49.66C176.137 50.3359 175.163 50.6067 174.083 50.4724ZM171.622 46.1906C171.523 46.9905 171.728 47.7179 172.238 48.3727C172.748 49.0275 173.403 49.4046 174.203 49.5041C175.019 49.5912 175.75 49.3828 176.397 48.879C177.052 48.3689 177.429 47.714 177.528 46.914C177.636 46.1079 177.434 45.3775 176.924 44.7227C176.414 44.0679 175.755 43.6938 174.947 43.6005C174.147 43.5011 173.42 43.7064 172.765 44.2164C172.118 44.7203 171.737 45.3783 171.622 46.1906Z" fill="white"/>
<path d="M182.631 58.5879L186.022 56.6015L186.522 57.4557L180.051 61.2466L179.551 60.3923L180.56 59.801C179.501 59.7727 178.688 59.2753 178.122 58.3089C177.667 57.5323 177.543 56.7764 177.749 56.0411C177.965 55.3007 178.478 54.693 179.289 54.2179L183.262 51.8903L183.763 52.7445L179.789 55.0721C179.211 55.4107 178.851 55.8246 178.709 56.3136C178.571 56.8112 178.667 57.3405 178.995 57.9013C179.375 58.5485 179.876 58.9388 180.498 59.0723C181.126 59.2144 181.837 59.0529 182.631 58.5879Z" fill="white"/>
<path d="M187.654 63.828C187.124 64.0638 186.945 64.7071 187.117 65.7579C187.171 66.0513 187.203 66.2452 187.212 66.3397C187.23 66.43 187.251 66.6123 187.275 66.8864C187.311 67.1656 187.323 67.3631 187.308 67.4788C187.298 67.6037 187.273 67.7794 187.231 68.0058C187.199 68.2282 187.139 68.4024 187.053 68.5283C186.976 68.6502 186.86 68.7838 186.706 68.9291C186.561 69.0703 186.388 69.1857 186.187 69.2751C185.602 69.5354 185.024 69.5139 184.451 69.2106C183.886 68.9256 183.439 68.4131 183.11 67.6731C182.825 67.0336 182.72 66.4179 182.796 65.8259C182.881 65.2298 183.119 64.7302 183.508 64.3268L184.302 64.8929C184.003 65.1794 183.821 65.5339 183.757 65.9563C183.707 66.3838 183.783 66.826 183.987 67.2827C184.194 67.7487 184.454 68.0871 184.767 68.2982C185.08 68.5092 185.419 68.5333 185.784 68.3707C186.314 68.1348 186.493 67.4915 186.321 66.4407C186.267 66.1473 186.231 65.9554 186.212 65.8651C186.203 65.7706 186.18 65.5838 186.144 65.3046C186.12 65.0305 186.113 64.831 186.123 64.7061C186.138 64.5903 186.161 64.4213 186.193 64.1989C186.235 63.9724 186.294 63.7983 186.371 63.6764C186.457 63.5504 186.573 63.4169 186.718 63.2756C186.872 63.1304 187.05 63.013 187.251 62.9235C187.808 62.6755 188.372 62.6873 188.942 62.9591C189.519 63.2492 189.957 63.7276 190.254 64.3946C190.498 64.9427 190.59 65.4818 190.53 66.0118C190.475 66.551 190.272 67.0187 189.923 67.4149L189.149 66.8564C189.675 66.3159 189.751 65.6254 189.377 64.7849C189.194 64.3738 188.945 64.0739 188.631 63.8853C188.318 63.6966 187.992 63.6775 187.654 63.828Z" fill="white"/>
</svg>
