<svg width="234" height="234" viewBox="0 0 234 234" fill="none" xmlns="http://www.w3.org/2000/svg">
					<path d="M196.612 154.081C196.246 153.07 196.287 152.068 196.737 151.075C197.194 150.064 197.921 149.367 198.918 148.983C199.923 148.604 200.932 148.643 201.943 149.101C202.955 149.558 203.645 150.288 204.015 151.289C204.395 152.295 204.355 153.304 203.898 154.315C203.444 155.317 202.715 156.008 201.709 156.387C200.709 156.78 199.702 156.747 198.691 156.289C197.689 155.836 196.996 155.1 196.612 154.081ZM199.256 149.91C198.502 150.194 197.953 150.715 197.611 151.471C197.269 152.227 197.24 152.982 197.525 153.737C197.827 154.499 198.352 155.049 199.099 155.387C199.855 155.73 200.611 155.758 201.365 155.474C202.128 155.194 202.681 154.676 203.023 153.919C203.365 153.163 203.39 152.406 203.096 151.647C202.812 150.893 202.291 150.345 201.535 150.003C200.788 149.665 200.028 149.634 199.256 149.91Z" fill="white"/>
					<path d="M197.523 162.379C197.026 162.08 196.396 162.302 195.634 163.046C195.425 163.258 195.284 163.395 195.212 163.457C195.149 163.524 195.011 163.646 194.8 163.822C194.592 164.012 194.437 164.135 194.334 164.189C194.226 164.253 194.067 164.332 193.858 164.428C193.657 164.529 193.481 164.58 193.328 164.582C193.184 164.589 193.008 164.571 192.801 164.528C192.602 164.49 192.408 164.414 192.22 164.301C191.671 163.971 191.357 163.484 191.277 162.841C191.186 162.215 191.35 161.555 191.767 160.861C192.128 160.261 192.573 159.822 193.101 159.545C193.638 159.273 194.184 159.181 194.737 159.269L194.729 160.244C194.322 160.163 193.928 160.217 193.545 160.407C193.166 160.611 192.848 160.927 192.59 161.355C192.327 161.793 192.199 162.2 192.206 162.577C192.212 162.954 192.387 163.246 192.73 163.452C193.227 163.751 193.856 163.529 194.618 162.785C194.828 162.573 194.964 162.433 195.028 162.366C195.1 162.304 195.24 162.179 195.448 161.988C195.659 161.812 195.818 161.692 195.926 161.629C196.029 161.574 196.181 161.496 196.382 161.395C196.591 161.299 196.768 161.248 196.912 161.241C197.065 161.24 197.24 161.258 197.439 161.296C197.647 161.339 197.845 161.417 198.033 161.53C198.556 161.845 198.869 162.313 198.974 162.936C199.067 163.576 198.926 164.208 198.55 164.834C198.241 165.348 197.852 165.733 197.383 165.988C196.91 166.251 196.411 166.354 195.886 166.295L195.9 165.341C196.644 165.461 197.253 165.128 197.727 164.339C197.959 163.954 198.062 163.578 198.037 163.213C198.012 162.847 197.84 162.569 197.523 162.379Z" fill="white"/>
					<path d="M192.804 173.475C192.124 174.364 191.266 174.836 190.232 174.888C189.193 174.963 188.249 174.675 187.399 174.025C187.359 173.995 187.242 173.893 187.047 173.719L191.046 168.487C190.39 168.111 189.719 168.001 189.033 168.157C188.348 168.313 187.759 168.712 187.267 169.356C186.575 170.262 186.424 171.159 186.814 172.049L185.88 172.43C185.651 171.84 185.59 171.221 185.696 170.571C185.804 169.936 186.076 169.333 186.514 168.761C187.23 167.823 188.107 167.285 189.144 167.147C190.182 167.008 191.153 167.285 192.059 167.977C192.957 168.664 193.478 169.522 193.622 170.551C193.775 171.586 193.502 172.561 192.804 173.475ZM192.041 172.892C192.515 172.272 192.73 171.612 192.686 170.911C192.636 170.219 192.344 169.605 191.809 169.07L188.411 173.515C189.114 173.914 189.787 174.045 190.433 173.909C191.098 173.763 191.634 173.424 192.041 172.892Z" fill="white"/>
					<path d="M177.61 187.173L180.661 190.623L179.875 191.318L172.918 183.454L173.704 182.758L176.954 186.432L181.223 182.655L177.973 178.981L178.76 178.286L185.717 186.15L184.931 186.846L181.879 183.397L177.61 187.173Z" fill="white"/>
					<path d="M164.04 191.115C164.274 190.066 164.848 189.243 165.76 188.646C166.689 188.039 167.677 187.842 168.724 188.054C169.776 188.274 170.605 188.849 171.213 189.778C171.82 190.707 172.01 191.694 171.785 192.737C171.564 193.789 170.989 194.619 170.06 195.226C169.139 195.828 168.153 196.018 167.101 195.798C166.046 195.591 165.215 195.024 164.608 194.094C164.006 193.174 163.817 192.18 164.04 191.115ZM168.511 189.017C167.722 188.852 166.98 188.996 166.285 189.45C165.591 189.904 165.161 190.526 164.995 191.315C164.841 192.12 164.988 192.866 165.437 193.553C165.891 194.248 166.512 194.678 167.301 194.843C168.096 195.017 168.84 194.876 169.535 194.422C170.23 193.968 170.657 193.343 170.817 192.545C170.982 191.756 170.838 191.014 170.384 190.32C169.935 189.633 169.311 189.199 168.511 189.017Z" fill="white"/>
					<path d="M155.428 198.857L157.142 202.394L156.251 202.826L152.98 196.076L153.871 195.644L154.381 196.697C154.493 195.643 155.053 194.872 156.061 194.384C156.871 193.991 157.634 193.927 158.351 194.191C159.072 194.464 159.637 195.023 160.047 195.869L162.055 200.013L161.164 200.445L159.156 196.301C158.864 195.698 158.48 195.306 158.004 195.126C157.518 194.95 156.983 195.003 156.398 195.287C155.723 195.614 155.295 196.083 155.113 196.693C154.922 197.308 155.027 198.029 155.428 198.857Z" fill="white"/>
					<path d="M149.848 203.404C149.654 202.857 149.027 202.628 147.966 202.718C147.669 202.749 147.473 202.766 147.378 202.767C147.287 202.779 147.104 202.785 146.828 202.787C146.547 202.802 146.349 202.798 146.235 202.775C146.111 202.755 145.938 202.716 145.716 202.657C145.497 202.607 145.328 202.534 145.209 202.439C145.093 202.352 144.969 202.226 144.836 202.061C144.707 201.906 144.605 201.724 144.532 201.517C144.318 200.914 144.384 200.338 144.731 199.791C145.06 199.25 145.605 198.844 146.369 198.574C147.029 198.34 147.651 198.284 148.235 198.405C148.822 198.536 149.302 198.812 149.674 199.232L149.048 199.979C148.785 199.658 148.446 199.45 148.03 199.353C147.608 199.27 147.161 199.311 146.69 199.478C146.209 199.649 145.851 199.882 145.616 200.177C145.382 200.473 145.331 200.809 145.465 201.186C145.659 201.733 146.286 201.961 147.347 201.871C147.644 201.84 147.838 201.819 147.929 201.808C148.024 201.806 148.212 201.798 148.494 201.783C148.769 201.781 148.968 201.79 149.092 201.81C149.206 201.833 149.373 201.869 149.592 201.919C149.815 201.978 149.984 202.05 150.099 202.137C150.218 202.233 150.342 202.358 150.472 202.514C150.604 202.679 150.708 202.865 150.781 203.073C150.985 203.648 150.929 204.209 150.614 204.755C150.28 205.309 149.768 205.708 149.08 205.952C148.515 206.152 147.97 206.202 147.446 206.101C146.913 206.004 146.463 205.766 146.095 205.387L146.712 204.659C147.21 205.225 147.892 205.354 148.76 205.047C149.184 204.896 149.502 204.672 149.715 204.374C149.927 204.076 149.972 203.752 149.848 203.404Z" fill="white"/>
					<path d="M139.181 208.95C138.091 209.205 137.129 209.023 136.298 208.406C135.449 207.803 134.903 206.98 134.66 205.938C134.648 205.889 134.623 205.736 134.583 205.478L140.996 203.984C140.729 203.276 140.281 202.764 139.653 202.449C139.025 202.133 138.316 202.067 137.528 202.251C136.417 202.51 135.73 203.106 135.465 204.041L134.502 203.742C134.701 203.141 135.047 202.624 135.542 202.19C136.029 201.768 136.623 201.476 137.324 201.313C138.473 201.045 139.492 201.187 140.381 201.74C141.27 202.293 141.843 203.124 142.102 204.234C142.359 205.335 142.215 206.328 141.672 207.215C141.132 208.111 140.301 208.689 139.181 208.95ZM138.964 208.015C139.723 207.838 140.309 207.466 140.721 206.897C141.123 206.331 141.287 205.672 141.214 204.919L135.765 206.189C136.054 206.943 136.491 207.473 137.075 207.778C137.682 208.088 138.311 208.167 138.964 208.015Z" fill="white"/>
					<path d="M116.503 208.148L125.499 207.896L125.526 208.855L116.53 209.108L116.503 208.148Z" fill="white"/>
					<path d="M100.997 202.338C102.567 202.648 103.755 203.419 104.561 204.649C105.376 205.89 105.637 207.252 105.344 208.733C105.05 210.214 104.291 211.374 103.065 212.212C101.851 213.042 100.459 213.302 98.8892 212.991C97.9475 212.805 97.1249 212.403 96.4216 211.784C95.7163 211.176 95.2196 210.44 94.9315 209.578L95.9486 209.229C96.1481 209.921 96.5298 210.516 97.0936 211.015C97.6575 211.514 98.322 211.839 99.0872 211.991C100.382 212.247 101.514 212.038 102.484 211.363C103.465 210.68 104.075 209.736 104.313 208.529C104.552 207.323 104.348 206.217 103.701 205.212C103.061 204.219 102.094 203.595 100.799 203.338C100.034 203.187 99.2958 203.235 98.5844 203.481C97.873 203.728 97.2933 204.133 96.8454 204.697L96.035 204.001C96.6101 203.31 97.3455 202.813 98.2412 202.511C99.1368 202.209 100.055 202.151 100.997 202.338Z" fill="white"/>
					<path d="M90.684 199.983L91.6278 200.282L88.3206 210.721L87.3769 210.422L90.684 199.983Z" fill="white"/>
					<path d="M81.0089 197.369C82.011 196.98 83.0136 196.999 84.0166 197.425C85.0381 197.86 85.7518 198.571 86.1576 199.558C86.5596 200.555 86.5434 201.564 86.1089 202.586C85.6745 203.607 84.9609 204.314 83.968 204.707C82.9712 205.109 81.962 205.093 80.9406 204.658C79.9283 204.228 79.2212 203.514 78.8193 202.517C78.4042 201.526 78.4139 200.519 78.8483 199.498C79.2788 198.486 79.999 197.776 81.0089 197.369ZM85.2388 199.917C84.9374 199.17 84.4047 198.633 83.6409 198.309C82.8771 197.984 82.1214 197.972 81.3738 198.274C80.6184 198.593 80.0802 199.131 79.7593 199.885C79.4345 200.649 79.4228 201.405 79.7243 202.152C80.0218 202.909 80.5525 203.45 81.3163 203.775C82.0801 204.1 82.8377 204.107 83.5893 203.796C84.3369 203.495 84.8731 202.962 85.1979 202.198C85.5188 201.444 85.5325 200.683 85.2388 199.917Z" fill="white"/>
					<path d="M69.7761 194.47L67.7762 197.853L66.924 197.35L70.7406 190.893L71.5928 191.397L70.9974 192.404C71.9375 191.914 72.8896 191.954 73.8537 192.524C74.6285 192.982 75.104 193.583 75.2804 194.326C75.4517 195.078 75.2981 195.858 74.8198 196.668L72.4764 200.632L71.6242 200.128L73.9676 196.164C74.3085 195.587 74.4225 195.05 74.3095 194.554C74.1879 194.052 73.8473 193.636 73.2877 193.305C72.6421 192.923 72.0146 192.825 71.4053 193.011C70.7874 193.192 70.2443 193.678 69.7761 194.47Z" fill="white"/>
					<path d="M62.9151 192.346C63.2639 191.882 63.1081 191.233 62.4475 190.398C62.2579 190.167 62.1362 190.013 62.0823 189.935C62.0225 189.865 61.9157 189.716 61.7621 189.488C61.5945 189.261 61.4888 189.094 61.445 188.986C61.3932 188.872 61.3305 188.706 61.2569 188.488C61.1772 188.278 61.1446 188.096 61.1588 187.944C61.1671 187.801 61.2034 187.628 61.2677 187.426C61.3261 187.232 61.4214 187.047 61.5537 186.871C61.9386 186.36 62.4551 186.098 63.1031 186.085C63.7351 186.06 64.3747 186.291 65.0219 186.778C65.5811 187.199 65.9713 187.687 66.1923 188.241C66.4073 188.804 66.4424 189.356 66.2974 189.898L65.3286 189.788C65.4513 189.392 65.438 188.994 65.2887 188.594C65.1254 188.195 64.844 187.846 64.4445 187.545C64.0371 187.239 63.6454 187.069 63.2694 187.036C62.8935 187.004 62.5852 187.147 62.3447 187.467C61.9959 187.93 62.1517 188.579 62.8123 189.414C63.0018 189.645 63.1266 189.795 63.1865 189.865C63.2403 189.943 63.3511 190.095 63.5187 190.322C63.6723 190.55 63.775 190.721 63.8268 190.835C63.8706 190.943 63.9323 191.102 64.0119 191.312C64.0855 191.531 64.1182 191.712 64.11 191.856C64.0957 192.008 64.0594 192.181 64.0011 192.374C63.9367 192.576 63.8384 192.765 63.7061 192.941C63.3392 193.428 62.8407 193.691 62.2107 193.73C61.5646 193.757 60.95 193.551 60.3668 193.112C59.8874 192.751 59.5451 192.325 59.34 191.832C59.1269 191.334 59.0768 190.827 59.1897 190.311L60.1375 190.424C59.9402 191.151 60.2091 191.792 60.9441 192.345C61.3036 192.616 61.6664 192.757 62.0324 192.77C62.3983 192.783 62.6926 192.641 62.9151 192.346Z" fill="white"/>
					<path d="M52.4196 186.547C51.6042 185.779 51.2235 184.878 51.2773 183.843C51.3097 182.803 51.6927 181.893 52.4263 181.114C52.4606 181.077 52.5741 180.971 52.767 180.796L57.5608 185.31C58.0022 184.696 58.1806 184.04 58.096 183.342C58.0114 182.644 57.6742 182.017 57.0846 181.462C56.2546 180.68 55.3772 180.438 54.4523 180.735L54.1686 179.767C54.7791 179.6 55.4017 179.602 56.0364 179.774C56.6571 179.947 57.2295 180.28 57.7536 180.773C58.6127 181.582 59.0579 182.51 59.0893 183.556C59.1207 184.602 58.7456 185.54 57.964 186.37C57.1893 187.193 56.2826 187.623 55.2438 187.661C54.1982 187.707 53.2568 187.335 52.4196 186.547ZM53.0777 185.848C53.6456 186.383 54.2801 186.664 54.9813 186.693C55.6752 186.715 56.3157 186.487 56.9027 186.009L52.8295 182.173C52.3611 182.831 52.1615 183.488 52.2307 184.144C52.3076 184.821 52.59 185.389 53.0777 185.848Z" fill="white"/>
					<path d="M40.3987 170.101L36.6575 172.786L36.0452 171.933L44.5757 165.811L45.1879 166.664L41.203 169.524L44.5264 174.155L48.5114 171.295L49.1236 172.148L40.5931 178.27L39.9809 177.417L43.7221 174.732L40.3987 170.101Z" fill="white"/>
					<path d="M37.9101 156.318C38.931 156.654 39.6934 157.305 40.1972 158.272C40.7102 159.256 40.8098 160.259 40.496 161.279C40.1733 162.304 39.5198 163.074 38.5355 163.587C37.5511 164.1 36.5508 164.192 35.5345 163.865C34.5092 163.542 33.7401 162.889 33.2271 161.905C32.7187 160.929 32.6258 159.929 32.9485 158.904C33.2577 157.874 33.9045 157.103 34.8888 156.59C35.8643 156.081 36.8713 155.991 37.9101 156.318ZM39.5583 160.973C39.8003 160.204 39.7295 159.452 39.3459 158.715C38.9623 157.979 38.386 157.49 37.6171 157.248C36.8304 157.016 36.0735 157.089 35.3464 157.468C34.6103 157.851 34.1213 158.428 33.8793 159.197C33.6284 159.97 33.6948 160.725 34.0784 161.461C34.462 162.197 35.0427 162.684 35.8205 162.921C36.5894 163.163 37.3419 163.092 38.0779 162.709C38.8051 162.33 39.2985 161.751 39.5583 160.973Z" fill="white"/>
					<path d="M31.0518 146.913L27.3576 148.254L27.0199 147.323L34.0699 144.765L34.4077 145.695L33.3078 146.095C34.3449 146.314 35.0545 146.95 35.4366 148.003C35.7436 148.849 35.729 149.615 35.3929 150.301C35.0473 150.99 34.4327 151.495 33.5491 151.815L29.2203 153.386L28.8826 152.456L33.2113 150.885C33.8411 150.656 34.2702 150.314 34.4986 149.859C34.7236 149.395 34.7252 148.857 34.5035 148.246C34.2476 147.541 33.8254 147.066 33.2369 146.822C32.645 146.569 31.9166 146.599 31.0518 146.913Z" fill="white"/>
					<path d="M27.0853 140.886C27.6491 140.75 27.9416 140.15 27.9628 139.086C27.9629 138.787 27.967 138.591 27.9751 138.496C27.9734 138.404 27.9859 138.221 28.0125 137.947C28.027 137.666 28.0517 137.47 28.0866 137.358C28.1192 137.237 28.1764 137.069 28.2582 136.854C28.3304 136.641 28.4203 136.481 28.5279 136.373C28.6258 136.267 28.7638 136.156 28.9418 136.041C29.1101 135.929 29.3012 135.847 29.5151 135.795C30.1373 135.645 30.7026 135.771 31.2109 136.173C31.7146 136.556 32.0613 137.141 32.2511 137.929C32.4151 138.609 32.4062 139.234 32.2243 139.802C32.0327 140.373 31.7087 140.821 31.2524 141.147L30.5744 140.447C30.9207 140.219 31.1635 139.903 31.3028 139.5C31.43 139.088 31.435 138.64 31.3178 138.154C31.1983 137.658 31.0039 137.278 30.7345 137.013C30.4651 136.749 30.1359 136.664 29.7471 136.758C29.1832 136.894 28.8907 137.494 28.8695 138.558C28.8694 138.857 28.8702 139.052 28.8719 139.144C28.8638 139.239 28.8525 139.427 28.838 139.708C28.8114 139.982 28.7818 140.179 28.7493 140.3C28.7144 140.411 28.6608 140.573 28.5887 140.786C28.5068 141.001 28.4169 141.162 28.319 141.268C28.2114 141.376 28.0734 141.486 27.9051 141.599C27.7271 141.714 27.5311 141.797 27.3172 141.849C26.7242 141.992 26.1722 141.878 25.6611 141.507C25.1454 141.117 24.802 140.567 24.631 139.858C24.4904 139.274 24.4975 138.727 24.6522 138.217C24.8045 137.697 25.0883 137.274 25.5034 136.947L26.1633 137.637C25.5484 138.073 25.3487 138.738 25.5643 139.633C25.6697 140.07 25.8596 140.41 26.1341 140.653C26.4085 140.895 26.7256 140.973 27.0853 140.886Z" fill="white"/>
					<path d="M22.6802 129.865C22.5382 128.754 22.8165 127.816 23.5151 127.051C24.2013 126.268 25.0751 125.808 26.1364 125.673C26.186 125.666 26.341 125.657 26.6015 125.643L27.4366 132.175C28.1679 131.981 28.7225 131.588 29.1003 130.995C29.4782 130.402 29.6158 129.704 29.5131 128.901C29.3685 127.77 28.8448 127.025 27.9421 126.667L28.3376 125.739C28.9151 125.998 29.3944 126.395 29.7754 126.931C30.1453 127.459 30.3759 128.079 30.4672 128.794C30.6169 129.964 30.3716 130.963 29.7314 131.791C29.0913 132.619 28.2058 133.105 27.075 133.25C25.9541 133.393 24.9804 133.15 24.1538 132.519C23.3172 131.89 22.826 131.006 22.6802 129.865ZM23.6324 129.743C23.7314 130.517 24.0426 131.137 24.5661 131.605C25.0883 132.062 25.7278 132.293 26.4844 132.297L25.7748 126.747C24.9952 126.958 24.4238 127.338 24.0607 127.889C23.6902 128.46 23.5475 129.079 23.6324 129.743Z" fill="white"/>
					<path d="M25.7703 107.231L25.0893 116.205L24.1321 116.133L24.8131 107.159L25.7703 107.231Z" fill="white"/>
					<path d="M33.0061 92.6841C32.5405 94.2148 31.6555 95.3201 30.3511 95.9999C29.0343 96.6864 27.6536 96.8099 26.209 96.3704C24.7644 95.9309 23.6863 95.0594 22.9749 93.7559C22.2702 92.4649 22.1506 91.054 22.6163 89.5233C22.8957 88.6049 23.3781 87.8266 24.0635 87.1884C24.7393 86.5474 25.5207 86.1266 26.4074 85.926L26.6534 86.9729C25.945 87.1023 25.3145 87.4227 24.7618 87.9339C24.209 88.4452 23.8192 89.0739 23.5921 89.8202C23.208 91.083 23.3031 92.2304 23.8777 93.2623C24.4589 94.3067 25.3378 95.0078 26.5146 95.3658C27.6914 95.7238 28.8119 95.6309 29.8762 95.0872C30.9281 94.5501 31.6461 93.6501 32.0303 92.3872C32.2573 91.641 32.2837 90.9016 32.1093 90.1692C31.9349 89.4367 31.5896 88.8195 31.0734 88.3175L31.8463 87.5806C32.477 88.2219 32.8978 89.0032 33.1088 89.9245C33.3198 90.8458 33.2856 91.7657 33.0061 92.6841Z" fill="white"/>
					<path d="M36.3365 82.7177L35.9456 83.6273L25.8853 79.3037L26.2762 78.3941L36.3365 82.7177Z" fill="white"/>
					<path d="M39.9146 73.2983C40.1995 74.3347 40.0789 75.3302 39.5525 76.2847C39.0165 77.2567 38.2366 77.8944 37.2129 78.1978C36.1804 78.4963 35.1781 78.3776 34.2061 77.8416C33.2341 77.3056 32.6032 76.5237 32.3134 75.496C32.0149 74.4635 32.1336 73.4613 32.6696 72.4893C33.2008 71.526 33.9826 70.8951 35.0151 70.5966C36.0437 70.2845 37.044 70.3964 38.016 70.9324C38.9793 71.4636 39.6121 72.2522 39.9146 73.2983ZM36.9491 77.2472C37.7235 77.0233 38.3111 76.5479 38.7119 75.8211C39.1126 75.0943 39.2011 74.3437 38.9772 73.5693C38.7358 72.7853 38.256 72.1953 37.538 71.7993C36.8111 71.3985 36.0605 71.3101 35.2862 71.534C34.503 71.7531 33.9111 72.226 33.5103 72.9528C33.1095 73.6796 33.0254 74.4327 33.2581 75.2119C33.482 75.9863 33.9573 76.5738 34.6842 76.9746C35.4022 77.3706 36.1572 77.4615 36.9491 77.2472Z" fill="white"/>
					<path d="M39.7658 64.767C40.2368 65.1055 40.8824 64.9353 41.7027 64.2564C41.9288 64.0617 42.0803 63.9366 42.1572 63.881C42.2259 63.8196 42.3727 63.7096 42.5975 63.551C42.8201 63.3784 42.9849 63.269 43.0919 63.2228C43.2049 63.1685 43.3695 63.1021 43.586 63.0237C43.7943 62.9394 43.9746 62.9027 44.1268 62.9136C44.271 62.9187 44.4447 62.9512 44.6479 63.011C44.8431 63.0651 45.03 63.1563 45.2086 63.2846C45.7284 63.6581 46.0019 64.1686 46.0291 64.8162C46.068 65.4476 45.8511 66.0921 45.3784 66.7499C44.9699 67.3184 44.491 67.7192 43.9417 67.9525C43.3842 68.1799 42.833 68.2272 42.2882 68.0943L42.3764 67.1232C42.7748 67.2371 43.1724 67.215 43.5693 67.0569C43.9639 66.8848 44.307 66.5957 44.5988 66.1897C44.8964 65.7755 45.0574 65.3802 45.0817 65.0036C45.106 64.627 44.9558 64.322 44.6309 64.0886C44.1599 63.7501 43.5143 63.9204 42.694 64.5992C42.4679 64.7939 42.3205 64.9219 42.2517 64.9833C42.1748 65.0389 42.0251 65.153 41.8026 65.3256C41.5778 65.4842 41.4089 65.5907 41.296 65.645C41.1889 65.6912 41.0312 65.7564 40.8229 65.8407C40.6065 65.9191 40.4262 65.9558 40.282 65.9508C40.1298 65.9399 39.9561 65.9074 39.7609 65.8534C39.5577 65.7935 39.3667 65.6994 39.1881 65.571C38.6927 65.215 38.4186 64.7225 38.3657 64.0935C38.3245 63.4482 38.517 62.8291 38.9429 62.2363C39.2931 61.7491 39.712 61.3974 40.1997 61.1814C40.6932 60.9573 41.1991 60.896 41.7172 60.9974L41.6256 61.9475C40.8938 61.7664 40.2594 62.0494 39.7225 62.7965C39.4599 63.1619 39.3264 63.5278 39.3219 63.8939C39.3173 64.2601 39.4653 64.5511 39.7658 64.767Z" fill="white"/>
					<path d="M45.3074 54.1339C46.0572 53.3019 46.9498 52.9014 47.9852 52.9326C49.0265 52.9422 49.9446 53.3051 50.7395 54.0214C50.7766 54.0549 50.8851 54.1661 51.0648 54.355L46.6566 59.2468C47.2807 59.6746 47.9406 59.8385 48.6364 59.7386C49.3322 59.6387 49.9512 59.2879 50.4935 58.6862C51.2566 57.8393 51.4798 56.9568 51.163 56.0386L52.1243 55.7337C52.3045 56.3404 52.3156 56.9629 52.1576 57.6013C51.9989 58.2255 51.6786 58.8051 51.1966 59.34C50.4066 60.2166 49.4891 60.682 48.444 60.7364C47.3989 60.7907 46.4529 60.4363 45.606 59.6731C44.7666 58.9167 44.3164 58.0196 44.2553 56.9819C44.1869 55.9375 44.5376 54.9882 45.3074 54.1339ZM46.0206 54.7766C45.4984 55.356 45.2308 55.9965 45.2177 56.6982C45.2113 57.3924 45.4532 58.0277 45.9434 58.6041L49.6889 54.4478C49.021 53.9939 48.36 53.8088 47.7058 53.8924C47.0308 53.9841 46.4691 54.2788 46.0206 54.7766Z" fill="white"/>
					<path d="M61.5504 41.6533L58.7845 37.9715L59.624 37.3408L65.9306 45.7358L65.0911 46.3664L62.145 42.4448L57.5877 45.8684L60.5338 49.7901L59.6943 50.4207L53.3877 42.0257L54.2272 41.3951L56.9931 45.0769L61.5504 41.6533Z" fill="white"/>
					<path d="M75.0299 38.9787C74.7161 40.0068 74.0816 40.7833 73.1263 41.3082C72.1534 41.8426 71.1534 41.9642 70.1262 41.6728C69.0941 41.3726 68.3109 40.7361 67.7764 39.7633C67.2419 38.7904 67.1272 37.7924 67.4321 36.7691C67.7323 35.7371 68.3688 34.9538 69.3416 34.4193C70.3057 33.8897 71.3038 33.7749 72.3358 34.0751C73.3718 34.3616 74.157 34.9913 74.6915 35.9642C75.2212 36.9283 75.334 37.9331 75.0299 38.9787ZM70.4118 40.7286C71.1859 40.9537 71.9366 40.8664 72.664 40.4668C73.3915 40.0671 73.8678 39.4803 74.0929 38.7062C74.3084 37.9147 74.2187 37.1596 73.8238 36.4409C73.4242 35.7134 72.8374 35.2372 72.0633 35.012C71.2845 34.7782 70.5313 34.8611 69.8039 35.2607C69.0764 35.6604 68.6026 36.2516 68.3823 37.0344C68.1572 37.8084 68.2444 38.5592 68.6441 39.2866C69.0389 40.0053 69.6282 40.4859 70.4118 40.7286Z" fill="white"/>
					<path d="M84.4014 31.8152L82.9791 28.1516L83.902 27.7933L86.6163 34.7849L85.6934 35.1432L85.27 34.0525C85.0737 35.0942 84.4535 35.8177 83.4094 36.223C82.5704 36.5487 81.8043 36.5511 81.1112 36.2302C80.4145 35.9 79.896 35.2967 79.5558 34.4205L77.8892 30.1276L78.8121 29.7693L80.4787 34.0622C80.7212 34.6868 81.0725 35.1082 81.5327 35.3264C82.0022 35.5411 82.5399 35.5308 83.1459 35.2955C83.845 35.0241 84.31 34.5915 84.5407 33.9977C84.7808 33.4003 84.7344 32.6728 84.4014 31.8152Z" fill="white"/>
					<path d="M90.3954 27.6757C90.5439 28.2364 91.1506 28.5154 92.2154 28.5126C92.5136 28.506 92.7101 28.5057 92.8048 28.5117C92.8969 28.508 93.0801 28.5163 93.3545 28.5367C93.636 28.5449 93.8328 28.5652 93.9448 28.5976C94.0665 28.6275 94.2358 28.6809 94.4528 28.7579C94.6671 28.8252 94.8297 28.9115 94.9403 29.0167C95.0483 29.1122 95.1618 29.2477 95.2807 29.4231C95.397 29.5888 95.4833 29.778 95.5397 29.9907C95.7035 30.6094 95.5902 31.1773 95.1996 31.6946C94.8284 32.2067 94.2512 32.5665 93.4682 32.7739C92.7916 32.9531 92.1671 32.9582 91.5947 32.7891C91.0198 32.6104 90.5642 32.2966 90.2281 31.8477L90.9133 31.1541C91.1485 31.4952 91.4696 31.7309 91.8764 31.861C92.2904 31.979 92.7391 31.9739 93.2224 31.8459C93.7154 31.7153 94.091 31.5124 94.3491 31.2371C94.6072 30.9618 94.6851 30.6309 94.5827 30.2442C94.4341 29.6835 93.8275 29.4046 92.7627 29.4073C92.4644 29.4139 92.2693 29.419 92.1771 29.4228C92.0824 29.4168 91.8944 29.4097 91.6129 29.4015C91.3385 29.3811 91.1405 29.356 91.0188 29.3261C90.9067 29.2937 90.7435 29.2439 90.5291 29.1765C90.3122 29.0995 90.1497 29.0132 90.0416 28.9177C89.931 28.8125 89.8175 28.6771 89.7012 28.5113C89.5823 28.3359 89.4947 28.1419 89.4384 27.9292C89.2822 27.3396 89.3836 26.7851 89.7426 26.2659C90.121 25.7415 90.663 25.3859 91.3686 25.199C91.9486 25.0453 92.4955 25.0401 93.0093 25.1833C93.5328 25.324 93.9623 25.5981 94.2979 26.0058L93.6233 26.681C93.1734 26.0761 92.5038 25.8914 91.6145 26.127C91.1795 26.2422 90.8439 26.4397 90.6076 26.7195C90.3714 26.9993 90.3007 27.3181 90.3954 27.6757Z" fill="white"/>
					<path d="M101.065 23.0472C102.172 22.88 103.116 23.1369 103.897 23.818C104.695 24.4862 105.175 25.3493 105.334 26.4073C105.342 26.4567 105.355 26.6115 105.374 26.8715L98.8631 27.8549C99.0739 28.5816 99.48 29.1271 100.081 29.4914C100.682 29.8557 101.383 29.9774 102.184 29.8564C103.311 29.6862 104.044 29.1457 104.382 28.235L105.318 28.6094C105.072 29.1926 104.686 29.6808 104.159 30.074C103.64 30.4557 103.025 30.7004 102.313 30.8079C101.146 30.9841 100.141 30.7616 99.2993 30.1404C98.4571 29.5192 97.9508 28.645 97.7806 27.5178C97.6118 26.4005 97.8331 25.4215 98.4444 24.5807C99.0542 23.7301 99.9277 23.219 101.065 23.0472ZM101.208 23.9965C100.437 24.1129 99.8236 24.4382 99.3682 24.9722C98.9227 25.5047 98.7066 26.1492 98.7197 26.9057L104.252 26.0701C104.024 25.2955 103.63 24.733 103.072 24.3825C102.492 24.0251 101.871 23.8964 101.208 23.9965Z" fill="white"/>
					<path d="M123.921 25.5542L114.933 25.0808L114.983 24.1221L123.971 24.5955L123.921 25.5542Z" fill="white"/>
					<path d="M139.147 32.56C137.607 32.1238 136.485 31.2601 135.781 29.9691C135.069 28.6657 134.919 27.2876 135.331 25.8348C135.743 24.382 136.593 23.2875 137.883 22.5512C139.16 21.8218 140.568 21.6752 142.108 22.1115C143.031 22.3732 143.819 22.8406 144.47 23.5136C145.124 24.1771 145.56 24.9502 145.777 25.8329L144.735 26.0989C144.592 25.3932 144.26 24.7689 143.738 24.2261C143.216 23.6832 142.58 23.3055 141.83 23.0928C140.56 22.7329 139.414 22.8501 138.394 23.4443C137.361 24.0454 136.676 24.9377 136.341 26.1211C136.006 27.3045 136.12 28.423 136.684 29.4768C137.241 30.5181 138.155 31.2188 139.425 31.5787C140.175 31.7913 140.915 31.8035 141.644 31.6151C142.373 31.4267 142.984 31.0696 143.475 30.5439L144.227 31.3025C143.598 31.9454 142.825 32.3811 141.908 32.6097C140.991 32.8383 140.07 32.8218 139.147 32.56Z" fill="white"/>
					<path d="M149.23 35.7264L148.313 35.3528L152.445 25.2123L153.362 25.5859L149.23 35.7264Z" fill="white"/>
					<path d="M158.236 38.8759C157.206 39.1841 156.208 39.0859 155.242 38.5812C154.259 38.0672 153.603 37.3019 153.277 36.2853C152.955 35.2597 153.052 34.2551 153.565 33.2712C154.079 32.2874 154.847 31.639 155.868 31.3262C156.893 31.0045 157.898 31.1006 158.882 31.6146C159.857 32.1239 160.505 32.8913 160.827 33.9168C161.162 34.9381 161.073 35.9407 160.559 36.9245C160.049 37.8995 159.275 38.55 158.236 38.8759ZM154.221 36.0001C154.463 36.7693 154.951 37.346 155.687 37.7303C156.423 38.1146 157.175 38.1861 157.944 37.9449C158.723 37.6858 159.302 37.1929 159.681 36.4661C160.066 35.7305 160.137 34.9781 159.896 34.2089C159.659 33.4309 159.173 32.8498 158.437 32.4654C157.702 32.0811 156.947 32.014 156.173 32.2642C155.404 32.5055 154.827 32.994 154.443 33.7296C154.063 34.4564 153.989 35.2133 154.221 36.0001Z" fill="white"/>
					<path d="M166.881 38.5904C166.553 39.0688 166.737 39.7105 167.434 40.5156C167.634 40.7373 167.762 40.8859 167.82 40.9615C167.883 41.0289 167.996 41.1732 168.159 41.3945C168.337 41.6131 168.45 41.7754 168.499 41.8814C168.555 41.9931 168.625 42.1563 168.709 42.3709C168.797 42.5773 168.838 42.7568 168.831 42.9092C168.829 43.0534 168.8 43.2278 168.745 43.4324C168.695 43.6287 168.608 43.8175 168.484 43.999C168.122 44.5269 167.618 44.8117 166.971 44.8533C166.34 44.9062 165.691 44.7036 165.023 44.2457C164.446 43.85 164.034 43.3801 163.789 42.836C163.549 42.2837 163.49 41.7338 163.61 41.1861L164.583 41.2527C164.478 41.6536 164.509 42.0506 164.676 42.4439C164.857 42.8345 165.153 43.1712 165.566 43.4539C165.987 43.7422 166.385 43.8943 166.762 43.9103C167.139 43.9262 167.441 43.7692 167.667 43.4393C167.995 42.9609 167.811 42.3192 167.114 41.5141C166.914 41.2924 166.783 41.1479 166.72 41.0805C166.663 41.0049 166.545 40.8578 166.368 40.6391C166.204 40.4179 166.094 40.2514 166.037 40.1398C165.989 40.0337 165.92 39.8775 165.831 39.6711C165.748 39.4565 165.707 39.277 165.709 39.1328C165.716 38.9804 165.745 38.806 165.795 38.6097C165.85 38.4052 165.94 38.2122 166.064 38.0307C166.409 37.5275 166.895 37.2426 167.523 37.1757C168.167 37.1202 168.79 37.2988 169.393 37.7116C169.888 38.0508 170.248 38.4618 170.475 38.9445C170.71 39.433 170.783 39.9373 170.693 40.4576L169.741 40.3871C169.906 39.6514 169.609 39.0235 168.85 38.5034C168.479 38.249 168.11 38.1236 167.744 38.1272C167.378 38.1308 167.09 38.2852 166.881 38.5904Z" fill="white"/>
					<path d="M177.671 43.9206C178.519 44.6519 178.939 45.5354 178.93 46.5712C178.944 47.6125 178.601 48.5384 177.902 49.3488C177.87 49.3867 177.761 49.4976 177.576 49.6814L172.589 45.3818C172.175 46.0151 172.025 46.6785 172.14 47.3719C172.256 48.0654 172.62 48.6765 173.233 49.2054C174.097 49.9498 174.984 50.1535 175.895 49.8166L176.221 50.7709C175.618 50.9645 174.996 50.9893 174.355 50.8453C173.727 50.7004 173.14 50.3928 172.595 49.9227C171.701 49.1522 171.216 48.2452 171.139 47.2015C171.061 46.1579 171.395 45.2043 172.139 44.3409C172.877 43.485 173.764 43.0152 174.8 42.9313C175.843 42.8399 176.8 43.1697 177.671 43.9206ZM177.044 44.6477C176.453 44.1384 175.807 43.8849 175.105 43.8872C174.411 43.8961 173.781 44.1519 173.215 44.6547L177.453 48.3079C177.892 47.6302 178.063 46.9652 177.965 46.3131C177.858 45.6403 177.551 45.0851 177.044 44.6477Z" fill="white"/>
					<path d="M190.541 59.9245L194.162 57.079L194.81 57.9045L186.555 64.3927L185.906 63.5671L189.763 60.5362L186.24 56.0546L182.384 59.0855L181.735 58.26L189.991 51.7718L190.639 52.5974L187.019 55.4429L190.541 59.9245Z" fill="white"/>
					<path d="M193.53 73.3793C192.495 73.0882 191.705 72.4708 191.16 71.5272C190.604 70.5663 190.46 69.5691 190.729 68.5358C191.007 67.4974 191.626 66.7004 192.587 66.1448C193.548 65.5891 194.543 65.4526 195.573 65.7351C196.611 66.0125 197.408 66.6317 197.964 67.5927C198.515 68.5449 198.651 69.5402 198.374 70.5786C198.11 71.6206 197.497 72.4194 196.536 72.9751C195.584 73.5257 194.582 73.6605 193.53 73.3793ZM191.68 68.8007C191.471 69.5795 191.575 70.3281 191.991 71.0466C192.406 71.7652 193.003 72.2285 193.782 72.4366C194.578 72.6347 195.331 72.5285 196.041 72.118C196.759 71.7026 197.223 71.1054 197.431 70.3267C197.648 69.5429 197.548 68.7917 197.133 68.0732C196.717 67.3547 196.116 66.8939 195.328 66.6908C194.55 66.4826 193.801 66.5863 193.083 67.0018C192.373 67.4123 191.905 68.0119 191.68 68.8007Z" fill="white"/>
					<path d="M200.886 82.5897L204.517 81.0867L204.896 82.0014L197.966 84.8697L197.587 83.955L198.668 83.5075C197.622 83.3343 196.885 82.7303 196.457 81.6954C196.113 80.8638 196.093 80.098 196.399 79.3979C196.714 78.6941 197.305 78.1624 198.174 77.8029L202.429 76.0418L202.807 76.9565L198.553 78.7176C197.933 78.9739 197.52 79.3344 197.312 79.7993C197.108 80.2735 197.13 80.8108 197.378 81.4114C197.665 82.1044 198.108 82.5597 198.707 82.7772C199.309 83.004 200.036 82.9415 200.886 82.5897Z" fill="white"/>
					<path d="M205.143 88.4683C204.586 88.6293 204.32 89.2421 204.347 90.3066C204.36 90.6046 204.365 90.801 204.361 90.8958C204.367 90.9878 204.363 91.1712 204.348 91.446C204.347 91.7276 204.331 91.9247 204.301 92.0374C204.274 92.1598 204.224 92.3303 204.152 92.5489C204.089 92.7647 204.007 92.9291 203.904 93.0421C203.811 93.1522 203.678 93.2687 203.505 93.3915C203.342 93.5115 203.155 93.602 202.944 93.6631C202.329 93.8408 201.759 93.7402 201.233 93.3613C200.712 93.0016 200.34 92.4327 200.115 91.6545C199.921 90.982 199.901 90.3578 200.058 89.7818C200.224 89.203 200.527 88.7405 200.968 88.3944L201.677 89.064C201.341 89.3067 201.113 89.633 200.992 90.0427C200.883 90.4592 200.898 90.9076 201.037 91.388C201.179 91.8779 201.39 92.2489 201.671 92.5008C201.952 92.7527 202.285 92.8231 202.669 92.712C203.226 92.551 203.491 91.9382 203.465 90.8738C203.452 90.5757 203.442 90.3807 203.436 90.2887C203.44 90.1939 203.443 90.0057 203.445 89.7241C203.459 89.4494 203.48 89.2508 203.507 89.1285C203.537 89.0157 203.583 88.8515 203.646 88.6356C203.718 88.417 203.8 88.2526 203.893 88.1424C203.996 88.0295 204.129 87.913 204.292 87.793C204.465 87.6702 204.657 87.5783 204.868 87.5172C205.454 87.3479 206.011 87.4368 206.538 87.7841C207.071 88.1507 207.438 88.6846 207.641 89.3859C207.807 89.9623 207.825 90.5089 207.693 91.0258C207.564 91.5523 207.3 91.9878 206.9 92.3325L206.21 91.6732C206.804 91.2098 206.974 90.5362 206.719 89.6524C206.594 89.2201 206.389 88.889 206.104 88.6591C205.819 88.4292 205.498 88.3656 205.143 88.4683Z" fill="white"/>
				</svg>