<svg width="251" height="85" viewBox="0 0 251 85" fill="none" xmlns="http://www.w3.org/2000/svg">
<path d="M43.2717 66.3183L47.484 64.7814L42.4998 67.4202C37.0535 69.9091 31.5609 72.2719 26.022 74.5086C20.4907 76.7777 14.8819 78.8594 9.19563 80.7537L8.0976 81.1099C7.78781 81.2498 7.41805 81.3523 6.98832 81.4173C6.79345 81.4623 6.57983 81.4261 6.34746 81.3087C6.08262 81.1987 5.9202 81.0139 5.86021 80.754C5.76775 80.5017 5.74774 80.2669 5.80019 80.0495C5.85263 79.8321 5.91258 79.6472 5.98002 79.4948C6.15737 79.0776 6.36971 78.7378 6.61703 78.4754L7.3365 77.5909L8.72671 75.8331C10.6603 73.5394 12.6776 71.3118 14.7786 69.1505C16.8546 67.0291 19.0343 64.9864 21.3176 63.0224C22.4843 62.0004 23.711 61.0159 24.9976 60.0689L23.5735 60.3464L18.6042 61.4936L17.375 61.7261L17.0827 61.7936C17.0752 61.7611 17.0839 61.7249 17.1089 61.6849C17.1264 61.6124 17.1476 61.5562 17.1726 61.5162L18.1843 59.8972L18.5103 59.3088L18.8101 58.829L19.7169 57.6447C20.3214 56.8551 20.9697 56.1068 21.6617 55.3996C22.3537 54.6925 23.0932 54.0429 23.8801 53.4507C24.2749 53.0858 24.6846 52.786 25.1093 52.5511L25.4166 52.3262L25.589 52.1838C25.6539 52.1688 25.7151 52.1376 25.7726 52.0901C25.8375 52.0751 25.8863 52.0638 25.9187 52.0563C26.3834 51.8464 26.8157 51.8664 27.2154 52.1162C27.5677 52.3085 27.7764 52.6196 27.8414 53.0493C27.8864 53.2442 27.8989 53.4465 27.8789 53.6564L27.8115 54.0312C27.8015 54.1361 27.7878 54.2248 27.7703 54.2973C27.7528 54.3697 27.7516 54.4384 27.7666 54.5034L27.7891 54.6008L27.7778 54.5521C27.7528 54.5921 27.7241 54.6158 27.6916 54.6233C27.6916 54.6233 27.6591 54.6308 27.5942 54.6458C27.5617 54.6533 27.5017 54.6158 27.4143 54.5334C27.3268 54.451 27.2644 54.3285 27.2269 54.1661C27.1719 54.0762 27.1369 53.9988 27.1219 53.9338C27.0619 53.674 26.9682 53.4903 26.8408 53.3829C26.7134 53.2755 26.5797 53.2893 26.4398 53.4242C26.4398 53.4242 26.4235 53.4279 26.3911 53.4354C26.3911 53.4354 26.3786 53.4554 26.3536 53.4954L26.3161 53.5554C26.2187 53.5779 26.1125 53.6366 25.9976 53.7315C25.9401 53.779 25.8664 53.8302 25.7765 53.8852L24.6823 54.7023C23.9603 55.2795 23.2658 55.9017 22.5987 56.5688C21.9242 57.2035 21.3134 57.8919 20.7663 58.634L19.9457 59.7471L28.9436 57.8237L29.3298 59.274C28.0606 59.7039 26.8527 60.3248 25.706 61.1369C24.5593 61.949 23.4438 62.8223 22.3596 63.7569C22.2446 63.8518 22.1297 63.9468 22.0148 64.0417C19.6989 66.0132 17.4868 68.0634 15.3783 70.1922C13.2373 72.3286 11.2038 74.5599 9.27772 76.8861L7.83878 78.6552L7.15678 79.4797C7.0069 79.7196 6.89325 79.9682 6.81582 80.2255C6.82332 80.258 6.83081 80.2905 6.83831 80.323C6.81333 80.3629 6.80459 80.3992 6.81209 80.4317C6.77961 80.4392 6.81584 80.4479 6.92077 80.4579C6.98573 80.4429 7.1119 80.3967 7.29927 80.3192L13.7413 78.2161L18.051 76.6567C20.8841 75.5921 23.7135 74.5113 26.5391 73.4142C32.1829 71.1875 37.7604 68.8222 43.2717 66.3183ZM60.2591 59.0096L61.6157 58.4399L61.5184 59.1295C60.1967 59.7767 58.7115 60.5301 57.0626 61.3897C55.4137 62.2493 53.936 63.0352 52.6293 63.7474L48.9531 65.8277C48.3885 66.1975 47.7876 66.5586 47.1506 66.9109C46.481 67.2708 45.7427 67.407 44.9357 67.3196C44.501 67.2147 44.1162 67.0299 43.7814 66.7651C43.4391 66.4678 43.2354 66.1043 43.1704 65.6746C43.1004 65.075 43.0779 64.5328 43.1028 64.0481C43.0903 63.8457 43.0815 63.6596 43.0765 63.4897C43.0464 62.0256 43.06 60.6028 43.1174 59.2211C43.2745 56.3454 43.5765 53.5047 44.0235 50.6989L45.384 51.9242C44.9071 54.6001 44.5788 57.3272 44.3991 60.1054C44.2943 61.4296 44.2532 62.8075 44.2759 64.2391C44.2659 64.3441 44.2684 64.429 44.2834 64.494C44.2859 64.8013 44.2847 65.0923 44.2797 65.3672C44.2997 65.602 44.3534 65.7607 44.4409 65.8431C44.5434 65.9905 44.6908 66.1104 44.8832 66.2028C45.1005 66.2553 45.3429 66.2678 45.6102 66.2403C46.2998 66.1153 47.078 65.7817 47.9449 65.2394C48.3122 65.052 48.6794 64.8646 49.0467 64.6772C50.2883 63.98 51.5212 63.319 52.7454 62.6943C55.2437 61.3649 57.7483 60.1367 60.2591 59.0096ZM75.6888 55.8066C76.6431 55.3468 77.0454 55.2369 76.8955 55.4767C76.7706 55.6766 76.3758 56.0414 75.7113 56.5712C74.6445 56.9885 73.1743 57.8069 71.3006 59.0263C69.7466 60.0008 68.1165 60.9416 66.4101 61.8487C64.7038 62.7558 63.1161 63.3619 61.647 63.6668C60.1705 63.9393 58.9874 63.6308 58.0979 62.7415C57.4582 61.897 57.217 60.9264 57.3743 59.8296C57.6715 58.1531 58.5033 56.8663 59.8699 55.9693C60.1072 55.8119 60.4045 55.6919 60.7618 55.6094C61.1441 55.487 61.5163 55.4694 61.8786 55.5568C62.2334 55.6118 62.472 55.8304 62.5945 56.2126C62.647 56.44 62.642 56.7148 62.5796 57.0371C62.3997 57.5918 62.05 58.1515 61.5304 58.7162C60.7459 59.6157 59.8391 60.3553 58.8098 60.935C58.9448 61.9644 59.6544 62.519 60.9386 62.5988C62.2653 62.5662 63.838 62.1176 65.6568 61.2529C67.5005 60.3483 69.4317 59.3038 71.4504 58.1193C72.8719 57.3122 74.2847 56.5413 75.6888 55.8066ZM61.0655 56.9248C60.1561 57.1348 59.4716 57.8744 59.012 59.1436C59.9938 58.5064 60.787 57.793 61.3916 57.0035L61.0655 56.9248ZM94.3424 51.4488C95.6915 51.0689 96.2787 51.0189 96.1038 51.2987C95.9539 51.5386 95.1957 51.8847 93.8291 52.337C89.5319 53.8765 85.4221 55.7832 81.4998 58.0571L81.3463 59.8373C81.1416 61.3214 80.6995 62.7405 80.02 64.0947C79.2681 65.4315 78.2376 66.5246 76.9285 67.3742C75.9067 67.9864 74.8124 68.3588 73.6457 68.4913C72.7887 68.4839 72.2153 68.2229 71.9254 67.7082C71.6356 67.1936 71.4869 66.6977 71.4793 66.2205C71.5592 65.381 71.8889 64.5864 72.4685 63.8369C73.2804 62.76 74.1697 61.8704 75.1366 61.1683C76.7529 59.8714 78.4555 58.7257 80.2443 57.7312C80.2893 57.4813 80.2942 57.2065 80.2592 56.9067C80.2392 56.6719 80.2267 56.4695 80.2217 56.2996C80.2242 56.1622 80.2217 56.0772 80.2142 56.0447C80.2067 56.0123 80.1867 55.9998 80.1542 56.0073C80.1467 55.9748 80.123 55.9461 80.083 55.9211L79.9368 55.9548C79.3597 56.1223 78.7364 56.3859 78.0668 56.7458C77.5772 56.9957 77.1075 57.258 76.6578 57.5329C76.5029 57.6029 76.3517 57.6891 76.2043 57.7915L74.2669 58.9572L73.7647 59.2271L73.5324 59.3321C73.4674 59.3471 73.4187 59.3583 73.3862 59.3658C73.3288 59.4133 73.2513 59.4483 73.1539 59.4708C72.8441 59.6107 72.5518 59.6782 72.277 59.6732C71.9697 59.6758 71.7048 59.5658 71.4824 59.3435C71.4275 59.2536 71.4087 59.1724 71.4262 59.0999C71.4187 59.0674 71.4074 59.0187 71.3924 58.9538L71.2912 58.5153C71.2762 58.4503 71.2775 58.3816 71.2949 58.3092C71.3049 58.2042 71.3187 58.1155 71.3361 58.0431L71.441 57.6083L71.6583 56.9937L72.0443 56.4428C72.6064 55.7656 73.2384 55.2434 73.9405 54.8761C75.3845 54.1664 76.8523 53.7078 78.3438 53.5003C77.8242 54.065 77.3521 54.6871 76.9274 55.3667C75.6607 55.6592 74.5315 56.1764 73.5397 56.9186C73.3173 57.141 73.1437 57.3521 73.0188 57.552L72.8539 57.9492L72.7902 58.1179L72.8877 58.0954C73.4998 57.783 74.1206 57.4345 74.7502 57.0496C75.3223 56.7123 75.8981 56.3912 76.4778 56.0863C77.1073 55.7015 77.7519 55.3816 78.4115 55.1267C78.7462 54.9468 79.1085 54.8119 79.4982 54.7219C79.7581 54.6619 80.0454 54.6469 80.3602 54.6768C80.7 54.6668 80.9686 54.793 81.166 55.0553C81.3634 55.3176 81.4708 55.6349 81.4884 56.0072L81.5259 56.6143C81.4984 56.7917 81.4959 56.9291 81.5184 57.0265C85.5782 54.755 89.8528 52.8958 94.3424 51.4488ZM80.1845 59.0279C80.177 58.9954 80.1695 58.9629 80.162 58.9304C80.1869 58.8905 80.1919 58.838 80.1769 58.773C78.558 59.7626 77.0304 60.8508 75.5939 62.0377C74.6995 62.7573 73.9126 63.5719 73.2331 64.4814C72.9258 64.9286 72.6947 65.4096 72.5399 65.9243C72.4125 66.7063 72.6025 67.1585 73.1097 67.2809C73.6094 67.3708 74.209 67.3008 74.9085 67.0709C75.5756 66.8484 76.0977 66.591 76.475 66.2987C77.6542 65.4791 78.5547 64.4159 79.1767 63.1092C79.7338 61.8174 80.0697 60.457 80.1845 59.0279ZM111.557 47.6284C112.404 47.2961 112.674 47.3535 112.367 47.8007C111.037 48.8602 109.267 49.7136 107.056 50.3609C104.838 50.9757 102.818 51.1171 100.996 50.7849C100.779 50.7325 100.587 50.6401 100.419 50.5077C100.252 50.3753 100.092 50.2753 99.9395 50.2079C99.7871 50.1405 99.621 50.1617 99.4411 50.2717L98.924 50.6989L96.7467 52.3818L94.607 54.0048C94.5745 54.0123 94.5458 54.036 94.5208 54.076C94.216 54.3858 93.795 54.637 93.2579 54.8294C92.9656 54.8969 92.6545 54.8832 92.3247 54.7883C91.9949 54.6934 91.7163 54.4498 91.4889 54.0575C91.4139 53.7328 91.4027 53.4617 91.4551 53.2443C91.4676 53.002 91.5075 52.8046 91.575 52.6522C91.6075 52.6447 91.62 52.6247 91.6125 52.5922C91.7324 52.2224 91.8885 51.8614 92.0808 51.5091C92.0808 51.5091 92.0933 51.4891 92.1183 51.4491C92.5679 50.7295 93.1125 50.1248 93.7521 49.6351C95.1136 48.5681 96.6751 48.0708 98.4365 48.1431C98.0968 48.5978 97.8045 49.11 97.5597 49.6797C96.338 49.7223 95.2587 50.1596 94.3219 50.9917C93.8622 51.3715 93.4862 51.8175 93.1939 52.3297C93.0441 52.5696 92.9179 52.8382 92.8155 53.1355C92.7231 53.3279 92.6881 53.4728 92.7106 53.5702L92.7593 53.559C92.7993 53.584 92.8393 53.6089 92.8793 53.6339C92.9117 53.6264 92.9405 53.6027 92.9655 53.5627C93.1354 53.5577 93.3515 53.4565 93.6138 53.2591C93.6962 53.1716 93.7986 53.0967 93.9211 53.0342L98.3955 49.7433L98.714 49.5672L99.0587 49.2823C99.5159 49.0399 99.9569 49.0236 100.382 49.2335C100.669 49.4408 100.856 49.5857 100.944 49.6681C100.984 49.6931 101.024 49.7181 101.064 49.7431L101.472 49.9567C102.889 50.3138 104.573 50.1987 106.524 49.6114C108.468 48.9916 110.145 48.3306 111.557 47.6284ZM130.881 43.0645C131.378 42.8471 131.667 42.7633 131.747 42.8133C131.859 42.8558 131.833 42.9645 131.668 43.1394C131.503 43.3143 131.261 43.5242 130.941 43.769C130.279 44.1613 129.357 44.6137 128.175 45.1259C126.986 45.6058 125.781 46.0893 124.559 46.5766C123.208 47.0939 122.144 47.5275 121.37 47.8774C121.183 47.9548 121.028 48.0248 120.905 48.0873C120.815 48.1423 120.709 48.201 120.587 48.2634C120.489 48.2859 120.343 48.3197 120.148 48.3647C120.148 48.3647 120.132 48.3684 120.1 48.3759C119.962 48.3734 119.809 48.3747 119.639 48.3797C119.494 48.3448 119.37 48.2536 119.268 48.1062C119.198 47.9513 119.16 47.7889 119.155 47.619C119.143 47.4166 119.154 47.243 119.189 47.0981C119.181 47.0656 119.178 47.0493 119.178 47.0493C119.215 46.767 119.211 46.5284 119.166 46.3335C119.146 46.0987 119.06 45.9475 118.908 45.8801C118.715 45.7877 118.485 45.7552 118.218 45.7827C118.016 45.7952 117.792 45.864 117.547 45.9889C116.56 46.4562 115.632 47.0297 114.763 47.7093C113.846 48.3315 112.957 48.9987 112.095 49.7108L110.791 50.7303C110.356 51.0702 109.912 51.2239 109.46 51.1914C109.21 51.1465 109.014 51.0378 108.872 50.8654C108.689 50.6681 108.584 50.4357 108.557 50.1684C108.46 49.7462 108.441 49.4426 108.501 49.2577C108.518 49.1853 108.519 49.1166 108.504 49.0516C108.497 49.0191 108.506 48.9829 108.531 48.9429C108.526 48.773 108.542 48.5469 108.579 48.2646C108.609 47.9498 108.663 47.6637 108.74 47.4063C108.81 47.1165 108.883 46.9116 108.958 46.7917C109.193 46.7717 109.434 46.8529 109.681 47.0352C109.801 47.1102 109.872 47.1964 109.895 47.2938C109.95 47.3837 109.988 47.4774 110.011 47.5749C110.041 47.7048 110.051 47.8222 110.041 47.9272C110.056 47.9921 110.058 48.0771 110.048 48.182C110.048 48.182 110.052 48.1982 110.06 48.2307L109.959 49.1264L109.94 49.4899C109.947 49.5224 109.939 49.5586 109.914 49.5986C109.921 49.6311 109.925 49.6473 109.925 49.6473L111.806 48.238C112.101 48.0331 112.412 47.8245 112.739 47.6121C113.321 47.1698 113.943 46.7525 114.605 46.3602C115.048 46.0529 115.526 45.7542 116.041 45.4644C116.106 45.4494 116.167 45.4181 116.224 45.3707C116.609 45.1108 117.126 44.9059 117.776 44.7559C117.971 44.7109 118.14 44.7059 118.285 44.7409C118.318 44.7334 118.35 44.7259 118.383 44.7184C118.545 44.6809 118.719 44.6921 118.904 44.7521L119.23 44.8307L119.59 45.0555C119.829 45.2054 119.996 45.4065 120.088 45.6589C120.181 45.9112 120.229 46.1223 120.234 46.2922C120.239 46.4621 120.241 46.6158 120.238 46.7532C120.213 46.7932 120.204 46.8294 120.212 46.8619L120.129 47.394L120.373 47.3378C120.56 47.2603 120.732 47.1866 120.886 47.1166C121.034 47.0142 121.201 46.9242 121.389 46.8468C122.081 46.5844 123.009 46.2332 124.173 45.7934C125.435 45.3311 126.693 44.8525 127.947 44.3577C129.233 43.8554 130.212 43.4243 130.881 43.0645ZM134.669 35.0571C134.742 35.0746 134.814 35.0921 134.886 35.1096C135.136 35.1545 135.365 35.2557 135.572 35.4131C135.402 35.4181 135.256 35.4518 135.134 35.5143C135.011 35.5768 134.889 35.6392 134.767 35.7017C134.709 35.7492 134.664 35.7767 134.632 35.7842C132.825 36.4065 131.09 37.1149 129.426 37.9096C129.139 40.3706 128.921 42.8328 128.771 45.2963C128.612 47.42 128.501 49.5324 128.438 51.6336C128.443 51.8035 128.428 51.9609 128.393 52.1058C128.279 53.0902 128.304 53.9397 128.469 54.6542C128.514 54.8491 128.571 55.024 128.641 55.1789C128.711 55.3338 128.786 55.4362 128.866 55.4862C128.906 55.5111 128.93 55.5399 128.937 55.5724C129.057 55.6473 129.206 55.6985 129.383 55.726C129.561 55.7534 129.714 55.7522 129.844 55.7222C129.957 55.7646 130.061 55.7746 130.159 55.7521C130.224 55.7371 130.314 55.6822 130.429 55.5872C130.459 55.7171 130.407 55.8658 130.275 56.0332C130.143 56.2006 129.95 56.3305 129.698 56.423C129.163 56.478 128.681 56.3157 128.251 55.9359C127.937 55.4613 127.719 54.9641 127.599 54.4444C127.507 53.7474 127.487 53.0678 127.539 52.4057C127.554 52.026 127.549 51.6337 127.524 51.229C127.519 50.6143 127.534 50.0122 127.569 49.4226C127.581 47.8461 127.626 46.262 127.703 44.6705C127.748 42.6418 127.861 40.6143 128.044 38.5881C126.11 39.5476 124.239 40.6296 122.43 41.834C122.37 41.5742 122.31 41.3144 122.25 41.0546C122.157 40.8022 122.085 40.5624 122.033 40.335C124.034 39.223 126.077 38.221 128.163 37.3288C128.343 35.44 128.559 33.5599 128.811 31.6885L130.224 32.6965C130.019 33.7359 129.851 34.784 129.719 35.8409C129.656 36.1632 129.606 36.4655 129.569 36.7478C131.238 36.123 132.938 35.5595 134.669 35.0571ZM168.044 34.2795C168.319 34.2845 168.483 34.332 168.538 34.4219C168.586 34.4794 168.556 34.5718 168.449 34.6992C168.334 34.7942 168.19 34.9129 168.018 35.0553C163.765 37.2344 159.42 39.2298 154.98 41.0416C154.76 41.1265 154.54 41.2115 154.32 41.2965C153.409 41.6438 152.449 41.9337 151.442 42.1662C150.825 42.3087 150.163 42.2562 149.456 42.009C149.086 41.8891 148.759 41.6568 148.474 41.312C148.254 40.9522 148.136 40.5862 148.118 40.214C148.048 38.7249 148.604 37.5019 149.785 36.5449C150.367 36.1026 151.003 35.8189 151.693 35.694C152.058 35.644 152.414 35.6302 152.761 35.6526C153.213 35.6851 153.499 35.7388 153.619 35.8137C153.732 35.8562 153.75 35.9374 153.675 36.0573C153.633 36.1697 153.526 36.2972 153.353 36.4396C153.091 36.637 152.872 36.8756 152.697 37.1554C151.72 37.0731 150.886 37.3855 150.194 38.0926C149.864 38.4424 149.634 38.8547 149.505 39.3294C149.452 39.5468 149.42 39.7766 149.407 40.019C149.42 40.2213 149.457 40.3837 149.52 40.5062C149.645 40.751 149.937 40.9059 150.397 40.9708C150.856 41.0357 151.342 40.9919 151.854 40.8395C152.926 40.592 154.008 40.2396 155.1 39.7823C159.504 38.1155 163.819 36.2812 168.044 34.2795ZM181.859 30.936L183.216 30.3662L183.119 31.0558C181.797 31.703 180.312 32.4565 178.663 33.3161C177.014 34.1757 175.536 34.9616 174.23 35.6738L170.553 37.7541C169.989 38.1239 169.388 38.485 168.751 38.8373C168.081 39.1971 167.343 39.3334 166.536 39.246C166.101 39.1411 165.716 38.9563 165.382 38.6915C165.039 38.3942 164.836 38.0307 164.771 37.601C164.701 37.0013 164.678 36.4592 164.703 35.9745C164.691 35.7721 164.682 35.586 164.677 35.4161C164.647 33.952 164.66 32.5291 164.718 31.1475C164.875 28.2718 165.177 25.431 165.624 22.6252L166.984 23.8506C166.507 26.5265 166.179 29.2535 165.999 32.0318C165.895 33.356 165.853 34.7339 165.876 36.1655C165.866 36.2704 165.869 36.3554 165.884 36.4203C165.886 36.7276 165.885 37.0187 165.88 37.2935C165.9 37.5284 165.954 37.687 166.041 37.7695C166.144 37.9169 166.291 38.0368 166.483 38.1292C166.701 38.1817 166.943 38.1941 167.21 38.1666C167.9 38.0416 168.678 37.708 169.545 37.1658C169.912 36.9784 170.28 36.7909 170.647 36.6035C171.889 35.9063 173.121 35.2454 174.346 34.6207C176.844 33.2913 179.349 32.063 181.859 30.936ZM200.753 34.7333C200.865 34.7758 200.97 34.7858 201.067 34.7633C201.165 34.7408 201.271 34.682 201.386 34.5871C201.416 34.717 201.368 34.8819 201.243 35.0818C201.111 35.2492 200.915 35.3629 200.655 35.4229C200.388 35.4504 200.125 35.4254 199.868 35.348C199.611 35.2706 199.391 35.1332 199.208 34.9358C198.876 34.5336 198.662 34.0527 198.567 33.493C198.475 32.796 198.451 32.1002 198.496 31.4056C198.504 30.9934 198.499 30.6011 198.481 30.2288C198.496 28.0702 198.543 25.904 198.623 23.7304C198.735 20.2151 199.004 16.7147 199.431 13.2294C197.952 13.6393 196.461 14.0691 194.957 14.519C193.997 14.8089 193.065 15.1438 192.161 15.5236C191.696 15.7335 191.235 15.9597 190.778 16.2021C190.346 16.4045 189.961 16.6644 189.624 16.9817C189.574 17.0617 189.528 17.1578 189.485 17.2703C189.435 17.3502 189.438 17.4352 189.493 17.5251C189.628 17.665 189.804 17.7612 190.021 17.8136C190.311 17.8836 190.653 17.9585 191.048 18.0384C191.186 18.0409 191.311 18.0634 191.423 18.1058L192.922 18.3755L194.357 18.8139C194.397 18.8388 194.454 18.8601 194.526 18.8776C195.483 19.1698 196.323 19.6944 197.045 20.4513C197.41 20.846 197.611 21.347 197.648 21.9541C197.646 22.5362 197.511 23.0634 197.244 23.5356C196.702 24.4476 196.032 25.2522 195.235 25.9493C194.463 26.6065 193.667 27.2349 192.848 27.8346C191.154 28.9441 189.358 29.9061 187.459 30.7208L185.968 31.373C185.945 31.7203 185.883 32.0426 185.78 32.34C185.466 33.1995 185.007 33.9553 184.405 34.6074C183.763 35.2346 183.015 35.6981 182.16 35.998C181.746 36.128 181.307 36.2292 180.845 36.3017C180.27 36.3317 179.728 36.1319 179.219 35.7022C178.996 35.4799 178.839 35.2426 178.746 34.9902C178.646 34.7054 178.586 34.4456 178.566 34.2107C178.576 33.6611 178.637 33.1851 178.75 32.7828C179.017 31.8659 179.484 31.0738 180.151 30.4067C179.981 31.3012 180.031 32.1106 180.301 32.8352C180.199 33.1325 180.129 33.4223 180.092 33.7046C180.047 33.9545 180.063 34.1731 180.14 34.3605C180.17 34.4904 180.209 34.5841 180.257 34.6415C180.304 34.699 180.348 34.7402 180.388 34.7652C180.5 34.8077 180.694 34.8314 180.969 34.8364C182.185 34.6239 183.171 34.0029 183.925 32.9735C184.183 32.6062 184.368 32.2214 184.48 31.8192C184.382 31.8417 184.269 31.8679 184.139 31.8979C184.009 31.9279 183.892 31.9379 183.787 31.9279C183.714 31.9104 183.645 31.9092 183.58 31.9242C183.548 31.9317 183.499 31.9429 183.434 31.9579C183.402 31.9654 183.349 31.9604 183.277 31.9429L183.011 31.9017L182.853 31.8868C182.781 31.8693 182.692 31.8556 182.587 31.8456C182.482 31.8356 182.305 31.8081 182.055 31.7632C181.878 31.7357 181.705 31.6558 181.538 31.5234C181.371 31.391 181.248 31.2311 181.171 31.0437C181.063 30.7264 181.077 30.4154 181.212 30.1105C181.379 29.7982 181.565 29.5671 181.77 29.4172C182.205 29.0773 182.617 28.8624 183.007 28.7725C183.267 28.7125 183.498 28.6762 183.7 28.6637C183.895 28.6187 184.114 28.6025 184.356 28.6149C184.638 28.6524 184.919 28.7585 185.199 28.9334C185.479 29.1083 185.665 29.3219 185.758 29.5742C185.78 29.6716 185.819 29.7653 185.874 29.8553C185.889 29.9202 185.904 29.9852 185.919 30.0501C185.951 30.0426 185.984 30.0351 186.016 30.0276C186.399 29.9052 186.757 29.754 187.092 29.5741C188.926 28.7744 190.677 27.8398 192.346 26.7703C193.213 26.2281 193.996 25.6196 194.695 24.945C195.475 24.3203 196.046 23.607 196.408 22.8049C196.753 22.0753 196.639 21.4345 196.067 20.8824C195.454 20.3053 194.657 19.8907 193.676 19.6384C192.784 19.3312 191.825 19.1077 190.801 18.9678L189.991 18.7955C189.959 18.803 189.939 18.7905 189.932 18.7581C189.754 18.7306 189.553 18.6744 189.328 18.5895C189.136 18.497 188.968 18.3646 188.826 18.1923C188.651 18.0274 188.541 17.8475 188.496 17.6526C188.444 17.4253 188.46 17.1992 188.545 16.9743C188.637 16.7819 188.766 16.5983 188.931 16.4234C189.121 16.2085 189.289 16.0498 189.437 15.9474C190.278 15.4451 191.107 15.0315 191.921 14.7067C192.044 14.6442 192.182 14.578 192.337 14.508C193.339 14.1056 194.323 13.7758 195.29 13.5183C196.664 13.0985 198.082 12.7198 199.544 12.3824L199.768 10.6884L201.133 11.7077L201.054 12.0337C203.165 11.5463 205.297 11.2251 207.451 11.07C208.51 11.0649 209.591 11.2259 210.693 11.5531C209.289 11.3983 207.957 11.4834 206.698 11.8083C204.769 12.0484 202.847 12.3896 200.93 12.832C200.344 16.6621 199.927 20.4873 199.68 24.3074L199.358 30.6935C199.346 30.9358 199.333 31.1782 199.321 31.4205C199.241 32.26 199.276 33.0045 199.426 33.6541C199.471 33.849 199.532 34.0401 199.609 34.2275L199.894 34.5722C200.014 34.6472 200.147 34.7021 200.292 34.7371C200.469 34.7646 200.623 34.7633 200.753 34.7333ZM183.652 30.6762C183.749 30.6537 183.83 30.635 183.895 30.62C184.033 30.6224 184.179 30.5887 184.334 30.5187L184.626 30.4513C184.603 30.3538 184.568 30.2764 184.521 30.2189C184.498 30.1215 184.467 30.0603 184.427 30.0353C184.387 30.0103 184.351 30.0016 184.319 30.0091C184.311 29.9766 184.291 29.9641 184.259 29.9716C184.219 29.9466 184.15 29.9454 184.052 29.9679C184.02 29.9754 184.004 29.9791 184.004 29.9791C183.664 29.9891 183.384 30.0366 183.164 30.1216C182.872 30.1891 182.672 30.2865 182.565 30.414C182.54 30.4539 182.515 30.4939 182.49 30.5339C182.49 30.5339 182.474 30.5376 182.441 30.5451L183.131 30.6425L183.397 30.6837C183.429 30.6762 183.465 30.685 183.505 30.7099C183.538 30.7024 183.57 30.6949 183.603 30.6874C183.635 30.68 183.652 30.6762 183.652 30.6762ZM219.819 22.6341C220.439 22.3542 220.854 22.2242 221.064 22.2442C221.266 22.2317 221.301 22.3091 221.169 22.4765C221.061 22.604 220.86 22.7701 220.565 22.975C220.303 23.1724 219.984 23.3486 219.61 23.5036C217.881 24.3132 216.179 25.1678 214.506 26.0674C213.037 26.8171 211.548 27.5543 210.039 28.279C209.646 28.5064 209.203 28.6601 208.708 28.7401C208.643 28.7551 208.555 28.7413 208.442 28.6989C208.41 28.7064 208.357 28.7014 208.285 28.6839C208.277 28.6514 208.257 28.6389 208.225 28.6464C208.21 28.5815 208.182 28.5365 208.142 28.5115C208.095 28.454 208.064 28.3928 208.049 28.3279C207.986 28.2055 207.944 28.0955 207.921 27.9981C207.891 27.8682 207.881 27.7508 207.891 27.6458C207.896 27.371 207.905 27.1124 207.917 26.87C207.937 26.6602 207.941 26.4541 207.928 26.2517C207.948 26.0418 207.936 25.8394 207.891 25.6446C207.878 25.4422 207.825 25.2835 207.73 25.1686C207.635 25.0537 207.49 25.0187 207.295 25.0637C207.125 25.0687 206.93 25.1137 206.71 25.1987C206.336 25.3536 205.992 25.5698 205.68 25.8471C205.095 26.4268 204.622 27.1177 204.26 27.9197C204.135 28.1196 204.03 28.332 203.945 28.5569C203.668 29.134 203.325 29.7262 202.918 30.3334L202.484 30.8955C202.401 30.983 202.302 31.0742 202.188 31.1692C202.105 31.2566 201.99 31.3516 201.843 31.454C201.58 31.6514 201.276 31.7389 200.928 31.7164C200.599 31.6215 200.38 31.4154 200.272 31.0981L200.149 30.5622L200.141 30.3074L200.156 30.15C200.136 29.9151 200.149 29.6728 200.194 29.4229L200.253 28.1262L200.448 25.4129L200.957 20.0612L201.126 17.4566C201.158 17.0043 201.174 16.5559 201.174 16.1112L201.185 15.4928C201.17 15.4278 201.175 15.3754 201.2 15.3354C201.193 15.3029 201.185 15.2704 201.178 15.2379L201.249 15.3241C201.249 15.3241 201.253 15.3404 201.26 15.3729C201.26 15.3729 201.264 15.3891 201.272 15.4216C201.304 15.4141 201.32 15.4103 201.32 15.4103C201.368 15.4678 201.412 15.509 201.452 15.534C201.524 15.5515 201.576 15.5565 201.609 15.549C201.536 15.5315 201.46 15.4978 201.38 15.4478C201.325 15.3579 201.29 15.2804 201.275 15.2155L201.178 15.2379L201.167 15.1892L201.264 15.1667L201.41 15.133L201.313 15.1555L201.41 15.133L201.362 15.1442L201.41 15.133L201.459 15.1217C201.466 15.1542 201.47 15.1705 201.47 15.1705C201.47 15.1705 201.486 15.1667 201.519 15.1592C201.671 15.2267 201.811 15.3141 201.939 15.4215L202.703 16.066C202.541 18.3271 202.339 20.5633 202.097 22.7744C201.945 24.0411 201.812 25.3203 201.7 26.612C201.588 27.459 201.495 28.3185 201.423 29.1905L201.412 29.8088L201.378 30.3298L201.427 30.3185L201.798 29.925C201.955 29.7176 202.125 29.4902 202.307 29.2428C202.35 29.1304 202.396 29.0342 202.446 28.9543C202.646 28.6344 202.822 28.2859 202.974 27.9086C203.217 27.4764 203.459 27.0441 203.701 26.6119C204.153 25.7548 204.862 25.044 205.826 24.4792C206.071 24.3543 206.323 24.2618 206.583 24.2018C206.835 24.1094 207.148 24.0544 207.52 24.0369C207.722 24.0243 207.923 24.0805 208.123 24.2054C208.203 24.2554 208.287 24.3216 208.374 24.404C208.454 24.454 208.525 24.5402 208.588 24.6626C208.73 24.835 208.804 25.0061 208.809 25.176L208.925 25.4571L208.922 25.6632C208.939 26.0355 208.933 26.379 208.903 26.6938C208.9 26.8312 208.898 26.9686 208.895 27.1061C208.843 27.3234 208.836 27.5133 208.873 27.6757C208.881 27.7082 208.868 27.7282 208.836 27.7357C208.836 27.7357 208.839 27.7519 208.847 27.7844C208.944 27.7619 209.038 27.7232 209.128 27.6682C209.51 27.5457 209.901 27.387 210.301 27.1921C211.662 26.5699 213.033 25.9114 214.412 25.2167C216.183 24.2946 217.986 23.4337 219.819 22.6341ZM201.459 15.1217L201.496 15.0618L201.643 15.028C201.618 15.068 201.589 15.0918 201.556 15.0993C201.524 15.1067 201.491 15.1142 201.459 15.1217L201.41 15.133L201.459 15.1217L201.41 15.133L201.459 15.1217ZM234.81 19.0706C235.764 18.6108 236.166 18.5009 236.017 18.7407C235.892 18.9406 235.497 19.3054 234.832 19.8352C233.766 20.2525 232.295 21.0709 230.422 22.2903C228.868 23.2648 227.238 24.2056 225.531 25.1127C223.825 26.0198 222.237 26.6258 220.768 26.9308C219.292 27.2033 218.109 26.8948 217.219 26.0055C216.579 25.161 216.338 24.1904 216.495 23.0936C216.793 21.4171 217.624 20.1303 218.991 19.2333C219.228 19.0758 219.526 18.9559 219.883 18.8734C220.265 18.751 220.637 18.7334 221 18.8208C221.355 18.8758 221.593 19.0944 221.716 19.4766C221.768 19.704 221.763 19.9788 221.701 20.3011C221.521 20.8558 221.171 21.4155 220.651 21.9801C219.867 22.8797 218.96 23.6193 217.931 24.199C218.066 25.2284 218.776 25.7829 220.06 25.8628C221.386 25.8302 222.959 25.3816 224.778 24.5169C226.622 23.6123 228.553 22.5678 230.571 21.3833C231.993 20.5762 233.406 19.8053 234.81 19.0706ZM220.187 20.1888C219.277 20.3988 218.593 21.1384 218.133 22.4076C219.115 21.7704 219.908 21.057 220.513 20.2675L220.187 20.1888ZM247.88 15.6427L247.659 16.4635C246.072 17.0008 244.29 17.6518 242.311 18.4165C240.365 19.1737 238.661 19.9434 237.199 20.7256C236.897 20.898 236.595 21.0704 236.292 21.2428C236.08 21.3603 235.868 21.4777 235.655 21.5952C235.708 21.8225 235.752 22.0861 235.787 22.3859C235.749 23.113 235.447 23.7301 234.88 24.2373C234.338 24.7046 233.748 25.1144 233.111 25.4667C232.024 26.0939 230.853 26.5013 229.596 26.6888L228.805 26.82L228.723 26.018C228.7 25.4759 228.886 25.0224 229.281 24.6576C229.636 24.2678 230.054 23.9317 230.536 23.6494C230.569 23.6419 230.614 23.6144 230.671 23.5669L232.732 22.27L234.033 21.4566C234.025 21.4242 234.005 21.4117 233.973 21.4192C233.965 21.3867 233.941 21.358 233.901 21.333C233.199 20.8109 232.442 20.4212 231.63 20.1639C231.148 20.0016 230.654 19.7905 230.15 19.5307C229.965 19.4708 229.797 19.3384 229.648 19.1335C229.458 18.9037 229.336 18.6751 229.284 18.4477C229.294 17.8981 229.517 17.3846 229.955 16.9074C230.392 16.4301 230.934 16.1852 231.581 16.1727C232.106 16.2226 232.477 16.4961 232.694 16.9933C232.937 17.4505 232.997 17.9327 232.874 18.4399C232.839 18.5848 232.801 18.7135 232.758 18.8259C232.716 18.9383 232.686 19.0308 232.668 19.1032C233.365 19.4555 234.061 19.8764 234.756 20.366L235.112 20.797L236.986 19.7999C238.552 19.0277 240.345 18.2718 242.363 17.5321C244.414 16.7848 246.253 16.1551 247.88 15.6427ZM234.561 22.4123L234.527 22.2661L233.141 23.1507L231.188 24.4738L230.218 25.1597L229.933 25.482C230.453 25.362 231.087 25.1471 231.837 24.8372C232.546 24.5024 233.18 24.1338 233.737 23.7315C234.286 23.2967 234.561 22.857 234.561 22.4123ZM230.791 18.3052C230.918 18.4126 231.09 18.4925 231.308 18.545L231.345 18.485C231.405 18.3001 231.436 18.139 231.439 18.0016C231.431 17.9691 231.424 17.9366 231.416 17.9041C231.409 17.8716 231.418 17.8354 231.443 17.7954L231.398 17.6006C231.398 17.6006 231.365 17.6081 231.3 17.6231C231.268 17.6305 231.223 17.658 231.165 17.7055C231.043 17.768 230.919 17.8992 230.794 18.0991L230.682 18.2789L230.791 18.3052Z" fill="white"/>
</svg>
