<svg width="231" height="82" viewBox="0 0 231 82" fill="none" xmlns="http://www.w3.org/2000/svg">
<path d="M35.8582 46.077L36.0015 43.17C36.2002 43.946 36.3597 44.73 36.48 45.5219C36.5597 45.9138 36.6434 46.3254 36.7312 46.7566C37.1009 51.7838 36.7135 56.8018 35.5691 61.8105C35.0125 64.2912 33.9689 66.5853 32.4384 68.6928C30.751 70.8322 28.5863 72.1298 25.9441 72.5857C23.2701 72.8848 20.7269 72.4226 18.3145 71.199C15.9885 69.9986 14.0335 68.3146 12.4495 66.1468C10.7865 63.7911 9.51504 61.2536 8.63526 58.5344C8.35846 62.5911 8.22683 66.659 8.24036 70.7382C8.27443 73.9152 8.21849 77.1513 8.07253 80.4465L7.71185 81.6833L7.27129 80.1197C7.35939 75.9382 7.35749 71.8158 7.26556 67.7526C7.18891 63.5638 7.17767 58.9943 7.23185 54.0441L6.69559 52.0102L8.35281 51.4281L8.37673 51.5457L8.43553 51.5337L8.47142 51.7101L9.33653 53.5547C9.28936 53.5234 9.24617 53.5118 9.20698 53.5198C9.11263 53.4573 9.00268 53.4185 8.87711 53.4032C9.84867 57.7773 11.4975 61.7687 13.8237 65.3774C15.2582 67.4123 17.0637 68.9635 19.2402 70.031C21.4327 71.1769 23.7208 71.589 26.1045 71.2673C28.4563 70.7888 30.3507 69.5666 31.7876 67.6006C33.1381 65.6114 34.0956 63.3961 34.6602 60.9545C35.7893 56.0713 36.1886 51.1122 35.8582 46.077ZM64.5799 52.3569C65.6063 51.9848 65.9282 52.0621 65.5456 52.589C63.9179 53.8182 61.7678 54.7863 59.0951 55.4933C56.4144 56.1612 53.9868 56.2673 51.8123 55.8117C51.5532 55.7419 51.3254 55.625 51.1287 55.4609C50.932 55.2968 50.7433 55.1719 50.5626 55.0862C50.3819 55.0006 50.182 55.0208 49.9627 55.1471L49.3289 55.6434L46.6643 57.5938L44.0465 59.4734C44.0073 59.4814 43.9721 59.509 43.9409 59.5562C43.5655 59.9183 43.0526 60.2063 42.4022 60.4203C42.0495 60.492 41.6768 60.4658 41.2841 60.3416C40.8915 60.2174 40.5649 59.9164 40.3045 59.4388C40.2247 59.0468 40.2197 58.7213 40.2894 58.4622C40.312 58.1718 40.3661 57.9363 40.4518 57.7556C40.491 57.7476 40.5066 57.724 40.4987 57.6848C40.6541 57.245 40.8527 56.8168 41.0945 56.4003C41.0945 56.4003 41.1101 56.3767 41.1414 56.3295C41.7034 55.4804 42.3757 54.7722 43.1582 54.2047C44.8251 52.9676 46.7138 52.4201 48.8245 52.5621C48.4027 53.0969 48.036 53.7022 47.7244 54.3779C46.2575 54.3906 44.9491 54.8813 43.7991 55.85C43.2358 56.2912 42.7707 56.8144 42.4041 57.4197C42.2167 57.7027 42.057 58.0209 41.9248 58.3744C41.8079 58.6023 41.7614 58.775 41.7853 58.8926L41.8441 58.8806C41.8913 58.9118 41.9384 58.9431 41.9856 58.9743C42.0248 58.9663 42.06 58.9387 42.0912 58.8916C42.2952 58.8909 42.5576 58.7763 42.8785 58.5477C42.9801 58.4454 43.1053 58.3587 43.2542 58.2876L48.725 54.4805L49.1126 54.2791L49.5351 53.9483C50.0912 53.6718 50.6207 53.6662 51.1236 53.9312C51.4618 54.189 51.682 54.3687 51.7844 54.4703C51.8315 54.5015 51.8787 54.5328 51.9259 54.564L52.4092 54.833C54.0974 55.3059 56.121 55.2208 58.4802 54.5775C60.8313 53.8951 62.8645 53.1549 64.5799 52.3569ZM87.2265 47.0758C87.7759 47.1681 88.141 47.2572 88.3217 47.3428C88.4945 47.3893 88.526 47.4441 88.4164 47.5073C88.3068 47.5704 88.0952 47.6338 87.7816 47.6976C87.6328 47.7687 87.4604 47.8242 87.2644 47.8641C85.0607 48.0675 83.0305 48.5214 81.1736 49.2257C79.356 49.9221 77.3673 51.0819 75.2075 52.705C74.8554 52.9808 74.3469 53.3904 73.6819 53.9339C72.407 55.0913 70.9674 56.2414 69.363 57.3842C67.7587 58.527 66.4815 58.9705 65.5314 58.7148C64.7461 58.4664 64.3036 57.4951 64.2038 55.801C64.2031 55.597 64.2174 55.1655 64.2466 54.5065C64.2366 53.8554 64.2462 53.2003 64.2754 52.5413C64.2654 51.8902 64.2756 51.4391 64.3062 51.188C64.8723 51.5626 65.4655 51.8705 66.0861 52.1117C66.0868 52.3156 66.0685 52.7275 66.0313 53.3474C66.0334 53.9593 66.0394 54.5907 66.0494 55.2418C66.0514 55.8537 66.0528 56.2616 66.0535 56.4656C66.1498 57.1399 66.5465 57.2837 67.2434 56.897C67.9323 56.4711 68.8869 55.7462 70.1073 54.7224C71.3981 53.6434 72.9201 52.4969 74.6733 51.283C76.4577 50.0219 78.4271 48.9681 80.5816 48.1216C82.7208 47.4006 84.9358 47.0521 87.2265 47.0758ZM93.9227 48.53C94.2908 48.3327 94.7488 48.0762 95.2969 47.7606C96.3619 47.1766 97.5444 46.5686 98.8445 45.9367C100.176 45.2577 101.32 44.7596 102.276 44.4427C103.224 44.0865 103.683 44.136 103.653 44.5911C101.522 45.5552 99.3923 46.7233 97.2631 48.0953C96.167 48.7265 95.1256 49.3262 94.1391 49.8943C93.3717 50.3361 92.5649 50.684 91.7185 50.9378C91.2953 51.0647 90.825 51.1604 90.3074 51.2249C89.8211 51.2422 89.3109 51.1419 88.7767 50.924C88.2266 50.6278 87.8329 50.1976 87.5957 49.6336C87.4057 49.1008 87.3216 48.5872 87.3435 48.0929C87.3089 47.1203 87.5058 46.1822 87.9343 45.2786C88.3595 45.7636 88.8356 46.1974 89.3624 46.5801C89.0901 47.2478 88.9785 47.9032 89.0277 48.5463C89.0995 48.899 89.1709 49.1498 89.242 49.2986C89.2892 49.3299 89.3167 49.3651 89.3247 49.4043C89.4583 49.4587 89.6154 49.5288 89.7961 49.6145C90.3455 49.7068 90.9846 49.638 91.7134 49.4081C92.4814 49.1702 93.2179 48.8775 93.9227 48.53ZM92.1331 34.0154L92.5576 34.2964L92.3593 34.8266C91.6936 35.1661 91.0243 35.588 90.3514 36.0923C89.6784 36.5966 89.1037 37.183 88.6274 37.8513C88.3617 38.1503 88.0564 38.3553 87.7116 38.4663C87.3668 38.5772 86.9317 38.6454 86.4062 38.6706C86.3504 38.3963 86.3497 38.1923 86.4042 38.0588C86.4354 38.0116 86.447 37.9684 86.439 37.9292C86.4935 37.7957 86.5676 37.6581 86.6612 37.5166C87.1535 36.9266 87.7793 36.3911 88.5386 35.9101C88.7107 35.7526 88.8867 35.6148 89.0668 35.4965C90.0453 34.8892 91.0674 34.3955 92.1331 34.0154ZM129.437 38.9778C131.068 38.5645 131.773 38.5229 131.555 38.8531C131.368 39.1361 130.447 39.5275 128.794 40.0272C123.59 41.7389 118.6 43.8971 113.824 46.5017L113.584 48.6323C113.292 50.4062 112.717 52.0947 111.859 53.6978C110.915 55.2778 109.645 56.5567 108.047 57.5348C106.803 58.2371 105.478 58.6494 104.074 58.7717C103.047 58.7359 102.367 58.4048 102.035 57.7783C101.704 57.1518 101.541 56.5522 101.547 55.9796C101.669 54.975 102.09 54.0323 102.808 53.1513C103.816 51.8849 104.911 50.8458 106.093 50.0339C108.073 48.529 110.151 47.2081 112.328 46.0712C112.39 45.7729 112.404 45.4434 112.372 45.0827C112.355 44.8003 112.346 44.5572 112.346 44.3532C112.353 44.1884 112.353 44.0865 112.345 44.0473C112.337 44.0081 112.313 43.9925 112.274 44.0004C112.266 43.9612 112.238 43.926 112.191 43.8948L112.015 43.9307C111.317 44.1134 110.561 44.4101 109.747 44.8207C109.152 45.1051 108.58 45.4051 108.032 45.7207C107.844 45.7998 107.66 45.8985 107.48 46.0167L105.119 47.3542L104.508 47.6622L104.226 47.7808C104.148 47.7968 104.089 47.8087 104.05 47.8167C103.979 47.8718 103.885 47.9114 103.768 47.9353C103.392 48.0934 103.039 48.1652 102.709 48.1506C102.341 48.144 102.026 48.0038 101.767 47.7301C101.704 47.6205 101.684 47.5225 101.707 47.4362C101.699 47.397 101.687 47.3382 101.671 47.2598L101.563 46.7306C101.547 46.6522 101.551 46.5698 101.574 46.4835C101.59 46.3579 101.609 46.2519 101.632 46.1656L101.772 45.6473L102.052 44.9169L102.532 44.2681C103.227 43.4735 104.002 42.8669 104.856 42.4483C106.61 41.6423 108.385 41.1382 110.181 40.9362C109.54 41.5973 108.954 42.3288 108.423 43.1307C106.895 43.4417 105.524 44.0267 104.311 44.8858C104.037 45.1456 103.822 45.3934 103.666 45.6293L103.456 46.1007L103.374 46.301L103.492 46.2771C104.236 45.9216 104.991 45.5229 105.759 45.0811C106.456 44.6944 107.156 44.3273 107.861 43.9798C108.629 43.5379 109.412 43.1745 110.211 42.8894C110.618 42.6841 111.057 42.5336 111.528 42.4379C111.841 42.3741 112.186 42.3651 112.563 42.4109C112.971 42.4096 113.289 42.5693 113.518 42.8902C113.746 43.2111 113.865 43.5951 113.874 44.0422L113.9 44.7717C113.862 44.9836 113.855 45.1484 113.879 45.2659C118.82 42.6686 124.006 40.5726 129.437 38.9778ZM112.215 47.6249C112.207 47.5857 112.199 47.5465 112.192 47.5073C112.223 47.4601 112.23 47.3973 112.214 47.3189C110.241 48.4551 108.375 49.7125 106.614 51.0912C105.519 51.9264 104.549 52.8788 103.705 53.9485C103.323 54.4753 103.03 55.045 102.828 55.6576C102.651 56.5917 102.865 57.1401 103.469 57.3028C104.066 57.4264 104.787 57.3612 105.634 57.1074C106.441 56.8615 107.075 56.5692 107.537 56.2303C108.977 55.2842 110.091 54.0371 110.878 52.4891C111.587 50.957 112.033 49.3356 112.215 47.6249ZM167.932 14.5527C168.144 14.5913 168.352 14.6102 168.556 14.6095C168.925 14.6161 169.302 14.6619 169.686 14.747C169.773 14.7702 169.859 14.7935 169.946 14.8167C170.448 14.8778 170.986 15.0133 171.559 15.2232C170.876 15.0764 170.256 15.0392 169.699 15.1117C169.543 15.1436 169.382 15.1559 169.217 15.1486C168.731 15.1659 168.252 15.2224 167.782 15.3181C167.539 15.3267 167.3 15.355 167.065 15.4028C163.983 15.7033 160.929 16.141 157.902 16.7158C157.133 21.1585 156.536 25.6476 156.111 30.1833C155.892 32.7178 155.697 35.268 155.525 37.8338C155.51 37.9594 155.494 38.0849 155.479 38.2105C155.279 39.4349 155.271 40.4979 155.454 41.3994C155.502 41.6346 155.57 41.8658 155.657 42.093L155.988 42.5155C156.129 42.6092 156.306 42.6753 156.518 42.7138C156.73 42.7523 156.914 42.7556 157.071 42.7237C157.204 42.7782 157.33 42.7935 157.448 42.7696C157.565 42.7456 157.675 42.6825 157.776 42.5802C157.808 42.737 157.746 42.9333 157.59 43.1692C157.426 43.3658 157.187 43.4961 156.874 43.5599C156.23 43.6091 155.677 43.3952 155.212 42.9182C154.818 42.3861 154.557 41.8064 154.43 41.1793C154.356 40.2146 154.365 39.2536 154.456 38.2963C154.47 37.9667 154.481 37.6176 154.487 37.2489C154.573 34.6598 154.698 32.0628 154.862 29.4579C155.044 25.3388 155.446 21.1955 156.068 17.0279L154.186 17.4107C152.03 17.8493 149.922 18.4211 147.861 19.1261C147.36 19.269 146.866 19.451 146.381 19.6723C145.895 19.8935 145.496 20.1381 145.183 20.4058C145.12 20.5002 145.101 20.6061 145.125 20.7237C145.141 20.8021 145.196 20.8725 145.29 20.935C145.44 21.0678 145.621 21.1535 145.832 21.1921L147.387 21.6105C148.424 21.8895 149.441 22.2744 150.439 22.7653C151.468 23.2091 152.38 23.8807 153.175 24.7802C153.947 25.766 154.116 26.8951 153.681 28.1674C153.253 29.2749 152.632 30.238 151.819 31.0565C150.256 32.5992 148.511 33.9543 146.585 35.1217C145.637 35.6818 144.662 36.2067 143.66 36.6964C143.174 36.9177 142.665 37.1234 142.132 37.3134C142.093 37.3214 142.054 37.3293 142.015 37.3373C141.835 37.4556 141.588 37.5466 141.274 37.6104C141.125 37.6815 140.929 37.7214 140.686 37.73C140.474 37.6915 140.274 37.6098 140.085 37.4849L139.861 37.2856L139.802 37.2976C139.794 37.2584 139.771 37.2428 139.732 37.2508C139.732 37.2508 139.712 37.2547 139.673 37.2627C139.665 37.2235 139.641 37.2079 139.602 37.2159C139.602 37.2159 139.586 37.2395 139.555 37.2866C139.516 37.2946 139.481 37.3222 139.45 37.3694L135.752 39.9586L133.227 41.6967C132.86 42.098 132.324 42.3705 131.618 42.514C131.218 42.5546 130.818 42.4931 130.417 42.3297C130.244 42.2832 130.079 42.1739 129.922 42.0019C129.717 41.7986 129.575 41.603 129.496 41.4149C129.417 41.2269 129.377 41.0309 129.377 40.827C129.376 40.623 129.403 40.4543 129.457 40.3207C129.511 39.9832 129.601 39.7201 129.725 39.5315C129.873 39.0524 130.087 38.6007 130.368 38.1761C130.93 37.327 131.622 36.6148 132.444 36.0394C134.111 34.8023 136.027 34.2899 138.193 34.5024C137.316 35.0073 136.624 35.6176 136.116 36.3332C134.901 36.5804 133.773 37.1568 132.733 38.0624C132.287 38.4796 131.897 38.9673 131.561 39.5254L131.187 40.3974C131.125 40.4917 131.082 40.5821 131.059 40.6684C131.075 40.7468 131.083 40.786 131.083 40.786L131.142 40.7741C131.142 40.7741 131.146 40.7937 131.154 40.8329C131.193 40.8249 131.236 40.8365 131.283 40.8677C131.322 40.8598 131.342 40.8558 131.342 40.8558C131.577 40.8079 131.91 40.6382 132.34 40.3465L134.806 38.6203L137.283 36.9529L138.575 36.0779C138.606 36.0307 138.641 36.0032 138.68 35.9952C138.751 35.94 138.825 35.9045 138.903 35.8885C138.974 35.8334 139.044 35.7782 139.115 35.7231C139.35 35.6752 139.589 35.647 139.832 35.6383C140.091 35.7081 140.335 35.8014 140.563 35.9183L140.846 36.1057L140.858 36.1645L140.975 36.1405C141.054 36.1246 141.152 36.1046 141.269 36.0807C141.418 36.0096 141.547 35.9425 141.657 35.8794C142.111 35.7053 142.601 35.5036 143.126 35.2744C144.097 34.8319 145.037 34.3345 145.945 33.7824C147.848 32.7014 149.526 31.421 150.98 29.9414C151.762 29.17 152.273 28.3721 152.514 27.5476C152.785 26.676 152.614 25.9352 152 25.3254C151.371 24.6371 150.565 24.0867 149.583 23.6742C149.127 23.4404 148.64 23.2537 148.122 23.1143C147.635 22.9276 147.132 22.7645 146.614 22.625L145.766 22.369C145.679 22.3457 145.593 22.3225 145.507 22.2992C145.334 22.2527 145.138 22.1906 144.918 22.1129C144.737 22.0272 144.572 21.9179 144.422 21.7851C144.084 21.5273 143.887 21.1593 143.83 20.6809C143.86 20.2259 144.067 19.8369 144.45 19.514C144.56 19.4508 144.669 19.3877 144.779 19.3246C144.889 19.2615 144.994 19.1787 145.096 19.0764L145.648 18.7804L146.494 18.4246L148.104 17.9133C150.307 17.3019 152.486 16.777 154.642 16.3383L156.229 16.0154L156.587 13.8608L158.25 15.1144C158.164 15.2951 158.122 15.4874 158.123 15.6914C161.313 15.1238 164.583 14.7443 167.932 14.5527ZM167.589 33.5424C167.957 33.345 168.415 33.0886 168.964 32.773C170.028 32.1889 171.211 31.581 172.511 30.9491C173.842 30.27 174.986 29.772 175.942 29.455C176.89 29.0989 177.349 29.1484 177.319 29.6034C175.189 30.5676 173.059 31.7356 170.93 33.1077C169.834 33.7389 168.792 34.3385 167.806 34.9066C167.038 35.3485 166.232 35.6963 165.385 35.9502C164.962 36.0771 164.492 36.1728 163.974 36.2373C163.488 36.2546 162.977 36.1543 162.443 35.9364C161.893 35.6401 161.5 35.21 161.262 34.6459C161.072 34.1131 160.988 33.5996 161.01 33.1053C160.976 32.1327 161.172 31.1946 161.601 30.291C162.026 30.776 162.502 31.2098 163.029 31.5924C162.757 32.2601 162.645 32.9155 162.694 33.5586C162.766 33.9114 162.838 34.1622 162.909 34.311C162.956 34.3422 162.983 34.3774 162.991 34.4166C163.125 34.4711 163.282 34.5412 163.463 34.6269C164.012 34.7192 164.651 34.6504 165.38 34.4205C166.148 34.1826 166.884 33.8899 167.589 33.5424ZM165.8 19.0278L166.224 19.3088L166.026 19.839C165.36 20.1785 164.691 20.6004 164.018 21.1047C163.345 21.609 162.77 22.1953 162.294 22.8637C162.028 23.1627 161.723 23.3677 161.378 23.4786C161.033 23.5896 160.598 23.6577 160.073 23.683C160.017 23.4086 160.016 23.2047 160.071 23.0711C160.102 23.0239 160.114 22.9808 160.106 22.9416C160.16 22.808 160.234 22.6705 160.328 22.529C160.82 21.939 161.446 21.4035 162.205 20.9224C162.377 20.765 162.553 20.6271 162.733 20.5088C163.712 19.9016 164.734 19.4079 165.8 19.0278ZM197.636 25.1026L198.94 24.5923L198.615 25.6995C197.118 26.3713 195.462 27.0553 193.644 27.7517C191.818 28.4089 190.086 28.9245 188.448 29.2986C186.919 29.6097 185.406 29.7951 183.908 29.855L183.791 30.1848C183.426 31.198 182.887 32.0627 182.176 32.779C181.394 33.5503 180.509 34.1181 179.522 34.4822C179.029 34.6643 178.495 34.7523 177.923 34.7464C177.601 34.771 177.287 34.7328 176.981 34.6318C176.628 34.4997 176.321 34.2967 176.061 34.023C175.612 33.4205 175.367 32.8172 175.326 32.2133C175.284 31.6094 175.357 31.064 175.544 30.577C175.893 29.4854 176.478 28.55 177.3 27.7706C177.652 27.4949 177.891 27.5686 178.018 27.9918C178.145 28.415 178.092 29.0584 177.86 29.9221C177.415 30.5433 177.162 31.207 177.101 31.9133C177.048 32.2508 177.084 32.5291 177.21 32.7484C177.265 32.8188 177.32 32.8892 177.376 32.9596C177.423 32.9908 177.509 33.0141 177.635 33.0294C177.894 33.0991 178.2 33.0981 178.552 33.0263C178.905 32.9545 179.25 32.8436 179.587 32.6934C180.292 32.3459 180.89 31.8772 181.383 31.2872C181.82 30.8307 182.164 30.3118 182.413 29.7305C181.958 29.7006 181.534 29.6236 181.141 29.4994L179.987 29.2443C179.744 29.253 179.489 29.2028 179.222 29.0939C178.947 28.9458 178.781 28.7345 178.726 28.4601C178.662 28.1466 178.7 27.8326 178.84 27.5184C178.98 27.2041 179.156 26.9643 179.367 26.7989C179.868 26.452 180.354 26.2308 180.824 26.1351C181.099 26.0792 181.357 26.047 181.6 26.0384C181.836 25.9905 182.094 25.9583 182.377 25.9416C182.706 25.9562 182.997 26.0808 183.249 26.3153C183.532 26.5026 183.744 26.7451 183.887 27.0427C184.124 27.6068 184.196 28.1635 184.104 28.7129C185.563 28.661 187.018 28.4875 188.468 28.1925C191.604 27.5545 194.66 26.5245 197.636 25.1026ZM181.514 28.3214C181.6 28.3447 181.687 28.3679 181.773 28.3912C182.032 28.4609 182.33 28.5227 182.668 28.5765C182.652 28.4981 182.64 28.4393 182.632 28.4001C182.624 28.3609 182.636 28.3177 182.667 28.2706C182.682 27.941 182.63 27.6862 182.511 27.5062C182.464 27.475 182.441 27.4594 182.441 27.4594C182.433 27.4202 182.409 27.4046 182.37 27.4125C182.362 27.3733 182.338 27.3577 182.299 27.3657C182.252 27.3345 182.189 27.3269 182.111 27.3428C181.742 27.3362 181.366 27.3923 180.982 27.5113C180.629 27.5831 180.367 27.6977 180.194 27.8551C180.163 27.9023 180.128 27.9299 180.089 27.9379C180.097 27.9771 180.081 28.0006 180.042 28.0086L180.23 28.0315C180.356 28.0468 180.529 28.0933 180.749 28.171C180.961 28.2095 181.153 28.252 181.326 28.2985C181.404 28.2826 181.467 28.2902 181.514 28.3214ZM225.516 19.4917C226.119 19.2465 226.468 19.1551 226.562 19.2176C226.695 19.272 226.661 19.4016 226.457 19.6062C226.254 19.8109 225.957 20.055 225.565 20.3387C224.759 20.7886 223.639 21.3022 222.205 21.8796C220.763 22.4178 219.302 22.96 217.821 23.5062C216.184 24.0843 214.895 24.571 213.955 24.9664C213.728 25.0534 213.54 25.1325 213.391 25.2036C213.281 25.2667 213.152 25.3338 213.003 25.4049C212.886 25.4289 212.709 25.4647 212.474 25.5126C212.474 25.5126 212.454 25.5166 212.415 25.5246C212.251 25.5173 212.066 25.514 211.862 25.5146C211.689 25.4681 211.544 25.3549 211.426 25.1748C211.347 24.9868 211.307 24.7908 211.306 24.5869C211.297 24.3437 211.316 24.1358 211.363 23.963C211.355 23.9238 211.351 23.9042 211.351 23.9042C211.405 23.5667 211.408 23.2804 211.36 23.0452C211.343 22.7629 211.244 22.5788 211.064 22.4931C210.836 22.3762 210.561 22.3301 210.24 22.3547C209.996 22.3633 209.726 22.4388 209.428 22.5809C208.23 23.1105 207.099 23.7693 206.034 24.5573C204.915 25.2749 203.827 26.0473 202.771 26.8745L201.174 28.0565C200.642 28.4505 200.105 28.6209 199.564 28.5678C199.266 28.506 199.034 28.3695 198.868 28.1582C198.656 27.9158 198.537 27.6338 198.513 27.3122C198.409 26.8026 198.396 26.4379 198.474 26.218C198.497 26.1316 198.501 26.0492 198.485 25.9709C198.477 25.9317 198.488 25.8885 198.519 25.8413C198.519 25.6373 198.545 25.3666 198.599 25.0291C198.645 24.6524 198.718 24.3109 198.819 24.0046C198.912 23.6592 199.006 23.4157 199.099 23.2742C199.382 23.2575 199.668 23.3625 199.959 23.589C200.101 23.6827 200.184 23.7883 200.207 23.9059C200.271 24.0155 200.314 24.1291 200.338 24.2467C200.37 24.4035 200.378 24.5447 200.363 24.6702C200.379 24.7486 200.379 24.8506 200.364 24.9762C200.364 24.9762 200.368 24.9958 200.376 25.035L200.227 26.1063L200.193 26.5418C200.201 26.581 200.189 26.6242 200.158 26.6713C200.166 26.7105 200.17 26.7301 200.17 26.7301L202.471 25.0986C202.831 24.8621 203.21 24.6216 203.61 24.3771C204.322 23.8648 205.081 23.3838 205.888 22.9339C206.428 22.5791 207.011 22.236 207.638 21.9044C207.716 21.8884 207.79 21.8529 207.861 21.7978C208.331 21.4981 208.957 21.2685 209.741 21.109C209.976 21.0612 210.18 21.0605 210.353 21.107C210.392 21.099 210.432 21.091 210.471 21.0831C210.667 21.0432 210.875 21.0621 211.095 21.1398L211.483 21.2445L211.908 21.5255C212.191 21.7128 212.384 21.9593 212.487 22.2649C212.59 22.5705 212.642 22.8252 212.642 23.0292C212.643 23.2332 212.64 23.4175 212.632 23.5823C212.601 23.6295 212.59 23.6726 212.598 23.7118L212.482 24.3476L212.776 24.2878C213.003 24.2008 213.211 24.1177 213.399 24.0387C213.579 23.9204 213.782 23.8177 214.01 23.7307C214.848 23.4376 215.972 23.0456 217.383 22.5546C218.911 22.0396 220.435 21.505 221.955 20.9508C223.514 20.3887 224.701 19.9023 225.516 19.4917Z" fill="white"/>
</svg>
