<svg width="689" height="278" viewBox="0 0 689 278" fill="none" xmlns="http://www.w3.org/2000/svg">
<g opacity="0.3" filter="url(#filter0_i_502_3)">
<path d="M236.799 49.4556H237.893V48.3612H236.799V49.4556ZM236.799 218V219.094H237.893V218H236.799ZM213.202 218H212.108V219.094H213.202V218ZM213.202 154.435H214.297V153.34H213.202V154.435ZM89.9242 154.435H88.8297V155.529H89.9242V154.435ZM89.9242 49.4556V48.3612H88.8297V49.4556H89.9242ZM113.52 49.4556H114.615V48.3612H113.52V49.4556ZM113.52 132.765H112.426V133.859H113.52V132.765ZM213.202 132.765V133.859H214.297V132.765H213.202ZM213.202 49.4556V48.3612H212.108V49.4556H213.202ZM235.704 49.4556V218H237.893V49.4556H235.704ZM236.799 216.906H213.202V219.094H236.799V216.906ZM214.297 218V154.435H212.108V218H214.297ZM213.202 153.34H89.9242V155.529H213.202V153.34ZM91.0186 154.435V49.4556H88.8297V154.435H91.0186ZM89.9242 50.5501H113.52V48.3612H89.9242V50.5501ZM112.426 49.4556V132.765H114.615V49.4556H112.426ZM113.52 133.859H213.202V131.67H113.52V133.859ZM214.297 132.765V49.4556H212.108V132.765H214.297ZM213.202 50.5501H236.799V48.3612H213.202V50.5501ZM432.792 131.079L431.697 131.098L431.697 131.104L432.792 131.079ZM428.217 169.844L427.167 169.534L428.217 169.844ZM412.807 198.979L411.977 198.265L411.976 198.266L412.807 198.979ZM386.803 217.278L387.21 218.294L387.217 218.291L386.803 217.278ZM286.88 201.627L287.68 200.88L286.88 201.627ZM265.21 136.376H264.116V136.392L264.116 136.407L265.21 136.376ZM269.785 97.3704L268.728 97.0875L269.785 97.3704ZM284.473 68.4771L285.304 69.1893L285.311 69.181L284.473 68.4771ZM310.477 50.178L310.081 49.1576L310.075 49.1597L310.477 50.178ZM412.325 66.3101L411.505 67.0339L411.508 67.0383L412.325 66.3101ZM304.457 186.217L303.621 186.924L303.627 186.93L303.632 186.936L304.457 186.217ZM394.026 185.736L393.164 185.062L393.162 185.064L394.026 185.736ZM394.026 81.9606L393.158 82.6268L393.163 82.6334L393.168 82.6399L394.026 81.9606ZM304.457 81.2383L303.626 80.526L304.457 81.2383ZM431.697 131.104C432.016 145.461 430.5 158.266 427.167 169.534L429.266 170.155C432.675 158.629 434.209 145.591 433.886 131.055L431.697 131.104ZM427.167 169.534C423.835 180.801 418.767 190.37 411.977 198.265L413.637 199.692C420.652 191.535 425.857 181.682 429.266 170.155L427.167 169.534ZM411.976 198.266C405.359 205.986 396.839 211.989 386.389 216.265L387.217 218.291C397.955 213.898 406.772 207.701 413.638 199.691L411.976 198.266ZM386.397 216.262C376.122 220.371 363.906 222.443 349.723 222.443V224.632C364.112 224.632 376.617 222.531 387.21 218.294L386.397 216.262ZM349.723 222.443C321.647 222.443 301.044 215.187 287.68 200.88L286.081 202.374C300.005 217.282 321.297 224.632 349.723 224.632V222.443ZM287.68 200.88C274.285 186.539 267.103 165.09 266.304 136.346L264.116 136.407C264.923 165.45 272.188 187.501 286.081 202.374L287.68 200.88ZM266.305 136.376C266.305 121.843 267.822 108.939 270.842 97.6533L268.728 97.0875C265.648 108.595 264.116 121.695 264.116 136.376H266.305ZM270.842 97.6533C273.856 86.3927 278.682 76.9141 285.303 69.1893L283.642 67.7648C276.779 75.7708 271.814 85.5544 268.728 97.0875L270.842 97.6533ZM285.311 69.181C291.925 61.3064 300.438 55.3089 310.878 51.1962L310.075 49.1597C299.327 53.394 290.503 59.5958 283.635 67.7731L285.311 69.181ZM310.872 51.1983C321.466 47.0872 334.406 45.0122 349.723 45.0122V42.8233C334.221 42.8233 320.996 44.9218 310.081 49.1576L310.872 51.1983ZM349.723 45.0122C378.122 45.0122 398.627 52.4293 411.505 67.0339L413.146 65.5862C399.698 50.3344 378.469 42.8233 349.723 42.8233V45.0122ZM411.508 67.0383C424.434 81.54 431.218 102.836 431.697 131.098L433.886 131.061C433.402 102.499 426.542 80.6155 413.142 65.5818L411.508 67.0383ZM288.916 133.728C288.916 157.441 293.75 175.243 303.621 186.924L305.293 185.511C295.902 174.398 291.105 157.207 291.105 133.728H288.916ZM303.632 186.936C313.69 198.479 328.642 204.166 348.279 204.166V201.977C329.07 201.977 314.807 196.429 305.282 185.498L303.632 186.936ZM348.279 204.166H351.409V201.977H348.279V204.166ZM351.409 204.166C371.05 204.166 385.63 198.313 394.89 186.408L393.162 185.064C384.444 196.273 370.613 201.977 351.409 201.977V204.166ZM394.889 186.409C404.251 174.419 408.845 156.801 408.845 133.728H406.656C406.656 156.563 402.101 173.617 393.164 185.062L394.889 186.409ZM408.845 133.728C408.845 110.657 404.252 93.1136 394.884 81.2813L393.168 82.6399C402.1 93.9223 406.656 110.891 406.656 133.728H408.845ZM394.895 81.2945C385.637 69.226 371.055 63.2894 351.409 63.2894V65.4783C370.608 65.4783 384.438 71.2595 393.158 82.6268L394.895 81.2945ZM351.409 63.2894H348.279V65.4783H351.409V63.2894ZM348.279 63.2894C328.486 63.2894 313.527 68.9747 303.626 80.526L305.288 81.9505C314.649 71.0293 328.905 65.4783 348.279 65.4783V63.2894ZM303.626 80.526C293.748 92.0501 288.916 109.859 288.916 133.728H291.105C291.105 110.084 295.904 92.899 305.288 81.9505L303.626 80.526ZM608.076 49.4556H609.17V48.3612H608.076V49.4556ZM608.076 218V219.094H609.17V218H608.076ZM584.48 218H583.385V219.094H584.48V218ZM584.48 154.435H585.574V153.34H584.48V154.435ZM461.201 154.435H460.107V155.529H461.201V154.435ZM461.201 49.4556V48.3612H460.107V49.4556H461.201ZM484.798 49.4556H485.892V48.3612H484.798V49.4556ZM484.798 132.765H483.703V133.859H484.798V132.765ZM584.48 132.765V133.859H585.574V132.765H584.48ZM584.48 49.4556V48.3612H583.385V49.4556H584.48ZM606.981 49.4556V218H609.17V49.4556H606.981ZM608.076 216.906H584.48V219.094H608.076V216.906ZM585.574 218V154.435H583.385V218H585.574ZM584.48 153.34H461.201V155.529H584.48V153.34ZM462.296 154.435V49.4556H460.107V154.435H462.296ZM461.201 50.5501H484.798V48.3612H461.201V50.5501ZM483.703 49.4556V132.765H485.892V49.4556H483.703ZM484.798 133.859H584.48V131.67H484.798V133.859ZM585.574 132.765V49.4556H583.385V132.765H585.574ZM584.48 50.5501H608.076V48.3612H584.48V50.5501Z" fill="white"/>
</g>
<g filter="url(#filter1_d_502_3)">
<path d="M148.987 177.705L158.245 175.419L147.356 180.428C131.198 186.46 114.875 191.858 98.3868 196.623C90.097 199.013 81.6848 201 73.1502 202.582C68.9287 203.364 64.6189 203.925 60.2206 204.266C55.7883 204.423 51.4613 203.611 47.2395 201.831C46.1687 201.175 45.2933 200.293 44.6133 199.185C44.0081 197.968 43.7411 196.784 43.8124 195.632C43.846 193.252 44.189 191.005 44.8412 188.891C46.4211 184.612 48.5076 180.76 51.1005 177.337C56.1265 170.141 61.6217 163.427 67.586 157.195C73.5333 150.872 80.0042 145.069 86.9985 139.786C93.8161 134.061 101.796 130.257 110.939 128.372C109.25 130.014 107.687 131.823 106.25 133.798C98.5954 136.545 91.5805 140.693 85.2048 146.241C78.6693 151.439 72.5571 157.128 66.8681 163.309C61.0873 169.506 55.9422 176.06 51.4327 182.971C49.1321 186.435 47.6711 190.075 47.0496 193.892C46.8392 195.83 47.0569 197.261 47.7029 198.185C48.0802 198.685 48.6785 199.096 49.4977 199.419C50.3169 199.742 51.182 200.056 52.093 200.362C55.7777 201.292 59.5812 201.584 63.5036 201.237C67.409 200.798 71.3721 200.158 75.393 199.318C75.7601 199.25 76.0813 199.191 76.3566 199.14C84.6159 197.609 92.7987 195.665 100.905 193.308C117.152 188.778 133.179 183.577 148.987 177.705ZM199.671 154.357L203.535 152.929L203.179 154.846C199.403 156.495 195.156 158.422 190.438 160.625C185.721 162.828 181.491 164.846 177.749 166.679L167.211 172.049C165.587 173.014 163.862 173.951 162.037 174.859C160.12 175.784 158.038 176.075 155.791 175.732C154.588 175.385 153.534 174.821 152.63 174.04C151.709 173.166 151.183 172.124 151.054 170.914C150.931 169.228 150.935 167.709 151.064 166.356C151.053 165.789 151.052 165.267 151.058 164.791C151.153 160.692 151.365 156.713 151.694 152.855C152.485 144.83 153.676 136.921 155.269 129.126L158.926 132.72C157.265 140.147 156.013 147.736 155.171 155.486C154.716 159.177 154.433 163.026 154.322 167.034C154.281 167.326 154.278 167.564 154.312 167.748C154.281 168.608 154.242 169.422 154.195 170.19C154.222 170.849 154.353 171.3 154.587 171.541C154.856 171.966 155.254 172.319 155.781 172.601C156.382 172.775 157.059 172.839 157.81 172.795C159.754 172.529 161.972 171.691 164.463 170.28C165.513 169.801 166.563 169.321 167.614 168.842C171.172 167.043 174.702 165.345 178.203 163.747C185.354 160.333 192.51 157.203 199.671 154.357ZM241.822 147.399L244.886 146.262L244.081 148.832C240.563 150.338 236.67 151.867 232.401 153.417C228.115 154.876 224.053 156.008 220.216 156.815C216.637 157.478 213.099 157.849 209.601 157.928L209.316 158.692C208.422 161.041 207.131 163.037 205.442 164.679C203.586 166.446 201.499 167.735 199.181 168.544C198.022 168.949 196.775 169.133 195.439 169.095C194.688 169.14 193.957 169.038 193.247 168.79C192.427 168.467 191.72 167.981 191.125 167.332C190.102 165.908 189.555 164.491 189.483 163.08C189.411 161.669 189.603 160.4 190.059 159.271C190.918 156.739 192.322 154.58 194.269 152.796C195.102 152.167 195.657 152.349 195.936 153.341C196.215 154.333 196.066 155.832 195.488 157.838C194.425 159.269 193.808 160.807 193.638 162.452C193.499 163.238 193.572 163.888 193.858 164.405C193.984 164.572 194.109 164.738 194.235 164.905C194.344 164.979 194.544 165.037 194.837 165.078C195.438 165.251 196.152 165.261 196.978 165.108C197.804 164.955 198.613 164.71 199.405 164.374C201.063 163.592 202.479 162.522 203.651 161.166C204.691 160.119 205.514 158.922 206.119 157.576C205.058 157.488 204.072 157.291 203.161 156.985L200.479 156.343C199.912 156.354 199.319 156.226 198.7 155.961C198.064 155.604 197.687 155.105 197.568 154.462C197.432 153.728 197.534 152.997 197.874 152.27C198.213 151.543 198.633 150.99 199.133 150.613C200.315 149.824 201.457 149.328 202.559 149.124C203.201 149.004 203.806 148.94 204.374 148.93C204.924 148.827 205.529 148.763 206.189 148.736C206.957 148.783 207.63 149.085 208.208 149.643C208.86 150.091 209.347 150.666 209.666 151.366C210.197 152.691 210.343 153.993 210.105 155.271C213.511 155.21 216.912 154.864 220.307 154.235C227.649 152.874 234.82 150.596 241.822 147.399ZM204.079 154.252C204.279 154.31 204.48 154.368 204.68 154.426C205.282 154.599 205.975 154.755 206.761 154.894C206.727 154.711 206.701 154.573 206.684 154.481C206.667 154.39 206.696 154.289 206.771 154.181C206.818 153.412 206.708 152.816 206.439 152.391C206.33 152.316 206.276 152.279 206.276 152.279C206.259 152.187 206.204 152.15 206.113 152.167C206.096 152.075 206.041 152.038 205.95 152.055C205.841 151.98 205.695 151.96 205.511 151.994C204.651 151.963 203.771 152.079 202.87 152.341C202.044 152.494 201.427 152.75 201.019 153.111C200.945 153.22 200.861 153.282 200.77 153.299C200.787 153.391 200.749 153.446 200.658 153.463L201.096 153.524C201.388 153.564 201.789 153.68 202.299 153.87C202.792 153.969 203.239 154.076 203.64 154.191C203.824 154.157 203.97 154.178 204.079 154.252ZM281.01 139.14L280.291 141.409C275.788 142.718 270.722 144.321 265.093 146.219C259.556 148.099 254.696 150.044 250.512 152.054C249.646 152.499 248.779 152.945 247.912 153.39C247.304 153.693 246.696 153.995 246.087 154.298C246.206 154.94 246.296 155.683 246.358 156.526C246.164 158.555 245.243 160.244 243.595 161.594C242.022 162.835 240.322 163.909 238.497 164.817C235.38 166.439 232.053 167.435 228.515 167.806L226.287 168.077L226.154 165.823C226.157 164.304 226.733 163.058 227.882 162.086C228.922 161.039 230.133 160.15 231.516 159.419C231.608 159.402 231.737 159.33 231.904 159.205L237.828 155.829L241.565 153.712C241.548 153.62 241.493 153.583 241.402 153.6C241.385 153.508 241.322 153.425 241.213 153.35C239.313 151.804 237.242 150.621 235.002 149.802C233.673 149.289 232.319 148.639 230.939 147.85C230.429 147.66 229.977 147.269 229.582 146.678C229.079 146.012 228.768 145.358 228.649 144.715C228.744 143.179 229.432 141.77 230.713 140.488C231.994 139.207 233.541 138.588 235.352 138.632C236.814 138.835 237.819 139.646 238.366 141.063C238.988 142.372 239.097 143.728 238.693 145.132C238.577 145.533 238.453 145.888 238.321 146.197C238.188 146.507 238.093 146.762 238.036 146.962C239.943 148.033 241.838 149.295 243.721 150.75L244.664 151.999L250.028 149.438C254.504 147.47 259.61 145.574 265.348 143.751C271.177 141.911 276.397 140.374 281.01 139.14ZM242.926 156.45L242.85 156.037L238.863 158.342L233.24 161.805L230.441 163.605L229.605 164.472C231.074 164.2 232.875 163.676 235.009 162.901C237.035 162.05 238.852 161.097 240.459 160.039C242.05 158.89 242.872 157.694 242.926 156.45ZM232.881 144.5C233.224 144.816 233.696 145.061 234.298 145.234L234.41 145.071C234.6 144.561 234.707 144.114 234.731 143.73C234.714 143.638 234.697 143.547 234.68 143.455C234.663 143.363 234.692 143.263 234.767 143.154L234.665 142.603C234.665 142.603 234.573 142.62 234.389 142.654C234.298 142.671 234.169 142.743 234.002 142.869C233.652 143.028 233.29 143.38 232.916 143.924L232.58 144.414L232.881 144.5ZM321.01 132.865C323.736 131.696 324.875 131.437 324.426 132.09C324.052 132.634 322.904 133.606 320.98 135.007C317.945 136.044 313.732 138.153 308.342 141.336C303.876 143.872 299.201 146.305 294.317 148.634C289.433 150.963 284.917 152.464 280.771 153.138C276.607 153.72 273.335 152.712 270.956 150.116C269.269 147.676 268.713 144.931 269.287 141.882C270.323 137.229 272.807 133.731 276.74 131.388C277.423 130.977 278.269 130.677 279.279 130.49C280.363 130.195 281.406 130.191 282.409 130.48C283.395 130.677 284.036 131.317 284.332 132.402C284.451 133.044 284.403 133.812 284.189 134.706C283.618 136.236 282.572 137.759 281.049 139.275C278.745 141.695 276.118 143.653 273.168 145.149C273.42 148.045 275.337 149.683 278.92 150.064C282.635 150.134 287.089 149.072 292.282 146.875C297.55 144.57 303.08 141.884 308.872 138.817C312.947 136.733 316.993 134.749 321.01 132.865ZM279.967 134.207C277.398 134.683 275.393 136.669 273.952 140.163C276.776 138.501 279.082 136.602 280.87 134.467L279.967 134.207ZM445.098 143.47L444.119 146.641L443.079 142.562C442.946 140.309 442.905 138.038 442.955 135.751C439.738 125.051 434.042 118.133 425.867 114.997C417.767 111.752 408.506 110.953 398.085 112.6C387.647 114.155 377.45 116.757 367.495 120.405C366.141 132.047 365.262 143.696 364.859 155.351L363.891 157.808L363.004 154.556C362.975 143.645 363.321 132.712 364.044 121.757C359.241 123.501 354.777 125.278 350.651 127.087C349.325 127.617 348 128.148 346.674 128.678L355.958 122.686C357.008 122.207 358.021 121.782 358.996 121.411C360.855 120.687 362.568 119.942 364.135 119.177C364.695 111.954 365.447 104.743 366.391 97.5438L370.368 99.7967C369.386 105.769 368.505 111.77 367.724 117.8C372.235 116.015 377.146 114.345 382.458 112.791C387.879 111.312 393.856 110.014 400.389 108.898C406.922 107.782 413.358 107.681 419.697 108.595C426.019 109.416 431.484 112.01 436.09 116.377C439.082 119.715 441.402 123.272 443.051 127.048C443.436 110.175 444.919 93.3361 447.5 76.531L447.474 76.3934C447.549 76.2846 447.578 76.1843 447.561 76.0925C447.527 75.909 447.547 75.7628 447.622 75.6541L449.175 64.8297L451.604 75.628L452.379 79.0438L451.201 78.835C447.493 100.31 445.458 121.855 445.098 143.47ZM500.184 99.5148L503.248 98.3774L502.443 100.947C498.926 102.453 495.032 103.982 490.763 105.532C486.477 106.991 482.416 108.124 478.578 108.93C474.999 109.593 471.461 109.964 467.963 110.043L467.678 110.808C466.785 113.157 465.493 115.152 463.804 116.794C461.949 118.562 459.862 119.85 457.544 120.66C456.385 121.064 455.137 121.248 453.802 121.211C453.05 121.255 452.32 121.153 451.609 120.905C450.79 120.582 450.083 120.096 449.488 119.447C448.465 118.023 447.917 116.606 447.846 115.195C447.774 113.785 447.966 112.515 448.421 111.387C449.281 108.854 450.684 106.696 452.632 104.911C453.464 104.282 454.02 104.464 454.299 105.456C454.578 106.449 454.428 107.948 453.851 109.953C452.787 111.384 452.17 112.923 452.001 114.568C451.862 115.353 451.935 116.004 452.22 116.52C452.346 116.687 452.472 116.853 452.598 117.02C452.706 117.095 452.907 117.152 453.199 117.193C453.801 117.366 454.515 117.377 455.341 117.223C456.167 117.07 456.976 116.826 457.767 116.489C459.426 115.707 460.842 114.638 462.014 113.281C463.054 112.234 463.876 111.038 464.481 109.692C463.421 109.603 462.435 109.406 461.524 109.101L458.842 108.459C458.274 108.469 457.681 108.342 457.063 108.077C456.427 107.72 456.05 107.22 455.931 106.578C455.794 105.844 455.896 105.113 456.236 104.385C456.576 103.658 456.996 103.105 457.495 102.728C458.678 101.939 459.82 101.443 460.921 101.239C461.564 101.12 462.169 101.055 462.736 101.045C463.287 100.943 463.892 100.878 464.551 100.851C465.319 100.898 465.992 101.201 466.57 101.758C467.223 102.207 467.709 102.781 468.029 103.481C468.559 104.807 468.706 106.108 468.468 107.387C471.874 107.325 475.274 106.979 478.67 106.35C486.011 104.989 493.183 102.711 500.184 99.5148ZM462.441 106.368C462.642 106.425 462.842 106.483 463.043 106.541C463.645 106.714 464.338 106.87 465.123 107.01C465.089 106.826 465.064 106.689 465.047 106.597C465.03 106.505 465.059 106.405 465.133 106.296C465.181 105.528 465.07 104.931 464.802 104.506C464.693 104.432 464.638 104.394 464.638 104.394C464.621 104.303 464.567 104.265 464.475 104.282C464.458 104.19 464.404 104.153 464.312 104.17C464.203 104.095 464.057 104.075 463.874 104.109C463.014 104.078 462.133 104.194 461.233 104.456C460.407 104.609 459.79 104.866 459.382 105.226C459.307 105.335 459.224 105.398 459.132 105.415C459.149 105.507 459.112 105.561 459.02 105.578L459.459 105.639C459.751 105.68 460.152 105.795 460.662 105.986C461.155 106.084 461.602 106.191 462.003 106.307C462.186 106.273 462.332 106.293 462.441 106.368ZM566.47 87.6567C568.272 87.1329 569.327 86.9373 569.636 87.0699C569.929 87.1106 569.704 87.4369 568.963 88.0489C568.297 88.552 567.364 89.1521 566.165 89.8491C560.237 92.1816 554.238 94.3851 548.168 96.4594L539.113 99.8461C537.92 100.067 537.256 99.8107 537.12 99.0766C537.058 98.2336 537.164 97.2649 537.435 96.1704C537.592 95.4769 537.673 94.8923 537.68 94.4164C537.571 94.3417 537.471 94.3128 537.379 94.3298C537.287 94.3468 537.196 94.3638 537.104 94.3808C537.012 94.3979 536.966 94.4064 536.966 94.4064L536.191 94.8347C526.804 101.036 516.487 106.318 505.241 110.68L499.887 112.527C499.429 112.612 498.97 112.697 498.511 112.782C497.977 112.976 497.481 113.115 497.022 113.2C496.747 113.251 496.334 113.328 495.783 113.43C495.307 113.423 494.769 113.333 494.167 113.16C493.565 112.987 493.084 112.696 492.724 112.288C492.238 111.714 491.918 111.014 491.765 110.188C491.258 108.478 491.302 106.667 491.897 104.753C492.566 102.73 492.631 100.772 492.09 98.8793C492.841 98.835 493.589 99.0287 494.333 99.4602C495.169 99.8748 495.922 100.352 496.592 100.893L496.292 104.65C496.251 104.943 496.21 105.235 496.17 105.527C495.725 107.223 495.636 108.284 495.905 108.709C496.156 109.042 497.154 109.047 498.898 108.724C504.044 107.295 509.213 105.483 514.407 103.286C515.474 102.899 516.753 102.377 518.246 101.72C519.812 100.955 522.016 99.7875 524.858 98.2167C527.791 96.629 531.823 94.3153 536.955 91.2759C538.189 90.7624 539.049 90.7929 539.535 91.3673C540.113 91.9246 540.404 92.725 540.408 93.7685C540.503 94.795 540.443 95.7552 540.229 96.6492L547.872 94.0937C549.931 93.4272 551.945 92.7692 553.913 92.1197C558.216 90.7527 562.402 89.265 566.47 87.6567ZM605.151 79.0637L604.433 81.3326C599.929 82.6419 594.863 84.2453 589.235 86.1428C583.698 88.0233 578.838 89.9682 574.654 91.9776C573.787 92.423 572.92 92.8684 572.054 93.3138C571.445 93.6164 570.837 93.919 570.229 94.2216C570.348 94.864 570.438 95.6067 570.499 96.4496C570.306 98.4789 569.385 100.168 567.737 101.518C566.163 102.759 564.464 103.833 562.639 104.741C559.522 106.363 556.194 107.359 552.656 107.73L550.428 108.001L550.295 105.747C550.298 104.228 550.874 102.982 552.023 102.01C553.063 100.963 554.275 100.074 555.658 99.3427C555.75 99.3257 555.879 99.2543 556.045 99.1285L561.969 95.7524L565.706 93.636C565.689 93.5442 565.635 93.5068 565.543 93.5238C565.526 93.4321 565.463 93.3488 565.354 93.274C563.454 91.7278 561.384 90.5452 559.144 89.7264C557.815 89.2134 556.46 88.5627 555.08 87.7743C554.57 87.584 554.118 87.1932 553.724 86.6018C553.221 85.9357 552.909 85.2815 552.79 84.6391C552.885 83.1027 553.573 81.6937 554.855 80.4121C556.136 79.1305 557.682 78.5116 559.494 78.5555C560.956 78.7593 561.96 79.5698 562.508 80.9871C563.13 82.2956 563.239 83.6518 562.834 85.0556C562.719 85.4567 562.595 85.812 562.462 86.1213C562.33 86.4306 562.235 86.6855 562.177 86.8861C564.084 87.9565 565.979 89.2189 567.862 90.6734L568.806 91.9224L574.169 89.3622C578.645 87.3935 583.752 85.4978 589.489 83.6751C595.318 81.8354 600.539 80.2982 605.151 79.0637ZM567.068 96.3737L566.991 95.9607L563.005 98.2658L557.382 101.729L554.583 103.529L553.747 104.396C555.215 104.123 557.016 103.6 559.151 102.824C561.177 101.974 562.993 101.021 564.601 99.9634C566.191 98.8143 567.014 97.6177 567.068 96.3737ZM557.022 84.4243C557.365 84.7403 557.838 84.985 558.44 85.1583L558.552 84.9951C558.742 84.4852 558.849 84.0382 558.873 83.6541C558.856 83.5624 558.839 83.4706 558.822 83.3788C558.805 83.2871 558.834 83.1868 558.908 83.078L558.806 82.5274C558.806 82.5274 558.715 82.5444 558.531 82.5784C558.439 82.5954 558.31 82.6668 558.144 82.7926C557.793 82.9524 557.432 83.3043 557.058 83.8482L556.721 84.3377L557.022 84.4243ZM645.152 72.7891C647.878 71.6194 649.016 71.361 648.568 72.0136C648.194 72.5575 647.045 73.5298 645.121 74.9305C642.086 75.9676 637.874 78.0773 632.483 81.2596C628.017 83.7959 623.342 86.2286 618.458 88.5576C613.574 90.8867 609.059 92.388 604.912 93.0616C600.749 93.6435 597.477 92.6362 595.097 90.0397C593.411 87.5995 592.855 84.8548 593.429 81.8059C594.465 77.1525 596.949 73.6545 600.881 71.312C601.564 70.9007 602.411 70.6014 603.42 70.4143C604.504 70.1184 605.548 70.1149 606.551 70.4037C607.536 70.6007 608.177 71.2413 608.473 72.3255C608.592 72.9679 608.545 73.7361 608.331 74.63C607.76 76.1597 606.713 77.6826 605.191 79.1988C602.886 81.6192 600.259 83.5774 597.309 85.0734C597.561 87.9693 599.478 89.6074 603.061 89.9875C606.776 90.0583 611.23 88.9955 616.424 86.799C621.692 84.4937 627.222 81.8076 633.013 78.7409C637.088 76.6567 641.134 74.6728 645.152 72.7891ZM604.109 74.131C601.539 74.6073 599.534 76.5926 598.094 80.087C600.918 78.4244 603.224 76.5257 605.011 74.3909L604.109 74.131Z" fill="white"/>
</g>
<defs>
<filter id="filter0_i_502_3" x="89.9243" y="43.918" width="518.151" height="181.808" filterUnits="userSpaceOnUse" color-interpolation-filters="sRGB">
<feFlood flood-opacity="0" result="BackgroundImageFix"/>
<feBlend mode="normal" in="SourceGraphic" in2="BackgroundImageFix" result="shape"/>
<feColorMatrix in="SourceAlpha" type="matrix" values="0 0 0 0 0 0 0 0 0 0 0 0 0 0 0 0 0 0 127 0" result="hardAlpha"/>
<feOffset dy="4.37778"/>
<feGaussianBlur stdDeviation="1.09444"/>
<feComposite in2="hardAlpha" operator="arithmetic" k2="-1" k3="1"/>
<feColorMatrix type="matrix" values="0 0 0 0 0 0 0 0 0 0 0 0 0 0 0 0 0 0 0.25 0"/>
<feBlend mode="normal" in2="shape" result="effect1_innerShadow_502_3"/>
</filter>
<filter id="filter1_d_502_3" x="0.590511" y="0.731959" width="688.219" height="256.551" filterUnits="userSpaceOnUse" color-interpolation-filters="sRGB">
<feFlood flood-opacity="0" result="BackgroundImageFix"/>
<feColorMatrix in="SourceAlpha" type="matrix" values="0 0 0 0 0 0 0 0 0 0 0 0 0 0 0 0 0 0 127 0" result="hardAlpha"/>
<feOffset dy="4.37778"/>
<feGaussianBlur stdDeviation="16.4167"/>
<feComposite in2="hardAlpha" operator="out"/>
<feColorMatrix type="matrix" values="0 0 0 0 1 0 0 0 0 1 0 0 0 0 1 0 0 0 1 0"/>
<feBlend mode="normal" in2="BackgroundImageFix" result="effect1_dropShadow_502_3"/>
<feBlend mode="normal" in="SourceGraphic" in2="effect1_dropShadow_502_3" result="shape"/>
</filter>
</defs>
</svg>
