<svg width="16" height="16" viewBox="0 0 16 16" fill="none" xmlns="http://www.w3.org/2000/svg">
<path d="M13.5075 3.94894H10.8767V3.10676C10.8767 1.39368 9.45959 0 7.71757 0C5.97558 0 4.55852 1.39368 4.55852 3.10676V3.94894H2.29183C2.1007 3.94894 1.94566 4.10128 1.94566 4.28938L0 15.6595C0 15.8476 0.154899 16 0.346344 16H15.6536C15.8449 16 16 15.8476 16 15.6595L13.8537 4.28938C13.8537 4.10124 13.6988 3.94894 13.5075 3.94894ZM5.25072 3.10676C5.25072 1.76908 6.35744 0.680904 7.7174 0.680904C9.07763 0.680904 10.1843 1.76928 10.1843 3.10676V3.94894H5.25072V3.10676ZM15.3076 15.3191H0.692378L2.6378 4.62968H4.55821V6.12888C4.39118 6.23883 4.28137 6.42579 4.28137 6.63818C4.28137 6.97651 4.56003 7.25096 4.90438 7.25096C5.24831 7.25096 5.52749 6.97675 5.52749 6.63818C5.52749 6.42562 5.41737 6.23883 5.25041 6.12888V4.62968H10.1844V6.12888C10.0174 6.23883 9.90748 6.42579 9.90748 6.63818C9.90748 6.97651 10.1862 7.25096 10.5306 7.25096C10.8746 7.25096 11.1537 6.97675 11.1537 6.63818C11.1537 6.42562 11.0434 6.23883 10.8765 6.12888V4.62968H13.1612L15.3076 15.3191Z" fill="white"/>
</svg>
