<svg width="16" height="18" viewBox="0 0 16 18" fill="none" xmlns="http://www.w3.org/2000/svg">
<path d="M13.5075 4.30794H10.8767V3.3892C10.8767 1.52038 9.45959 0 7.71757 0C5.97558 0 4.55852 1.52038 4.55852 3.3892V4.30794H2.29183C2.1007 4.30794 1.94566 4.47412 1.94566 4.67932L0 17.0831C0 17.2883 0.154899 17.4545 0.346344 17.4545H15.6536C15.8449 17.4545 16 17.2883 16 17.0831L13.8537 4.67932C13.8537 4.47408 13.6988 4.30794 13.5075 4.30794ZM5.25072 3.3892C5.25072 1.9299 6.35744 0.742804 7.7174 0.742804C9.07763 0.742804 10.1843 1.93012 10.1843 3.3892V4.30794H5.25072V3.3892ZM15.3076 16.7117H0.692378L2.6378 5.05056H4.55821V6.68605C4.39118 6.806 4.28137 7.00995 4.28137 7.24165C4.28137 7.61074 4.56003 7.91014 4.90438 7.91014C5.24831 7.91014 5.52749 7.611 5.52749 7.24165C5.52749 7.00976 5.41737 6.806 5.25041 6.68605V5.05056H10.1844V6.68605C10.0174 6.806 9.90748 7.00995 9.90748 7.24165C9.90748 7.61074 10.1862 7.91014 10.5306 7.91014C10.8746 7.91014 11.1537 7.611 11.1537 7.24165C11.1537 7.00976 11.0434 6.806 10.8765 6.68605V5.05056H13.1612L15.3076 16.7117Z" fill="white"/>
</svg>
