<svg width="16" height="16" viewBox="0 0 16 16" fill="none" xmlns="http://www.w3.org/2000/svg">
<g clip-path="url(#clip0_1:407)">
<path d="M8.88344 8.00186L15.8165 1.06881C16.0606 0.824713 16.0606 0.428963 15.8165 0.184901C15.5724 -0.059161 15.1766 -0.0591923 14.9326 0.184901L7.9995 7.11795L1.06649 0.184901C0.822393 -0.0591923 0.426644 -0.0591923 0.182582 0.184901C-0.0614804 0.428994 -0.0615116 0.824744 0.182582 1.06881L7.1156 8.00183L0.182582 14.9349C-0.0615116 15.179 -0.0615116 15.5747 0.182582 15.8188C0.304613 15.9408 0.464581 16.0018 0.62455 16.0018C0.784518 16.0018 0.944455 15.9408 1.06652 15.8188L7.9995 8.88576L14.9325 15.8188C15.0546 15.9408 15.2145 16.0018 15.3745 16.0018C15.5345 16.0018 15.6944 15.9408 15.8165 15.8188C16.0606 15.5747 16.0606 15.1789 15.8165 14.9349L8.88344 8.00186Z" fill="white"/>
</g>
<defs>
<clipPath id="clip0_1:407">
<rect width="16" height="16" fill="white"/>
</clipPath>
</defs>
</svg>
