<svg width="193" height="70" viewBox="0 0 193 70" fill="none" xmlns="http://www.w3.org/2000/svg">
<path d="M23.627 46.7195L24.3237 46.8839L23.6195 47.4354L14.5296 50.4073C14.2398 55.6707 14.0743 60.9599 14.0331 66.2748L13.5963 67.6393L13.3454 65.9045C13.2698 60.8514 13.2792 55.7981 13.3736 50.7445L10.3566 51.7155L10.3416 50.1368L13.3984 49.3618L13.8181 39.8879C9.90062 41.3653 5.84142 42.4803 1.64047 43.2329L2.66432 41.4939C6.50596 40.8143 10.2485 39.8148 13.8919 38.4953L14.1085 35.7979C14.2657 35.902 14.423 36.0061 14.5802 36.1102C14.9013 36.351 15.2354 36.5721 15.5826 36.7736C15.5511 37.1202 15.5129 37.4341 15.468 37.7154C15.488 37.8134 15.4883 37.8983 15.4689 37.9703L24.137 34.9312C24.5483 34.7794 25.0707 34.5881 25.704 34.3572C27.1274 33.8295 28.7664 33.275 30.6211 32.6935C32.5084 32.1055 34.2526 31.7336 35.8537 31.5779C37.4808 31.3829 38.6224 31.6439 39.2785 32.3608C39.5216 32.7196 39.647 33.0852 39.6548 33.4578C39.6504 34.105 39.5281 34.6742 39.2878 35.1653C38.5616 36.9458 37.701 38.6516 36.7063 40.2827C36.2113 40.8596 35.7098 41.4039 35.2016 41.9155C35.6433 41.0772 36.0394 40.2653 36.3898 39.4797C37.3713 37.7833 38.1565 36.0417 38.7455 34.2551C38.8036 34.0392 38.8257 33.8136 38.8119 33.5783C38.8241 33.3037 38.7612 33.0784 38.6233 32.9023C38.0658 32.3354 36.8234 32.248 34.8962 32.6401C32.969 33.0322 30.9574 33.5946 28.8614 34.3271C26.7654 35.0597 25.182 35.637 24.1113 36.0589C23.8893 36.1381 23.7163 36.2073 23.5923 36.2666L15.3461 39.373C15.0168 42.6035 14.7726 45.8337 14.6134 49.0636L23.627 46.7195ZM49.0484 45.2212C49.9037 44.9111 50.172 44.9756 49.8531 45.4147C48.4968 46.439 46.705 47.2457 44.4777 47.8349C42.2438 48.3915 40.2208 48.4799 38.4088 48.1002C38.1928 48.0421 38.0029 47.9447 37.8391 47.8079C37.6752 47.6712 37.5179 47.5671 37.3673 47.4957C37.2167 47.4243 37.0501 47.4412 36.8674 47.5464L36.3393 47.96L34.1187 49.5853L31.9372 51.1517C31.9045 51.1583 31.8752 51.1813 31.8492 51.2206C31.5364 51.5224 31.109 51.7624 30.567 51.9407C30.273 52.0005 29.9624 51.9787 29.6352 51.8752C29.308 51.7716 29.0359 51.5209 28.8188 51.1228C28.7524 50.7962 28.7482 50.5249 28.8063 50.309C28.8252 50.067 28.8703 49.8708 28.9417 49.7202C28.9743 49.7135 28.9873 49.6939 28.9807 49.6612C29.1102 49.2947 29.2757 48.9379 29.4772 48.5907C29.4772 48.5907 29.4903 48.5711 29.5163 48.5317C29.9846 47.8242 30.5449 47.234 31.197 46.7611C32.586 45.7302 34.16 45.2739 35.9189 45.3922C35.5674 45.8379 35.2618 46.3423 35.0022 46.9054C33.7797 46.916 32.6894 47.3249 31.7311 48.1322C31.2616 48.4998 30.8741 48.9358 30.5685 49.4402C30.4124 49.6761 30.2793 49.9413 30.1691 50.2358C30.0717 50.4257 30.0329 50.5697 30.0529 50.6676L30.1019 50.6577C30.1412 50.6837 30.1805 50.7097 30.2198 50.7357C30.2525 50.7291 30.2818 50.7061 30.3078 50.6668C30.4778 50.6662 30.6965 50.5707 30.9639 50.3803C31.0486 50.295 31.1529 50.2227 31.2769 50.1635L35.8359 46.9909L36.159 46.8231L36.5111 46.5474C36.9745 46.317 37.4157 46.3123 37.8348 46.5332C38.1166 46.748 38.3002 46.8977 38.3854 46.9824C38.4248 47.0084 38.4641 47.0345 38.5034 47.0605L38.9062 47.2847C40.313 47.6788 41.9993 47.6078 43.9653 47.0718C45.9246 46.5031 47.6189 45.8862 49.0484 45.2212ZM67.9206 40.8204C68.3784 40.8973 68.6826 40.9715 68.8332 41.0429C68.9772 41.0816 69.0035 41.1273 68.9121 41.1799C68.8208 41.2325 68.6445 41.2854 68.3832 41.3385C68.2591 41.3978 68.1155 41.444 67.9522 41.4772C66.1158 41.6468 64.4239 42.025 62.8765 42.6119C61.3618 43.1923 59.7045 44.1587 57.9047 45.5114C57.6113 45.7411 57.1875 46.0825 56.6334 46.5354C55.571 47.4999 54.3713 48.4583 53.0343 49.4106C51.6974 50.363 50.633 50.7326 49.8413 50.5195C49.1869 50.3125 48.8181 49.5031 48.735 48.0913C48.7344 47.9213 48.7463 47.5618 48.7706 47.0125C48.7623 46.47 48.7703 45.9241 48.7946 45.3749C48.7863 44.8323 48.7948 44.4564 48.8203 44.2471C49.292 44.5594 49.7864 44.8159 50.3035 45.0169C50.3041 45.1868 50.2889 45.5301 50.2579 46.0466C50.2596 46.5565 50.2646 47.0828 50.273 47.6253C50.2747 48.1352 50.2758 48.4752 50.2764 48.6451C50.3567 49.2071 50.6872 49.3269 51.2679 49.0047C51.842 48.6497 52.6376 48.0457 53.6546 47.1925C54.7302 46.2933 55.9985 45.3379 57.4595 44.3263C58.9465 43.2754 60.5877 42.3973 62.3831 41.6918C64.1658 41.091 66.0116 40.8005 67.9206 40.8204ZM85.812 37.5885L86.899 37.1632L86.6275 38.0859C85.3808 38.6457 84 39.2157 82.4853 39.796C80.9639 40.3437 79.5206 40.7734 78.1554 41.0852C76.8815 41.3444 75.6203 41.4989 74.3719 41.5488L74.2747 41.8237C73.9703 42.668 73.5216 43.3886 72.9287 43.9854C72.2771 44.6282 71.5399 45.1014 70.7173 45.4048C70.3059 45.5565 69.8616 45.6299 69.3844 45.625C69.1164 45.6455 68.8548 45.6136 68.5996 45.5295C68.3051 45.4194 68.0496 45.2502 67.8331 45.0222C67.4588 44.52 67.2545 44.0173 67.2201 43.5141C67.1857 43.0108 67.2463 42.5563 67.4019 42.1505C67.693 41.2408 68.1808 40.4613 68.865 39.8118C69.1584 39.582 69.358 39.6435 69.4638 39.9961C69.5695 40.3488 69.5256 40.885 69.3318 41.6047C68.9609 42.1224 68.7503 42.6755 68.7 43.264C68.6551 43.5453 68.6853 43.7772 68.7905 43.9599C68.8365 44.0186 68.8824 44.0773 68.9284 44.136C68.9677 44.162 69.0397 44.1814 69.1443 44.1941C69.3602 44.2522 69.6152 44.2514 69.9092 44.1916C70.2031 44.1318 70.4905 44.0393 70.7711 43.9141C71.3585 43.6246 71.8573 43.2339 72.2676 42.7423C72.6324 42.3619 72.9186 41.9295 73.1262 41.4451C72.7469 41.4202 72.3937 41.356 72.0665 41.2525L71.1048 41.0399C70.9022 41.0471 70.6896 41.0053 70.467 40.9146C70.2378 40.7911 70.0999 40.6151 70.0534 40.3864C70.0003 40.1251 70.0321 39.8635 70.1489 39.6016C70.2657 39.3398 70.4121 39.1399 70.5882 39.002C71.0056 38.713 71.4103 38.5286 71.8022 38.4489C72.0309 38.4023 72.2465 38.3755 72.4492 38.3683C72.6452 38.3284 72.8608 38.3015 73.0961 38.2877C73.3707 38.2998 73.6129 38.4036 73.8228 38.5991C74.0586 38.7552 74.2358 38.9572 74.3543 39.2053C74.552 39.6753 74.6123 40.1392 74.5354 40.5971C75.7512 40.5538 76.9634 40.4093 78.1719 40.1634C80.7851 39.6317 83.3317 38.7734 85.812 37.5885ZM72.377 40.2708C72.449 40.2902 72.521 40.3096 72.593 40.329C72.8089 40.3871 73.0575 40.4386 73.3387 40.4834C73.3254 40.4181 73.3155 40.3691 73.3088 40.3364C73.3022 40.3037 73.3118 40.2677 73.3379 40.2284C73.35 39.9538 73.3068 39.7415 73.2083 39.5915C73.169 39.5655 73.1493 39.5525 73.1493 39.5525C73.1427 39.5198 73.123 39.5068 73.0903 39.5134C73.0837 39.4808 73.064 39.4678 73.0314 39.4744C72.9921 39.4484 72.9398 39.442 72.8744 39.4553C72.5672 39.4498 72.2535 39.4966 71.9335 39.5957C71.6395 39.6555 71.4209 39.751 71.2775 39.8823C71.2515 39.9216 71.2221 39.9445 71.1895 39.9512C71.1961 39.9839 71.1831 40.0035 71.1504 40.0102L71.3074 40.0292C71.412 40.042 71.556 40.0807 71.7392 40.1455C71.9158 40.1776 72.0761 40.213 72.2201 40.2518C72.2854 40.2385 72.3377 40.2448 72.377 40.2708ZM112.838 32.2431C113.478 32.0449 113.853 31.9685 113.965 32.0139C114.069 32.0266 113.991 32.1445 113.73 32.3676C113.496 32.5515 113.166 32.7716 112.742 33.0279C110.64 33.8978 108.512 34.722 106.357 35.5006L103.145 36.7664C102.72 36.8528 102.481 36.7653 102.428 36.504C102.401 36.2034 102.433 35.8568 102.523 35.4643C102.574 35.2157 102.6 35.0064 102.599 34.8364C102.56 34.8104 102.524 34.8007 102.491 34.8074C102.459 34.814 102.426 34.8207 102.393 34.8273C102.361 34.834 102.344 34.8373 102.344 34.8373L102.07 34.9951C98.7568 37.268 95.1056 39.2184 91.1168 40.8463L89.2168 41.539C89.0534 41.5722 88.8901 41.6055 88.7268 41.6387C88.5375 41.7112 88.3611 41.7641 88.1978 41.7973C88.0998 41.8173 87.9528 41.8472 87.7568 41.8871C87.5869 41.8876 87.3939 41.8588 87.178 41.8007C86.9621 41.7426 86.7885 41.6418 86.6573 41.4985C86.4801 41.2964 86.3616 41.0484 86.3018 40.7544C86.1102 40.1471 86.1146 39.4999 86.315 38.8128C86.5414 38.0864 86.5521 37.3869 86.3472 36.7142C86.6152 36.6937 86.8834 36.7582 87.152 36.9077C87.4532 37.0505 87.725 37.2163 87.9675 37.4051L87.8837 38.7488C87.871 38.8534 87.8583 38.958 87.8455 39.0627C87.6972 39.6711 87.6723 40.0504 87.7709 40.2004C87.8628 40.3178 88.219 40.3133 88.8396 40.187C90.6683 39.6449 92.503 38.9655 94.3438 38.1488C94.7225 38.0037 95.1762 37.8093 95.7049 37.5657C96.2596 37.2828 97.0394 36.852 98.0442 36.2734C99.0817 35.6881 100.507 34.8368 102.321 33.7195C102.758 33.5285 103.065 33.534 103.243 33.736C103.453 33.9315 103.561 34.2155 103.569 34.5881C103.61 34.954 103.594 35.2973 103.523 35.6178L106.237 34.6577C106.968 34.4068 107.683 34.1593 108.382 33.9151C109.91 33.4001 111.395 32.8428 112.838 32.2431ZM133.295 27.5709C133.641 27.4325 133.853 27.3893 133.932 27.4413C134.004 27.4607 134.004 27.5457 133.932 27.6962C133.854 27.8142 133.747 27.9551 133.61 28.119C133.525 28.2042 133.457 28.2862 133.405 28.3648C132.08 28.8726 130.66 29.5016 129.146 30.2518C127.658 30.9628 126.29 31.6832 125.044 32.4129C124.646 32.63 124.252 32.8634 123.86 33.1131C123.025 33.5212 122.235 33.9879 121.492 34.5134C120.924 34.9009 120.318 35.2625 119.671 35.598C119.371 35.7952 119.065 35.9596 118.751 36.0914C118.569 36.1966 118.396 36.2658 118.232 36.299C118.036 36.3389 117.804 36.3691 117.536 36.3896C117.36 36.3575 117.209 36.2861 117.085 36.1754C116.96 36.0647 116.881 35.9276 116.848 35.7643C116.788 35.4703 116.794 35.1631 116.864 34.8425C116.916 34.5939 116.984 34.342 117.068 34.0868C117.159 33.8642 117.23 33.6286 117.281 33.38C117.301 33.3081 117.32 33.2361 117.339 33.1641C117.365 33.1248 117.375 33.0888 117.368 33.0562C117.394 33.0169 117.417 32.9612 117.437 32.8892C117.43 32.8566 117.427 32.8402 117.427 32.8402C117.453 32.8009 117.459 32.7486 117.446 32.6833C117.446 32.6833 117.429 32.6866 117.397 32.6933C117.39 32.6606 117.387 32.6443 117.387 32.6443C117.354 32.6509 117.318 32.6412 117.279 32.6152C117.207 32.5958 117.138 32.5928 117.073 32.6061C117.007 32.6194 116.926 32.636 116.828 32.6559L116.142 32.7955C115.913 32.842 115.668 32.8918 115.407 32.945C115.152 33.0308 114.894 33.1003 114.633 33.1535C114.535 33.1734 114.45 33.1737 114.378 33.1543C114.182 33.1942 113.996 33.1981 113.819 33.166L113.348 33.1087C113.276 33.0894 113.204 33.07 113.132 33.0506C113.054 32.9986 112.975 32.9465 112.896 32.8945C112.667 32.771 112.484 32.6213 112.346 32.4453C112.215 32.3019 112.093 32.1225 111.981 31.9071L111.803 31.5351C111.685 31.2871 111.609 30.9964 111.575 30.6631C111.502 30.3038 111.511 30.0129 111.602 29.7903C111.905 28.6061 112.556 27.7083 113.554 27.097C113.789 26.9132 114.066 26.7718 114.386 26.6726C114.543 26.6067 114.722 26.5702 114.925 26.563C115.16 26.5491 115.373 26.5909 115.563 26.6883C115.779 26.7465 115.939 26.8669 116.044 27.0496C116.182 27.2256 116.271 27.4116 116.311 27.6076C116.312 27.7776 116.296 27.9509 116.264 28.1275C116.225 28.2714 116.186 28.4154 116.147 28.5593C116.128 28.6313 116.105 28.6869 116.079 28.7262C115.618 29.6365 115.081 30.426 114.469 31.0948C114.385 31.1801 114.316 31.262 114.264 31.3406L113.727 31.9602C114.25 32.0238 114.848 31.9532 115.521 31.7483C115.749 31.7018 115.978 31.6553 116.207 31.6088L116.795 31.4891L117.098 31.4783C117.131 31.4717 117.147 31.4683 117.147 31.4683C117.389 31.4872 117.615 31.5093 117.824 31.5347C118.034 31.5602 118.2 31.6283 118.325 31.739C118.594 32.0584 118.687 32.4308 118.603 32.856C118.577 32.8953 118.555 32.9509 118.535 33.0229C118.47 33.2061 118.438 33.3827 118.439 33.5527L118.303 33.8866C118.121 34.3317 117.985 34.7505 117.895 35.1431L117.876 35.3L117.925 35.2901C118.088 35.2568 118.232 35.2106 118.356 35.1513L119.286 34.707C119.899 34.3781 120.49 34.0199 121.057 33.6323L121.507 33.3366L122.016 33.08L122.976 32.5277L124.865 31.531C127.54 29.9663 130.35 28.6462 133.295 27.5709ZM112.81 30.4629C112.784 30.5022 112.774 30.5382 112.781 30.5709C112.788 30.6036 112.797 30.6525 112.811 30.7179C113.039 30.5014 113.26 30.2522 113.475 29.9704C113.56 29.8852 113.657 29.7802 113.768 29.6557C114.1 29.2819 114.367 28.9215 114.569 28.5744L114.822 28.0636L114.851 27.9557L114.753 27.9756C114.44 28.1074 114.123 28.3078 113.804 28.5769C113.198 29.1084 112.866 29.7371 112.81 30.4629ZM152.016 31.9259C152.127 31.9713 152.232 31.984 152.33 31.964C152.428 31.9441 152.519 31.8915 152.604 31.8062C152.631 31.9369 152.579 32.1005 152.449 32.297C152.312 32.4609 152.113 32.5695 151.852 32.6226C151.316 32.6636 150.854 32.4854 150.467 32.0879C150.139 31.6444 149.922 31.1614 149.815 30.6388C149.754 29.8349 149.761 29.0341 149.837 28.2363C149.849 27.9617 149.858 27.6707 149.863 27.3635C149.934 25.2059 150.038 23.0418 150.175 20.871C150.348 17.7064 150.638 14.5348 151.046 11.3564C150.236 11.5552 149.432 11.7867 148.636 12.0508C148.185 12.1765 147.751 12.2989 147.333 12.4179L145.325 13.0816L144.806 13.2892L144.434 13.467C144.401 13.4736 144.355 13.4999 144.297 13.5459C144.231 13.5592 144.169 13.5888 144.111 13.6347C144.163 13.7261 144.229 13.7978 144.307 13.8498C144.314 13.8825 144.337 13.9118 144.376 13.9378L144.632 14.1919L144.967 14.5831L145.577 15.3263C145.991 15.8544 146.359 16.4089 146.681 16.9896C147.365 18.1771 147.748 19.4768 147.832 20.8885C147.915 22.3003 147.586 23.6088 146.844 24.8142C146.168 26.0062 145.286 27.0191 144.197 27.8529C142.026 29.5533 139.588 30.6956 136.883 31.2798C136.263 31.4061 135.56 31.464 134.776 31.4535C134.606 31.4541 134.416 31.4417 134.207 31.4162C133.991 31.3581 133.749 31.2543 133.48 31.1048C133.205 30.9227 133.034 30.6683 132.968 30.3417C132.961 30.309 132.954 30.2763 132.948 30.2437C132.935 30.1783 132.921 30.113 132.908 30.0477C132.901 30.015 132.895 29.9824 132.888 29.9497C132.914 29.9104 132.92 29.8581 132.907 29.7927C132.894 29.7274 132.9 29.6751 132.926 29.6358C132.95 28.9166 133.033 28.2365 133.174 27.5953L133.377 26.5847C133.448 26.2641 133.577 25.8976 133.766 25.4851C133.806 25.8511 133.915 26.1351 134.092 26.3371C134.138 26.3958 134.164 26.4415 134.171 26.4742L134.752 27.3253C134.643 27.7899 134.569 28.264 134.531 28.7479C134.493 28.8919 134.467 29.0162 134.454 29.1208L134.359 29.9056L134.418 29.9446C134.562 29.9834 134.771 30.0088 135.046 30.021C135.32 30.0331 135.591 30.029 135.859 30.0085C136.487 29.9149 137.062 29.8149 137.584 29.7086C139.968 29.0535 142.079 27.9776 143.918 26.4811C145.867 24.8599 146.795 22.9022 146.703 20.6079C146.575 19.4774 146.235 18.3901 145.682 17.3459C145.373 16.8305 145.051 16.3348 144.716 15.8587L144.165 15.1545L143.84 14.8123L143.24 14.1181C143.22 14.0201 143.183 13.9254 143.131 13.8341C143.065 13.6774 143.035 13.5304 143.041 13.3931C143.092 13.1446 143.272 12.938 143.578 12.7736C143.826 12.6551 144.078 12.5529 144.332 12.4671C144.391 12.4211 144.453 12.3915 144.518 12.3782L145.086 12.1606C145.818 11.9098 146.539 11.6949 147.251 11.5161C148.571 11.1456 149.877 10.7948 151.17 10.4636L151.613 7.87342L152.999 8.91805L152.738 10.1446C154.045 9.87882 155.345 9.66532 156.639 9.50413C157.965 9.3363 159.315 9.28279 160.688 9.34361C161.466 9.49138 162.219 9.76345 162.946 10.1598C161.971 9.88194 161.007 9.82304 160.053 9.9831C157.516 10.0569 155.033 10.392 152.604 10.9884C152.02 14.4747 151.558 17.9704 151.216 21.4755C151.034 23.5876 150.871 25.7127 150.728 27.8509C150.715 27.9555 150.702 28.0602 150.69 28.1648C150.523 29.1852 150.516 30.071 150.669 30.8223C150.709 31.0183 150.781 31.2076 150.887 31.3903C150.952 31.547 151.044 31.6643 151.162 31.7424C151.248 31.8271 151.378 31.8855 151.555 31.9176C151.732 31.9497 151.885 31.9524 152.016 31.9259ZM137.831 18.382L138.185 18.6162L138.01 19.009C137.187 19.4824 136.46 20.0045 135.828 20.5753L134.9 21.5296L134.499 22.0702L134.46 22.1292L134.411 22.1392C134.411 22.1392 134.395 22.1425 134.362 22.1491C134.356 22.1165 134.352 22.1001 134.352 22.1001C134.352 22.1001 134.333 22.0871 134.294 22.0611C134.254 22.0351 134.202 22.0287 134.137 22.042C134.097 22.016 134.061 22.0063 134.029 22.013L133.931 22.0329C133.931 22.0329 133.918 22.0526 133.892 22.0919C133.892 22.0919 133.875 22.0952 133.843 22.1018C133.673 22.2724 133.409 22.3092 133.049 22.2123C133.022 22.0817 133.018 21.9804 133.038 21.9084C133.051 21.8038 133.07 21.7318 133.096 21.6925C133.089 21.6598 133.086 21.6435 133.086 21.6435L133.271 21.2997C133.297 21.2603 133.323 21.221 133.349 21.1817C133.375 21.1424 133.405 21.1194 133.437 21.1128L133.476 21.0538L133.603 20.9259C133.662 20.88 133.734 20.8144 133.818 20.7291C133.903 20.6438 134.02 20.5519 134.17 20.4534C134.542 20.1057 134.91 19.8266 135.276 19.6162C136.117 19.0708 136.969 18.6594 137.831 18.382ZM133.921 21.9839L133.931 22.0329L133.921 21.9839ZM173.252 19.8497C174.218 19.4151 174.623 19.3157 174.466 19.5515C174.336 19.7481 173.932 20.1024 173.254 20.6146C172.177 21.0039 170.686 21.7835 168.781 22.9534C167.202 23.887 165.547 24.7848 163.818 25.6469C162.088 26.509 160.485 27.0733 159.009 27.3396C157.526 27.5734 156.351 27.2341 155.485 26.3217C154.868 25.4608 154.652 24.4842 154.838 23.3919C155.179 21.7238 156.044 20.4592 157.434 19.5982C157.675 19.4471 157.976 19.3349 158.335 19.2618C158.72 19.1494 159.093 19.1417 159.453 19.2385C159.806 19.3027 160.039 19.5275 160.151 19.9128C160.198 20.1415 160.185 20.4161 160.115 20.7366C159.92 21.2864 159.556 21.8367 159.022 22.3876C158.214 23.2663 157.288 23.9819 156.244 24.5345C156.352 25.5671 157.047 26.14 158.329 26.2534C159.656 26.2556 161.24 25.8483 163.08 25.0316C164.947 24.1755 166.905 23.1819 168.954 22.0507C170.396 21.2811 171.829 20.5474 173.252 19.8497ZM158.604 20.5847C157.689 20.7708 156.986 21.4923 156.493 22.749C157.491 22.1378 158.303 21.4454 158.928 20.6719L158.604 20.5847ZM189.836 16.0674L189.594 16.882C187.994 17.3776 186.195 17.9818 184.197 18.6944C182.231 19.4004 180.508 20.1252 179.026 20.8689C178.72 21.0333 178.413 21.1978 178.106 21.3622C177.891 21.4741 177.676 21.5859 177.46 21.6977C177.507 21.9264 177.544 22.191 177.571 22.4917C177.514 23.2175 177.196 23.8265 176.616 24.3187C176.062 24.7716 175.462 25.1658 174.816 25.5014C173.713 26.0999 172.531 26.4765 171.27 26.631L170.476 26.7415L170.414 25.9376C170.406 25.3951 170.604 24.9466 171.008 24.5923C171.373 24.2119 171.8 23.8869 172.289 23.6172C172.322 23.6106 172.368 23.5843 172.426 23.5383L174.521 22.2959L175.842 21.5168C175.835 21.4841 175.815 21.4711 175.783 21.4778C175.776 21.4451 175.753 21.4158 175.714 21.3898C175.026 20.8494 174.279 20.4401 173.474 20.1616C172.996 19.9867 172.508 19.7628 172.011 19.4899C171.827 19.4251 171.664 19.2884 171.519 19.0797C171.335 18.8449 171.22 18.6133 171.174 18.3846C171.198 17.8354 171.435 17.328 171.884 16.8623C172.334 16.3967 172.882 16.1661 173.529 16.1705C174.053 16.2341 174.416 16.5173 174.621 17.02C174.851 17.4833 174.898 17.9669 174.763 18.4708C174.724 18.6147 174.682 18.7423 174.637 18.8536C174.591 18.9649 174.559 19.0565 174.539 19.1285C175.227 19.4988 175.912 19.9378 176.593 20.4455L176.938 20.8856L178.837 19.9379C180.423 19.207 182.235 18.4983 184.272 17.8116C186.342 17.1184 188.197 16.5369 189.836 16.0674ZM176.345 22.4859L176.315 22.3389L174.906 23.1869L172.92 24.4585L171.931 25.1187L171.638 25.4335C172.161 25.3272 172.801 25.1289 173.558 24.8388C174.276 24.5226 174.919 24.1707 175.486 23.7831C176.047 23.3629 176.333 22.9305 176.345 22.4859ZM172.683 18.2815C172.808 18.3923 172.978 18.4767 173.194 18.5348L173.233 18.4758C173.298 18.2926 173.333 18.1323 173.339 17.995C173.333 17.9623 173.326 17.9297 173.319 17.897C173.313 17.8643 173.322 17.8284 173.348 17.789L173.309 17.5931C173.309 17.5931 173.276 17.5997 173.211 17.613C173.178 17.6196 173.132 17.6459 173.074 17.6919C172.95 17.7511 172.823 17.879 172.692 18.0756L172.575 18.2525L172.683 18.2815Z" fill="white"/>
</svg>
