<svg width="236" height="12" viewBox="0 0 236 12" fill="none" xmlns="http://www.w3.org/2000/svg">
<path d="M9.84 6.32449C9.608 7.33249 9.096 8.07649 8.304 8.55649C7.512 9.02849 6.496 9.26449 5.256 9.26449C4.504 9.26449 3.832 9.16449 3.24 8.96449C2.648 8.76449 2.148 8.48049 1.74 8.11249C1.332 7.73649 1.02 7.28049 0.804 6.74449C0.588 6.20849 0.48 5.60449 0.48 4.93249V4.71649C0.48 4.02049 0.588 3.40049 0.804 2.85649C1.02 2.31249 1.332 1.85649 1.74 1.48849C2.148 1.11249 2.648 0.828488 3.24 0.636488C3.832 0.436488 4.504 0.336488 5.256 0.336488C5.896 0.336488 6.476 0.400488 6.996 0.528488C7.524 0.656488 7.98 0.852488 8.364 1.11649C8.756 1.37249 9.076 1.69649 9.324 2.08849C9.572 2.48049 9.736 2.94049 9.816 3.46849H8.52C8.44 3.15649 8.304 2.87249 8.112 2.61649C7.928 2.35249 7.696 2.12849 7.416 1.94449C7.144 1.75249 6.824 1.60849 6.456 1.51249C6.096 1.40849 5.696 1.35649 5.256 1.35649C4.672 1.35649 4.16 1.44449 3.72 1.62049C3.28 1.78849 2.912 2.02449 2.616 2.32849C2.32 2.63249 2.096 3.00049 1.944 3.43249C1.8 3.85649 1.728 4.32449 1.728 4.83649C1.728 5.32449 1.8 5.77649 1.944 6.19249C2.096 6.60849 2.32 6.96849 2.616 7.27249C2.912 7.57649 3.28 7.81649 3.72 7.99249C4.16 8.16049 4.672 8.24449 5.256 8.24449C6.144 8.24449 6.876 8.07649 7.452 7.74049C8.036 7.39649 8.408 6.92449 8.568 6.32449H9.84ZM17.8722 5.80849C17.8642 6.39249 17.7642 6.90449 17.5722 7.34449C17.3882 7.77649 17.1242 8.13649 16.7802 8.42449C16.4442 8.71249 16.0402 8.92849 15.5682 9.07249C15.1042 9.21649 14.5882 9.28849 14.0202 9.28849C13.4442 9.28849 12.9242 9.21649 12.4602 9.07249C11.9962 8.93649 11.5962 8.72449 11.2602 8.43649C10.9322 8.14849 10.6762 7.78449 10.4922 7.34449C10.3082 6.90449 10.2122 6.38849 10.2042 5.79649C10.2042 5.20449 10.2962 4.68849 10.4802 4.24849C10.6642 3.80049 10.9202 3.43249 11.2482 3.14449C11.5842 2.84849 11.9842 2.62849 12.4482 2.48449C12.9202 2.33249 13.4402 2.25649 14.0082 2.25649C14.5842 2.25649 15.1082 2.32849 15.5802 2.47249C16.0522 2.61649 16.4562 2.83649 16.7922 3.13249C17.1362 3.42049 17.4002 3.78849 17.5842 4.23649C17.7762 4.68449 17.8722 5.20849 17.8722 5.80849ZM11.3442 5.77249C11.3602 6.63649 11.5962 7.27249 12.0522 7.68049C12.5162 8.08049 13.1722 8.28049 14.0202 8.28049C14.8682 8.28049 15.5282 8.08049 16.0002 7.68049C16.4722 7.28049 16.7162 6.64449 16.7322 5.77249C16.7162 4.90049 16.4682 4.26449 15.9882 3.86449C15.5082 3.45649 14.8442 3.25249 13.9962 3.25249C13.1482 3.25249 12.4962 3.45649 12.0402 3.86449C11.5922 4.26449 11.3602 4.90049 11.3442 5.77249ZM22.6026 9.24049C22.0346 9.24049 21.5026 9.16049 21.0066 9.00049C20.5106 8.83249 20.0826 8.58449 19.7226 8.25649V11.0285H18.6066V2.64049H19.7226L19.6626 3.42049C20.0226 3.07649 20.4466 2.80849 20.9346 2.61649C21.4306 2.42449 21.9706 2.32849 22.5546 2.32849C23.0986 2.32849 23.6026 2.39649 24.0666 2.53249C24.5306 2.66849 24.9306 2.88049 25.2666 3.16849C25.6106 3.44849 25.8786 3.80449 26.0706 4.23649C26.2706 4.66049 26.3746 5.16449 26.3826 5.74849C26.3826 6.34849 26.2866 6.86849 26.0946 7.30849C25.9106 7.74849 25.6506 8.11249 25.3146 8.40049C24.9786 8.68849 24.5786 8.90049 24.1146 9.03649C23.6506 9.17249 23.1466 9.24049 22.6026 9.24049ZM19.7346 5.78449C19.7426 6.22449 19.8146 6.59649 19.9506 6.90049C20.0946 7.20449 20.2906 7.45249 20.5386 7.64449C20.7866 7.83649 21.0786 7.97649 21.4146 8.06449C21.7586 8.15249 22.1306 8.19649 22.5306 8.19649C22.9306 8.19649 23.2946 8.15249 23.6226 8.06449C23.9586 7.97649 24.2426 7.83649 24.4746 7.64449C24.7146 7.45249 24.8986 7.20449 25.0266 6.90049C25.1626 6.59649 25.2346 6.22449 25.2426 5.78449C25.2346 5.34449 25.1626 4.97249 25.0266 4.66849C24.8986 4.35649 24.7186 4.10449 24.4866 3.91249C24.2546 3.71249 23.9746 3.56849 23.6466 3.48049C23.3186 3.39249 22.9546 3.34849 22.5546 3.34849C22.1466 3.34849 21.7706 3.39649 21.4266 3.49249C21.0906 3.58049 20.7946 3.72449 20.5386 3.92449C20.2906 4.11649 20.0946 4.36849 19.9506 4.68049C19.8146 4.98449 19.7426 5.35249 19.7346 5.78449ZM31.5894 8.47249C31.2694 9.09649 30.9774 9.56849 30.7134 9.88849C30.4494 10.2085 30.1934 10.4325 29.9454 10.5605C29.6974 10.6965 29.4414 10.7645 29.1774 10.7645C28.9134 10.7725 28.6134 10.7765 28.2774 10.7765H28.1694V9.75649C28.4654 9.75649 28.7134 9.74849 28.9134 9.73249C29.1134 9.71649 29.2894 9.66449 29.4414 9.57649C29.6014 9.48849 29.7574 9.34849 29.9094 9.15649C30.0614 8.96449 30.2374 8.69249 30.4374 8.34049L30.4974 8.22049H29.7294L26.5734 2.65249H27.8334C28.3294 3.53249 28.7814 4.33249 29.1894 5.05249C29.3654 5.35649 29.5374 5.66049 29.7054 5.96449C29.8734 6.26049 30.0294 6.53649 30.1734 6.79249C30.3174 7.04049 30.4374 7.25249 30.5334 7.42849C30.6294 7.59649 30.6934 7.70849 30.7254 7.76449L33.2814 2.65249H34.5174L31.5894 8.47249ZM38.89 3.42049C38.49 3.42049 38.122 3.46849 37.786 3.56449C37.45 3.65249 37.158 3.79249 36.91 3.98449C36.662 4.17649 36.47 4.42849 36.334 4.74049C36.198 5.04449 36.126 5.41649 36.118 5.85649L36.106 9.00049H35.002V2.64049H36.118L35.974 3.60049C36.302 3.21649 36.714 2.92849 37.21 2.73649C37.706 2.53649 38.266 2.43649 38.89 2.43649H40.342V3.42049H38.89ZM44.5707 0.000487566V1.38049H43.0707V0.000487566H44.5707ZM46.5507 8.01649V9.00049H40.2267V8.01649H43.4427V3.62449H41.1507V2.62849H44.5707V8.01649H46.5507ZM55.0153 8.46049C55.0393 8.96449 54.9353 9.38849 54.7033 9.73249C54.4793 10.0765 54.1753 10.3525 53.7913 10.5605C53.4153 10.7765 52.9873 10.9325 52.5073 11.0285C52.0353 11.1245 51.5593 11.1725 51.0793 11.1725H50.7553C50.1473 11.1725 49.5993 11.1125 49.1113 10.9925C48.6233 10.8725 48.2073 10.7005 47.8633 10.4765C47.5193 10.2525 47.2553 9.97649 47.0713 9.64849C46.8873 9.32049 46.7953 8.94449 46.7953 8.52049H47.9593C47.9593 8.74449 48.0113 8.95649 48.1153 9.15649C48.2273 9.35649 48.3953 9.53249 48.6193 9.68449C48.8433 9.83649 49.1273 9.95649 49.4713 10.0445C49.8233 10.1405 50.2433 10.1885 50.7313 10.1885H50.9953C51.0273 10.1885 51.1193 10.1845 51.2713 10.1765C51.4313 10.1685 51.6193 10.1485 51.8353 10.1165C52.0513 10.0845 52.2793 10.0325 52.5193 9.96049C52.7673 9.89649 52.9913 9.80049 53.1913 9.67249C53.3993 9.55249 53.5673 9.40049 53.6953 9.21649C53.8313 9.04049 53.8993 8.82049 53.8993 8.55649C53.8993 8.31649 53.8473 8.12449 53.7433 7.98049C53.6393 7.83649 53.5273 7.72849 53.4073 7.65649C53.0873 7.87249 52.7113 8.03649 52.2793 8.14849C51.8473 8.25249 51.3713 8.30449 50.8513 8.30449C50.2993 8.30449 49.7913 8.24849 49.3273 8.13649C48.8713 8.01649 48.4753 7.83649 48.1393 7.59649C47.8113 7.35649 47.5513 7.05249 47.3593 6.68449C47.1753 6.30849 47.0793 5.86449 47.0713 5.35249C47.0713 4.84849 47.1633 4.40849 47.3473 4.03249C47.5393 3.65649 47.7993 3.34449 48.1273 3.09649C48.4633 2.84849 48.8593 2.66449 49.3153 2.54449C49.7793 2.42449 50.2833 2.36449 50.8273 2.36449C51.1873 2.36449 51.5233 2.38849 51.8353 2.43649C52.1553 2.48449 52.4513 2.56049 52.7233 2.66449H55.1593V3.85249L54.0553 3.64849C54.2153 3.87249 54.3353 4.12849 54.4153 4.41649C54.5033 4.69649 54.5473 5.01249 54.5473 5.36449C54.5313 6.02849 54.3753 6.57649 54.0793 7.00849C54.3033 7.13649 54.5113 7.31649 54.7033 7.54849C54.8953 7.78049 54.9993 8.08449 55.0153 8.46049ZM48.1993 5.34049C48.2073 5.70849 48.2713 6.02049 48.3913 6.27649C48.5193 6.52449 48.6953 6.72849 48.9193 6.88849C49.1513 7.04049 49.4273 7.15249 49.7473 7.22449C50.0753 7.28849 50.4433 7.32049 50.8513 7.32049C51.2513 7.32049 51.6073 7.28849 51.9193 7.22449C52.2393 7.15249 52.5113 7.04049 52.7353 6.88849C52.9593 6.73649 53.1273 6.53249 53.2393 6.27649C53.3593 6.02049 53.4233 5.70849 53.4313 5.34049C53.4313 4.96449 53.3713 4.65249 53.2513 4.40449C53.1313 4.14849 52.9553 3.94049 52.7233 3.78049C52.4993 3.62049 52.2273 3.50849 51.9073 3.44449C51.5873 3.37249 51.2233 3.33649 50.8153 3.33649C50.4153 3.33649 50.0513 3.37249 49.7233 3.44449C49.4033 3.50849 49.1273 3.62049 48.8953 3.78049C48.6713 3.93249 48.4993 4.13649 48.3793 4.39249C48.2593 4.64849 48.1993 4.96449 48.1993 5.34049ZM59.7714 3.30049C59.3714 3.30049 59.0034 3.35249 58.6674 3.45649C58.3314 3.56049 58.0394 3.71649 57.7914 3.92449C57.5434 4.13249 57.3514 4.39649 57.2154 4.71649C57.0794 5.02849 57.0074 5.40449 56.9994 5.84449V9.00049H55.8834V0.600488H56.9994V3.39649C57.3354 3.04449 57.7434 2.77649 58.2234 2.59249C58.7034 2.40849 59.2354 2.31649 59.8194 2.31649C60.2754 2.31649 60.6914 2.37649 61.0674 2.49649C61.4434 2.61649 61.7634 2.79649 62.0274 3.03649C62.2994 3.26849 62.5074 3.56449 62.6514 3.92449C62.7954 4.27649 62.8674 4.69249 62.8674 5.17249V9.00049H61.7514V5.55649C61.7514 5.25249 61.7234 4.96449 61.6674 4.69249C61.6114 4.42049 61.5074 4.18049 61.3554 3.97249C61.2034 3.76449 60.9994 3.60049 60.7434 3.48049C60.4954 3.36049 60.1714 3.30049 59.7714 3.30049ZM67.12 8.97649C66.52 8.98449 66.052 8.93649 65.716 8.83249C65.38 8.72849 65.128 8.54449 64.96 8.28049C64.8 8.00849 64.7 7.63649 64.66 7.16449C64.628 6.68449 64.612 6.07649 64.612 5.34049V3.63649H63.472V2.65249H64.624V1.24849H65.74L65.536 2.65249H67.624V3.63649H65.74L65.728 5.34049C65.728 5.97249 65.736 6.46449 65.752 6.81649C65.776 7.16849 65.832 7.42849 65.92 7.59649C66.016 7.76449 66.156 7.86449 66.34 7.89649C66.532 7.92849 66.796 7.94449 67.132 7.94449L67.12 8.97649ZM86.419 5.60449C86.387 6.46849 86.223 7.21649 85.927 7.84849C85.639 8.47249 85.223 8.98849 84.679 9.39649C84.143 9.80449 83.487 10.1085 82.711 10.3085C81.943 10.5085 81.063 10.6085 80.071 10.6085C79.079 10.6085 78.195 10.5085 77.419 10.3085C76.651 10.1085 75.999 9.80449 75.463 9.39649C74.935 8.98849 74.523 8.47249 74.227 7.84849C73.939 7.21649 73.779 6.46849 73.747 5.60449V5.34049C73.779 4.49249 73.943 3.75249 74.239 3.12049C74.535 2.48049 74.943 1.94849 75.463 1.52449C75.991 1.09249 76.623 0.764488 77.359 0.540488C78.103 0.308488 78.939 0.180488 79.867 0.156488H80.299C81.227 0.180488 82.059 0.308488 82.795 0.540488C83.539 0.764488 84.171 1.09249 84.691 1.52449C85.219 1.94849 85.631 2.48049 85.927 3.12049C86.223 3.75249 86.387 4.49249 86.419 5.34049V5.60449ZM74.791 5.47249C74.791 6.88049 75.251 7.94049 76.171 8.65249C77.091 9.35649 78.395 9.70849 80.083 9.70849C81.771 9.70849 83.075 9.35649 83.995 8.65249C84.915 7.94049 85.375 6.88049 85.375 5.47249C85.375 4.03249 84.927 2.93649 84.031 2.18449C83.135 1.42449 81.819 1.04449 80.083 1.04449C78.347 1.04449 77.031 1.42449 76.135 2.18449C75.239 2.93649 74.791 4.03249 74.791 5.47249ZM83.731 6.43249C83.547 7.23249 83.139 7.82449 82.507 8.20849C81.883 8.58449 81.095 8.77249 80.143 8.77249C79.575 8.77249 79.059 8.70449 78.595 8.56849C78.139 8.43249 77.747 8.22449 77.419 7.94449C77.091 7.66449 76.839 7.30849 76.663 6.87649C76.487 6.44449 76.395 5.93249 76.387 5.34049C76.387 4.74849 76.475 4.23649 76.651 3.80449C76.827 3.36449 77.075 3.00049 77.395 2.71249C77.723 2.42449 78.119 2.21249 78.583 2.07649C79.047 1.93249 79.563 1.86049 80.131 1.86049C81.075 1.86049 81.867 2.05249 82.507 2.43649C83.155 2.81249 83.567 3.40449 83.743 4.21249H82.531C82.387 3.73249 82.107 3.38449 81.691 3.16849C81.275 2.94449 80.751 2.83649 80.119 2.84449C79.271 2.85249 78.631 3.05249 78.199 3.44449C77.767 3.82849 77.543 4.45649 77.527 5.32849C77.543 6.18449 77.771 6.80849 78.211 7.20049C78.651 7.59249 79.295 7.78849 80.143 7.78849C80.783 7.78849 81.303 7.68049 81.703 7.46449C82.103 7.24849 82.383 6.90449 82.543 6.43249H83.731ZM100.132 7.94449V9.00049H92.5961V7.24849C93.4841 6.84849 94.3001 6.49649 95.0441 6.19249C95.7961 5.88849 96.4481 5.59249 97.0001 5.30449C97.5521 5.00849 97.9841 4.70049 98.2961 4.38049C98.6161 4.05249 98.7881 3.66849 98.8121 3.22849C98.8201 3.12449 98.8041 2.97249 98.7641 2.77249C98.7241 2.57249 98.6241 2.37249 98.4641 2.17249C98.3121 1.97249 98.0761 1.79649 97.7561 1.64449C97.4361 1.48449 97.0001 1.40049 96.4481 1.39249C95.5361 1.37649 94.8681 1.56849 94.4441 1.96849C94.0201 2.36849 93.8121 2.94449 93.8201 3.69649H92.5481C92.5481 3.28849 92.5961 2.88849 92.6921 2.49649C92.7881 2.09649 92.9761 1.74049 93.2561 1.42849C93.5361 1.11649 93.9281 0.864488 94.4321 0.672488C94.9441 0.472488 95.6161 0.372488 96.4481 0.372488C97.0081 0.372488 97.4841 0.424488 97.8761 0.528488C98.2761 0.624488 98.6081 0.756488 98.8721 0.924488C99.1441 1.08449 99.3561 1.26849 99.5081 1.47649C99.6681 1.68449 99.7881 1.89249 99.8681 2.10049C99.9481 2.30849 100 2.50849 100.024 2.70049C100.048 2.88449 100.06 3.04049 100.06 3.16849C100.06 3.81649 99.8881 4.36449 99.5441 4.81249C99.2001 5.25249 98.7321 5.64449 98.1401 5.98849C97.5561 6.33249 96.8801 6.65649 96.1121 6.96049C95.3441 7.25649 94.5321 7.58449 93.6761 7.94449H100.132ZM109.305 4.66849C109.321 5.38849 109.245 6.03249 109.077 6.60049C108.909 7.16849 108.653 7.65249 108.309 8.05249C107.973 8.44449 107.541 8.74849 107.013 8.96449C106.493 9.17249 105.877 9.27649 105.165 9.27649C103.757 9.27649 102.713 8.91249 102.033 8.18449C101.353 7.45649 100.993 6.37249 100.953 4.93249C100.953 4.20449 101.029 3.55649 101.181 2.98849C101.333 2.42049 101.577 1.94049 101.913 1.54849C102.249 1.14849 102.681 0.844488 103.209 0.636488C103.745 0.428488 104.397 0.324488 105.165 0.324488C106.589 0.324488 107.629 0.696488 108.285 1.44049C108.941 2.17649 109.281 3.25249 109.305 4.66849ZM102.189 4.80049C102.189 5.97649 102.429 6.84849 102.909 7.41649C103.397 7.97649 104.125 8.25649 105.093 8.25649H105.249C106.217 8.25649 106.925 7.96849 107.373 7.39249C107.829 6.80849 108.057 5.94449 108.057 4.80049C108.057 3.65649 107.829 2.79649 107.373 2.22049C106.925 1.63649 106.217 1.34449 105.249 1.34449H105.093C104.117 1.34449 103.389 1.62449 102.909 2.18449C102.429 2.74449 102.189 3.61649 102.189 4.80049ZM117.465 7.94449V9.00049H109.929V7.24849C110.817 6.84849 111.633 6.49649 112.377 6.19249C113.129 5.88849 113.781 5.59249 114.333 5.30449C114.885 5.00849 115.317 4.70049 115.629 4.38049C115.949 4.05249 116.121 3.66849 116.145 3.22849C116.153 3.12449 116.137 2.97249 116.097 2.77249C116.057 2.57249 115.957 2.37249 115.797 2.17249C115.645 1.97249 115.409 1.79649 115.089 1.64449C114.769 1.48449 114.333 1.40049 113.781 1.39249C112.869 1.37649 112.201 1.56849 111.777 1.96849C111.353 2.36849 111.145 2.94449 111.153 3.69649H109.881C109.881 3.28849 109.929 2.88849 110.025 2.49649C110.121 2.09649 110.309 1.74049 110.589 1.42849C110.869 1.11649 111.261 0.864488 111.765 0.672488C112.277 0.472488 112.949 0.372488 113.781 0.372488C114.341 0.372488 114.817 0.424488 115.209 0.528488C115.609 0.624488 115.941 0.756488 116.205 0.924488C116.477 1.08449 116.689 1.26849 116.841 1.47649C117.001 1.68449 117.121 1.89249 117.201 2.10049C117.281 2.30849 117.333 2.50849 117.357 2.70049C117.381 2.88449 117.393 3.04049 117.393 3.16849C117.393 3.81649 117.221 4.36449 116.877 4.81249C116.533 5.25249 116.065 5.64449 115.473 5.98849C114.889 6.33249 114.213 6.65649 113.445 6.96049C112.677 7.25649 111.865 7.58449 111.009 7.94449H117.465ZM125.234 7.94449V9.00049H118.67V7.94449H121.778V1.42849L119.918 4.92049H118.682L121.022 0.600488H122.954V7.94449H125.234ZM134.348 0.444488L132.836 4.17649H131.276L132.716 0.444488H134.348ZM137.384 0.444488L135.872 4.17649H134.312L135.752 0.444488H137.384ZM147.79 6.32449C147.558 7.33249 147.046 8.07649 146.254 8.55649C145.462 9.02849 144.446 9.26449 143.206 9.26449C142.454 9.26449 141.782 9.16449 141.19 8.96449C140.598 8.76449 140.098 8.48049 139.69 8.11249C139.282 7.73649 138.97 7.28049 138.754 6.74449C138.538 6.20849 138.43 5.60449 138.43 4.93249V4.71649C138.43 4.02049 138.538 3.40049 138.754 2.85649C138.97 2.31249 139.282 1.85649 139.69 1.48849C140.098 1.11249 140.598 0.828488 141.19 0.636488C141.782 0.436488 142.454 0.336488 143.206 0.336488C143.846 0.336488 144.426 0.400488 144.946 0.528488C145.474 0.656488 145.93 0.852488 146.314 1.11649C146.706 1.37249 147.026 1.69649 147.274 2.08849C147.522 2.48049 147.686 2.94049 147.766 3.46849H146.47C146.39 3.15649 146.254 2.87249 146.062 2.61649C145.878 2.35249 145.646 2.12849 145.366 1.94449C145.094 1.75249 144.774 1.60849 144.406 1.51249C144.046 1.40849 143.646 1.35649 143.206 1.35649C142.622 1.35649 142.11 1.44449 141.67 1.62049C141.23 1.78849 140.862 2.02449 140.566 2.32849C140.27 2.63249 140.046 3.00049 139.894 3.43249C139.75 3.85649 139.678 4.32449 139.678 4.83649C139.678 5.32449 139.75 5.77649 139.894 6.19249C140.046 6.60849 140.27 6.96849 140.566 7.27249C140.862 7.57649 141.23 7.81649 141.67 7.99249C142.11 8.16049 142.622 8.24449 143.206 8.24449C144.094 8.24449 144.826 8.07649 145.402 7.74049C145.986 7.39649 146.358 6.92449 146.518 6.32449H147.79ZM150.002 0.588488V9.00049H148.874V0.600488L150.002 0.588488ZM158.635 5.80849C158.627 6.39249 158.527 6.90449 158.335 7.34449C158.151 7.77649 157.887 8.13649 157.543 8.42449C157.207 8.71249 156.803 8.92849 156.331 9.07249C155.867 9.21649 155.351 9.28849 154.783 9.28849C154.207 9.28849 153.687 9.21649 153.223 9.07249C152.759 8.93649 152.359 8.72449 152.023 8.43649C151.695 8.14849 151.439 7.78449 151.255 7.34449C151.071 6.90449 150.975 6.38849 150.967 5.79649C150.967 5.20449 151.059 4.68849 151.243 4.24849C151.427 3.80049 151.683 3.43249 152.011 3.14449C152.347 2.84849 152.747 2.62849 153.211 2.48449C153.683 2.33249 154.203 2.25649 154.771 2.25649C155.347 2.25649 155.871 2.32849 156.343 2.47249C156.815 2.61649 157.219 2.83649 157.555 3.13249C157.899 3.42049 158.163 3.78849 158.347 4.23649C158.539 4.68449 158.635 5.20849 158.635 5.80849ZM152.107 5.77249C152.123 6.63649 152.359 7.27249 152.815 7.68049C153.279 8.08049 153.935 8.28049 154.783 8.28049C155.631 8.28049 156.291 8.08049 156.763 7.68049C157.235 7.28049 157.479 6.64449 157.495 5.77249C157.479 4.90049 157.231 4.26449 156.751 3.86449C156.271 3.45649 155.607 3.25249 154.759 3.25249C153.911 3.25249 153.259 3.45649 152.803 3.86449C152.355 4.26449 152.123 4.90049 152.107 5.77249ZM164.985 8.24449C164.649 8.62849 164.233 8.90449 163.737 9.07249C163.241 9.24049 162.681 9.32449 162.057 9.32449C161.601 9.32449 161.185 9.26449 160.809 9.14449C160.433 9.03249 160.109 8.85649 159.837 8.61649C159.573 8.37649 159.369 8.07649 159.225 7.71649C159.081 7.35649 159.009 6.93649 159.009 6.45649V2.64049H160.125V6.08449C160.125 6.28449 160.133 6.51649 160.149 6.78049C160.173 7.03649 160.245 7.27649 160.365 7.50049C160.493 7.72449 160.689 7.91649 160.953 8.07649C161.225 8.22849 161.609 8.30449 162.105 8.30449C162.505 8.30449 162.873 8.26449 163.209 8.18449C163.545 8.09649 163.833 7.94849 164.073 7.74049C164.321 7.53249 164.513 7.24849 164.649 6.88849C164.793 6.52049 164.869 6.05249 164.877 5.48449V2.64049H165.981V9.00049H164.877L164.985 8.24449ZM173.666 7.10449C173.666 7.37649 173.622 7.64049 173.534 7.89649C173.446 8.15249 173.278 8.38049 173.03 8.58049C172.79 8.77249 172.446 8.92849 171.998 9.04849C171.558 9.16849 170.982 9.22849 170.27 9.22849C169.63 9.22849 169.094 9.16449 168.662 9.03649C168.23 8.91649 167.878 8.75249 167.606 8.54449C167.342 8.32849 167.15 8.08449 167.03 7.81249C166.91 7.53249 166.842 7.24049 166.826 6.93649H167.942C167.966 7.24049 168.058 7.48049 168.218 7.65649C168.378 7.82449 168.578 7.95249 168.818 8.04049C169.066 8.12049 169.338 8.17249 169.634 8.19649C169.93 8.21249 170.23 8.22049 170.534 8.22049C171.206 8.22049 171.706 8.12849 172.034 7.94449C172.362 7.75249 172.526 7.50449 172.526 7.20049C172.526 7.00049 172.454 6.84049 172.31 6.72049C172.166 6.59249 171.974 6.49249 171.734 6.42049C171.502 6.34849 171.23 6.29249 170.918 6.25249C170.614 6.20449 170.298 6.16449 169.97 6.13249C169.554 6.08449 169.162 6.02849 168.794 5.96449C168.426 5.90049 168.106 5.80849 167.834 5.68849C167.562 5.56849 167.346 5.40849 167.186 5.20849C167.026 5.00849 166.946 4.74849 166.946 4.42849C166.946 4.15649 166.99 3.89249 167.078 3.63649C167.174 3.38049 167.346 3.15649 167.594 2.96449C167.85 2.76449 168.198 2.60449 168.638 2.48449C169.086 2.36449 169.666 2.30449 170.378 2.30449C171.018 2.30449 171.538 2.37249 171.938 2.50849C172.346 2.64449 172.666 2.82049 172.898 3.03649C173.13 3.25249 173.29 3.49649 173.378 3.76849C173.474 4.04049 173.53 4.31649 173.546 4.59649H172.43C172.398 4.30849 172.322 4.08049 172.202 3.91249C172.09 3.73649 171.938 3.60449 171.746 3.51649C171.554 3.42849 171.326 3.37249 171.062 3.34849C170.798 3.31649 170.502 3.30049 170.174 3.30049C169.43 3.30049 168.894 3.39649 168.566 3.58849C168.246 3.78049 168.086 4.02849 168.086 4.33249C168.086 4.50049 168.162 4.63649 168.314 4.74049C168.474 4.83649 168.678 4.91649 168.926 4.98049C169.174 5.03649 169.446 5.08049 169.742 5.11249C170.038 5.14449 170.322 5.17649 170.594 5.20849C171.018 5.25649 171.414 5.31649 171.782 5.38849C172.158 5.46049 172.482 5.56449 172.754 5.70049C173.034 5.83649 173.254 6.01649 173.414 6.24049C173.582 6.46449 173.666 6.75249 173.666 7.10449ZM181.735 7.18849C181.615 7.53249 181.439 7.83649 181.207 8.10049C180.975 8.36449 180.695 8.58449 180.367 8.76049C180.047 8.93649 179.687 9.06849 179.287 9.15649C178.887 9.24449 178.467 9.28849 178.027 9.28849C177.451 9.28849 176.927 9.21649 176.455 9.07249C175.983 8.93649 175.575 8.72449 175.231 8.43649C174.895 8.14849 174.631 7.78449 174.439 7.34449C174.255 6.90449 174.159 6.38849 174.151 5.79649C174.151 5.20449 174.247 4.68849 174.439 4.24849C174.639 3.80049 174.911 3.43249 175.255 3.14449C175.607 2.84849 176.023 2.62849 176.503 2.48449C176.983 2.33249 177.507 2.25649 178.075 2.25649C178.731 2.25649 179.303 2.34849 179.791 2.53249C180.287 2.71649 180.691 2.98049 181.003 3.32449C181.323 3.66049 181.551 4.06849 181.687 4.54849C181.823 5.02849 181.859 5.56049 181.795 6.14449H175.315C175.403 6.87249 175.679 7.41249 176.143 7.76449C176.615 8.11649 177.243 8.29249 178.027 8.29249C178.603 8.29249 179.111 8.20449 179.551 8.02849C179.991 7.84449 180.315 7.56049 180.523 7.17649L181.735 7.18849ZM178.099 3.25249C177.363 3.25249 176.747 3.41249 176.251 3.73249C175.763 4.04449 175.463 4.52849 175.351 5.18449H180.679C180.671 4.88049 180.595 4.60849 180.451 4.36849C180.315 4.12849 180.131 3.92849 179.899 3.76849C179.667 3.60049 179.395 3.47249 179.083 3.38449C178.771 3.29649 178.443 3.25249 178.099 3.25249ZM189.129 4.98049V9.00049H187.953V0.600488H189.129V3.92449H195.393V0.600488H196.569V9.00049H195.393V4.98049H189.129ZM204.962 5.80849C204.954 6.39249 204.854 6.90449 204.662 7.34449C204.478 7.77649 204.214 8.13649 203.87 8.42449C203.534 8.71249 203.13 8.92849 202.658 9.07249C202.194 9.21649 201.678 9.28849 201.11 9.28849C200.534 9.28849 200.014 9.21649 199.55 9.07249C199.086 8.93649 198.686 8.72449 198.35 8.43649C198.022 8.14849 197.766 7.78449 197.582 7.34449C197.398 6.90449 197.302 6.38849 197.294 5.79649C197.294 5.20449 197.386 4.68849 197.57 4.24849C197.754 3.80049 198.01 3.43249 198.338 3.14449C198.674 2.84849 199.074 2.62849 199.538 2.48449C200.01 2.33249 200.53 2.25649 201.098 2.25649C201.674 2.25649 202.198 2.32849 202.67 2.47249C203.142 2.61649 203.546 2.83649 203.882 3.13249C204.226 3.42049 204.49 3.78849 204.674 4.23649C204.866 4.68449 204.962 5.20849 204.962 5.80849ZM198.434 5.77249C198.45 6.63649 198.686 7.27249 199.142 7.68049C199.606 8.08049 200.262 8.28049 201.11 8.28049C201.958 8.28049 202.618 8.08049 203.09 7.68049C203.562 7.28049 203.806 6.64449 203.822 5.77249C203.806 4.90049 203.558 4.26449 203.078 3.86449C202.598 3.45649 201.934 3.25249 201.086 3.25249C200.238 3.25249 199.586 3.45649 199.13 3.86449C198.682 4.26449 198.45 4.90049 198.434 5.77249ZM211.312 8.24449C210.976 8.62849 210.56 8.90449 210.064 9.07249C209.568 9.24049 209.008 9.32449 208.384 9.32449C207.928 9.32449 207.512 9.26449 207.136 9.14449C206.76 9.03249 206.436 8.85649 206.164 8.61649C205.9 8.37649 205.696 8.07649 205.552 7.71649C205.408 7.35649 205.336 6.93649 205.336 6.45649V2.64049H206.452V6.08449C206.452 6.28449 206.46 6.51649 206.476 6.78049C206.5 7.03649 206.572 7.27649 206.692 7.50049C206.82 7.72449 207.016 7.91649 207.28 8.07649C207.552 8.22849 207.936 8.30449 208.432 8.30449C208.832 8.30449 209.2 8.26449 209.536 8.18449C209.872 8.09649 210.16 7.94849 210.4 7.74049C210.648 7.53249 210.84 7.24849 210.976 6.88849C211.12 6.52049 211.196 6.05249 211.204 5.48449V2.64049H212.308V9.00049H211.204L211.312 8.24449ZM219.993 7.10449C219.993 7.37649 219.949 7.64049 219.861 7.89649C219.773 8.15249 219.605 8.38049 219.357 8.58049C219.117 8.77249 218.773 8.92849 218.325 9.04849C217.885 9.16849 217.309 9.22849 216.597 9.22849C215.957 9.22849 215.421 9.16449 214.989 9.03649C214.557 8.91649 214.205 8.75249 213.933 8.54449C213.669 8.32849 213.477 8.08449 213.357 7.81249C213.237 7.53249 213.169 7.24049 213.153 6.93649H214.269C214.293 7.24049 214.385 7.48049 214.545 7.65649C214.705 7.82449 214.905 7.95249 215.145 8.04049C215.393 8.12049 215.665 8.17249 215.961 8.19649C216.257 8.21249 216.557 8.22049 216.861 8.22049C217.533 8.22049 218.033 8.12849 218.361 7.94449C218.689 7.75249 218.853 7.50449 218.853 7.20049C218.853 7.00049 218.781 6.84049 218.637 6.72049C218.493 6.59249 218.301 6.49249 218.061 6.42049C217.829 6.34849 217.557 6.29249 217.245 6.25249C216.941 6.20449 216.625 6.16449 216.297 6.13249C215.881 6.08449 215.489 6.02849 215.121 5.96449C214.753 5.90049 214.433 5.80849 214.161 5.68849C213.889 5.56849 213.673 5.40849 213.513 5.20849C213.353 5.00849 213.273 4.74849 213.273 4.42849C213.273 4.15649 213.317 3.89249 213.405 3.63649C213.501 3.38049 213.673 3.15649 213.921 2.96449C214.177 2.76449 214.525 2.60449 214.965 2.48449C215.413 2.36449 215.993 2.30449 216.705 2.30449C217.345 2.30449 217.865 2.37249 218.265 2.50849C218.673 2.64449 218.993 2.82049 219.225 3.03649C219.457 3.25249 219.617 3.49649 219.705 3.76849C219.801 4.04049 219.857 4.31649 219.873 4.59649H218.757C218.725 4.30849 218.649 4.08049 218.529 3.91249C218.417 3.73649 218.265 3.60449 218.073 3.51649C217.881 3.42849 217.653 3.37249 217.389 3.34849C217.125 3.31649 216.829 3.30049 216.501 3.30049C215.757 3.30049 215.221 3.39649 214.893 3.58849C214.573 3.78049 214.413 4.02849 214.413 4.33249C214.413 4.50049 214.489 4.63649 214.641 4.74049C214.801 4.83649 215.005 4.91649 215.253 4.98049C215.501 5.03649 215.773 5.08049 216.069 5.11249C216.365 5.14449 216.649 5.17649 216.921 5.20849C217.345 5.25649 217.741 5.31649 218.109 5.38849C218.485 5.46049 218.809 5.56449 219.081 5.70049C219.361 5.83649 219.581 6.01649 219.741 6.24049C219.909 6.46449 219.993 6.75249 219.993 7.10449ZM228.062 7.18849C227.942 7.53249 227.766 7.83649 227.534 8.10049C227.302 8.36449 227.022 8.58449 226.694 8.76049C226.374 8.93649 226.014 9.06849 225.614 9.15649C225.214 9.24449 224.794 9.28849 224.354 9.28849C223.778 9.28849 223.254 9.21649 222.782 9.07249C222.31 8.93649 221.902 8.72449 221.558 8.43649C221.222 8.14849 220.958 7.78449 220.766 7.34449C220.582 6.90449 220.486 6.38849 220.478 5.79649C220.478 5.20449 220.574 4.68849 220.766 4.24849C220.966 3.80049 221.238 3.43249 221.582 3.14449C221.934 2.84849 222.35 2.62849 222.83 2.48449C223.31 2.33249 223.834 2.25649 224.402 2.25649C225.058 2.25649 225.63 2.34849 226.118 2.53249C226.614 2.71649 227.018 2.98049 227.33 3.32449C227.65 3.66049 227.878 4.06849 228.014 4.54849C228.15 5.02849 228.186 5.56049 228.122 6.14449H221.642C221.73 6.87249 222.006 7.41249 222.47 7.76449C222.942 8.11649 223.57 8.29249 224.354 8.29249C224.93 8.29249 225.438 8.20449 225.878 8.02849C226.318 7.84449 226.642 7.56049 226.85 7.17649L228.062 7.18849ZM224.426 3.25249C223.69 3.25249 223.074 3.41249 222.578 3.73249C222.09 4.04449 221.79 4.52849 221.678 5.18449H227.006C226.998 4.88049 226.922 4.60849 226.778 4.36849C226.642 4.12849 226.458 3.92849 226.226 3.76849C225.994 3.60049 225.722 3.47249 225.41 3.38449C225.098 3.29649 224.77 3.25249 224.426 3.25249ZM231.983 0.444488L230.471 4.17649H228.911L230.351 0.444488H231.983ZM235.019 0.444488L233.507 4.17649H231.947L233.387 0.444488H235.019Z" fill="white"/>
</svg>
