<svg width="23" height="23" viewBox="0 0 23 23" fill="none" xmlns="http://www.w3.org/2000/svg">
<g clip-path="url(#clip0_1:2181)">
<path d="M16.5752 0H6.15205C2.75975 0 0 2.75975 0 6.15205V16.5753C0 19.9675 2.75975 22.7272 6.15205 22.7272H16.5753C19.9675 22.7272 22.7272 19.9675 22.7272 16.5753V6.15205C22.7272 2.75975 19.9675 0 16.5752 0V0ZM21.3949 16.5753C21.3949 19.2328 19.2328 21.3949 16.5752 21.3949H6.15205C3.49443 21.3949 1.33237 19.2328 1.33237 16.5753V6.15205C1.33237 3.49443 3.49443 1.33237 6.15205 1.33237H16.5753C19.2328 1.33237 21.3949 3.49443 21.3949 6.15205V16.5753Z" fill="white"/>
<path d="M11.3637 5.14935C7.93708 5.14935 5.14941 7.93702 5.14941 11.3637C5.14941 14.7903 7.93708 17.578 11.3637 17.578C14.7903 17.578 17.578 14.7903 17.578 11.3637C17.578 7.93702 14.7903 5.14935 11.3637 5.14935ZM11.3637 16.2456C8.67193 16.2456 6.48178 14.0556 6.48178 11.3637C6.48178 8.67187 8.67193 6.48172 11.3637 6.48172C14.0557 6.48172 16.2457 8.67187 16.2457 11.3637C16.2457 14.0556 14.0557 16.2456 11.3637 16.2456Z" fill="white"/>
<path d="M17.7264 2.94235C16.7138 2.94235 15.8901 3.76615 15.8901 4.77861C15.8901 5.79123 16.7138 6.61503 17.7264 6.61503C18.739 6.61503 19.5628 5.79123 19.5628 4.77861C19.5628 3.76598 18.739 2.94235 17.7264 2.94235ZM17.7264 5.28249C17.4486 5.28249 17.2225 5.05638 17.2225 4.77861C17.2225 4.50065 17.4486 4.27472 17.7264 4.27472C18.0043 4.27472 18.2304 4.50065 18.2304 4.77861C18.2304 5.05638 18.0043 5.28249 17.7264 5.28249Z" fill="white"/>
</g>
<defs>
<clipPath id="clip0_1:2181">
<rect width="22.7273" height="22.7273" fill="white"/>
</clipPath>
</defs>
</svg>
