<svg width="20" height="20" viewBox="0 0 20 20" fill="none" xmlns="http://www.w3.org/2000/svg">
<path d="M18.5825 2.81293C17.6375 1.89015 16.3319 1.42896 14.665 1.42896C14.2037 1.42896 13.733 1.50894 13.2532 1.66882C12.7732 1.82882 12.3266 2.04468 11.9141 2.31624C11.501 2.58773 11.1459 2.84268 10.8481 3.08071C10.5506 3.31881 10.2678 3.57184 9.99998 3.83962C9.73205 3.57184 9.44931 3.31881 9.15178 3.08071C8.85407 2.84268 8.49889 2.58789 8.08585 2.31624C7.67289 2.04456 7.22644 1.82886 6.74656 1.66882C6.26671 1.50897 5.79602 1.42896 5.33475 1.42896C3.66802 1.42896 2.36231 1.89027 1.4174 2.81293C0.472493 3.73552 0 5.0152 0 6.6521C0 7.15062 0.0875638 7.66412 0.26234 8.1922C0.437115 8.72048 0.636284 9.17069 0.859454 9.54264C1.08259 9.91455 1.33562 10.2774 1.61837 10.6308C1.90111 10.9843 2.10775 11.2277 2.2378 11.3618C2.36798 11.4955 2.47032 11.5924 2.54471 11.6518L9.50888 18.3706C9.64285 18.5046 9.80652 18.5717 9.99994 18.5717C10.1934 18.5717 10.3572 18.5046 10.491 18.3709L17.4442 11.6743C19.1481 9.97061 19.9999 8.29646 19.9999 6.6521C20 5.0152 19.5274 3.73552 18.5825 2.81293Z" fill="white"/>
</svg>
