<svg width="16" height="18" viewBox="0 0 16 18" fill="none" xmlns="http://www.w3.org/2000/svg">
<path d="M8 17.4545C7.77222 17.4545 7.55261 17.3534 7.38147 17.1696C6.73511 16.4765 6.11194 15.8253 5.56213 15.2508L5.55933 15.2478C3.94739 13.5635 2.55542 12.1089 1.58691 10.676C0.504272 9.07408 0 7.55527 0 5.89607C0 4.28401 0.450806 2.79678 1.26929 1.70815C2.09753 0.606655 3.23401 0 4.46973 0C5.39331 0 6.23914 0.358036 6.98364 1.06408C7.35938 1.42047 7.69995 1.85664 8 2.3654C8.30017 1.85664 8.64062 1.42047 9.01648 1.06408C9.76099 0.358036 10.6068 0 11.5304 0C12.766 0 13.9026 0.606655 14.7308 1.70815C15.5493 2.79678 16 4.28401 16 5.89607C16 7.55527 15.4958 9.07408 14.4132 10.6758C13.4447 12.1089 12.0529 13.5633 10.4412 15.2475C9.89038 15.8229 9.26624 16.4752 8.61841 17.1699C8.44739 17.3534 8.22766 17.4545 8 17.4545ZM4.46973 1.14925C3.4989 1.14925 2.60706 1.62433 1.95825 2.48709C1.2998 3.36287 0.937134 4.57349 0.937134 5.89607C0.937134 7.29154 1.36011 8.53957 2.30847 9.94268C3.2251 11.2989 4.5885 12.7236 6.16711 14.3732L6.17004 14.3762C6.72192 14.9529 7.34753 15.6067 7.99866 16.3048C8.65369 15.6054 9.28027 14.9505 9.83325 14.3729C11.4117 12.7233 12.775 11.2989 13.6917 9.94268C14.6399 8.53957 15.0629 7.29154 15.0629 5.89607C15.0629 4.57349 14.7002 3.36287 14.0417 2.48709C13.3931 1.62433 12.5011 1.14925 11.5304 1.14925C10.8192 1.14925 10.1663 1.42646 9.58972 1.97309C9.07593 2.46045 8.71802 3.07653 8.50818 3.50761C8.40027 3.72929 8.21033 3.86161 8 3.86161C7.78967 3.86161 7.59973 3.72929 7.49182 3.50761C7.2821 3.07653 6.92419 2.46045 6.41028 1.97309C5.83374 1.42646 5.18079 1.14925 4.46973 1.14925Z" fill="white"/>
</svg>
