<svg width="17" height="17" viewBox="0 0 17 17" fill="none" xmlns="http://www.w3.org/2000/svg">
<g clip-path="url(#clip0_1:115)">
<path d="M1.26866 8.73821C1.27664 8.75122 1.28629 8.76297 1.29636 8.77304L7.97667 15.8713C8.02493 15.9225 8.0904 15.9519 8.16301 15.954H8.16804C8.23645 15.954 8.30108 15.928 8.3506 15.8802L15.6453 8.82634C15.6487 8.82382 15.6772 8.7978 15.6944 8.78101C15.7087 8.76759 15.7204 8.75374 15.7229 8.74702C16.5463 7.89425 17 6.77373 17 5.59236C17 3.08525 14.9604 1.04565 12.4529 1.04565C10.812 1.04565 9.30619 1.92444 8.5 3.34545C7.69423 1.92402 6.18846 1.04565 4.54713 1.04565C2.0396 1.04565 2.91447e-07 3.08525 2.91447e-07 5.59236C-0.000419379 6.77331 0.452405 7.89299 1.26866 8.73821ZM4.54671 1.57066C6.17293 1.57066 7.6296 2.54094 8.25743 4.04294C8.29856 4.14072 8.3934 4.20367 8.49958 4.20367C8.60534 4.20367 8.7006 4.14072 8.74173 4.04252C9.36998 2.54094 10.8267 1.57066 12.4529 1.57066C14.6708 1.57066 16.4754 3.37524 16.4754 5.59278C16.4754 6.65077 16.065 7.65084 15.3196 8.40961C15.3125 8.41716 15.3062 8.4243 15.3008 8.43185L8.17643 15.3178L1.71351 8.45283C1.70386 8.43731 1.69253 8.42262 1.6791 8.40919C0.934186 7.65168 0.524168 6.65161 0.524168 5.59278C0.524168 3.37482 2.32875 1.57066 4.54671 1.57066Z" fill="white"/>
</g>
<defs>
<clipPath id="clip0_1:115">
<rect width="17" height="17" fill="white"/>
</clipPath>
</defs>
</svg>
