<svg width="168" height="18" viewBox="0 0 168 18" fill="none" xmlns="http://www.w3.org/2000/svg">
<path d="M18.86 11.871C18.4153 13.803 17.434 15.229 15.916 16.149C14.398 17.0537 12.4507 17.506 10.074 17.506C8.63267 17.506 7.34467 17.3143 6.21 16.931C5.07533 16.5477 4.117 16.0033 3.335 15.298C2.553 14.5773 1.955 13.7033 1.541 12.676C1.127 11.6487 0.92 10.491 0.92 9.203V8.789C0.92 7.455 1.127 6.26667 1.541 5.224C1.955 4.18133 2.553 3.30733 3.335 2.602C4.117 1.88133 5.07533 1.337 6.21 0.968999C7.34467 0.585666 8.63267 0.393999 10.074 0.393999C11.3007 0.393999 12.4123 0.516665 13.409 0.761999C14.421 1.00733 15.295 1.383 16.031 1.889C16.7823 2.37967 17.3957 3.00067 17.871 3.752C18.3463 4.50333 18.6607 5.385 18.814 6.397H16.33C16.1767 5.799 15.916 5.25467 15.548 4.764C15.1953 4.258 14.7507 3.82867 14.214 3.476C13.6927 3.108 13.0793 2.832 12.374 2.648C11.684 2.44867 10.9173 2.349 10.074 2.349C8.95467 2.349 7.97333 2.51767 7.13 2.855C6.28667 3.177 5.58133 3.62933 5.014 4.212C4.44667 4.79467 4.01733 5.5 3.726 6.328C3.45 7.14067 3.312 8.03767 3.312 9.019C3.312 9.95433 3.45 10.8207 3.726 11.618C4.01733 12.4153 4.44667 13.1053 5.014 13.688C5.58133 14.2707 6.28667 14.7307 7.13 15.068C7.97333 15.39 8.95467 15.551 10.074 15.551C11.776 15.551 13.179 15.229 14.283 14.585C15.4023 13.9257 16.1153 13.021 16.422 11.871H18.86ZM24.0201 0.876999V17H21.8581V0.899999L24.0201 0.876999ZM41.4866 10.882C41.4713 12.0013 41.2796 12.9827 40.9116 13.826C40.5589 14.654 40.0529 15.344 39.3936 15.896C38.7496 16.448 37.9753 16.862 37.0706 17.138C36.1813 17.414 35.1923 17.552 34.1036 17.552C32.9996 17.552 32.0029 17.414 31.1136 17.138C30.2243 16.8773 29.4576 16.471 28.8136 15.919C28.1849 15.367 27.6943 14.6693 27.3416 13.826C26.9889 12.9827 26.8049 11.9937 26.7896 10.859C26.7896 9.72433 26.9659 8.73533 27.3186 7.892C27.6713 7.03333 28.1619 6.328 28.7906 5.776C29.4346 5.20867 30.2013 4.787 31.0906 4.511C31.9953 4.21967 32.9919 4.074 34.0806 4.074C35.1846 4.074 36.1889 4.212 37.0936 4.488C37.9983 4.764 38.7726 5.18567 39.4166 5.753C40.0759 6.305 40.5819 7.01033 40.9346 7.869C41.3026 8.72767 41.4866 9.732 41.4866 10.882ZM28.9746 10.813C29.0053 12.469 29.4576 13.688 30.3316 14.47C31.2209 15.2367 32.4783 15.62 34.1036 15.62C35.7289 15.62 36.9939 15.2367 37.8986 14.47C38.8033 13.7033 39.2709 12.4843 39.3016 10.813C39.2709 9.14167 38.7956 7.92267 37.8756 7.156C36.9556 6.374 35.6829 5.983 34.0576 5.983C32.4323 5.983 31.1826 6.374 30.3086 7.156C29.4499 7.92267 29.0053 9.14167 28.9746 10.813ZM56.2341 13.366C56.2341 13.8873 56.1498 14.3933 55.9811 14.884C55.8124 15.3747 55.4904 15.8117 55.0151 16.195C54.5551 16.563 53.8958 16.862 53.0371 17.092C52.1938 17.322 51.0898 17.437 49.7251 17.437C48.4984 17.437 47.4711 17.3143 46.6431 17.069C45.8151 16.839 45.1404 16.5247 44.6191 16.126C44.1131 15.712 43.7451 15.2443 43.5151 14.723C43.2851 14.1863 43.1548 13.6267 43.1241 13.044H45.2631C45.3091 13.6267 45.4854 14.0867 45.7921 14.424C46.0988 14.746 46.4821 14.9913 46.9421 15.16C47.4174 15.3133 47.9388 15.413 48.5061 15.459C49.0734 15.4897 49.6484 15.505 50.2311 15.505C51.5191 15.505 52.4774 15.3287 53.1061 14.976C53.7348 14.608 54.0491 14.1327 54.0491 13.55C54.0491 13.1667 53.9111 12.86 53.6351 12.63C53.3591 12.3847 52.9911 12.193 52.5311 12.055C52.0864 11.917 51.5651 11.8097 50.9671 11.733C50.3844 11.641 49.7788 11.5643 49.1501 11.503C48.3528 11.411 47.6014 11.3037 46.8961 11.181C46.1908 11.0583 45.5774 10.882 45.0561 10.652C44.5348 10.422 44.1208 10.1153 43.8141 9.732C43.5074 9.34867 43.3541 8.85033 43.3541 8.237C43.3541 7.71567 43.4384 7.20967 43.6071 6.719C43.7911 6.22833 44.1208 5.799 44.5961 5.431C45.0868 5.04767 45.7538 4.741 46.5971 4.511C47.4558 4.281 48.5674 4.166 49.9321 4.166C51.1588 4.166 52.1554 4.29633 52.9221 4.557C53.7041 4.81767 54.3174 5.155 54.7621 5.569C55.2068 5.983 55.5134 6.45067 55.6821 6.972C55.8661 7.49333 55.9734 8.02233 56.0041 8.559H53.8651C53.8038 8.007 53.6581 7.57 53.4281 7.248C53.2134 6.91067 52.9221 6.65767 52.5541 6.489C52.1861 6.32033 51.7491 6.213 51.2431 6.167C50.7371 6.10567 50.1698 6.075 49.5411 6.075C48.1151 6.075 47.0878 6.259 46.4591 6.627C45.8458 6.995 45.5391 7.47033 45.5391 8.053C45.5391 8.375 45.6848 8.63567 45.9761 8.835C46.2828 9.019 46.6738 9.17233 47.1491 9.295C47.6244 9.40233 48.1458 9.48667 48.7131 9.548C49.2804 9.60933 49.8248 9.67067 50.3461 9.732C51.1588 9.824 51.9178 9.939 52.6231 10.077C53.3438 10.215 53.9648 10.4143 54.4861 10.675C55.0228 10.9357 55.4444 11.2807 55.7511 11.71C56.0731 12.1393 56.2341 12.6913 56.2341 13.366ZM72.6191 13.527C72.3891 14.1863 72.0518 14.769 71.6071 15.275C71.1624 15.781 70.6258 16.2027 69.9971 16.54C69.3838 16.8773 68.6938 17.1303 67.9271 17.299C67.1604 17.4677 66.3554 17.552 65.5121 17.552C64.4081 17.552 63.4038 17.414 62.4991 17.138C61.5944 16.8773 60.8124 16.471 60.1531 15.919C59.5091 15.367 59.0031 14.6693 58.6351 13.826C58.2824 12.9827 58.0984 11.9937 58.0831 10.859C58.0831 9.72433 58.2671 8.73533 58.6351 7.892C59.0184 7.03333 59.5398 6.328 60.1991 5.776C60.8738 5.20867 61.6711 4.787 62.5911 4.511C63.5111 4.21967 64.5154 4.074 65.6041 4.074C66.8614 4.074 67.9578 4.25033 68.8931 4.603C69.8438 4.95567 70.6181 5.46167 71.2161 6.121C71.8294 6.765 72.2664 7.547 72.5271 8.467C72.7878 9.387 72.8568 10.4067 72.7341 11.526H60.3141C60.4828 12.9213 61.0118 13.9563 61.9011 14.631C62.8058 15.3057 64.0094 15.643 65.5121 15.643C66.6161 15.643 67.5898 15.4743 68.4331 15.137C69.2764 14.7843 69.8974 14.24 70.2961 13.504L72.6191 13.527ZM65.6501 5.983C64.2394 5.983 63.0588 6.28967 62.1081 6.903C61.1728 7.501 60.5978 8.42867 60.3831 9.686H70.5951C70.5798 9.10333 70.4341 8.582 70.1581 8.122C69.8974 7.662 69.5448 7.27867 69.1001 6.972C68.6554 6.65 68.1341 6.40467 67.5361 6.236C66.9381 6.06733 66.3094 5.983 65.6501 5.983ZM88.6316 9.295V17H86.3776V0.899999H88.6316V7.271H100.638V0.899999H102.892V17H100.638V9.295H88.6316ZM119.898 10.882C119.882 12.0013 119.691 12.9827 119.323 13.826C118.97 14.654 118.464 15.344 117.805 15.896C117.161 16.448 116.386 16.862 115.482 17.138C114.592 17.414 113.603 17.552 112.515 17.552C111.411 17.552 110.414 17.414 109.525 17.138C108.635 16.8773 107.869 16.471 107.225 15.919C106.596 15.367 106.105 14.6693 105.753 13.826C105.4 12.9827 105.216 11.9937 105.201 10.859C105.201 9.72433 105.377 8.73533 105.73 7.892C106.082 7.03333 106.573 6.328 107.202 5.776C107.846 5.20867 108.612 4.787 109.502 4.511C110.406 4.21967 111.403 4.074 112.492 4.074C113.596 4.074 114.6 4.212 115.505 4.488C116.409 4.764 117.184 5.18567 117.828 5.753C118.487 6.305 118.993 7.01033 119.346 7.869C119.714 8.72767 119.898 9.732 119.898 10.882ZM107.386 10.813C107.416 12.469 107.869 13.688 108.743 14.47C109.632 15.2367 110.889 15.62 112.515 15.62C114.14 15.62 115.405 15.2367 116.31 14.47C117.214 13.7033 117.682 12.4843 117.713 10.813C117.682 9.14167 117.207 7.92267 116.287 7.156C115.367 6.374 114.094 5.983 112.469 5.983C110.843 5.983 109.594 6.374 108.72 7.156C107.861 7.92267 107.416 9.14167 107.386 10.813ZM132.989 15.551C132.345 16.287 131.548 16.816 130.597 17.138C129.647 17.46 128.573 17.621 127.377 17.621C126.503 17.621 125.706 17.506 124.985 17.276C124.265 17.0613 123.644 16.724 123.122 16.264C122.616 15.804 122.225 15.229 121.949 14.539C121.673 13.849 121.535 13.044 121.535 12.124V4.81H123.674V11.411C123.674 11.7943 123.69 12.239 123.72 12.745C123.766 13.2357 123.904 13.6957 124.134 14.125C124.38 14.5543 124.755 14.9223 125.261 15.229C125.783 15.5203 126.519 15.666 127.469 15.666C128.236 15.666 128.941 15.5893 129.585 15.436C130.229 15.2673 130.781 14.9837 131.241 14.585C131.717 14.1863 132.085 13.642 132.345 12.952C132.621 12.2467 132.767 11.3497 132.782 10.261V4.81H134.898V17H132.782L132.989 15.551ZM150.548 13.366C150.548 13.8873 150.463 14.3933 150.295 14.884C150.126 15.3747 149.804 15.8117 149.329 16.195C148.869 16.563 148.209 16.862 147.351 17.092C146.507 17.322 145.403 17.437 144.039 17.437C142.812 17.437 141.785 17.3143 140.957 17.069C140.129 16.839 139.454 16.5247 138.933 16.126C138.427 15.712 138.059 15.2443 137.829 14.723C137.599 14.1863 137.468 13.6267 137.438 13.044H139.577C139.623 13.6267 139.799 14.0867 140.106 14.424C140.412 14.746 140.796 14.9913 141.256 15.16C141.731 15.3133 142.252 15.413 142.82 15.459C143.387 15.4897 143.962 15.505 144.545 15.505C145.833 15.505 146.791 15.3287 147.42 14.976C148.048 14.608 148.363 14.1327 148.363 13.55C148.363 13.1667 148.225 12.86 147.949 12.63C147.673 12.3847 147.305 12.193 146.845 12.055C146.4 11.917 145.879 11.8097 145.281 11.733C144.698 11.641 144.092 11.5643 143.464 11.503C142.666 11.411 141.915 11.3037 141.21 11.181C140.504 11.0583 139.891 10.882 139.37 10.652C138.848 10.422 138.434 10.1153 138.128 9.732C137.821 9.34867 137.668 8.85033 137.668 8.237C137.668 7.71567 137.752 7.20967 137.921 6.719C138.105 6.22833 138.434 5.799 138.91 5.431C139.4 5.04767 140.067 4.741 140.911 4.511C141.769 4.281 142.881 4.166 144.246 4.166C145.472 4.166 146.469 4.29633 147.236 4.557C148.018 4.81767 148.631 5.155 149.076 5.569C149.52 5.983 149.827 6.45067 149.996 6.972C150.18 7.49333 150.287 8.02233 150.318 8.559H148.179C148.117 8.007 147.972 7.57 147.742 7.248C147.527 6.91067 147.236 6.65767 146.868 6.489C146.5 6.32033 146.063 6.213 145.557 6.167C145.051 6.10567 144.483 6.075 143.855 6.075C142.429 6.075 141.401 6.259 140.773 6.627C140.159 6.995 139.853 7.47033 139.853 8.053C139.853 8.375 139.998 8.63567 140.29 8.835C140.596 9.019 140.987 9.17233 141.463 9.295C141.938 9.40233 142.459 9.48667 143.027 9.548C143.594 9.60933 144.138 9.67067 144.66 9.732C145.472 9.824 146.231 9.939 146.937 10.077C147.657 10.215 148.278 10.4143 148.8 10.675C149.336 10.9357 149.758 11.2807 150.065 11.71C150.387 12.1393 150.548 12.6913 150.548 13.366ZM166.933 13.527C166.703 14.1863 166.365 14.769 165.921 15.275C165.476 15.781 164.939 16.2027 164.311 16.54C163.697 16.8773 163.007 17.1303 162.241 17.299C161.474 17.4677 160.669 17.552 159.826 17.552C158.722 17.552 157.717 17.414 156.813 17.138C155.908 16.8773 155.126 16.471 154.467 15.919C153.823 15.367 153.317 14.6693 152.949 13.826C152.596 12.9827 152.412 11.9937 152.397 10.859C152.397 9.72433 152.581 8.73533 152.949 7.892C153.332 7.03333 153.853 6.328 154.513 5.776C155.187 5.20867 155.985 4.787 156.905 4.511C157.825 4.21967 158.829 4.074 159.918 4.074C161.175 4.074 162.271 4.25033 163.207 4.603C164.157 4.95567 164.932 5.46167 165.53 6.121C166.143 6.765 166.58 7.547 166.841 8.467C167.101 9.387 167.17 10.4067 167.048 11.526H154.628C154.796 12.9213 155.325 13.9563 156.215 14.631C157.119 15.3057 158.323 15.643 159.826 15.643C160.93 15.643 161.903 15.4743 162.747 15.137C163.59 14.7843 164.211 14.24 164.61 13.504L166.933 13.527ZM159.964 5.983C158.553 5.983 157.372 6.28967 156.422 6.903C155.486 7.501 154.911 8.42867 154.697 9.686H164.909C164.893 9.10333 164.748 8.582 164.472 8.122C164.211 7.662 163.858 7.27867 163.414 6.972C162.969 6.65 162.448 6.40467 161.85 6.236C161.252 6.06733 160.623 5.983 159.964 5.983Z" fill="white"/>
</svg>
