<svg width="16" height="16" viewBox="0 0 16 16" fill="none" xmlns="http://www.w3.org/2000/svg">
<path d="M15.8045 14.862L11.2545 10.312C12.1359 9.22334 12.6665 7.84 12.6665 6.33334C12.6665 2.84134 9.8252 0 6.33324 0C2.84128 0 0 2.84131 0 6.33331C0 9.82531 2.84131 12.6667 6.33327 12.6667C7.83991 12.6667 9.22324 12.136 10.3119 11.2547L14.8618 15.8047C14.9918 15.9347 15.1625 16 15.3332 16C15.5039 16 15.6745 15.9347 15.8045 15.8047C16.0652 15.544 16.0652 15.1227 15.8045 14.862ZM6.31579 11.7895C3.55848 11.7895 0.842105 9.07313 0.842105 6.31579C0.842105 3.55845 3.55848 0.842105 6.31579 0.842105C9.0731 0.842105 11.7895 3.55845 11.7895 6.31579C11.7895 9.07313 9.07307 11.7895 6.31579 11.7895Z" fill="white"/>
</svg>
