<svg width="16" height="18" viewBox="0 0 16 18" fill="none" xmlns="http://www.w3.org/2000/svg">
<path d="M15.8045 16.2131L11.2545 11.2495C12.1359 10.0618 12.6665 8.55273 12.6665 6.9091C12.6665 3.09965 9.8252 0 6.33324 0C2.84128 0 0 3.09961 0 6.90907C0 10.7185 2.84131 13.8182 6.33327 13.8182C7.83991 13.8182 9.22324 13.2393 10.3119 12.2778L14.8618 17.2414C14.9918 17.3833 15.1625 17.4545 15.3332 17.4545C15.5039 17.4545 15.6745 17.3833 15.8045 17.2414C16.0652 16.9571 16.0652 16.4974 15.8045 16.2131ZM6.31579 12.8612C3.55848 12.8612 0.842105 9.89796 0.842105 6.88995C0.842105 3.88194 3.55848 0.91866 6.31579 0.91866C9.0731 0.91866 11.7895 3.88194 11.7895 6.88995C11.7895 9.89796 9.07307 12.8612 6.31579 12.8612Z" fill="white"/>
</svg>
