<svg width="19" height="19" viewBox="0 0 19 19" fill="none" xmlns="http://www.w3.org/2000/svg">
<g clip-path="url(#clip0_1:103)">
<path d="M14.9186 16.8299H4.08067C3.94052 16.8299 3.8268 16.7164 3.8268 16.576V8.19423L3.00631 9.01472C2.91109 9.10994 2.74253 9.10994 2.64735 9.01472L0.0741999 6.44182C-0.0250588 6.34256 -0.0250588 6.18212 0.0741999 6.08286L3.87683 2.28023C3.92304 2.21475 3.99741 2.17029 4.08092 2.17029H6.66501C6.80516 2.17029 6.91888 2.28401 6.91888 2.42416C6.91888 3.84731 8.07676 5.00518 9.49991 5.00518C10.9231 5.00518 12.0809 3.84731 12.0809 2.42416C12.0809 2.28401 12.1944 2.17029 12.3348 2.17029H14.9189C15.0115 2.17029 15.0928 2.22007 15.137 2.29418L18.9254 6.08286C18.9731 6.1306 18.9998 6.19506 18.9998 6.26236C18.9998 6.32967 18.9731 6.39438 18.9254 6.44186L16.352 9.01476C16.2527 9.11402 16.0923 9.11402 15.993 9.01476L15.1725 8.19427V16.5761C15.1725 16.7164 15.0587 16.8299 14.9186 16.8299ZM4.33454 16.3222H14.6645V7.5814C14.6645 7.47883 14.7262 7.38616 14.8212 7.34685C14.9161 7.3075 15.0253 7.32932 15.0979 7.40195L16.1722 8.47631L18.3864 6.26236L14.8026 2.67803H12.578C12.4485 4.26315 11.1173 5.51292 9.49965 5.51292C7.88203 5.51292 6.55078 4.26289 6.42131 2.67803H4.19695L0.612656 6.26232L2.82685 8.47652L3.90117 7.40195C3.97379 7.32932 4.08267 7.30775 4.17789 7.34685C4.27285 7.3862 4.33454 7.47887 4.33454 7.5814V16.3222Z" fill="white"/>
</g>
<defs>
<clipPath id="clip0_1:103">
<rect width="19" height="19" fill="white"/>
</clipPath>
</defs>
</svg>
